%TF.GenerationSoftware,KiCad,Pcbnew,(6.0.2-0)*%
%TF.CreationDate,2022-10-30T17:20:58+00:00*%
%TF.ProjectId,p3-cellular-module,70332d63-656c-46c7-956c-61722d6d6f64,rev?*%
%TF.SameCoordinates,Original*%
%TF.FileFunction,Soldermask,Top*%
%TF.FilePolarity,Negative*%
%FSLAX46Y46*%
G04 Gerber Fmt 4.6, Leading zero omitted, Abs format (unit mm)*
G04 Created by KiCad (PCBNEW (6.0.2-0)) date 2022-10-30 17:20:58*
%MOMM*%
%LPD*%
G01*
G04 APERTURE LIST*
G04 Aperture macros list*
%AMRoundRect*
0 Rectangle with rounded corners*
0 $1 Rounding radius*
0 $2 $3 $4 $5 $6 $7 $8 $9 X,Y pos of 4 corners*
0 Add a 4 corners polygon primitive as box body*
4,1,4,$2,$3,$4,$5,$6,$7,$8,$9,$2,$3,0*
0 Add four circle primitives for the rounded corners*
1,1,$1+$1,$2,$3*
1,1,$1+$1,$4,$5*
1,1,$1+$1,$6,$7*
1,1,$1+$1,$8,$9*
0 Add four rect primitives between the rounded corners*
20,1,$1+$1,$2,$3,$4,$5,0*
20,1,$1+$1,$4,$5,$6,$7,0*
20,1,$1+$1,$6,$7,$8,$9,0*
20,1,$1+$1,$8,$9,$2,$3,0*%
G04 Aperture macros list end*
%ADD10C,0.000000*%
%ADD11C,0.120000*%
%ADD12C,0.500000*%
%ADD13RoundRect,0.200000X0.200000X0.275000X-0.200000X0.275000X-0.200000X-0.275000X0.200000X-0.275000X0*%
%ADD14RoundRect,0.200000X-0.275000X0.200000X-0.275000X-0.200000X0.275000X-0.200000X0.275000X0.200000X0*%
%ADD15R,1.200000X0.900000*%
%ADD16R,1.800000X1.300000*%
%ADD17C,3.800000*%
%ADD18R,1.000000X1.000000*%
%ADD19RoundRect,0.225000X0.250000X-0.225000X0.250000X0.225000X-0.250000X0.225000X-0.250000X-0.225000X0*%
%ADD20RoundRect,0.225000X-0.225000X-0.250000X0.225000X-0.250000X0.225000X0.250000X-0.225000X0.250000X0*%
%ADD21RoundRect,0.150000X-0.150000X0.512500X-0.150000X-0.512500X0.150000X-0.512500X0.150000X0.512500X0*%
%ADD22RoundRect,0.200000X-0.200000X-0.275000X0.200000X-0.275000X0.200000X0.275000X-0.200000X0.275000X0*%
%ADD23R,1.350000X1.350000*%
%ADD24O,1.350000X1.350000*%
%ADD25RoundRect,0.150000X-0.150000X0.587500X-0.150000X-0.587500X0.150000X-0.587500X0.150000X0.587500X0*%
G04 APERTURE END LIST*
G36*
X141100000Y-96050000D02*
G01*
X124800000Y-96050000D01*
X124800000Y-98700000D01*
X141100000Y-98700000D01*
X141100000Y-96050000D01*
G37*
G36*
X141100000Y-101300000D02*
G01*
X136500000Y-101300000D01*
X136500000Y-103900000D01*
X141100000Y-103900000D01*
X141100000Y-101300000D01*
G37*
G36*
X153700000Y-101300000D02*
G01*
X146500000Y-101300000D01*
X146500000Y-103900000D01*
X153700000Y-103900000D01*
X153700000Y-101300000D01*
G37*
G36*
X166000000Y-109500000D02*
G01*
X164100000Y-109500000D01*
X164100000Y-100800000D01*
X166000000Y-100800000D01*
X166000000Y-109500000D01*
G37*
D10*
G36*
X143700000Y-102600000D02*
G01*
X142700000Y-102600000D01*
X142700000Y-103900000D01*
X141900000Y-103900000D01*
X141900000Y-101300000D01*
X143700000Y-101300000D01*
X143700000Y-102600000D01*
G37*
G36*
X163600000Y-101300000D02*
G01*
X156400000Y-101300000D01*
X156400000Y-103900000D01*
X163600000Y-103900000D01*
X163600000Y-101300000D01*
G37*
G36*
X133700000Y-101325000D02*
G01*
X126500000Y-101325000D01*
X126500000Y-103900000D01*
X133700000Y-103900000D01*
X133700000Y-101325000D01*
G37*
G36*
X126000000Y-109625000D02*
G01*
X124000000Y-109625000D01*
X124000000Y-100425000D01*
X126000000Y-100425000D01*
X126000000Y-109625000D01*
G37*
G36*
X164800000Y-96050000D02*
G01*
X141900000Y-96050000D01*
X141900000Y-98700000D01*
X164800000Y-98700000D01*
X164800000Y-96050000D01*
G37*
D11*
%TO.C,U2*%
X154144000Y-127839500D02*
X152239000Y-127839500D01*
X152239000Y-127839500D02*
X152239000Y-130760500D01*
X152239000Y-130760500D02*
X154144000Y-130760500D01*
X154144000Y-130760500D02*
X154144000Y-127839500D01*
G36*
X154144000Y-127839500D02*
G01*
X152239000Y-127839500D01*
X152239000Y-130760500D01*
X154144000Y-130760500D01*
X154144000Y-127839500D01*
G37*
X144365000Y-137491500D02*
X142460000Y-137491500D01*
X142460000Y-137491500D02*
X142460000Y-140412500D01*
X142460000Y-140412500D02*
X144365000Y-140412500D01*
X144365000Y-140412500D02*
X144365000Y-137491500D01*
G36*
X144365000Y-137491500D02*
G01*
X142460000Y-137491500D01*
X142460000Y-140412500D01*
X144365000Y-140412500D01*
X144365000Y-137491500D01*
G37*
X137761000Y-118187500D02*
X135856000Y-118187500D01*
X135856000Y-118187500D02*
X135856000Y-121108500D01*
X135856000Y-121108500D02*
X137761000Y-121108500D01*
X137761000Y-121108500D02*
X137761000Y-118187500D01*
G36*
X137761000Y-118187500D02*
G01*
X135856000Y-118187500D01*
X135856000Y-121108500D01*
X137761000Y-121108500D01*
X137761000Y-118187500D01*
G37*
X137761000Y-127839500D02*
X135856000Y-127839500D01*
X135856000Y-127839500D02*
X135856000Y-130760500D01*
X135856000Y-130760500D02*
X137761000Y-130760500D01*
X137761000Y-130760500D02*
X137761000Y-127839500D01*
G36*
X137761000Y-127839500D02*
G01*
X135856000Y-127839500D01*
X135856000Y-130760500D01*
X137761000Y-130760500D01*
X137761000Y-127839500D01*
G37*
X144365000Y-123013500D02*
X142460000Y-123013500D01*
X142460000Y-123013500D02*
X142460000Y-125934500D01*
X142460000Y-125934500D02*
X144365000Y-125934500D01*
X144365000Y-125934500D02*
X144365000Y-123013500D01*
G36*
X144365000Y-123013500D02*
G01*
X142460000Y-123013500D01*
X142460000Y-125934500D01*
X144365000Y-125934500D01*
X144365000Y-123013500D01*
G37*
X144365000Y-118187500D02*
X142460000Y-118187500D01*
X142460000Y-118187500D02*
X142460000Y-121108500D01*
X142460000Y-121108500D02*
X144365000Y-121108500D01*
X144365000Y-121108500D02*
X144365000Y-118187500D01*
G36*
X144365000Y-118187500D02*
G01*
X142460000Y-118187500D01*
X142460000Y-121108500D01*
X144365000Y-121108500D01*
X144365000Y-118187500D01*
G37*
X147540000Y-118187500D02*
X145635000Y-118187500D01*
X145635000Y-118187500D02*
X145635000Y-121108500D01*
X145635000Y-121108500D02*
X147540000Y-121108500D01*
X147540000Y-121108500D02*
X147540000Y-118187500D01*
G36*
X147540000Y-118187500D02*
G01*
X145635000Y-118187500D01*
X145635000Y-121108500D01*
X147540000Y-121108500D01*
X147540000Y-118187500D01*
G37*
X140936000Y-118187500D02*
X139031000Y-118187500D01*
X139031000Y-118187500D02*
X139031000Y-121108500D01*
X139031000Y-121108500D02*
X140936000Y-121108500D01*
X140936000Y-121108500D02*
X140936000Y-118187500D01*
G36*
X140936000Y-118187500D02*
G01*
X139031000Y-118187500D01*
X139031000Y-121108500D01*
X140936000Y-121108500D01*
X140936000Y-118187500D01*
G37*
X150969000Y-137491500D02*
X149064000Y-137491500D01*
X149064000Y-137491500D02*
X149064000Y-140412500D01*
X149064000Y-140412500D02*
X150969000Y-140412500D01*
X150969000Y-140412500D02*
X150969000Y-137491500D01*
G36*
X150969000Y-137491500D02*
G01*
X149064000Y-137491500D01*
X149064000Y-140412500D01*
X150969000Y-140412500D01*
X150969000Y-137491500D01*
G37*
X140936000Y-132665500D02*
X139031000Y-132665500D01*
X139031000Y-132665500D02*
X139031000Y-135586500D01*
X139031000Y-135586500D02*
X140936000Y-135586500D01*
X140936000Y-135586500D02*
X140936000Y-132665500D01*
G36*
X140936000Y-132665500D02*
G01*
X139031000Y-132665500D01*
X139031000Y-135586500D01*
X140936000Y-135586500D01*
X140936000Y-132665500D01*
G37*
X154144000Y-132665500D02*
X152239000Y-132665500D01*
X152239000Y-132665500D02*
X152239000Y-135586500D01*
X152239000Y-135586500D02*
X154144000Y-135586500D01*
X154144000Y-135586500D02*
X154144000Y-132665500D01*
G36*
X154144000Y-132665500D02*
G01*
X152239000Y-132665500D01*
X152239000Y-135586500D01*
X154144000Y-135586500D01*
X154144000Y-132665500D01*
G37*
X140936000Y-123013500D02*
X139031000Y-123013500D01*
X139031000Y-123013500D02*
X139031000Y-125934500D01*
X139031000Y-125934500D02*
X140936000Y-125934500D01*
X140936000Y-125934500D02*
X140936000Y-123013500D01*
G36*
X140936000Y-123013500D02*
G01*
X139031000Y-123013500D01*
X139031000Y-125934500D01*
X140936000Y-125934500D01*
X140936000Y-123013500D01*
G37*
X154144000Y-137491500D02*
X152239000Y-137491500D01*
X152239000Y-137491500D02*
X152239000Y-140412500D01*
X152239000Y-140412500D02*
X154144000Y-140412500D01*
X154144000Y-140412500D02*
X154144000Y-137491500D01*
G36*
X154144000Y-137491500D02*
G01*
X152239000Y-137491500D01*
X152239000Y-140412500D01*
X154144000Y-140412500D01*
X154144000Y-137491500D01*
G37*
X144365000Y-132665500D02*
X142460000Y-132665500D01*
X142460000Y-132665500D02*
X142460000Y-135586500D01*
X142460000Y-135586500D02*
X144365000Y-135586500D01*
X144365000Y-135586500D02*
X144365000Y-132665500D01*
G36*
X144365000Y-132665500D02*
G01*
X142460000Y-132665500D01*
X142460000Y-135586500D01*
X144365000Y-135586500D01*
X144365000Y-132665500D01*
G37*
X150969000Y-118187500D02*
X149064000Y-118187500D01*
X149064000Y-118187500D02*
X149064000Y-121108500D01*
X149064000Y-121108500D02*
X150969000Y-121108500D01*
X150969000Y-121108500D02*
X150969000Y-118187500D01*
G36*
X150969000Y-118187500D02*
G01*
X149064000Y-118187500D01*
X149064000Y-121108500D01*
X150969000Y-121108500D01*
X150969000Y-118187500D01*
G37*
X150969000Y-123013500D02*
X149064000Y-123013500D01*
X149064000Y-123013500D02*
X149064000Y-125934500D01*
X149064000Y-125934500D02*
X150969000Y-125934500D01*
X150969000Y-125934500D02*
X150969000Y-123013500D01*
G36*
X150969000Y-123013500D02*
G01*
X149064000Y-123013500D01*
X149064000Y-125934500D01*
X150969000Y-125934500D01*
X150969000Y-123013500D01*
G37*
X140936000Y-137491500D02*
X139031000Y-137491500D01*
X139031000Y-137491500D02*
X139031000Y-140412500D01*
X139031000Y-140412500D02*
X140936000Y-140412500D01*
X140936000Y-140412500D02*
X140936000Y-137491500D01*
G36*
X140936000Y-137491500D02*
G01*
X139031000Y-137491500D01*
X139031000Y-140412500D01*
X140936000Y-140412500D01*
X140936000Y-137491500D01*
G37*
X140936000Y-127839500D02*
X139031000Y-127839500D01*
X139031000Y-127839500D02*
X139031000Y-130760500D01*
X139031000Y-130760500D02*
X140936000Y-130760500D01*
X140936000Y-130760500D02*
X140936000Y-127839500D01*
G36*
X140936000Y-127839500D02*
G01*
X139031000Y-127839500D01*
X139031000Y-130760500D01*
X140936000Y-130760500D01*
X140936000Y-127839500D01*
G37*
X137761000Y-123013500D02*
X135856000Y-123013500D01*
X135856000Y-123013500D02*
X135856000Y-125934500D01*
X135856000Y-125934500D02*
X137761000Y-125934500D01*
X137761000Y-125934500D02*
X137761000Y-123013500D01*
G36*
X137761000Y-123013500D02*
G01*
X135856000Y-123013500D01*
X135856000Y-125934500D01*
X137761000Y-125934500D01*
X137761000Y-123013500D01*
G37*
X154144000Y-118187500D02*
X152239000Y-118187500D01*
X152239000Y-118187500D02*
X152239000Y-121108500D01*
X152239000Y-121108500D02*
X154144000Y-121108500D01*
X154144000Y-121108500D02*
X154144000Y-118187500D01*
G36*
X154144000Y-118187500D02*
G01*
X152239000Y-118187500D01*
X152239000Y-121108500D01*
X154144000Y-121108500D01*
X154144000Y-118187500D01*
G37*
X137761000Y-132665500D02*
X135856000Y-132665500D01*
X135856000Y-132665500D02*
X135856000Y-135586500D01*
X135856000Y-135586500D02*
X137761000Y-135586500D01*
X137761000Y-135586500D02*
X137761000Y-132665500D01*
G36*
X137761000Y-132665500D02*
G01*
X135856000Y-132665500D01*
X135856000Y-135586500D01*
X137761000Y-135586500D01*
X137761000Y-132665500D01*
G37*
X147540000Y-132665500D02*
X145635000Y-132665500D01*
X145635000Y-132665500D02*
X145635000Y-135586500D01*
X145635000Y-135586500D02*
X147540000Y-135586500D01*
X147540000Y-135586500D02*
X147540000Y-132665500D01*
G36*
X147540000Y-132665500D02*
G01*
X145635000Y-132665500D01*
X145635000Y-135586500D01*
X147540000Y-135586500D01*
X147540000Y-132665500D01*
G37*
X150969000Y-132665500D02*
X149064000Y-132665500D01*
X149064000Y-132665500D02*
X149064000Y-135586500D01*
X149064000Y-135586500D02*
X150969000Y-135586500D01*
X150969000Y-135586500D02*
X150969000Y-132665500D01*
G36*
X150969000Y-132665500D02*
G01*
X149064000Y-132665500D01*
X149064000Y-135586500D01*
X150969000Y-135586500D01*
X150969000Y-132665500D01*
G37*
X137761000Y-137491500D02*
X135856000Y-137491500D01*
X135856000Y-137491500D02*
X135856000Y-140412500D01*
X135856000Y-140412500D02*
X137761000Y-140412500D01*
X137761000Y-140412500D02*
X137761000Y-137491500D01*
G36*
X137761000Y-137491500D02*
G01*
X135856000Y-137491500D01*
X135856000Y-140412500D01*
X137761000Y-140412500D01*
X137761000Y-137491500D01*
G37*
X154144000Y-123013500D02*
X152239000Y-123013500D01*
X152239000Y-123013500D02*
X152239000Y-125934500D01*
X152239000Y-125934500D02*
X154144000Y-125934500D01*
X154144000Y-125934500D02*
X154144000Y-123013500D01*
G36*
X154144000Y-123013500D02*
G01*
X152239000Y-123013500D01*
X152239000Y-125934500D01*
X154144000Y-125934500D01*
X154144000Y-123013500D01*
G37*
X150969000Y-127839500D02*
X149064000Y-127839500D01*
X149064000Y-127839500D02*
X149064000Y-130760500D01*
X149064000Y-130760500D02*
X150969000Y-130760500D01*
X150969000Y-130760500D02*
X150969000Y-127839500D01*
G36*
X150969000Y-127839500D02*
G01*
X149064000Y-127839500D01*
X149064000Y-130760500D01*
X150969000Y-130760500D01*
X150969000Y-127839500D01*
G37*
X147540000Y-123013500D02*
X145635000Y-123013500D01*
X145635000Y-123013500D02*
X145635000Y-125934500D01*
X145635000Y-125934500D02*
X147540000Y-125934500D01*
X147540000Y-125934500D02*
X147540000Y-123013500D01*
G36*
X147540000Y-123013500D02*
G01*
X145635000Y-123013500D01*
X145635000Y-125934500D01*
X147540000Y-125934500D01*
X147540000Y-123013500D01*
G37*
X147540000Y-137491500D02*
X145635000Y-137491500D01*
X145635000Y-137491500D02*
X145635000Y-140412500D01*
X145635000Y-140412500D02*
X147540000Y-140412500D01*
X147540000Y-140412500D02*
X147540000Y-137491500D01*
G36*
X147540000Y-137491500D02*
G01*
X145635000Y-137491500D01*
X145635000Y-140412500D01*
X147540000Y-140412500D01*
X147540000Y-137491500D01*
G37*
%TD*%
D12*
%TO.C,REF\u002A\u002A*%
X159600000Y-99000000D03*
%TD*%
%TO.C,REF\u002A\u002A*%
X160600000Y-99000000D03*
%TD*%
%TO.C,REF\u002A\u002A*%
X160600000Y-100850000D03*
%TD*%
%TO.C,REF\u002A\u002A*%
X158600000Y-100850000D03*
%TD*%
%TO.C,REF\u002A\u002A*%
X157600000Y-100850000D03*
%TD*%
%TO.C,REF\u002A\u002A*%
X161600000Y-100850000D03*
%TD*%
%TO.C,REF\u002A\u002A*%
X159600000Y-100850000D03*
%TD*%
%TO.C,REF\u002A\u002A*%
X162600000Y-100850000D03*
%TD*%
%TO.C,REF\u002A\u002A*%
X161600000Y-99000000D03*
%TD*%
%TO.C,REF\u002A\u002A*%
X162600000Y-99000000D03*
%TD*%
%TO.C,REF\u002A\u002A*%
X157600000Y-99000000D03*
%TD*%
%TO.C,REF\u002A\u002A*%
X158600000Y-99000000D03*
%TD*%
%TO.C,REF\u002A\u002A*%
X149600000Y-99000000D03*
%TD*%
%TO.C,REF\u002A\u002A*%
X150600000Y-99000000D03*
%TD*%
%TO.C,REF\u002A\u002A*%
X150600000Y-100850000D03*
%TD*%
%TO.C,REF\u002A\u002A*%
X148600000Y-100850000D03*
%TD*%
%TO.C,REF\u002A\u002A*%
X147600000Y-100850000D03*
%TD*%
%TO.C,REF\u002A\u002A*%
X151600000Y-100850000D03*
%TD*%
%TO.C,REF\u002A\u002A*%
X149600000Y-100850000D03*
%TD*%
%TO.C,REF\u002A\u002A*%
X152600000Y-100850000D03*
%TD*%
%TO.C,REF\u002A\u002A*%
X151600000Y-99000000D03*
%TD*%
%TO.C,REF\u002A\u002A*%
X152600000Y-99000000D03*
%TD*%
%TO.C,REF\u002A\u002A*%
X147600000Y-99000000D03*
%TD*%
%TO.C,REF\u002A\u002A*%
X148600000Y-99000000D03*
%TD*%
%TO.C,REF\u002A\u002A*%
X139600000Y-99000000D03*
%TD*%
%TO.C,REF\u002A\u002A*%
X140600000Y-99000000D03*
%TD*%
%TO.C,REF\u002A\u002A*%
X140600000Y-100850000D03*
%TD*%
%TO.C,REF\u002A\u002A*%
X138600000Y-100850000D03*
%TD*%
%TO.C,REF\u002A\u002A*%
X137600000Y-100850000D03*
%TD*%
%TO.C,REF\u002A\u002A*%
X141600000Y-100850000D03*
%TD*%
%TO.C,REF\u002A\u002A*%
X139600000Y-100850000D03*
%TD*%
%TO.C,REF\u002A\u002A*%
X142600000Y-100850000D03*
%TD*%
%TO.C,REF\u002A\u002A*%
X141600000Y-99000000D03*
%TD*%
%TO.C,REF\u002A\u002A*%
X142600000Y-99000000D03*
%TD*%
%TO.C,REF\u002A\u002A*%
X137600000Y-99000000D03*
%TD*%
%TO.C,REF\u002A\u002A*%
X138600000Y-99000000D03*
%TD*%
%TO.C,REF\u002A\u002A*%
X129600000Y-100850000D03*
%TD*%
%TO.C,REF\u002A\u002A*%
X130600000Y-100850000D03*
%TD*%
%TO.C,REF\u002A\u002A*%
X131600000Y-100850000D03*
%TD*%
%TO.C,REF\u002A\u002A*%
X132600000Y-100850000D03*
%TD*%
%TO.C,REF\u002A\u002A*%
X127600000Y-100850000D03*
%TD*%
%TO.C,REF\u002A\u002A*%
X128600000Y-100850000D03*
%TD*%
%TO.C,REF\u002A\u002A*%
X132600000Y-99000000D03*
%TD*%
%TO.C,REF\u002A\u002A*%
X131600000Y-99000000D03*
%TD*%
%TO.C,REF\u002A\u002A*%
X130600000Y-99000000D03*
%TD*%
%TO.C,REF\u002A\u002A*%
X129600000Y-99000000D03*
%TD*%
%TO.C,REF\u002A\u002A*%
X128600000Y-99000000D03*
%TD*%
%TO.C,REF\u002A\u002A*%
X127600000Y-99000000D03*
%TD*%
D13*
%TO.C,R7*%
X136325000Y-92350000D03*
X134675000Y-92350000D03*
%TD*%
D14*
%TO.C,R10*%
X154800000Y-111275000D03*
X154800000Y-112925000D03*
%TD*%
D15*
%TO.C,J2*%
X148845000Y-107775000D03*
X148845000Y-110315000D03*
X148845000Y-112855000D03*
X148845000Y-109045000D03*
X148845000Y-111585000D03*
X148845000Y-114125000D03*
D16*
X144745000Y-104800000D03*
X144745000Y-117100000D03*
X135945000Y-117100000D03*
X135945000Y-104800000D03*
%TD*%
D17*
%TO.C,REF\u002A\u002A*%
X145100000Y-92800000D03*
%TD*%
D18*
%TO.C,TP8*%
X133225000Y-129150000D03*
%TD*%
D19*
%TO.C,C13*%
X151100000Y-107675000D03*
X151100000Y-106125000D03*
%TD*%
D18*
%TO.C,TP10*%
X160400000Y-134650000D03*
%TD*%
%TO.C,TP9*%
X160400000Y-132450000D03*
%TD*%
D20*
%TO.C,C16*%
X151075000Y-114000000D03*
X152625000Y-114000000D03*
%TD*%
D18*
%TO.C,TP2*%
X133700000Y-114650000D03*
%TD*%
D20*
%TO.C,C18*%
X157975000Y-109600000D03*
X159525000Y-109600000D03*
%TD*%
D18*
%TO.C,TP7*%
X133225000Y-126950000D03*
%TD*%
D21*
%TO.C,U3*%
X141150000Y-91712500D03*
X140200000Y-91712500D03*
X139250000Y-91712500D03*
X139250000Y-93987500D03*
X140200000Y-93987500D03*
X141150000Y-93987500D03*
%TD*%
D22*
%TO.C,R9*%
X151025000Y-115800000D03*
X152675000Y-115800000D03*
%TD*%
%TO.C,R8*%
X156475000Y-107700000D03*
X158125000Y-107700000D03*
%TD*%
%TO.C,R12*%
X154725000Y-109600000D03*
X156375000Y-109600000D03*
%TD*%
D23*
%TO.C,J4*%
X159882000Y-91450000D03*
D24*
X157882000Y-91450000D03*
X155882000Y-91450000D03*
X153882000Y-91450000D03*
%TD*%
D18*
%TO.C,TP1*%
X160400000Y-141250000D03*
%TD*%
D13*
%TO.C,R6*%
X136325000Y-90650000D03*
X134675000Y-90650000D03*
%TD*%
D22*
%TO.C,R5*%
X130775000Y-94550000D03*
X132425000Y-94550000D03*
%TD*%
D19*
%TO.C,C15*%
X154800000Y-107675000D03*
X154800000Y-106125000D03*
%TD*%
D25*
%TO.C,Q1*%
X132600000Y-90762500D03*
X130700000Y-90762500D03*
X131650000Y-92637500D03*
%TD*%
D18*
%TO.C,TP3*%
X131050000Y-111550000D03*
%TD*%
D19*
%TO.C,C4*%
X153000000Y-107675000D03*
X153000000Y-106125000D03*
%TD*%
D21*
%TO.C,D4*%
X152995000Y-109762500D03*
X152045000Y-109762500D03*
X151095000Y-109762500D03*
X151095000Y-112037500D03*
X152045000Y-112037500D03*
X152995000Y-112037500D03*
%TD*%
M02*
