M48
; DRILL file {KiCad (6.0.2-0)} date Sunday, 30 October 2022 at 17:21:04
; FORMAT={-:-/ absolute / inch / decimal}
; #@! TF.CreationDate,2022-10-30T17:21:04+00:00
; #@! TF.GenerationSoftware,Kicad,Pcbnew,(6.0.2-0)
; #@! TF.FileFunction,Plated,1,4,PTH
FMAT,2
INCH
; #@! TA.AperFunction,Plated,PTH,ViaDrill
T1C0.0098
; #@! TA.AperFunction,Plated,PTH,ViaDrill
T2C0.0130
; #@! TA.AperFunction,Plated,PTH,ComponentDrill
T3C0.0315
; #@! TA.AperFunction,Plated,PTH,ComponentDrill
T4C0.0866
%
G90
G05
T1
X5.063Y-4.5276
X5.063Y-4.5551
X5.063Y-5.626
X5.063Y-5.6535
X5.063Y-5.6811
X5.0906Y-4.5551
X5.0906Y-5.6811
X5.1024Y-3.5728
X5.1024Y-3.7185
X5.1181Y-4.4705
X5.1181Y-5.6811
X5.1398Y-4.4902
X5.1457Y-5.6811
X5.1594Y-4.5098
X5.1614Y-4.8976
X5.1614Y-4.9272
X5.1614Y-4.9567
X5.1614Y-4.9882
X5.1614Y-5.0177
X5.1614Y-5.0472
X5.1614Y-5.0787
X5.1614Y-5.1102
X5.1614Y-5.1398
X5.1614Y-5.1732
X5.1614Y-5.2028
X5.1614Y-5.2323
X5.1614Y-5.2638
X5.1614Y-5.2933
X5.1614Y-5.3228
X5.1614Y-5.3543
X5.1614Y-5.3839
X5.1614Y-5.4134
X5.1614Y-5.4449
X5.1614Y-5.4744
X5.1614Y-5.5059
X5.1614Y-5.5354
X5.1634Y-4.4685
X5.1634Y-4.6319
X5.1634Y-4.6614
X5.1634Y-4.6909
X5.1634Y-4.7205
X5.1634Y-4.75
X5.1634Y-4.7795
X5.1634Y-4.8091
X5.1732Y-5.6811
X5.185Y-5.5512
X5.189Y-4.8976
X5.189Y-4.9272
X5.189Y-5.0965
X5.189Y-5.126
X5.189Y-5.1555
X5.1929Y-4.6614
X5.1929Y-4.6909
X5.1929Y-4.7205
X5.1929Y-4.75
X5.1929Y-4.7795
X5.1988Y-5.5787
X5.2146Y-4.876
X5.2146Y-5.5512
X5.2205Y-4.9055
X5.2283Y-5.5787
X5.2362Y-4.8543
X5.2382Y-4.3563
X5.2382Y-4.3858
X5.2382Y-4.4154
X5.2421Y-4.8839
X5.2441Y-5.5512
X5.25Y-3.6732
X5.2579Y-4.3425
X5.2579Y-4.372
X5.2579Y-4.4016
X5.2579Y-4.4311
X5.2579Y-4.6083
X5.2579Y-4.8327
X5.2638Y-4.8622
X5.2638Y-5.5748
X5.2795Y-4.3563
X5.2795Y-4.3858
X5.2795Y-4.4154
X5.2795Y-4.6319
X5.2795Y-4.6614
X5.2795Y-4.6909
X5.2795Y-4.7205
X5.2795Y-4.75
X5.2795Y-4.7795
X5.2795Y-4.8091
X5.2825Y-4.0699
X5.2835Y-4.0118
X5.2854Y-4.8386
X5.2874Y-4.9528
X5.2874Y-5.0413
X5.2933Y-5.5748
X5.3071Y-4.6772
X5.3071Y-4.7067
X5.3071Y-4.7362
X5.3071Y-4.7657
X5.3071Y-4.7953
X5.3228Y-5.5748
X5.3543Y-5.5748
X5.3563Y-4.0098
X5.3563Y-4.0709
X5.3724Y-4.1945
X5.376Y-3.7441
X5.3839Y-5.5748
X5.3858Y-4.1713
X5.3996Y-4.1949
X5.4094Y-3.6378
X5.4094Y-3.6732
X5.4094Y-3.7067
X5.4094Y-3.7441
X5.4154Y-5.5748
X5.4191Y-4.6004
X5.437Y-3.6575
X5.4409Y-3.7441
X5.4449Y-5.5748
X5.4488Y-5.0295
X5.4724Y-5.5748
X5.4764Y-4.8071
X5.4823Y-3.7441
X5.498Y-4.1594
X5.498Y-4.1988
X5.502Y-5.5748
X5.5197Y-4.1398
X5.5197Y-4.1791
X5.5197Y-4.2185
X5.5217Y-4.6004
X5.5315Y-5.5748
X5.5453Y-4.1594
X5.5453Y-4.1988
X5.5571Y-4.4488
X5.563Y-5.5748
X5.5669Y-4.1398
X5.5669Y-4.1791
X5.5669Y-4.2185
X5.5827Y-4.4488
X5.5846Y-4.3012
X5.5846Y-4.3307
X5.5846Y-4.3602
X5.5846Y-4.3898
X5.5846Y-4.4193
X5.5925Y-5.5748
X5.6024Y-3.5906
X5.6024Y-3.622
X5.6024Y-3.6535
X5.6043Y-4.2874
X5.6043Y-4.3169
X5.6043Y-4.3465
X5.6043Y-4.376
X5.6043Y-4.4055
X5.6043Y-4.435
X5.624Y-5.5748
X5.6535Y-5.5748
X5.6692Y-4.063
X5.6693Y-4.0157
X5.6811Y-5.5748
X5.7106Y-5.5748
X5.7402Y-5.5748
X5.7559Y-4.1063
X5.7618Y-4.4075
X5.7717Y-5.5748
X5.7756Y-4.128
X5.7815Y-4.3701
X5.7953Y-4.1063
X5.7953Y-4.1594
X5.7953Y-4.189
X5.7953Y-4.2185
X5.7972Y-4.3504
X5.8012Y-5.5748
X5.8031Y-4.4636
X5.8071Y-4.6004
X5.813Y-4.3701
X5.815Y-4.128
X5.8189Y-4.1752
X5.8189Y-4.2047
X5.8268Y-4.7825
X5.8327Y-5.5748
X5.8346Y-4.1063
X5.8474Y-4.8317
X5.8543Y-4.6004
X5.8622Y-5.5748
X5.874Y-4.1063
X5.8898Y-5.5748
X5.8937Y-4.128
X5.8957Y-4.1969
X5.8976Y-4.6004
X5.9075Y-4.3681
X5.9075Y-4.3967
X5.9094Y-4.4665
X5.9134Y-4.1063
X5.9193Y-5.5748
X5.9331Y-4.128
X5.9528Y-4.1063
X5.9566Y-4.6004
X5.9724Y-4.128
X5.9823Y-5.5709
X5.9921Y-4.1063
X6.0039Y-4.2756
X6.0049Y-4.6014
X6.0118Y-4.128
X6.0148Y-4.3642
X6.0295Y-5.5748
X6.0315Y-4.1063
X6.0406Y-4.3642
X6.0512Y-4.128
X6.0571Y-5.5748
X6.0591Y-4.2106
X6.0591Y-4.4646
X6.063Y-4.6161
X6.0709Y-4.1063
X6.0768Y-4.0354
X6.0768Y-4.0748
X6.0846Y-5.5748
X6.0856Y-4.6024
X6.0866Y-4.6299
X6.0984Y-4.0157
X6.0984Y-4.0551
X6.0984Y-4.0945
X6.1053Y-5.4852
X6.1122Y-5.5748
X6.128Y-4.2087
X6.1506Y-4.4291
X6.1654Y-4.4085
X6.1722Y-5.4045
X6.1732Y-4.0984
X6.1801Y-4.4291
X6.1811Y-4.3888
X6.189Y-4.122
X6.1949Y-4.4085
X6.2047Y-4.0984
X6.2096Y-4.4291
X6.2106Y-4.3888
X6.2205Y-4.122
X6.2205Y-4.6024
X6.2244Y-4.4085
X6.2283Y-4.4941
X6.2283Y-5.6181
X6.2343Y-4.5787
X6.2362Y-4.0984
X6.2402Y-4.4291
X6.2461Y-5.6801
X6.248Y-4.6014
X6.2539Y-4.4941
X6.2579Y-4.8543
X6.2618Y-5.3031
X6.2618Y-5.3543
X6.2628Y-5.5089
X6.2638Y-5.0512
X6.2638Y-5.0807
X6.2638Y-5.1102
X6.2638Y-5.1417
X6.2638Y-5.1713
X6.2638Y-5.2028
X6.2638Y-5.252
X6.2667Y-4.2382
X6.2736Y-4.1378
X6.2736Y-5.6801
X6.2795Y-4.4941
X6.3012Y-5.6801
X6.3031Y-4.1378
X6.3287Y-5.6801
X6.3327Y-4.1378
X6.3426Y-4.3543
X6.3563Y-5.625
X6.3563Y-5.6526
X6.3563Y-5.6801
X6.3622Y-4.1378
X6.3663Y-4.374
X6.3917Y-4.1378
X6.4035Y-4.2323
X6.4213Y-4.1378
T2
X5.3661Y-4.6732
X5.3661Y-4.7126
X5.3661Y-4.752
X5.3661Y-4.8622
X5.3661Y-4.9016
X5.3661Y-4.9409
X5.3661Y-5.0512
X5.3661Y-5.0906
X5.3661Y-5.1299
X5.3661Y-5.2402
X5.3661Y-5.2795
X5.3661Y-5.3189
X5.3661Y-5.4291
X5.3661Y-5.4685
X5.3661Y-5.5079
X5.3858Y-4.6929
X5.3858Y-4.7323
X5.3858Y-4.8819
X5.3858Y-4.9213
X5.3858Y-5.0709
X5.3858Y-5.1102
X5.3858Y-5.2598
X5.3858Y-5.2992
X5.3858Y-5.4488
X5.3858Y-5.4882
X5.4055Y-4.6732
X5.4055Y-4.7126
X5.4055Y-4.752
X5.4055Y-4.8622
X5.4055Y-4.9016
X5.4055Y-4.9409
X5.4055Y-5.0512
X5.4055Y-5.0906
X5.4055Y-5.1299
X5.4055Y-5.2402
X5.4055Y-5.2795
X5.4055Y-5.3189
X5.4055Y-5.4291
X5.4055Y-5.4685
X5.4055Y-5.5079
X5.4921Y-4.6732
X5.4921Y-4.7126
X5.4921Y-4.752
X5.4921Y-4.8622
X5.4921Y-4.9016
X5.4921Y-4.9409
X5.4921Y-5.0512
X5.4921Y-5.0906
X5.4921Y-5.1299
X5.4921Y-5.2402
X5.4921Y-5.2795
X5.4921Y-5.3189
X5.4921Y-5.4291
X5.4921Y-5.4685
X5.4921Y-5.5079
X5.5118Y-4.6929
X5.5118Y-4.7323
X5.5118Y-4.8819
X5.5118Y-4.9213
X5.5118Y-5.0709
X5.5118Y-5.1102
X5.5118Y-5.2598
X5.5118Y-5.2992
X5.5118Y-5.4488
X5.5118Y-5.4882
X5.5315Y-4.6732
X5.5315Y-4.7126
X5.5315Y-4.752
X5.5315Y-4.8622
X5.5315Y-4.9016
X5.5315Y-4.9409
X5.5315Y-5.0512
X5.5315Y-5.0906
X5.5315Y-5.1299
X5.5315Y-5.2402
X5.5315Y-5.2795
X5.5315Y-5.3189
X5.5315Y-5.4291
X5.5315Y-5.4685
X5.5315Y-5.5079
X5.626Y-4.6732
X5.626Y-4.7126
X5.626Y-4.752
X5.626Y-4.8622
X5.626Y-4.9016
X5.626Y-4.9409
X5.626Y-5.2402
X5.626Y-5.2795
X5.626Y-5.3189
X5.626Y-5.4291
X5.626Y-5.4685
X5.626Y-5.5079
X5.6457Y-4.6929
X5.6457Y-4.7323
X5.6457Y-4.8819
X5.6457Y-4.9213
X5.6457Y-5.2598
X5.6457Y-5.2992
X5.6457Y-5.4488
X5.6457Y-5.4882
X5.6654Y-4.6732
X5.6654Y-4.7126
X5.6654Y-4.752
X5.6654Y-4.8622
X5.6654Y-4.9016
X5.6654Y-4.9409
X5.6654Y-5.2402
X5.6654Y-5.2795
X5.6654Y-5.3189
X5.6654Y-5.4291
X5.6654Y-5.4685
X5.6654Y-5.5079
X5.752Y-4.6732
X5.752Y-4.7126
X5.752Y-4.752
X5.752Y-4.8622
X5.752Y-4.9016
X5.752Y-4.9409
X5.752Y-5.2402
X5.752Y-5.2795
X5.752Y-5.3189
X5.752Y-5.4291
X5.752Y-5.4685
X5.752Y-5.5079
X5.7717Y-4.6929
X5.7717Y-4.7323
X5.7717Y-4.8819
X5.7717Y-4.9213
X5.7717Y-5.2598
X5.7717Y-5.2992
X5.7717Y-5.4488
X5.7717Y-5.4882
X5.7913Y-4.6732
X5.7913Y-4.7126
X5.7913Y-4.752
X5.7913Y-4.8622
X5.7913Y-4.9016
X5.7913Y-4.9409
X5.7913Y-5.2402
X5.7913Y-5.2795
X5.7913Y-5.3189
X5.7913Y-5.4291
X5.7913Y-5.4685
X5.7913Y-5.5079
X5.8858Y-4.6732
X5.8858Y-4.7126
X5.8858Y-4.752
X5.8858Y-4.8622
X5.8858Y-4.9016
X5.8858Y-4.9409
X5.8858Y-5.0512
X5.8858Y-5.0906
X5.8858Y-5.1299
X5.8858Y-5.2402
X5.8858Y-5.2795
X5.8858Y-5.3189
X5.8858Y-5.4291
X5.8858Y-5.4685
X5.8858Y-5.5079
X5.9055Y-4.6929
X5.9055Y-4.7323
X5.9055Y-4.8819
X5.9055Y-4.9213
X5.9055Y-5.0709
X5.9055Y-5.1102
X5.9055Y-5.2598
X5.9055Y-5.2992
X5.9055Y-5.4488
X5.9055Y-5.4882
X5.9252Y-4.6732
X5.9252Y-4.7126
X5.9252Y-4.752
X5.9252Y-4.8622
X5.9252Y-4.9016
X5.9252Y-4.9409
X5.9252Y-5.0512
X5.9252Y-5.0906
X5.9252Y-5.1299
X5.9252Y-5.2402
X5.9252Y-5.2795
X5.9252Y-5.3189
X5.9252Y-5.4291
X5.9252Y-5.4685
X5.9252Y-5.5079
X6.0118Y-4.6732
X6.0118Y-4.7126
X6.0118Y-4.752
X6.0118Y-4.8622
X6.0118Y-4.9016
X6.0118Y-4.9409
X6.0118Y-5.0512
X6.0118Y-5.0906
X6.0118Y-5.1299
X6.0118Y-5.2402
X6.0118Y-5.2795
X6.0118Y-5.3189
X6.0118Y-5.4291
X6.0118Y-5.4685
X6.0118Y-5.5079
X6.0315Y-4.6929
X6.0315Y-4.7323
X6.0315Y-4.8819
X6.0315Y-4.9213
X6.0315Y-5.0709
X6.0315Y-5.1102
X6.0315Y-5.2598
X6.0315Y-5.2992
X6.0315Y-5.4488
X6.0315Y-5.4882
X6.0512Y-4.6732
X6.0512Y-4.7126
X6.0512Y-4.752
X6.0512Y-4.8622
X6.0512Y-4.9016
X6.0512Y-4.9409
X6.0512Y-5.0512
X6.0512Y-5.0906
X6.0512Y-5.1299
X6.0512Y-5.2402
X6.0512Y-5.2795
X6.0512Y-5.3189
X6.0512Y-5.4291
X6.0512Y-5.4685
X6.0512Y-5.5079
T3
X6.0583Y-3.6004
X6.1371Y-3.6004
X6.2158Y-3.6004
X6.2946Y-3.6004
T4
X5.7126Y-3.6535
T0
M30
