%TF.GenerationSoftware,KiCad,Pcbnew,(6.0.2-0)*%
%TF.CreationDate,2022-10-30T17:20:58+00:00*%
%TF.ProjectId,p3-cellular-module,70332d63-656c-46c7-956c-61722d6d6f64,rev?*%
%TF.SameCoordinates,Original*%
%TF.FileFunction,Legend,Bot*%
%TF.FilePolarity,Positive*%
%FSLAX46Y46*%
G04 Gerber Fmt 4.6, Leading zero omitted, Abs format (unit mm)*
G04 Created by KiCad (PCBNEW (6.0.2-0)) date 2022-10-30 17:20:58*
%MOMM*%
%LPD*%
G01*
G04 APERTURE LIST*
G04 Aperture macros list*
%AMRoundRect*
0 Rectangle with rounded corners*
0 $1 Rounding radius*
0 $2 $3 $4 $5 $6 $7 $8 $9 X,Y pos of 4 corners*
0 Add a 4 corners polygon primitive as box body*
4,1,4,$2,$3,$4,$5,$6,$7,$8,$9,$2,$3,0*
0 Add four circle primitives for the rounded corners*
1,1,$1+$1,$2,$3*
1,1,$1+$1,$4,$5*
1,1,$1+$1,$6,$7*
1,1,$1+$1,$8,$9*
0 Add four rect primitives between the rounded corners*
20,1,$1+$1,$2,$3,$4,$5,0*
20,1,$1+$1,$4,$5,$6,$7,0*
20,1,$1+$1,$6,$7,$8,$9,0*
20,1,$1+$1,$8,$9,$2,$3,0*%
G04 Aperture macros list end*
%ADD10C,0.150000*%
%ADD11C,0.125000*%
%ADD12C,0.120000*%
%ADD13C,0.127000*%
%ADD14C,0.200000*%
%ADD15C,0.250000*%
%ADD16C,0.001000*%
%ADD17C,0.500000*%
%ADD18C,3.800000*%
%ADD19R,1.350000X1.350000*%
%ADD20O,1.350000X1.350000*%
%ADD21RoundRect,0.200000X-0.200000X-0.275000X0.200000X-0.275000X0.200000X0.275000X-0.200000X0.275000X0*%
%ADD22RoundRect,0.250000X-0.412500X-0.925000X0.412500X-0.925000X0.412500X0.925000X-0.412500X0.925000X0*%
%ADD23RoundRect,0.218750X-0.256250X0.218750X-0.256250X-0.218750X0.256250X-0.218750X0.256250X0.218750X0*%
%ADD24R,1.650000X2.300000*%
%ADD25RoundRect,0.200000X-0.275000X0.200000X-0.275000X-0.200000X0.275000X-0.200000X0.275000X0.200000X0*%
%ADD26R,1.200000X4.700000*%
%ADD27RoundRect,0.250000X0.412500X0.925000X-0.412500X0.925000X-0.412500X-0.925000X0.412500X-0.925000X0*%
%ADD28RoundRect,0.225000X-0.225000X-0.250000X0.225000X-0.250000X0.225000X0.250000X-0.225000X0.250000X0*%
%ADD29RoundRect,0.200000X0.275000X-0.200000X0.275000X0.200000X-0.275000X0.200000X-0.275000X-0.200000X0*%
%ADD30RoundRect,0.225000X0.225000X0.250000X-0.225000X0.250000X-0.225000X-0.250000X0.225000X-0.250000X0*%
%ADD31RoundRect,0.250000X-0.250000X-0.475000X0.250000X-0.475000X0.250000X0.475000X-0.250000X0.475000X0*%
%ADD32RoundRect,0.250000X-1.100000X0.325000X-1.100000X-0.325000X1.100000X-0.325000X1.100000X0.325000X0*%
%ADD33RoundRect,0.218750X-0.218750X-0.256250X0.218750X-0.256250X0.218750X0.256250X-0.218750X0.256250X0*%
%ADD34R,1.000000X0.900000*%
%ADD35R,0.550000X1.700000*%
%ADD36O,2.500000X0.800000*%
%ADD37O,0.800000X2.500000*%
%ADD38R,2.000000X3.000000*%
%ADD39R,1.100000X1.100000*%
%ADD40RoundRect,0.218750X0.256250X-0.218750X0.256250X0.218750X-0.256250X0.218750X-0.256250X-0.218750X0*%
%ADD41RoundRect,0.150000X-0.512500X-0.150000X0.512500X-0.150000X0.512500X0.150000X-0.512500X0.150000X0*%
G04 APERTURE END LIST*
D10*
X134150000Y-95500000D02*
X133050000Y-95500000D01*
X133050000Y-95500000D02*
X132700000Y-95850000D01*
D11*
X159778869Y-94976190D02*
X160016964Y-94976190D01*
X160040773Y-95214285D01*
X160016964Y-95190476D01*
X159969345Y-95166666D01*
X159850297Y-95166666D01*
X159802678Y-95190476D01*
X159778869Y-95214285D01*
X159755059Y-95261904D01*
X159755059Y-95380952D01*
X159778869Y-95428571D01*
X159802678Y-95452380D01*
X159850297Y-95476190D01*
X159969345Y-95476190D01*
X160016964Y-95452380D01*
X160040773Y-95428571D01*
X159612202Y-94976190D02*
X159445535Y-95476190D01*
X159278869Y-94976190D01*
X155626190Y-93019940D02*
X156030952Y-93019940D01*
X156078571Y-93043750D01*
X156102380Y-93067559D01*
X156126190Y-93115178D01*
X156126190Y-93210416D01*
X156102380Y-93258035D01*
X156078571Y-93281845D01*
X156030952Y-93305654D01*
X155626190Y-93305654D01*
X155935714Y-93543750D02*
X155935714Y-93924702D01*
X152949107Y-95025000D02*
X152996726Y-95001190D01*
X153068154Y-95001190D01*
X153139583Y-95025000D01*
X153187202Y-95072619D01*
X153211011Y-95120238D01*
X153234821Y-95215476D01*
X153234821Y-95286904D01*
X153211011Y-95382142D01*
X153187202Y-95429761D01*
X153139583Y-95477380D01*
X153068154Y-95501190D01*
X153020535Y-95501190D01*
X152949107Y-95477380D01*
X152925297Y-95453571D01*
X152925297Y-95286904D01*
X153020535Y-95286904D01*
X152711011Y-95501190D02*
X152711011Y-95001190D01*
X152425297Y-95501190D01*
X152425297Y-95001190D01*
X152187202Y-95501190D02*
X152187202Y-95001190D01*
X152068154Y-95001190D01*
X151996726Y-95025000D01*
X151949107Y-95072619D01*
X151925297Y-95120238D01*
X151901488Y-95215476D01*
X151901488Y-95286904D01*
X151925297Y-95382142D01*
X151949107Y-95429761D01*
X151996726Y-95477380D01*
X152068154Y-95501190D01*
X152187202Y-95501190D01*
X145355059Y-101626190D02*
X145355059Y-102030952D01*
X145331250Y-102078571D01*
X145307440Y-102102380D01*
X145259821Y-102126190D01*
X145164583Y-102126190D01*
X145116964Y-102102380D01*
X145093154Y-102078571D01*
X145069345Y-102030952D01*
X145069345Y-101626190D01*
X144831250Y-101935714D02*
X144450297Y-101935714D01*
X157625000Y-93299702D02*
X157601190Y-93252083D01*
X157601190Y-93180654D01*
X157625000Y-93109226D01*
X157672619Y-93061607D01*
X157720238Y-93037797D01*
X157815476Y-93013988D01*
X157886904Y-93013988D01*
X157982142Y-93037797D01*
X158029761Y-93061607D01*
X158077380Y-93109226D01*
X158101190Y-93180654D01*
X158101190Y-93228273D01*
X158077380Y-93299702D01*
X158053571Y-93323511D01*
X157886904Y-93323511D01*
X157886904Y-93228273D01*
X143405059Y-95026190D02*
X143405059Y-95430952D01*
X143381250Y-95478571D01*
X143357440Y-95502380D01*
X143309821Y-95526190D01*
X143214583Y-95526190D01*
X143166964Y-95502380D01*
X143143154Y-95478571D01*
X143119345Y-95430952D01*
X143119345Y-95026190D01*
X142881250Y-95335714D02*
X142500297Y-95335714D01*
X135431250Y-95726190D02*
X135669345Y-95726190D01*
X135669345Y-95226190D01*
X135264583Y-95464285D02*
X135097916Y-95464285D01*
X135026488Y-95726190D02*
X135264583Y-95726190D01*
X135264583Y-95226190D01*
X135026488Y-95226190D01*
X134812202Y-95726190D02*
X134812202Y-95226190D01*
X134693154Y-95226190D01*
X134621726Y-95250000D01*
X134574107Y-95297619D01*
X134550297Y-95345238D01*
X134526488Y-95440476D01*
X134526488Y-95511904D01*
X134550297Y-95607142D01*
X134574107Y-95654761D01*
X134621726Y-95702380D01*
X134693154Y-95726190D01*
X134812202Y-95726190D01*
X154800000Y-103024107D02*
X154823809Y-103071726D01*
X154823809Y-103143154D01*
X154800000Y-103214583D01*
X154752380Y-103262202D01*
X154704761Y-103286011D01*
X154609523Y-103309821D01*
X154538095Y-103309821D01*
X154442857Y-103286011D01*
X154395238Y-103262202D01*
X154347619Y-103214583D01*
X154323809Y-103143154D01*
X154323809Y-103095535D01*
X154347619Y-103024107D01*
X154371428Y-103000297D01*
X154538095Y-103000297D01*
X154538095Y-103095535D01*
X154323809Y-102786011D02*
X154823809Y-102786011D01*
X154323809Y-102500297D01*
X154823809Y-102500297D01*
X154323809Y-102262202D02*
X154823809Y-102262202D01*
X154823809Y-102143154D01*
X154800000Y-102071726D01*
X154752380Y-102024107D01*
X154704761Y-102000297D01*
X154609523Y-101976488D01*
X154538095Y-101976488D01*
X154442857Y-102000297D01*
X154395238Y-102024107D01*
X154347619Y-102071726D01*
X154323809Y-102143154D01*
X154323809Y-102262202D01*
X153601190Y-93019940D02*
X154005952Y-93019940D01*
X154053571Y-93043750D01*
X154077380Y-93067559D01*
X154101190Y-93115178D01*
X154101190Y-93210416D01*
X154077380Y-93258035D01*
X154053571Y-93281845D01*
X154005952Y-93305654D01*
X153601190Y-93305654D01*
X153910714Y-93543750D02*
X153910714Y-93924702D01*
X154101190Y-93734226D02*
X153720238Y-93734226D01*
X159626190Y-93296130D02*
X159626190Y-93058035D01*
X159864285Y-93034226D01*
X159840476Y-93058035D01*
X159816666Y-93105654D01*
X159816666Y-93224702D01*
X159840476Y-93272321D01*
X159864285Y-93296130D01*
X159911904Y-93319940D01*
X160030952Y-93319940D01*
X160078571Y-93296130D01*
X160102380Y-93272321D01*
X160126190Y-93224702D01*
X160126190Y-93105654D01*
X160102380Y-93058035D01*
X160078571Y-93034226D01*
X159626190Y-93462797D02*
X160126190Y-93629464D01*
X159626190Y-93796130D01*
X145305059Y-103026190D02*
X145305059Y-103430952D01*
X145281250Y-103478571D01*
X145257440Y-103502380D01*
X145209821Y-103526190D01*
X145114583Y-103526190D01*
X145066964Y-103502380D01*
X145043154Y-103478571D01*
X145019345Y-103430952D01*
X145019345Y-103026190D01*
X144781250Y-103335714D02*
X144400297Y-103335714D01*
X144590773Y-103526190D02*
X144590773Y-103145238D01*
D12*
%TO.C,R3*%
X154587742Y-106422500D02*
X155062258Y-106422500D01*
X154587742Y-105377500D02*
X155062258Y-105377500D01*
%TO.C,C9*%
X141740000Y-104690000D02*
X145950000Y-104690000D01*
X141740000Y-107710000D02*
X141740000Y-104690000D01*
X145950000Y-107710000D02*
X141740000Y-107710000D01*
%TO.C,L2*%
X128140000Y-111287221D02*
X128140000Y-111612779D01*
X129160000Y-111287221D02*
X129160000Y-111612779D01*
D13*
%TO.C,E1*%
X126600000Y-107825000D02*
X126600000Y-104825000D01*
X126600000Y-107825000D02*
X133600000Y-107825000D01*
X133600000Y-104825000D02*
X126600000Y-104825000D01*
X133600000Y-107825000D02*
X133600000Y-104825000D01*
D14*
X126000000Y-106325000D02*
G75*
G03*
X126000000Y-106325000I-100000J0D01*
G01*
D12*
%TO.C,R4*%
X160877500Y-108362742D02*
X160877500Y-108837258D01*
X161922500Y-108362742D02*
X161922500Y-108837258D01*
%TO.C,R2*%
X151312742Y-106422500D02*
X151787258Y-106422500D01*
X151312742Y-105377500D02*
X151787258Y-105377500D01*
%TO.C,L1*%
X155719000Y-107131000D02*
X150131000Y-107131000D01*
X150131000Y-112719000D02*
X155719000Y-112719000D01*
%TO.C,C5*%
X139260000Y-107710000D02*
X135050000Y-107710000D01*
X139260000Y-104690000D02*
X139260000Y-107710000D01*
X135050000Y-104690000D02*
X139260000Y-104690000D01*
%TO.C,C11*%
X140159420Y-110960000D02*
X140440580Y-110960000D01*
X140159420Y-109940000D02*
X140440580Y-109940000D01*
%TO.C,C10*%
X140159420Y-112610000D02*
X140440580Y-112610000D01*
X140159420Y-111590000D02*
X140440580Y-111590000D01*
%TO.C,R1*%
X148477500Y-106737258D02*
X148477500Y-106262742D01*
X149522500Y-106737258D02*
X149522500Y-106262742D01*
%TO.C,C7*%
X136190580Y-109940000D02*
X135909420Y-109940000D01*
X136190580Y-110960000D02*
X135909420Y-110960000D01*
%TO.C,C17*%
X130909420Y-112710000D02*
X131190580Y-112710000D01*
X130909420Y-111690000D02*
X131190580Y-111690000D01*
%TO.C,C1*%
X157938748Y-105615000D02*
X158461252Y-105615000D01*
X157938748Y-107085000D02*
X158461252Y-107085000D01*
%TO.C,C8*%
X136190580Y-111590000D02*
X135909420Y-111590000D01*
X136190580Y-112610000D02*
X135909420Y-112610000D01*
%TO.C,C3*%
X146740000Y-109788748D02*
X146740000Y-111211252D01*
X149460000Y-109788748D02*
X149460000Y-111211252D01*
%TO.C,D2*%
X160115000Y-106835000D02*
X160115000Y-105365000D01*
X160115000Y-105365000D02*
X162400000Y-105365000D01*
X162400000Y-106835000D02*
X160115000Y-106835000D01*
%TO.C,C12*%
X140159420Y-108290000D02*
X140440580Y-108290000D01*
X140159420Y-109310000D02*
X140440580Y-109310000D01*
%TO.C,C19*%
X143240000Y-109788748D02*
X143240000Y-111211252D01*
X145960000Y-109788748D02*
X145960000Y-111211252D01*
D10*
%TO.C,SW1*%
X129875000Y-90300000D02*
X129875000Y-91175000D01*
X129875000Y-94500000D02*
X129875000Y-93625000D01*
X133425000Y-90300000D02*
X133425000Y-94500000D01*
D15*
X130975000Y-89300001D02*
G75*
G03*
X130975000Y-89300001I-125000J0D01*
G01*
D12*
%TO.C,C6*%
X136190580Y-109310000D02*
X135909420Y-109310000D01*
X136190580Y-108290000D02*
X135909420Y-108290000D01*
%TO.C,C14*%
X130909420Y-111060000D02*
X131190580Y-111060000D01*
X130909420Y-110040000D02*
X131190580Y-110040000D01*
D13*
%TO.C,U2*%
X161000000Y-143800000D02*
X158000000Y-143800000D01*
X161000000Y-114800000D02*
X158000000Y-114800000D01*
X129000000Y-114800000D02*
X129000000Y-115800000D01*
X129000000Y-142800000D02*
X129000000Y-143800000D01*
X129000000Y-114800000D02*
X131500000Y-114800000D01*
X161000000Y-114800000D02*
X161000000Y-115800000D01*
X131500000Y-143800000D02*
X129000000Y-143800000D01*
X161000000Y-142800000D02*
X161000000Y-143800000D01*
D14*
X162600000Y-116800000D02*
G75*
G03*
X162600000Y-116800000I-100000J0D01*
G01*
D12*
%TO.C,R15*%
X135527500Y-91312742D02*
X135527500Y-91787258D01*
X136572500Y-91312742D02*
X136572500Y-91787258D01*
%TO.C,D3*%
X135035000Y-93035000D02*
X133565000Y-93035000D01*
X133565000Y-93035000D02*
X133565000Y-90750000D01*
X135035000Y-90750000D02*
X135035000Y-93035000D01*
%TO.C,D1*%
X136000000Y-94885000D02*
X133715000Y-94885000D01*
X133715000Y-94885000D02*
X133715000Y-93415000D01*
X133715000Y-93415000D02*
X136000000Y-93415000D01*
%TO.C,U1*%
X158200000Y-110960000D02*
X156400000Y-110960000D01*
X158200000Y-107840000D02*
X157400000Y-107840000D01*
X158200000Y-110960000D02*
X159000000Y-110960000D01*
X158200000Y-107840000D02*
X159000000Y-107840000D01*
%TO.C,C2*%
X160640580Y-111640000D02*
X160359420Y-111640000D01*
X160640580Y-112660000D02*
X160359420Y-112660000D01*
%TD*%
%LPC*%
G36*
X133700000Y-101300000D02*
G01*
X126500000Y-101300000D01*
X126500000Y-103900000D01*
X133700000Y-103900000D01*
X133700000Y-101300000D01*
G37*
G36*
X166000000Y-109500000D02*
G01*
X164100000Y-109500000D01*
X164100000Y-100550000D01*
X166000000Y-100550000D01*
X166000000Y-109500000D01*
G37*
G36*
X164800000Y-96050000D02*
G01*
X141900000Y-96050000D01*
X141900000Y-98700000D01*
X164800000Y-98700000D01*
X164800000Y-96050000D01*
G37*
G36*
X141100000Y-96050000D02*
G01*
X124800000Y-96050000D01*
X124800000Y-98700000D01*
X141100000Y-98700000D01*
X141100000Y-96050000D01*
G37*
G36*
X163600000Y-101300000D02*
G01*
X156400000Y-101300000D01*
X156400000Y-103900000D01*
X163600000Y-103900000D01*
X163600000Y-101300000D01*
G37*
G36*
X143700000Y-101300000D02*
G01*
X141900000Y-101300000D01*
X141900000Y-103900000D01*
X143700000Y-103900000D01*
X143700000Y-101300000D01*
G37*
G36*
X141100000Y-101300000D02*
G01*
X136500000Y-101300000D01*
X136500000Y-103900000D01*
X141100000Y-103900000D01*
X141100000Y-101300000D01*
G37*
G36*
X126000000Y-109600000D02*
G01*
X124000000Y-109600000D01*
X124000000Y-100550000D01*
X126000000Y-100550000D01*
X126000000Y-109600000D01*
G37*
G36*
X153700000Y-101300000D02*
G01*
X146500000Y-101300000D01*
X146500000Y-103900000D01*
X153700000Y-103900000D01*
X153700000Y-101300000D01*
G37*
D16*
%TO.C,U2*%
X152100000Y-121300000D02*
X154300000Y-121300000D01*
X154300000Y-121300000D02*
X154300000Y-118600000D01*
X154300000Y-118600000D02*
X153800000Y-118100000D01*
X153800000Y-118100000D02*
X152100000Y-118100000D01*
X152100000Y-118100000D02*
X152100000Y-121300000D01*
G36*
X154300000Y-118600000D02*
G01*
X154300000Y-121300000D01*
X152100000Y-121300000D01*
X152100000Y-118100000D01*
X153800000Y-118100000D01*
X154300000Y-118600000D01*
G37*
X154300000Y-118600000D02*
X154300000Y-121300000D01*
X152100000Y-121300000D01*
X152100000Y-118100000D01*
X153800000Y-118100000D01*
X154300000Y-118600000D01*
%TD*%
D17*
%TO.C,REF\u002A\u002A*%
X159600000Y-99000000D03*
%TD*%
%TO.C,REF\u002A\u002A*%
X160600000Y-99000000D03*
%TD*%
%TO.C,REF\u002A\u002A*%
X160600000Y-100850000D03*
%TD*%
%TO.C,REF\u002A\u002A*%
X158600000Y-100850000D03*
%TD*%
%TO.C,REF\u002A\u002A*%
X157600000Y-100850000D03*
%TD*%
%TO.C,REF\u002A\u002A*%
X161600000Y-100850000D03*
%TD*%
%TO.C,REF\u002A\u002A*%
X159600000Y-100850000D03*
%TD*%
%TO.C,REF\u002A\u002A*%
X162600000Y-100850000D03*
%TD*%
%TO.C,REF\u002A\u002A*%
X161600000Y-99000000D03*
%TD*%
%TO.C,REF\u002A\u002A*%
X162600000Y-99000000D03*
%TD*%
%TO.C,REF\u002A\u002A*%
X157600000Y-99000000D03*
%TD*%
%TO.C,REF\u002A\u002A*%
X158600000Y-99000000D03*
%TD*%
%TO.C,REF\u002A\u002A*%
X149600000Y-99000000D03*
%TD*%
%TO.C,REF\u002A\u002A*%
X150600000Y-99000000D03*
%TD*%
%TO.C,REF\u002A\u002A*%
X150600000Y-100850000D03*
%TD*%
%TO.C,REF\u002A\u002A*%
X148600000Y-100850000D03*
%TD*%
%TO.C,REF\u002A\u002A*%
X147600000Y-100850000D03*
%TD*%
%TO.C,REF\u002A\u002A*%
X151600000Y-100850000D03*
%TD*%
%TO.C,REF\u002A\u002A*%
X149600000Y-100850000D03*
%TD*%
%TO.C,REF\u002A\u002A*%
X152600000Y-100850000D03*
%TD*%
%TO.C,REF\u002A\u002A*%
X151600000Y-99000000D03*
%TD*%
%TO.C,REF\u002A\u002A*%
X152600000Y-99000000D03*
%TD*%
%TO.C,REF\u002A\u002A*%
X147600000Y-99000000D03*
%TD*%
%TO.C,REF\u002A\u002A*%
X148600000Y-99000000D03*
%TD*%
%TO.C,REF\u002A\u002A*%
X139600000Y-99000000D03*
%TD*%
%TO.C,REF\u002A\u002A*%
X140600000Y-99000000D03*
%TD*%
%TO.C,REF\u002A\u002A*%
X140600000Y-100850000D03*
%TD*%
%TO.C,REF\u002A\u002A*%
X138600000Y-100850000D03*
%TD*%
%TO.C,REF\u002A\u002A*%
X137600000Y-100850000D03*
%TD*%
%TO.C,REF\u002A\u002A*%
X141600000Y-100850000D03*
%TD*%
%TO.C,REF\u002A\u002A*%
X139600000Y-100850000D03*
%TD*%
%TO.C,REF\u002A\u002A*%
X142600000Y-100850000D03*
%TD*%
%TO.C,REF\u002A\u002A*%
X141600000Y-99000000D03*
%TD*%
%TO.C,REF\u002A\u002A*%
X142600000Y-99000000D03*
%TD*%
%TO.C,REF\u002A\u002A*%
X137600000Y-99000000D03*
%TD*%
%TO.C,REF\u002A\u002A*%
X138600000Y-99000000D03*
%TD*%
%TO.C,REF\u002A\u002A*%
X129600000Y-100850000D03*
%TD*%
%TO.C,REF\u002A\u002A*%
X130600000Y-100850000D03*
%TD*%
%TO.C,REF\u002A\u002A*%
X131600000Y-100850000D03*
%TD*%
%TO.C,REF\u002A\u002A*%
X132600000Y-100850000D03*
%TD*%
%TO.C,REF\u002A\u002A*%
X127600000Y-100850000D03*
%TD*%
%TO.C,REF\u002A\u002A*%
X128600000Y-100850000D03*
%TD*%
%TO.C,REF\u002A\u002A*%
X132600000Y-99000000D03*
%TD*%
%TO.C,REF\u002A\u002A*%
X131600000Y-99000000D03*
%TD*%
%TO.C,REF\u002A\u002A*%
X130600000Y-99000000D03*
%TD*%
%TO.C,REF\u002A\u002A*%
X129600000Y-99000000D03*
%TD*%
%TO.C,REF\u002A\u002A*%
X128600000Y-99000000D03*
%TD*%
%TO.C,REF\u002A\u002A*%
X127600000Y-99000000D03*
%TD*%
D18*
%TO.C,REF\u002A\u002A*%
X145100000Y-92800000D03*
%TD*%
D19*
%TO.C,J4*%
X159882000Y-91450000D03*
D20*
X157882000Y-91450000D03*
X155882000Y-91450000D03*
X153882000Y-91450000D03*
%TD*%
D21*
%TO.C,R3*%
X154000000Y-105900000D03*
X155650000Y-105900000D03*
%TD*%
D22*
%TO.C,C9*%
X142662500Y-106200000D03*
X145737500Y-106200000D03*
%TD*%
D23*
%TO.C,L2*%
X128650000Y-110662500D03*
X128650000Y-112237500D03*
%TD*%
D24*
%TO.C,E1*%
X127775000Y-106325000D03*
X132425000Y-106325000D03*
%TD*%
D25*
%TO.C,R4*%
X161400000Y-107775000D03*
X161400000Y-109425000D03*
%TD*%
D21*
%TO.C,R2*%
X150725000Y-105900000D03*
X152375000Y-105900000D03*
%TD*%
D26*
%TO.C,L1*%
X154580000Y-109925000D03*
X151270000Y-109925000D03*
%TD*%
D27*
%TO.C,C5*%
X138337500Y-106200000D03*
X135262500Y-106200000D03*
%TD*%
D28*
%TO.C,C11*%
X139525000Y-110450000D03*
X141075000Y-110450000D03*
%TD*%
%TO.C,C10*%
X139525000Y-112100000D03*
X141075000Y-112100000D03*
%TD*%
D29*
%TO.C,R1*%
X149000000Y-107325000D03*
X149000000Y-105675000D03*
%TD*%
D30*
%TO.C,C7*%
X136825000Y-110450000D03*
X135275000Y-110450000D03*
%TD*%
D28*
%TO.C,C17*%
X130275000Y-112200000D03*
X131825000Y-112200000D03*
%TD*%
D31*
%TO.C,C1*%
X157250000Y-106350000D03*
X159150000Y-106350000D03*
%TD*%
D30*
%TO.C,C8*%
X136825000Y-112100000D03*
X135275000Y-112100000D03*
%TD*%
D32*
%TO.C,C3*%
X148100000Y-109025000D03*
X148100000Y-111975000D03*
%TD*%
D33*
%TO.C,D2*%
X160812500Y-106100000D03*
X162387500Y-106100000D03*
%TD*%
D28*
%TO.C,C12*%
X139525000Y-108800000D03*
X141075000Y-108800000D03*
%TD*%
D32*
%TO.C,C19*%
X144600000Y-109025000D03*
X144600000Y-111975000D03*
%TD*%
D34*
%TO.C,SW1*%
X130850000Y-90350001D03*
X130850000Y-94449999D03*
X132450000Y-90350001D03*
X132450000Y-94449999D03*
D35*
X130225000Y-92400000D03*
%TD*%
D30*
%TO.C,C6*%
X136825000Y-108800000D03*
X135275000Y-108800000D03*
%TD*%
D28*
%TO.C,C14*%
X130275000Y-110550000D03*
X131825000Y-110550000D03*
%TD*%
D36*
%TO.C,U2*%
X160750000Y-116700000D03*
X160750000Y-118000000D03*
X160750000Y-119300000D03*
X160750000Y-120600000D03*
X160750000Y-121900000D03*
X160750000Y-123200000D03*
X160750000Y-124500000D03*
X160750000Y-128900000D03*
X160750000Y-130200000D03*
X160750000Y-131500000D03*
X160750000Y-132800000D03*
X160750000Y-134100000D03*
X160750000Y-135400000D03*
X160750000Y-136700000D03*
X160750000Y-138000000D03*
X160750000Y-139300000D03*
X160750000Y-140600000D03*
X160750000Y-141900000D03*
D37*
X154550000Y-143550000D03*
X153250000Y-143550000D03*
X151950000Y-143550000D03*
X150650000Y-143550000D03*
X149350000Y-143550000D03*
X148050000Y-143550000D03*
X146750000Y-143550000D03*
X145450000Y-143550000D03*
X144150000Y-143550000D03*
X142850000Y-143550000D03*
X141550000Y-143550000D03*
X140250000Y-143550000D03*
X138950000Y-143550000D03*
X137650000Y-143550000D03*
X136350000Y-143550000D03*
X135050000Y-143550000D03*
X133750000Y-143550000D03*
X132450000Y-143550000D03*
D36*
X129250000Y-141900000D03*
X129250000Y-140600000D03*
X129250000Y-139300000D03*
X129250000Y-138000000D03*
X129250000Y-136700000D03*
X129250000Y-135400000D03*
X129250000Y-134100000D03*
X129250000Y-132800000D03*
X129250000Y-131500000D03*
X129250000Y-130200000D03*
X129250000Y-128900000D03*
X129250000Y-124500000D03*
X129250000Y-123200000D03*
X129250000Y-121900000D03*
X129250000Y-120600000D03*
X129250000Y-119300000D03*
X129250000Y-118000000D03*
X129250000Y-116700000D03*
D37*
X132450000Y-115050000D03*
X133750000Y-115050000D03*
X135050000Y-115050000D03*
X136350000Y-115050000D03*
X137650000Y-115050000D03*
X138950000Y-115050000D03*
X140250000Y-115050000D03*
X141550000Y-115050000D03*
X142850000Y-115050000D03*
X144150000Y-115050000D03*
X145450000Y-115050000D03*
X146750000Y-115050000D03*
X148050000Y-115050000D03*
X149350000Y-115050000D03*
X150650000Y-115050000D03*
X151950000Y-115050000D03*
X153250000Y-115050000D03*
X154550000Y-115050000D03*
D38*
X136800000Y-119700000D03*
X136800000Y-124500000D03*
X136800000Y-129300000D03*
X136800000Y-134100000D03*
X136800000Y-138900000D03*
X140000000Y-119700000D03*
X140000000Y-124500000D03*
X140000000Y-129300000D03*
X140000000Y-134100000D03*
X140000000Y-138900000D03*
X143400000Y-119700000D03*
X143400000Y-124500000D03*
X143400000Y-134100000D03*
X143400000Y-138900000D03*
X146600000Y-119700000D03*
X146600000Y-124500000D03*
X146600000Y-134100000D03*
X146600000Y-138900000D03*
X150000000Y-119700000D03*
X150000000Y-124500000D03*
X150000000Y-129300000D03*
X150000000Y-134100000D03*
X150000000Y-138900000D03*
X153200000Y-124500000D03*
X153200000Y-129300000D03*
X153200000Y-134100000D03*
X153200000Y-138900000D03*
D37*
X155850000Y-115050000D03*
X157150000Y-115050000D03*
X155850000Y-143550000D03*
X157150000Y-143550000D03*
D39*
X156000000Y-118300000D03*
X156000000Y-120300000D03*
X156000000Y-122300000D03*
X156000000Y-124300000D03*
X156000000Y-126300000D03*
X156000000Y-128300000D03*
X156000000Y-130300000D03*
X156000000Y-132300000D03*
X156000000Y-134300000D03*
X156000000Y-136300000D03*
X156000000Y-138300000D03*
X156000000Y-140300000D03*
X158000000Y-118300000D03*
X158000000Y-120300000D03*
X158000000Y-122300000D03*
X158000000Y-124300000D03*
X158000000Y-126300000D03*
X158000000Y-128300000D03*
X158000000Y-130300000D03*
X158000000Y-132300000D03*
X158000000Y-134300000D03*
X158000000Y-136300000D03*
X158000000Y-138300000D03*
X158000000Y-140300000D03*
D36*
X160750000Y-126300000D03*
X160750000Y-127600000D03*
X129250000Y-127600000D03*
X129250000Y-126300000D03*
%TD*%
D25*
%TO.C,R15*%
X136050000Y-90725000D03*
X136050000Y-92375000D03*
%TD*%
D40*
%TO.C,D3*%
X134300000Y-92337500D03*
X134300000Y-90762500D03*
%TD*%
D33*
%TO.C,D1*%
X134412500Y-94150000D03*
X135987500Y-94150000D03*
%TD*%
D41*
%TO.C,U1*%
X157062500Y-110350000D03*
X157062500Y-109400000D03*
X157062500Y-108450000D03*
X159337500Y-108450000D03*
X159337500Y-109400000D03*
X159337500Y-110350000D03*
%TD*%
D30*
%TO.C,C2*%
X161275000Y-112150000D03*
X159725000Y-112150000D03*
%TD*%
M02*
