%TF.GenerationSoftware,KiCad,Pcbnew,(6.0.2-0)*%
%TF.CreationDate,2022-10-30T17:20:56+00:00*%
%TF.ProjectId,p3-cellular-module,70332d63-656c-46c7-956c-61722d6d6f64,rev?*%
%TF.SameCoordinates,Original*%
%TF.FileFunction,Copper,L2,Inr*%
%TF.FilePolarity,Positive*%
%FSLAX46Y46*%
G04 Gerber Fmt 4.6, Leading zero omitted, Abs format (unit mm)*
G04 Created by KiCad (PCBNEW (6.0.2-0)) date 2022-10-30 17:20:56*
%MOMM*%
%LPD*%
G01*
G04 APERTURE LIST*
%TA.AperFunction,ComponentPad*%
%ADD10C,3.800000*%
%TD*%
%TA.AperFunction,ComponentPad*%
%ADD11R,1.350000X1.350000*%
%TD*%
%TA.AperFunction,ComponentPad*%
%ADD12O,1.350000X1.350000*%
%TD*%
%TA.AperFunction,ViaPad*%
%ADD13C,0.550000*%
%TD*%
%TA.AperFunction,ViaPad*%
%ADD14C,0.686000*%
%TD*%
%TA.AperFunction,Conductor*%
%ADD15C,0.254000*%
%TD*%
%TA.AperFunction,Conductor*%
%ADD16C,0.512000*%
%TD*%
G04 APERTURE END LIST*
D10*
%TO.N,N/C*%
%TO.C,REF\u002A\u002A*%
X145100000Y-92800000D03*
%TD*%
D11*
%TO.N,VBUS*%
%TO.C,J4*%
X159882000Y-91450000D03*
D12*
%TO.N,GND*%
X157882000Y-91450000D03*
%TO.N,/USB Connector/USB_DN_RAW*%
X155882000Y-91450000D03*
%TO.N,/USB Connector/USB_DP_RAW*%
X153882000Y-91450000D03*
%TD*%
D13*
%TO.N,VBUS*%
X156800000Y-104100000D03*
X158400000Y-104100000D03*
X157200000Y-104700000D03*
X138100000Y-92900000D03*
X161101500Y-110600000D03*
X158000000Y-104700000D03*
X137400000Y-94150000D03*
X152525008Y-116875008D03*
X157600000Y-104100000D03*
%TO.N,GND*%
X152700000Y-104850000D03*
D14*
X149500000Y-120700000D03*
X147100000Y-118700000D03*
D13*
X131100000Y-124400000D03*
X131150000Y-121400000D03*
D14*
X137300000Y-128300000D03*
X152700000Y-128300000D03*
D13*
X142300000Y-91200000D03*
X147700000Y-104850000D03*
D14*
X147100000Y-120700000D03*
X150500000Y-124500000D03*
X153700000Y-138900000D03*
X142900000Y-123500000D03*
D13*
X133050000Y-110650000D03*
D14*
X147100000Y-125500000D03*
X147100000Y-138900000D03*
X153200000Y-133600000D03*
D13*
X143600000Y-141600000D03*
X158000000Y-116900000D03*
D14*
X136300000Y-118700000D03*
D13*
X159100000Y-129800000D03*
D14*
X150500000Y-137900000D03*
X153700000Y-120700000D03*
D13*
X133700000Y-141600000D03*
X142300000Y-92000000D03*
X161600000Y-105100000D03*
D14*
X150000000Y-133600000D03*
X152700000Y-134100000D03*
D13*
X158500000Y-112500000D03*
D14*
X150000000Y-120200000D03*
X142900000Y-125500000D03*
X152700000Y-120700000D03*
X149500000Y-119700000D03*
X149500000Y-135100000D03*
X146600000Y-133600000D03*
X150500000Y-138900000D03*
X147100000Y-139900000D03*
X150500000Y-118700000D03*
X153700000Y-125500000D03*
D13*
X134800000Y-121800000D03*
X150200000Y-104300000D03*
D14*
X152700000Y-139900000D03*
X146100000Y-135100000D03*
D13*
X131150000Y-120650000D03*
X136550000Y-95100000D03*
X157000000Y-111475000D03*
X128600000Y-115700000D03*
D14*
X140000000Y-125000000D03*
X139500000Y-120700000D03*
X150500000Y-128300000D03*
D13*
X149200000Y-104300000D03*
D14*
X149500000Y-139900000D03*
X136800000Y-124000000D03*
D13*
X132800000Y-141700000D03*
X142350000Y-111900000D03*
X159100000Y-129050000D03*
D14*
X140500000Y-118700000D03*
D13*
X136050000Y-103400000D03*
D14*
X140000000Y-120200000D03*
D13*
X133700000Y-123500000D03*
X156225000Y-112500000D03*
D14*
X153700000Y-129300000D03*
D13*
X141850000Y-110000000D03*
D14*
X150000000Y-119200000D03*
D13*
X131700000Y-141000000D03*
D14*
X146600000Y-124000000D03*
X143400000Y-139400000D03*
X143400000Y-134600000D03*
X143900000Y-125500000D03*
X149500000Y-137900000D03*
D13*
X130000000Y-144300000D03*
D14*
X146600000Y-120200000D03*
X153700000Y-137900000D03*
D13*
X149700000Y-104850000D03*
X131150000Y-122150000D03*
X148150000Y-141600000D03*
X157350000Y-111975000D03*
X129300000Y-144300000D03*
D14*
X152700000Y-135100000D03*
D13*
X153700000Y-104850000D03*
D14*
X150000000Y-125000000D03*
D13*
X136458814Y-106541186D03*
D14*
X143900000Y-138900000D03*
X150500000Y-123500000D03*
X152700000Y-119700000D03*
X147100000Y-124500000D03*
D13*
X154575000Y-116900000D03*
D14*
X140000000Y-139400000D03*
X150500000Y-133100000D03*
X150500000Y-129300000D03*
X153200000Y-128800000D03*
X137300000Y-120700000D03*
X136300000Y-137900000D03*
D13*
X159100000Y-128300000D03*
X131800000Y-124400000D03*
X154200000Y-104300000D03*
X134800000Y-121050000D03*
X131800000Y-130950000D03*
X162350000Y-105100000D03*
D14*
X137300000Y-137900000D03*
X142900000Y-138900000D03*
D13*
X131900000Y-119150000D03*
D14*
X150500000Y-135100000D03*
X137300000Y-134100000D03*
X142900000Y-135100000D03*
D13*
X154600000Y-117600000D03*
X131100000Y-132900000D03*
X150700000Y-104850000D03*
D14*
X153200000Y-119200000D03*
X136800000Y-134600000D03*
D13*
X134100000Y-110650000D03*
D14*
X136800000Y-119200000D03*
D13*
X134250000Y-122900000D03*
X141150000Y-113000000D03*
D14*
X136300000Y-135100000D03*
D13*
X131100000Y-125900000D03*
D14*
X139500000Y-119700000D03*
D13*
X150050000Y-110950000D03*
X128600000Y-115000000D03*
D14*
X146100000Y-123500000D03*
X136800000Y-133600000D03*
X139500000Y-135100000D03*
X142900000Y-119700000D03*
D13*
X131900000Y-119900000D03*
X151700000Y-104850000D03*
X137400000Y-95100000D03*
X153850000Y-141600000D03*
D14*
X146100000Y-139900000D03*
X136800000Y-129800000D03*
X153700000Y-134100000D03*
X147100000Y-135100000D03*
X143400000Y-138400000D03*
D13*
X142350000Y-111150000D03*
D14*
X142900000Y-124500000D03*
D13*
X134100000Y-121400000D03*
D14*
X150500000Y-130300000D03*
D13*
X145800000Y-141600000D03*
D14*
X140500000Y-130300000D03*
D13*
X139750000Y-141600000D03*
D14*
X140500000Y-120700000D03*
D13*
X147200000Y-105650000D03*
X131100000Y-135200000D03*
D14*
X142900000Y-118700000D03*
D13*
X133550000Y-110300000D03*
X133150000Y-124050000D03*
X147800000Y-106050000D03*
D14*
X136300000Y-138900000D03*
D13*
X149600000Y-141600000D03*
D14*
X153700000Y-119700000D03*
X136300000Y-123500000D03*
X152700000Y-138900000D03*
D13*
X131100000Y-131400000D03*
X157750000Y-111475000D03*
D14*
X146100000Y-133100000D03*
X150500000Y-134100000D03*
D13*
X131150000Y-117650000D03*
X128600000Y-144300000D03*
X147200000Y-107150000D03*
D14*
X152700000Y-123500000D03*
D13*
X146700000Y-104850000D03*
D14*
X143900000Y-119700000D03*
X150500000Y-119700000D03*
D13*
X159100000Y-131350000D03*
X153200000Y-104300000D03*
D14*
X149500000Y-130300000D03*
X152700000Y-118700000D03*
X150000000Y-124000000D03*
X139500000Y-125500000D03*
X149500000Y-128300000D03*
X142900000Y-137900000D03*
D13*
X131100000Y-136750000D03*
X157725000Y-112500000D03*
X131100000Y-137500000D03*
D14*
X142900000Y-133100000D03*
D13*
X134100000Y-118400000D03*
X131100000Y-129800000D03*
X153150000Y-141600000D03*
X156600000Y-111975000D03*
D14*
X153200000Y-138400000D03*
D13*
X129600000Y-90750000D03*
D14*
X137300000Y-118700000D03*
X153700000Y-128300000D03*
D13*
X134100000Y-112150000D03*
D14*
X147100000Y-134100000D03*
X137300000Y-135100000D03*
X143400000Y-119200000D03*
X140500000Y-139900000D03*
D13*
X131050000Y-114550000D03*
D14*
X153700000Y-118700000D03*
D13*
X132450000Y-123850000D03*
X131100000Y-130550000D03*
D14*
X153700000Y-135100000D03*
D13*
X148900000Y-141600000D03*
X159100000Y-130600000D03*
D14*
X153200000Y-125000000D03*
D13*
X131100000Y-139850000D03*
X133550000Y-117050000D03*
X134100000Y-119150000D03*
X130700000Y-144300000D03*
X138300000Y-141600000D03*
D14*
X146100000Y-137900000D03*
X140000000Y-133600000D03*
D13*
X138200000Y-95100000D03*
D14*
X142900000Y-120700000D03*
D13*
X159350000Y-144275000D03*
D14*
X136300000Y-119700000D03*
X149500000Y-118700000D03*
D13*
X131100000Y-128200000D03*
D14*
X146100000Y-119700000D03*
X150500000Y-125500000D03*
X140500000Y-138900000D03*
X147100000Y-133100000D03*
D13*
X135200000Y-141600000D03*
X141850000Y-112250000D03*
D14*
X140500000Y-125500000D03*
D13*
X133550000Y-112550000D03*
D14*
X137300000Y-133100000D03*
D13*
X147400000Y-113375000D03*
X133050000Y-112150000D03*
X134100000Y-119900000D03*
D14*
X139500000Y-138900000D03*
X143900000Y-137900000D03*
X137300000Y-125500000D03*
X146100000Y-138900000D03*
D13*
X147250000Y-110500000D03*
X154900000Y-104000000D03*
D14*
X150000000Y-129800000D03*
X140000000Y-129800000D03*
D13*
X146850000Y-111000000D03*
D14*
X140000000Y-128800000D03*
X150000000Y-139400000D03*
D13*
X154900000Y-103000000D03*
D14*
X136800000Y-120200000D03*
X146600000Y-139400000D03*
X140500000Y-123500000D03*
D13*
X131100000Y-139050000D03*
X131100000Y-140600000D03*
D14*
X147100000Y-137900000D03*
D13*
X134100000Y-122150000D03*
D14*
X143900000Y-120700000D03*
X143400000Y-125000000D03*
D13*
X133550000Y-111050000D03*
D14*
X137300000Y-130300000D03*
X139500000Y-128300000D03*
X137300000Y-139900000D03*
X136300000Y-133100000D03*
D13*
X131800000Y-125150000D03*
X145050000Y-141600000D03*
D14*
X149500000Y-129300000D03*
D13*
X147200000Y-104300000D03*
D14*
X136300000Y-139900000D03*
X143900000Y-135100000D03*
D13*
X133050000Y-111400000D03*
D14*
X153200000Y-120200000D03*
X136300000Y-124500000D03*
X153700000Y-124500000D03*
X139500000Y-124500000D03*
D13*
X134100000Y-120650000D03*
D14*
X137300000Y-124500000D03*
X142900000Y-139900000D03*
X143900000Y-139900000D03*
D13*
X158650000Y-144275000D03*
D14*
X146600000Y-119200000D03*
D13*
X156975000Y-112500000D03*
D14*
X152700000Y-133100000D03*
X136300000Y-125500000D03*
D13*
X159350000Y-105100000D03*
X131100000Y-138300000D03*
D14*
X136300000Y-128300000D03*
X149500000Y-123500000D03*
D13*
X161450000Y-144275000D03*
X128600000Y-143600000D03*
X132050000Y-141700000D03*
X131100000Y-133700000D03*
D14*
X136300000Y-130300000D03*
X149500000Y-134100000D03*
D13*
X154550000Y-141600000D03*
X147800000Y-106800000D03*
X133550000Y-111800000D03*
X134800000Y-119550000D03*
D14*
X150000000Y-138400000D03*
D13*
X133550000Y-122750000D03*
D14*
X139500000Y-139900000D03*
D13*
X131400000Y-144300000D03*
D14*
X150500000Y-120700000D03*
D13*
X160850000Y-105100000D03*
D14*
X142900000Y-134100000D03*
D13*
X136750000Y-141600000D03*
D14*
X152700000Y-129300000D03*
X153200000Y-129800000D03*
D13*
X134450000Y-141600000D03*
D14*
X153700000Y-123500000D03*
D13*
X132450000Y-141000000D03*
D14*
X146100000Y-118700000D03*
D13*
X141300000Y-141600000D03*
D14*
X139500000Y-133100000D03*
D13*
X154000000Y-117250000D03*
X160050000Y-144275000D03*
D14*
X150500000Y-139900000D03*
X137300000Y-129300000D03*
X140000000Y-138400000D03*
X146600000Y-138400000D03*
D13*
X146600000Y-141600000D03*
X160100000Y-105100000D03*
X139000000Y-141600000D03*
D14*
X149500000Y-133100000D03*
D13*
X129300000Y-115700000D03*
D14*
X137300000Y-123500000D03*
D13*
X147350000Y-141600000D03*
D14*
X143900000Y-124500000D03*
D13*
X136000000Y-141600000D03*
X131150000Y-113500000D03*
X161450000Y-142875000D03*
D14*
X146100000Y-134100000D03*
X153200000Y-124000000D03*
D13*
X131100000Y-126700000D03*
X131900000Y-121400000D03*
X144300000Y-141600000D03*
X137150000Y-106550000D03*
X137400000Y-92400000D03*
X131100000Y-125150000D03*
D14*
X140000000Y-124000000D03*
D13*
X128600000Y-142900000D03*
D14*
X143400000Y-133600000D03*
D13*
X132600000Y-124600000D03*
D14*
X143400000Y-120200000D03*
D13*
X154350000Y-102500000D03*
X141800000Y-113000000D03*
X131100000Y-129000000D03*
D14*
X152700000Y-124500000D03*
D13*
X142850000Y-141600000D03*
D14*
X146600000Y-134600000D03*
D13*
X147650000Y-111000000D03*
D14*
X136800000Y-125000000D03*
X146100000Y-120700000D03*
D13*
X131100000Y-132150000D03*
X148200000Y-104300000D03*
D14*
X140500000Y-124500000D03*
X140500000Y-129300000D03*
X149500000Y-124500000D03*
X139500000Y-130300000D03*
X146100000Y-125500000D03*
D13*
X133000000Y-123300000D03*
X136800000Y-105950000D03*
X140500000Y-141600000D03*
X146350000Y-111950000D03*
X151200000Y-104300000D03*
D14*
X147100000Y-119700000D03*
D13*
X130000000Y-113550000D03*
D14*
X140000000Y-119200000D03*
X143900000Y-123500000D03*
D13*
X131150000Y-118400000D03*
D14*
X140500000Y-135100000D03*
D13*
X161450000Y-143575000D03*
D14*
X153700000Y-139900000D03*
X140500000Y-134100000D03*
X140000000Y-134600000D03*
X153200000Y-139400000D03*
D13*
X142350000Y-109650000D03*
X134100000Y-117650000D03*
D14*
X149500000Y-138900000D03*
X136800000Y-138400000D03*
D13*
X131100000Y-136000000D03*
D14*
X136800000Y-128800000D03*
D13*
X131100000Y-134450000D03*
X142350000Y-112650000D03*
D14*
X139500000Y-123500000D03*
D13*
X141850000Y-109250000D03*
X142300000Y-92800000D03*
D14*
X143900000Y-133100000D03*
X139500000Y-137900000D03*
D13*
X155250000Y-141600000D03*
X163100000Y-105100000D03*
D14*
X140500000Y-128300000D03*
D13*
X131100000Y-127450000D03*
D14*
X152700000Y-137900000D03*
D13*
X146200000Y-104300000D03*
D14*
X136300000Y-134100000D03*
D13*
X142350000Y-108900000D03*
D14*
X136800000Y-139400000D03*
D13*
X134800000Y-118800000D03*
D14*
X139500000Y-118700000D03*
D13*
X158700000Y-116875000D03*
D14*
X143400000Y-124000000D03*
D13*
X131900000Y-120650000D03*
D14*
X153700000Y-133100000D03*
D13*
X134100000Y-111400000D03*
D14*
X140500000Y-133100000D03*
X152700000Y-130300000D03*
X147100000Y-123500000D03*
X137300000Y-138900000D03*
X146100000Y-124500000D03*
D13*
X137550000Y-141600000D03*
X154900000Y-102000000D03*
X130550000Y-114050000D03*
D14*
X152700000Y-125500000D03*
D13*
X134800000Y-120300000D03*
D14*
X139500000Y-134100000D03*
X137300000Y-119700000D03*
D13*
X131800000Y-129450000D03*
X142350000Y-110400000D03*
X136050000Y-101850000D03*
X131150000Y-119900000D03*
X158100000Y-111975000D03*
D14*
X153200000Y-134600000D03*
D13*
X160750000Y-144275000D03*
D14*
X149500000Y-125500000D03*
X150000000Y-134600000D03*
X136300000Y-120700000D03*
X146600000Y-125000000D03*
D13*
X150050000Y-111675000D03*
X131900000Y-118400000D03*
X147200000Y-106400000D03*
D14*
X136300000Y-129300000D03*
X139500000Y-129300000D03*
X140500000Y-119700000D03*
X153700000Y-130300000D03*
D13*
X141850000Y-111500000D03*
X158350000Y-116300000D03*
X131150000Y-119150000D03*
X142050000Y-141600000D03*
X133200000Y-141000000D03*
X141850000Y-110750000D03*
X150350000Y-141600000D03*
D14*
X150000000Y-128800000D03*
D13*
X154350000Y-103500000D03*
D14*
X143900000Y-134100000D03*
D13*
X152200000Y-104300000D03*
X131800000Y-130200000D03*
D14*
X140500000Y-137900000D03*
X143900000Y-118700000D03*
D13*
%TO.N,+3V8*%
X140200000Y-106150000D03*
X139650000Y-105650000D03*
X139650000Y-106650000D03*
X140850000Y-106650000D03*
X140200000Y-107150000D03*
X140850000Y-105650000D03*
X141400000Y-106150000D03*
X140200000Y-105150000D03*
X137644980Y-116850000D03*
X141400000Y-105150000D03*
X149750000Y-106600000D03*
X141400000Y-107150000D03*
X162650000Y-107500000D03*
%TO.N,Net-(R2-Pad2)*%
X159175000Y-107650000D03*
X153900000Y-106950000D03*
%TO.N,/Cellular Modem/USIM_VDD*%
X159500000Y-114150000D03*
X159050000Y-134700000D03*
X153430498Y-110850000D03*
X158200000Y-114150000D03*
X158850000Y-114150000D03*
X152775500Y-110850000D03*
X159050000Y-136000000D03*
%TO.N,Net-(C15-Pad1)*%
X155650000Y-106901500D03*
X152500000Y-108600000D03*
%TO.N,Net-(C18-Pad1)*%
X153900000Y-113400000D03*
X150100000Y-113450000D03*
%TO.N,/Cellular Modem/STAT_OD*%
X161703000Y-111100000D03*
X140250000Y-116850000D03*
%TO.N,/Cellular Modem/NET_STAT_DRV*%
X133350000Y-93300000D03*
X139100000Y-122100000D03*
X134200000Y-101900000D03*
X158950000Y-123300000D03*
%TO.N,Net-(D1-Pad1)*%
X137400000Y-93300000D03*
%TO.N,/Cellular Modem/USIM_RST*%
X159075000Y-139925000D03*
%TO.N,/Cellular Modem/USIM_CLK*%
X155075000Y-139325000D03*
%TO.N,/Cellular Modem/USIM_DATA*%
X156775000Y-137275000D03*
%TO.N,/Cellular Modem/USB_DP*%
X149799675Y-116850325D03*
X143998500Y-103200000D03*
%TO.N,/Cellular Modem/USB_DN*%
X139250000Y-95100000D03*
X151298500Y-116850000D03*
X144000000Y-102000000D03*
%TO.N,Net-(TP9-Pad1)*%
X159100000Y-132150000D03*
%TO.N,Net-(TP10-Pad1)*%
X159100000Y-133400000D03*
%TO.N,/Cellular Modem/PWRKEY*%
X151950000Y-141500000D03*
X134175000Y-103375000D03*
X129600000Y-94450000D03*
X138400000Y-127750000D03*
%TO.N,Net-(TP7-Pad1)*%
X147500000Y-116850000D03*
X134300000Y-125800000D03*
X148000000Y-121475000D03*
%TO.N,Net-(TP8-Pad1)*%
X148700000Y-116850000D03*
X134300000Y-128050000D03*
X148525000Y-122725000D03*
%TO.N,Net-(TP1-Pad1)*%
X158200000Y-142700000D03*
%TD*%
D15*
%TO.N,VBUS*%
X161101500Y-113599166D02*
X159854186Y-114846480D01*
X159854186Y-114846480D02*
X154553536Y-114846480D01*
X154553536Y-114846480D02*
X152525008Y-116875008D01*
X161101500Y-110600000D02*
X161101500Y-113599166D01*
%TO.N,+3V8*%
X154758626Y-106300000D02*
X150050000Y-106300000D01*
X158046469Y-105846469D02*
X155212157Y-105846469D01*
X159250000Y-107050000D02*
X158046469Y-105846469D01*
X162200000Y-107050000D02*
X159250000Y-107050000D01*
X150050000Y-106300000D02*
X149750000Y-106600000D01*
X155212157Y-105846469D02*
X154758626Y-106300000D01*
X162650000Y-107500000D02*
X162200000Y-107050000D01*
%TO.N,Net-(R2-Pad2)*%
X154750000Y-106950000D02*
X155400011Y-106299989D01*
X153900000Y-106950000D02*
X154750000Y-106950000D01*
X155400011Y-106299989D02*
X157824989Y-106299989D01*
X157824989Y-106299989D02*
X159175000Y-107650000D01*
D16*
%TO.N,/Cellular Modem/USIM_VDD*%
X153430498Y-110850000D02*
X153430498Y-111330998D01*
X158850000Y-114150000D02*
X159500000Y-114150000D01*
X153430498Y-111330998D02*
X156249500Y-114150000D01*
X158200000Y-114150000D02*
X158850000Y-114150000D01*
X156249500Y-114150000D02*
X158200000Y-114150000D01*
D15*
%TO.N,Net-(C15-Pad1)*%
X153550000Y-107550000D02*
X153649334Y-107550000D01*
X154999989Y-107551511D02*
X155650000Y-106901500D01*
X153649334Y-107550000D02*
X153650845Y-107551511D01*
X152500000Y-108600000D02*
X153550000Y-107550000D01*
X153650845Y-107551511D02*
X154999989Y-107551511D01*
%TO.N,Net-(C18-Pad1)*%
X153900000Y-113400000D02*
X150150000Y-113400000D01*
X150150000Y-113400000D02*
X150100000Y-113450000D01*
%TO.N,/Cellular Modem/STAT_OD*%
X161555020Y-111247980D02*
X161555020Y-113787020D01*
X161703000Y-111100000D02*
X161555020Y-111247980D01*
X152750666Y-117500000D02*
X140900000Y-117500000D01*
X161555020Y-113787020D02*
X160042040Y-115300000D01*
X154950666Y-115300000D02*
X152750666Y-117500000D01*
X140900000Y-117500000D02*
X140250000Y-116850000D01*
X160042040Y-115300000D02*
X154950666Y-115300000D01*
%TO.N,/Cellular Modem/NET_STAT_DRV*%
X153950000Y-122100000D02*
X139100000Y-122100000D01*
X155150000Y-123300000D02*
X153950000Y-122100000D01*
X158950000Y-123300000D02*
X155150000Y-123300000D01*
%TO.N,/Cellular Modem/PWRKEY*%
X151525000Y-141075000D02*
X151950000Y-141500000D01*
X138400000Y-140350000D02*
X139125000Y-141075000D01*
X138400000Y-127750000D02*
X138400000Y-140350000D01*
X139125000Y-141075000D02*
X151525000Y-141075000D01*
%TO.N,Net-(TP7-Pad1)*%
X138150000Y-122199334D02*
X138150000Y-126000000D01*
X137450000Y-126700000D02*
X135200000Y-126700000D01*
X148000000Y-121475000D02*
X147976511Y-121498489D01*
X147976511Y-121498489D02*
X138850845Y-121498489D01*
X138150000Y-126000000D02*
X137450000Y-126700000D01*
X135200000Y-126700000D02*
X134300000Y-125800000D01*
X138850845Y-121498489D02*
X138150000Y-122199334D01*
%TO.N,Net-(TP8-Pad1)*%
X139025000Y-122725000D02*
X138625000Y-123125000D01*
X148525000Y-122725000D02*
X139025000Y-122725000D01*
X137591374Y-127200000D02*
X135150000Y-127200000D01*
X138625000Y-126166374D02*
X137591374Y-127200000D01*
X135150000Y-127200000D02*
X134300000Y-128050000D01*
X138625000Y-123125000D02*
X138625000Y-126166374D01*
%TD*%
%TA.AperFunction,Conductor*%
%TO.N,/Cellular Modem/USIM_VDD*%
G36*
X153742121Y-110570002D02*
G01*
X153788614Y-110623658D01*
X153800000Y-110676000D01*
X153800000Y-111024000D01*
X153779998Y-111092121D01*
X153726342Y-111138614D01*
X153674000Y-111150000D01*
X152526000Y-111150000D01*
X152457879Y-111129998D01*
X152411386Y-111076342D01*
X152400000Y-111024000D01*
X152400000Y-110676000D01*
X152420002Y-110607879D01*
X152473658Y-110561386D01*
X152526000Y-110550000D01*
X153674000Y-110550000D01*
X153742121Y-110570002D01*
G37*
%TD.AperFunction*%
%TD*%
%TA.AperFunction,Conductor*%
%TO.N,VBUS*%
G36*
X160218733Y-89550285D02*
G01*
X160225917Y-89552460D01*
X160236926Y-89551852D01*
X160244311Y-89552738D01*
X160257672Y-89555076D01*
X160315599Y-89568462D01*
X160349961Y-89576403D01*
X160375541Y-89585302D01*
X160477775Y-89633750D01*
X160500861Y-89647913D01*
X160590368Y-89717092D01*
X160609895Y-89735865D01*
X160682542Y-89822576D01*
X160697608Y-89845094D01*
X160750039Y-89945331D01*
X160759939Y-89970541D01*
X160789732Y-90079678D01*
X160794014Y-90106425D01*
X160795774Y-90140874D01*
X160779274Y-90209927D01*
X160728060Y-90259097D01*
X160656331Y-90272566D01*
X160608488Y-90267369D01*
X160601672Y-90267000D01*
X160400115Y-90267000D01*
X160384876Y-90271475D01*
X160383671Y-90272865D01*
X160382000Y-90280548D01*
X160382000Y-92614884D01*
X160386475Y-92630123D01*
X160387865Y-92631328D01*
X160395548Y-92632999D01*
X160601669Y-92632999D01*
X160608490Y-92632629D01*
X160660395Y-92626992D01*
X160730277Y-92639521D01*
X160782292Y-92687843D01*
X160800000Y-92752255D01*
X160800000Y-95487825D01*
X160799759Y-95491651D01*
X160797787Y-95498012D01*
X160798278Y-95508119D01*
X160798207Y-95509924D01*
X160798049Y-95511172D01*
X160798061Y-95513653D01*
X160792292Y-95660687D01*
X160791991Y-95668347D01*
X160801801Y-95740915D01*
X160807371Y-95782121D01*
X160796675Y-95852307D01*
X160749731Y-95905569D01*
X160682507Y-95925000D01*
X156862407Y-95925000D01*
X156799953Y-95908433D01*
X156638916Y-95816528D01*
X156638912Y-95816526D01*
X156634547Y-95814035D01*
X156436488Y-95739731D01*
X156429792Y-95738379D01*
X156411940Y-95734775D01*
X156269482Y-95706013D01*
X156264635Y-95704935D01*
X156260442Y-95703914D01*
X156252173Y-95700615D01*
X156245900Y-95700000D01*
X156241132Y-95700000D01*
X156239099Y-95699879D01*
X156232485Y-95698543D01*
X156229172Y-95697540D01*
X156188092Y-95699808D01*
X156181146Y-95700000D01*
X154104640Y-95700000D01*
X154097694Y-95699808D01*
X154056614Y-95697540D01*
X154051106Y-95699207D01*
X153956099Y-95717812D01*
X153851070Y-95738379D01*
X153851063Y-95738381D01*
X153846487Y-95739277D01*
X153644660Y-95810985D01*
X153640545Y-95813177D01*
X153640542Y-95813178D01*
X153458359Y-95910210D01*
X153399128Y-95925000D01*
X146863740Y-95925000D01*
X146801524Y-95908568D01*
X146801287Y-95908433D01*
X146634884Y-95813944D01*
X146436609Y-95739853D01*
X146431713Y-95738867D01*
X146431700Y-95738863D01*
X146273664Y-95707026D01*
X146268759Y-95705936D01*
X146260433Y-95703910D01*
X146252173Y-95700615D01*
X146245900Y-95700000D01*
X146241131Y-95700000D01*
X146237790Y-95699800D01*
X146234353Y-95699108D01*
X146229174Y-95697540D01*
X146218161Y-95698148D01*
X146188094Y-95699808D01*
X146181148Y-95700000D01*
X144104640Y-95700000D01*
X144097694Y-95699808D01*
X144056614Y-95697540D01*
X144050835Y-95699289D01*
X144022640Y-95704822D01*
X143851325Y-95738440D01*
X143851321Y-95738441D01*
X143846730Y-95739342D01*
X143731018Y-95780608D01*
X143649615Y-95809639D01*
X143649613Y-95809640D01*
X143645202Y-95811213D01*
X143641079Y-95813420D01*
X143641062Y-95813427D01*
X143460432Y-95910092D01*
X143400981Y-95925000D01*
X139314968Y-95925000D01*
X139246847Y-95904998D01*
X139245937Y-95903947D01*
X139204446Y-95923495D01*
X139185032Y-95925000D01*
X138264968Y-95925000D01*
X138196847Y-95904998D01*
X138195937Y-95903947D01*
X138154446Y-95923495D01*
X138135032Y-95925000D01*
X137464968Y-95925000D01*
X137396847Y-95904998D01*
X137395937Y-95903947D01*
X137354446Y-95923495D01*
X137335032Y-95925000D01*
X136862407Y-95925000D01*
X136799954Y-95908433D01*
X136729791Y-95868391D01*
X136680541Y-95817254D01*
X136666756Y-95747609D01*
X136692813Y-95681566D01*
X136744025Y-95642550D01*
X136832599Y-95605861D01*
X136832604Y-95605858D01*
X136840233Y-95602698D01*
X136898298Y-95558143D01*
X136964515Y-95532543D01*
X137034064Y-95546807D01*
X137051695Y-95558138D01*
X137109767Y-95602698D01*
X137249764Y-95660687D01*
X137307947Y-95668347D01*
X137351478Y-95674078D01*
X137401383Y-95696155D01*
X137429470Y-95678104D01*
X137448522Y-95674078D01*
X137492053Y-95668347D01*
X137550236Y-95660687D01*
X137690233Y-95602698D01*
X137723298Y-95577326D01*
X137789517Y-95551727D01*
X137859065Y-95565992D01*
X137876699Y-95577324D01*
X137909767Y-95602698D01*
X138049764Y-95660687D01*
X138107947Y-95668347D01*
X138151478Y-95674078D01*
X138201383Y-95696155D01*
X138229470Y-95678104D01*
X138248522Y-95674078D01*
X138292053Y-95668347D01*
X138350236Y-95660687D01*
X138490233Y-95602698D01*
X138610451Y-95510451D01*
X138625038Y-95491441D01*
X138682376Y-95449574D01*
X138753247Y-95445352D01*
X138815150Y-95480116D01*
X138824962Y-95491441D01*
X138839549Y-95510451D01*
X138959767Y-95602698D01*
X139099764Y-95660687D01*
X139157947Y-95668347D01*
X139201478Y-95674078D01*
X139251383Y-95696155D01*
X139279470Y-95678104D01*
X139298522Y-95674078D01*
X139342053Y-95668347D01*
X139400236Y-95660687D01*
X139540233Y-95602698D01*
X139660451Y-95510451D01*
X139752698Y-95390233D01*
X139810687Y-95250236D01*
X139830466Y-95100000D01*
X139810687Y-94949764D01*
X139752698Y-94809767D01*
X139660451Y-94689549D01*
X139540233Y-94597302D01*
X139400236Y-94539313D01*
X139250000Y-94519534D01*
X139099764Y-94539313D01*
X138959767Y-94597302D01*
X138839549Y-94689549D01*
X138834523Y-94696099D01*
X138824962Y-94708559D01*
X138767624Y-94750426D01*
X138696753Y-94754648D01*
X138634850Y-94719884D01*
X138625038Y-94708559D01*
X138615477Y-94696099D01*
X138610451Y-94689549D01*
X138490233Y-94597302D01*
X138350236Y-94539313D01*
X138200000Y-94519534D01*
X138049764Y-94539313D01*
X137909767Y-94597302D01*
X137876702Y-94622674D01*
X137810483Y-94648273D01*
X137740935Y-94634008D01*
X137723301Y-94622676D01*
X137690233Y-94597302D01*
X137550236Y-94539313D01*
X137400000Y-94519534D01*
X137249764Y-94539313D01*
X137109767Y-94597302D01*
X137051702Y-94641857D01*
X136985485Y-94667457D01*
X136915936Y-94653193D01*
X136898305Y-94641862D01*
X136840233Y-94597302D01*
X136700236Y-94539313D01*
X136550000Y-94519534D01*
X136399764Y-94539313D01*
X136259767Y-94597302D01*
X136139549Y-94689549D01*
X136047302Y-94809767D01*
X135989313Y-94949764D01*
X135969534Y-95100000D01*
X135989313Y-95250236D01*
X136047302Y-95390233D01*
X136052329Y-95396784D01*
X136052330Y-95396786D01*
X136092836Y-95449574D01*
X136124526Y-95490872D01*
X136129455Y-95497296D01*
X136155056Y-95563516D01*
X136140792Y-95633065D01*
X136091190Y-95683861D01*
X136029493Y-95700000D01*
X134104640Y-95700000D01*
X134097694Y-95699808D01*
X134056614Y-95697540D01*
X134051106Y-95699207D01*
X133956099Y-95717812D01*
X133851070Y-95738379D01*
X133851063Y-95738381D01*
X133846487Y-95739277D01*
X133644660Y-95810985D01*
X133640545Y-95813177D01*
X133640542Y-95813178D01*
X133458359Y-95910210D01*
X133399128Y-95925000D01*
X129513940Y-95925000D01*
X129445819Y-95904998D01*
X129399326Y-95851342D01*
X129389076Y-95782121D01*
X129394646Y-95740915D01*
X129404456Y-95668347D01*
X129404156Y-95660687D01*
X129398386Y-95513653D01*
X129398398Y-95511168D01*
X129398240Y-95509918D01*
X129398169Y-95508119D01*
X129398660Y-95498012D01*
X129396740Y-95491815D01*
X129396512Y-95488166D01*
X129396970Y-95147243D01*
X129417064Y-95079149D01*
X129470782Y-95032728D01*
X129539416Y-95022490D01*
X129600000Y-95030466D01*
X129608188Y-95029388D01*
X129742048Y-95011765D01*
X129750236Y-95010687D01*
X129764082Y-95004952D01*
X129808324Y-94986626D01*
X129890233Y-94952698D01*
X130010451Y-94860451D01*
X130102698Y-94740233D01*
X130160687Y-94600236D01*
X130180466Y-94450000D01*
X130160687Y-94299764D01*
X130102698Y-94159767D01*
X130010451Y-94039549D01*
X129890233Y-93947302D01*
X129750236Y-93889313D01*
X129600000Y-93869534D01*
X129591812Y-93870612D01*
X129541292Y-93877263D01*
X129471143Y-93866324D01*
X129418045Y-93819195D01*
X129398846Y-93752172D01*
X129399454Y-93300000D01*
X132769534Y-93300000D01*
X132789313Y-93450236D01*
X132847302Y-93590233D01*
X132939549Y-93710451D01*
X133059767Y-93802698D01*
X133199764Y-93860687D01*
X133350000Y-93880466D01*
X133358188Y-93879388D01*
X133492048Y-93861765D01*
X133500236Y-93860687D01*
X133640233Y-93802698D01*
X133760451Y-93710451D01*
X133852698Y-93590233D01*
X133910687Y-93450236D01*
X133930466Y-93300000D01*
X136819534Y-93300000D01*
X136839313Y-93450236D01*
X136897302Y-93590233D01*
X136989549Y-93710451D01*
X137109767Y-93802698D01*
X137249764Y-93860687D01*
X137400000Y-93880466D01*
X137408188Y-93879388D01*
X137542048Y-93861765D01*
X137550236Y-93860687D01*
X137690233Y-93802698D01*
X137810451Y-93710451D01*
X137902698Y-93590233D01*
X137960687Y-93450236D01*
X137980466Y-93300000D01*
X137960687Y-93149764D01*
X137902698Y-93009767D01*
X137838961Y-92926704D01*
X137813360Y-92860484D01*
X137825765Y-92800000D01*
X141719534Y-92800000D01*
X141739313Y-92950236D01*
X141797302Y-93090233D01*
X141889549Y-93210451D01*
X142009767Y-93302698D01*
X142149764Y-93360687D01*
X142300000Y-93380466D01*
X142308188Y-93379388D01*
X142442048Y-93361765D01*
X142450236Y-93360687D01*
X142590233Y-93302698D01*
X142710451Y-93210451D01*
X142721897Y-93195535D01*
X142779235Y-93153671D01*
X142850106Y-93149451D01*
X142912008Y-93184216D01*
X142945435Y-93247662D01*
X142967917Y-93360687D01*
X142969919Y-93370753D01*
X142971245Y-93374659D01*
X142971246Y-93374663D01*
X143041833Y-93582603D01*
X143062641Y-93643902D01*
X143064462Y-93647595D01*
X143064463Y-93647597D01*
X143183133Y-93888235D01*
X143190222Y-93902611D01*
X143192516Y-93906044D01*
X143286098Y-94046099D01*
X143350480Y-94142454D01*
X143353194Y-94145548D01*
X143353198Y-94145554D01*
X143495618Y-94307952D01*
X143540673Y-94359327D01*
X143543762Y-94362036D01*
X143754446Y-94546802D01*
X143754452Y-94546806D01*
X143757546Y-94549520D01*
X143760972Y-94551809D01*
X143760977Y-94551813D01*
X143934051Y-94667457D01*
X143997389Y-94709778D01*
X144001088Y-94711602D01*
X144001093Y-94711605D01*
X144215619Y-94817397D01*
X144256098Y-94837359D01*
X144259996Y-94838682D01*
X144259998Y-94838683D01*
X144525337Y-94928754D01*
X144525341Y-94928755D01*
X144529247Y-94930081D01*
X144533291Y-94930885D01*
X144533297Y-94930887D01*
X144808118Y-94985552D01*
X144808121Y-94985552D01*
X144812161Y-94986356D01*
X144816272Y-94986625D01*
X144816276Y-94986626D01*
X145095881Y-95004952D01*
X145100000Y-95005222D01*
X145104119Y-95004952D01*
X145383724Y-94986626D01*
X145383728Y-94986625D01*
X145387839Y-94986356D01*
X145391879Y-94985552D01*
X145391882Y-94985552D01*
X145666703Y-94930887D01*
X145666709Y-94930885D01*
X145670753Y-94930081D01*
X145674659Y-94928755D01*
X145674663Y-94928754D01*
X145940002Y-94838683D01*
X145940004Y-94838682D01*
X145943902Y-94837359D01*
X145984381Y-94817397D01*
X146198907Y-94711605D01*
X146198912Y-94711602D01*
X146202611Y-94709778D01*
X146265949Y-94667457D01*
X146439023Y-94551813D01*
X146439028Y-94551809D01*
X146442454Y-94549520D01*
X146445548Y-94546806D01*
X146445554Y-94546802D01*
X146656238Y-94362036D01*
X146659327Y-94359327D01*
X146704382Y-94307952D01*
X146846802Y-94145554D01*
X146846806Y-94145548D01*
X146849520Y-94142454D01*
X146913903Y-94046099D01*
X147007484Y-93906044D01*
X147009778Y-93902611D01*
X147016868Y-93888235D01*
X147135537Y-93647597D01*
X147135538Y-93647595D01*
X147137359Y-93643902D01*
X147158167Y-93582603D01*
X147228754Y-93374663D01*
X147228755Y-93374659D01*
X147230081Y-93370753D01*
X147232084Y-93360687D01*
X147285552Y-93091882D01*
X147285552Y-93091879D01*
X147286356Y-93087839D01*
X147298074Y-92909065D01*
X147304952Y-92804119D01*
X147305222Y-92800000D01*
X147302093Y-92752255D01*
X147286626Y-92516276D01*
X147286625Y-92516272D01*
X147286356Y-92512161D01*
X147285552Y-92508118D01*
X147230887Y-92233297D01*
X147230885Y-92233291D01*
X147230081Y-92229247D01*
X147217887Y-92193323D01*
X147138683Y-91959998D01*
X147138682Y-91959996D01*
X147137359Y-91956098D01*
X147099047Y-91878408D01*
X147011605Y-91701093D01*
X147011602Y-91701088D01*
X147009778Y-91697389D01*
X146866263Y-91482603D01*
X146851813Y-91460977D01*
X146851809Y-91460972D01*
X146849520Y-91457546D01*
X146846806Y-91454452D01*
X146846802Y-91454446D01*
X146830901Y-91436314D01*
X152901876Y-91436314D01*
X152917884Y-91626948D01*
X152970614Y-91810843D01*
X152973433Y-91816328D01*
X153055242Y-91975511D01*
X153055245Y-91975516D01*
X153058060Y-91980993D01*
X153176889Y-92130918D01*
X153181583Y-92134913D01*
X153314911Y-92248384D01*
X153322575Y-92254907D01*
X153489570Y-92348237D01*
X153671512Y-92407354D01*
X153861472Y-92430005D01*
X153867607Y-92429533D01*
X153867609Y-92429533D01*
X154046071Y-92415801D01*
X154046075Y-92415800D01*
X154052213Y-92415328D01*
X154236472Y-92363882D01*
X154407228Y-92277627D01*
X154436309Y-92254907D01*
X154553129Y-92163637D01*
X154557979Y-92159848D01*
X154573344Y-92142048D01*
X154678958Y-92019692D01*
X154678959Y-92019691D01*
X154682982Y-92015030D01*
X154693737Y-91996099D01*
X154725055Y-91940969D01*
X154773987Y-91854833D01*
X154825025Y-91805484D01*
X154894643Y-91791561D01*
X154960737Y-91817487D01*
X154995608Y-91859476D01*
X155055242Y-91975511D01*
X155055245Y-91975516D01*
X155058060Y-91980993D01*
X155176889Y-92130918D01*
X155181583Y-92134913D01*
X155314911Y-92248384D01*
X155322575Y-92254907D01*
X155489570Y-92348237D01*
X155671512Y-92407354D01*
X155861472Y-92430005D01*
X155867607Y-92429533D01*
X155867609Y-92429533D01*
X156046071Y-92415801D01*
X156046075Y-92415800D01*
X156052213Y-92415328D01*
X156236472Y-92363882D01*
X156407228Y-92277627D01*
X156436309Y-92254907D01*
X156553129Y-92163637D01*
X156557979Y-92159848D01*
X156573344Y-92142048D01*
X156678958Y-92019692D01*
X156678959Y-92019691D01*
X156682982Y-92015030D01*
X156693737Y-91996099D01*
X156725055Y-91940969D01*
X156773987Y-91854833D01*
X156825025Y-91805484D01*
X156894643Y-91791561D01*
X156960737Y-91817487D01*
X156995608Y-91859476D01*
X157055242Y-91975511D01*
X157055245Y-91975516D01*
X157058060Y-91980993D01*
X157176889Y-92130918D01*
X157181583Y-92134913D01*
X157314911Y-92248384D01*
X157322575Y-92254907D01*
X157489570Y-92348237D01*
X157671512Y-92407354D01*
X157861472Y-92430005D01*
X157867607Y-92429533D01*
X157867609Y-92429533D01*
X158046071Y-92415801D01*
X158046075Y-92415800D01*
X158052213Y-92415328D01*
X158236472Y-92363882D01*
X158407228Y-92277627D01*
X158436309Y-92254907D01*
X158515133Y-92193323D01*
X158581127Y-92167146D01*
X158650798Y-92180804D01*
X158702025Y-92229960D01*
X158710688Y-92248384D01*
X158753675Y-92363052D01*
X158762214Y-92378649D01*
X158838715Y-92480724D01*
X158851276Y-92493285D01*
X158953351Y-92569786D01*
X158968946Y-92578324D01*
X159089394Y-92623478D01*
X159104649Y-92627105D01*
X159155514Y-92632631D01*
X159162328Y-92633000D01*
X159363885Y-92633000D01*
X159379124Y-92628525D01*
X159380329Y-92627135D01*
X159382000Y-92619452D01*
X159382000Y-90285116D01*
X159377525Y-90269877D01*
X159376135Y-90268672D01*
X159368452Y-90267001D01*
X159162331Y-90267001D01*
X159155510Y-90267371D01*
X159104648Y-90272895D01*
X159089396Y-90276521D01*
X158968946Y-90321676D01*
X158953351Y-90330214D01*
X158851276Y-90406715D01*
X158838715Y-90419276D01*
X158762214Y-90521351D01*
X158753675Y-90536948D01*
X158710419Y-90652333D01*
X158667778Y-90709098D01*
X158601216Y-90733798D01*
X158531867Y-90718591D01*
X158512122Y-90705189D01*
X158498769Y-90694142D01*
X158430132Y-90637361D01*
X158360598Y-90599764D01*
X158267276Y-90549304D01*
X158267273Y-90549303D01*
X158261851Y-90546371D01*
X158181024Y-90521351D01*
X158084988Y-90491623D01*
X158084985Y-90491622D01*
X158079101Y-90489801D01*
X158072976Y-90489157D01*
X158072975Y-90489157D01*
X157894971Y-90470448D01*
X157894970Y-90470448D01*
X157888843Y-90469804D01*
X157771867Y-90480449D01*
X157704466Y-90486583D01*
X157704465Y-90486583D01*
X157698325Y-90487142D01*
X157514803Y-90541156D01*
X157509338Y-90544013D01*
X157350728Y-90626932D01*
X157350724Y-90626935D01*
X157345268Y-90629787D01*
X157196176Y-90749660D01*
X157073207Y-90896208D01*
X157070237Y-90901610D01*
X157070231Y-90901619D01*
X156991896Y-91044109D01*
X156941551Y-91094168D01*
X156872134Y-91109061D01*
X156805685Y-91084060D01*
X156770231Y-91042562D01*
X156701342Y-90913001D01*
X156701341Y-90912999D01*
X156698446Y-90907555D01*
X156598104Y-90784523D01*
X156581430Y-90764078D01*
X156581427Y-90764075D01*
X156577535Y-90759303D01*
X156528323Y-90718591D01*
X156434879Y-90641288D01*
X156430132Y-90637361D01*
X156360598Y-90599764D01*
X156267276Y-90549304D01*
X156267273Y-90549303D01*
X156261851Y-90546371D01*
X156181024Y-90521351D01*
X156084988Y-90491623D01*
X156084985Y-90491622D01*
X156079101Y-90489801D01*
X156072976Y-90489157D01*
X156072975Y-90489157D01*
X155894971Y-90470448D01*
X155894970Y-90470448D01*
X155888843Y-90469804D01*
X155771867Y-90480449D01*
X155704466Y-90486583D01*
X155704465Y-90486583D01*
X155698325Y-90487142D01*
X155514803Y-90541156D01*
X155509338Y-90544013D01*
X155350728Y-90626932D01*
X155350724Y-90626935D01*
X155345268Y-90629787D01*
X155196176Y-90749660D01*
X155073207Y-90896208D01*
X155070237Y-90901610D01*
X155070231Y-90901619D01*
X154991896Y-91044109D01*
X154941551Y-91094168D01*
X154872134Y-91109061D01*
X154805685Y-91084060D01*
X154770231Y-91042562D01*
X154701342Y-90913001D01*
X154701341Y-90912999D01*
X154698446Y-90907555D01*
X154598104Y-90784523D01*
X154581430Y-90764078D01*
X154581427Y-90764075D01*
X154577535Y-90759303D01*
X154528323Y-90718591D01*
X154434879Y-90641288D01*
X154430132Y-90637361D01*
X154360598Y-90599764D01*
X154267276Y-90549304D01*
X154267273Y-90549303D01*
X154261851Y-90546371D01*
X154181024Y-90521351D01*
X154084988Y-90491623D01*
X154084985Y-90491622D01*
X154079101Y-90489801D01*
X154072976Y-90489157D01*
X154072975Y-90489157D01*
X153894971Y-90470448D01*
X153894970Y-90470448D01*
X153888843Y-90469804D01*
X153771867Y-90480449D01*
X153704466Y-90486583D01*
X153704465Y-90486583D01*
X153698325Y-90487142D01*
X153514803Y-90541156D01*
X153509338Y-90544013D01*
X153350728Y-90626932D01*
X153350724Y-90626935D01*
X153345268Y-90629787D01*
X153196176Y-90749660D01*
X153073207Y-90896208D01*
X153070237Y-90901611D01*
X153070236Y-90901612D01*
X153065753Y-90909767D01*
X152981045Y-91063850D01*
X152979184Y-91069717D01*
X152979183Y-91069719D01*
X152966703Y-91109061D01*
X152923200Y-91246201D01*
X152901876Y-91436314D01*
X146830901Y-91436314D01*
X146662036Y-91243762D01*
X146659327Y-91240673D01*
X146622285Y-91208188D01*
X146445554Y-91053198D01*
X146445548Y-91053194D01*
X146442454Y-91050480D01*
X146439028Y-91048191D01*
X146439023Y-91048187D01*
X146231862Y-90909767D01*
X146202611Y-90890222D01*
X146198912Y-90888398D01*
X146198907Y-90888395D01*
X145947597Y-90764463D01*
X145947595Y-90764462D01*
X145943902Y-90762641D01*
X145930784Y-90758188D01*
X145674663Y-90671246D01*
X145674659Y-90671245D01*
X145670753Y-90669919D01*
X145666709Y-90669115D01*
X145666703Y-90669113D01*
X145391882Y-90614448D01*
X145391879Y-90614448D01*
X145387839Y-90613644D01*
X145383728Y-90613375D01*
X145383724Y-90613374D01*
X145104119Y-90595048D01*
X145100000Y-90594778D01*
X145095881Y-90595048D01*
X144816276Y-90613374D01*
X144816272Y-90613375D01*
X144812161Y-90613644D01*
X144808121Y-90614448D01*
X144808118Y-90614448D01*
X144533297Y-90669113D01*
X144533291Y-90669115D01*
X144529247Y-90669919D01*
X144525341Y-90671245D01*
X144525337Y-90671246D01*
X144269216Y-90758188D01*
X144256098Y-90762641D01*
X144252405Y-90764462D01*
X144252403Y-90764463D01*
X144001093Y-90888395D01*
X144001088Y-90888398D01*
X143997389Y-90890222D01*
X143968138Y-90909767D01*
X143760977Y-91048187D01*
X143760972Y-91048191D01*
X143757546Y-91050480D01*
X143754452Y-91053194D01*
X143754446Y-91053198D01*
X143577715Y-91208188D01*
X143540673Y-91240673D01*
X143537964Y-91243762D01*
X143353198Y-91454446D01*
X143353194Y-91454452D01*
X143350480Y-91457546D01*
X143348191Y-91460972D01*
X143348187Y-91460977D01*
X143333737Y-91482603D01*
X143190222Y-91697389D01*
X143188398Y-91701088D01*
X143188395Y-91701093D01*
X143097591Y-91885226D01*
X143049523Y-91937475D01*
X142980837Y-91955442D01*
X142913341Y-91933423D01*
X142868465Y-91878408D01*
X142862878Y-91862106D01*
X142861765Y-91857951D01*
X142860687Y-91849764D01*
X142802698Y-91709767D01*
X142777326Y-91676702D01*
X142751727Y-91610483D01*
X142765992Y-91540935D01*
X142777324Y-91523301D01*
X142802698Y-91490233D01*
X142860687Y-91350236D01*
X142880466Y-91200000D01*
X142860687Y-91049764D01*
X142802698Y-90909767D01*
X142710451Y-90789549D01*
X142590233Y-90697302D01*
X142450236Y-90639313D01*
X142300000Y-90619534D01*
X142149764Y-90639313D01*
X142009767Y-90697302D01*
X141889549Y-90789549D01*
X141797302Y-90909767D01*
X141739313Y-91049764D01*
X141719534Y-91200000D01*
X141739313Y-91350236D01*
X141797302Y-91490233D01*
X141822674Y-91523298D01*
X141848273Y-91589517D01*
X141834008Y-91659065D01*
X141822676Y-91676699D01*
X141797302Y-91709767D01*
X141739313Y-91849764D01*
X141738235Y-91857952D01*
X141733054Y-91897302D01*
X141719534Y-92000000D01*
X141739313Y-92150236D01*
X141797302Y-92290233D01*
X141822674Y-92323298D01*
X141848273Y-92389517D01*
X141834008Y-92459065D01*
X141822676Y-92476699D01*
X141797302Y-92509767D01*
X141739313Y-92649764D01*
X141719534Y-92800000D01*
X137825765Y-92800000D01*
X137827624Y-92790935D01*
X137838961Y-92773296D01*
X137897670Y-92696786D01*
X137897671Y-92696784D01*
X137902698Y-92690233D01*
X137960687Y-92550236D01*
X137980466Y-92400000D01*
X137960687Y-92249764D01*
X137902698Y-92109767D01*
X137810451Y-91989549D01*
X137690233Y-91897302D01*
X137550236Y-91839313D01*
X137400000Y-91819534D01*
X137249764Y-91839313D01*
X137109767Y-91897302D01*
X136989549Y-91989549D01*
X136897302Y-92109767D01*
X136839313Y-92249764D01*
X136819534Y-92400000D01*
X136839313Y-92550236D01*
X136897302Y-92690233D01*
X136902329Y-92696784D01*
X136902330Y-92696786D01*
X136961039Y-92773296D01*
X136986640Y-92839516D01*
X136972376Y-92909065D01*
X136961040Y-92926703D01*
X136897302Y-93009767D01*
X136839313Y-93149764D01*
X136819534Y-93300000D01*
X133930466Y-93300000D01*
X133910687Y-93149764D01*
X133852698Y-93009767D01*
X133760451Y-92889549D01*
X133640233Y-92797302D01*
X133500236Y-92739313D01*
X133350000Y-92719534D01*
X133199764Y-92739313D01*
X133059767Y-92797302D01*
X132939549Y-92889549D01*
X132847302Y-93009767D01*
X132789313Y-93149764D01*
X132769534Y-93300000D01*
X129399454Y-93300000D01*
X129401612Y-91693956D01*
X129401943Y-91447898D01*
X129422037Y-91379804D01*
X129475755Y-91333383D01*
X129544389Y-91323145D01*
X129591811Y-91329388D01*
X129591812Y-91329388D01*
X129600000Y-91330466D01*
X129608188Y-91329388D01*
X129742048Y-91311765D01*
X129750236Y-91310687D01*
X129890233Y-91252698D01*
X130010451Y-91160451D01*
X130102698Y-91040233D01*
X130160687Y-90900236D01*
X130180466Y-90750000D01*
X130160687Y-90599764D01*
X130102698Y-90459767D01*
X130010451Y-90339549D01*
X129998286Y-90330214D01*
X129978208Y-90314808D01*
X129890233Y-90247302D01*
X129750236Y-90189313D01*
X129600000Y-90169534D01*
X129587676Y-90171157D01*
X129584184Y-90170612D01*
X129583554Y-90170612D01*
X129583554Y-90170514D01*
X129517530Y-90160219D01*
X129464430Y-90113093D01*
X129445238Y-90044739D01*
X129450811Y-90009148D01*
X129454639Y-89996719D01*
X129464045Y-89974205D01*
X129517296Y-89875021D01*
X129530863Y-89854745D01*
X129602233Y-89767678D01*
X129619453Y-89750395D01*
X129706267Y-89678713D01*
X129726496Y-89665074D01*
X129825493Y-89611469D01*
X129847973Y-89601983D01*
X129955448Y-89568462D01*
X129979331Y-89563487D01*
X130069483Y-89553675D01*
X130081673Y-89552943D01*
X130092606Y-89552818D01*
X130103485Y-89554608D01*
X130116429Y-89552173D01*
X130139724Y-89550000D01*
X160213957Y-89550000D01*
X160218733Y-89550285D01*
G37*
%TD.AperFunction*%
%TD*%
%TA.AperFunction,Conductor*%
%TO.N,GND*%
G36*
X126844508Y-101520002D02*
G01*
X126891001Y-101573658D01*
X126901105Y-101643932D01*
X126871611Y-101708512D01*
X126812966Y-101746573D01*
X126753918Y-101764485D01*
X126748463Y-101767401D01*
X126748460Y-101767402D01*
X126645381Y-101822499D01*
X126597567Y-101848056D01*
X126460524Y-101960524D01*
X126456597Y-101965309D01*
X126351987Y-102092777D01*
X126348056Y-102097567D01*
X126345136Y-102103030D01*
X126295023Y-102196786D01*
X126264485Y-102253918D01*
X126262688Y-102259842D01*
X126218395Y-102405858D01*
X126213022Y-102423569D01*
X126195990Y-102596492D01*
X126195372Y-102600000D01*
X126196722Y-102607654D01*
X126195760Y-102615366D01*
X126197460Y-102622794D01*
X126220770Y-102785461D01*
X126222624Y-102790945D01*
X126222625Y-102790948D01*
X126258759Y-102897810D01*
X126275821Y-102948270D01*
X126278650Y-102953330D01*
X126348472Y-103078214D01*
X126359691Y-103098281D01*
X126469557Y-103230443D01*
X126601719Y-103340309D01*
X126606773Y-103343135D01*
X126606775Y-103343136D01*
X126663768Y-103375000D01*
X126751730Y-103424179D01*
X126757218Y-103426035D01*
X126757221Y-103426036D01*
X126909052Y-103477375D01*
X126909055Y-103477376D01*
X126914539Y-103479230D01*
X126991325Y-103490233D01*
X127026831Y-103495321D01*
X127034000Y-103496703D01*
X127040720Y-103499385D01*
X127046993Y-103500000D01*
X127050498Y-103500000D01*
X127051415Y-103500065D01*
X127053145Y-103500150D01*
X127053143Y-103500189D01*
X127068383Y-103501276D01*
X127070822Y-103501626D01*
X127070831Y-103501626D01*
X127077206Y-103502540D01*
X127084634Y-103504240D01*
X127110871Y-103500968D01*
X127126464Y-103500000D01*
X133062729Y-103500000D01*
X133084608Y-103501914D01*
X133089150Y-103502715D01*
X133089151Y-103502715D01*
X133100000Y-103504628D01*
X133103508Y-103504010D01*
X133116010Y-103502779D01*
X133116011Y-103502779D01*
X133208701Y-103493649D01*
X133276431Y-103486978D01*
X133288939Y-103483184D01*
X133384090Y-103454320D01*
X133446082Y-103435515D01*
X133446110Y-103435500D01*
X133514571Y-103428143D01*
X133578056Y-103459925D01*
X133613467Y-103518809D01*
X133614313Y-103525236D01*
X133672302Y-103665233D01*
X133764549Y-103785451D01*
X133884767Y-103877698D01*
X134024764Y-103935687D01*
X134175000Y-103955466D01*
X134183188Y-103954388D01*
X134317048Y-103936765D01*
X134325236Y-103935687D01*
X134465233Y-103877698D01*
X134585451Y-103785451D01*
X134677698Y-103665233D01*
X134735687Y-103525236D01*
X134740961Y-103485180D01*
X134754388Y-103383188D01*
X134755466Y-103375000D01*
X134735687Y-103224764D01*
X134677698Y-103084767D01*
X134585451Y-102964549D01*
X134465233Y-102872302D01*
X134325236Y-102814313D01*
X134175000Y-102794534D01*
X134166812Y-102795612D01*
X134166810Y-102795612D01*
X134140101Y-102799128D01*
X134069952Y-102788188D01*
X134016854Y-102741059D01*
X133997665Y-102672705D01*
X133998263Y-102661855D01*
X134004010Y-102603508D01*
X134004628Y-102600000D01*
X134003429Y-102593201D01*
X134003684Y-102589090D01*
X134004240Y-102584634D01*
X134004240Y-102584633D01*
X134004241Y-102584622D01*
X134007999Y-102585091D01*
X134019874Y-102535535D01*
X134071119Y-102486397D01*
X134145616Y-102473306D01*
X134200000Y-102480466D01*
X134208188Y-102479388D01*
X134342048Y-102461765D01*
X134350236Y-102460687D01*
X134490233Y-102402698D01*
X134610451Y-102310451D01*
X134702698Y-102190233D01*
X134760687Y-102050236D01*
X134780466Y-101900000D01*
X134760687Y-101749764D01*
X134748678Y-101720770D01*
X134729395Y-101674218D01*
X134721806Y-101603628D01*
X134753585Y-101540141D01*
X134814644Y-101503914D01*
X134845804Y-101500000D01*
X136757669Y-101500000D01*
X136825790Y-101520002D01*
X136872283Y-101573658D01*
X136882387Y-101643932D01*
X136852893Y-101708512D01*
X136794248Y-101746573D01*
X136735200Y-101764485D01*
X136729745Y-101767401D01*
X136729742Y-101767402D01*
X136626663Y-101822499D01*
X136578849Y-101848056D01*
X136441806Y-101960524D01*
X136437879Y-101965309D01*
X136333269Y-102092777D01*
X136329338Y-102097567D01*
X136326418Y-102103030D01*
X136276305Y-102196786D01*
X136245767Y-102253918D01*
X136243970Y-102259842D01*
X136199677Y-102405858D01*
X136194304Y-102423569D01*
X136177272Y-102596492D01*
X136176654Y-102600000D01*
X136178004Y-102607654D01*
X136177042Y-102615366D01*
X136178742Y-102622794D01*
X136202052Y-102785461D01*
X136203906Y-102790945D01*
X136203907Y-102790948D01*
X136240041Y-102897810D01*
X136257103Y-102948270D01*
X136259932Y-102953330D01*
X136329754Y-103078214D01*
X136340973Y-103098281D01*
X136450839Y-103230443D01*
X136583001Y-103340309D01*
X136588055Y-103343135D01*
X136588057Y-103343136D01*
X136645050Y-103375000D01*
X136733012Y-103424179D01*
X136738500Y-103426035D01*
X136738503Y-103426036D01*
X136890334Y-103477375D01*
X136890337Y-103477376D01*
X136895821Y-103479230D01*
X136972607Y-103490233D01*
X137008113Y-103495321D01*
X137015282Y-103496703D01*
X137022002Y-103499385D01*
X137028275Y-103500000D01*
X137031780Y-103500000D01*
X137032697Y-103500065D01*
X137034427Y-103500150D01*
X137034425Y-103500189D01*
X137049665Y-103501276D01*
X137052104Y-103501626D01*
X137052113Y-103501626D01*
X137058488Y-103502540D01*
X137065916Y-103504240D01*
X137092153Y-103500968D01*
X137107746Y-103500000D01*
X143044011Y-103500000D01*
X143065890Y-103501914D01*
X143070432Y-103502715D01*
X143070433Y-103502715D01*
X143081282Y-103504628D01*
X143084790Y-103504010D01*
X143097292Y-103502779D01*
X143097293Y-103502779D01*
X143189983Y-103493649D01*
X143257713Y-103486978D01*
X143365372Y-103454320D01*
X143436364Y-103453687D01*
X143496431Y-103491536D01*
X143501908Y-103498191D01*
X143541243Y-103549453D01*
X143588049Y-103610451D01*
X143708267Y-103702698D01*
X143848264Y-103760687D01*
X143998500Y-103780466D01*
X144006688Y-103779388D01*
X144140548Y-103761765D01*
X144148736Y-103760687D01*
X144288733Y-103702698D01*
X144408951Y-103610451D01*
X144501198Y-103490233D01*
X144559187Y-103350236D01*
X144578966Y-103200000D01*
X144559187Y-103049764D01*
X144501198Y-102909767D01*
X144408951Y-102789549D01*
X144292949Y-102700537D01*
X144251082Y-102643199D01*
X144246861Y-102572328D01*
X144281626Y-102510425D01*
X144292950Y-102500613D01*
X144344983Y-102460687D01*
X144410451Y-102410451D01*
X144502698Y-102290233D01*
X144560687Y-102150236D01*
X144580466Y-102000000D01*
X144560687Y-101849764D01*
X144502698Y-101709767D01*
X144497279Y-101702705D01*
X144497084Y-101702199D01*
X144493542Y-101696065D01*
X144494498Y-101695513D01*
X144471677Y-101636488D01*
X144485940Y-101566939D01*
X144535539Y-101516141D01*
X144597240Y-101500000D01*
X146757669Y-101500000D01*
X146825790Y-101520002D01*
X146872283Y-101573658D01*
X146882387Y-101643932D01*
X146852893Y-101708512D01*
X146794248Y-101746573D01*
X146735200Y-101764485D01*
X146729745Y-101767401D01*
X146729742Y-101767402D01*
X146626663Y-101822499D01*
X146578849Y-101848056D01*
X146441806Y-101960524D01*
X146437879Y-101965309D01*
X146333269Y-102092777D01*
X146329338Y-102097567D01*
X146326418Y-102103030D01*
X146276305Y-102196786D01*
X146245767Y-102253918D01*
X146243970Y-102259842D01*
X146199677Y-102405858D01*
X146194304Y-102423569D01*
X146177272Y-102596492D01*
X146176654Y-102600000D01*
X146178004Y-102607654D01*
X146177042Y-102615366D01*
X146178742Y-102622794D01*
X146202052Y-102785461D01*
X146203906Y-102790945D01*
X146203907Y-102790948D01*
X146240041Y-102897810D01*
X146257103Y-102948270D01*
X146259932Y-102953330D01*
X146329754Y-103078214D01*
X146340973Y-103098281D01*
X146450839Y-103230443D01*
X146583001Y-103340309D01*
X146588055Y-103343135D01*
X146588057Y-103343136D01*
X146645050Y-103375000D01*
X146733012Y-103424179D01*
X146738500Y-103426035D01*
X146738503Y-103426036D01*
X146890334Y-103477375D01*
X146890337Y-103477376D01*
X146895821Y-103479230D01*
X146972607Y-103490233D01*
X147008113Y-103495321D01*
X147015282Y-103496703D01*
X147022002Y-103499385D01*
X147028275Y-103500000D01*
X147031780Y-103500000D01*
X147032697Y-103500065D01*
X147034427Y-103500150D01*
X147034425Y-103500189D01*
X147049665Y-103501276D01*
X147052104Y-103501626D01*
X147052113Y-103501626D01*
X147058488Y-103502540D01*
X147065916Y-103504240D01*
X147092153Y-103500968D01*
X147107746Y-103500000D01*
X153044011Y-103500000D01*
X153065890Y-103501914D01*
X153070432Y-103502715D01*
X153070433Y-103502715D01*
X153081282Y-103504628D01*
X153084790Y-103504010D01*
X153097292Y-103502779D01*
X153097293Y-103502779D01*
X153189983Y-103493649D01*
X153257713Y-103486978D01*
X153270221Y-103483184D01*
X153421440Y-103437312D01*
X153427364Y-103435515D01*
X153432819Y-103432599D01*
X153432822Y-103432598D01*
X153578252Y-103354864D01*
X153583715Y-103351944D01*
X153720758Y-103239476D01*
X153833226Y-103102433D01*
X153846171Y-103078214D01*
X153913880Y-102951540D01*
X153913881Y-102951537D01*
X153916797Y-102946082D01*
X153939178Y-102872302D01*
X153966461Y-102782362D01*
X153966461Y-102782361D01*
X153968260Y-102776431D01*
X153985292Y-102603508D01*
X153985910Y-102600000D01*
X153984560Y-102592346D01*
X153985522Y-102584634D01*
X153983822Y-102577206D01*
X153960512Y-102414539D01*
X153956509Y-102402698D01*
X153907318Y-102257221D01*
X153907317Y-102257218D01*
X153905461Y-102251730D01*
X153874742Y-102196786D01*
X153824418Y-102106775D01*
X153824417Y-102106773D01*
X153821591Y-102101719D01*
X153711725Y-101969557D01*
X153579563Y-101859691D01*
X153561808Y-101849764D01*
X153434612Y-101778650D01*
X153434610Y-101778649D01*
X153429552Y-101775821D01*
X153424064Y-101773965D01*
X153424061Y-101773964D01*
X153339469Y-101745361D01*
X153281345Y-101704593D01*
X153254488Y-101638872D01*
X153267427Y-101569064D01*
X153316052Y-101517333D01*
X153379829Y-101500000D01*
X156676387Y-101500000D01*
X156744508Y-101520002D01*
X156791001Y-101573658D01*
X156801105Y-101643932D01*
X156771611Y-101708512D01*
X156712966Y-101746573D01*
X156653918Y-101764485D01*
X156648463Y-101767401D01*
X156648460Y-101767402D01*
X156545381Y-101822499D01*
X156497567Y-101848056D01*
X156360524Y-101960524D01*
X156356597Y-101965309D01*
X156251987Y-102092777D01*
X156248056Y-102097567D01*
X156245136Y-102103030D01*
X156195023Y-102196786D01*
X156164485Y-102253918D01*
X156162688Y-102259842D01*
X156118395Y-102405858D01*
X156113022Y-102423569D01*
X156095990Y-102596492D01*
X156095372Y-102600000D01*
X156096722Y-102607654D01*
X156095760Y-102615366D01*
X156097460Y-102622794D01*
X156120770Y-102785461D01*
X156122624Y-102790945D01*
X156122625Y-102790948D01*
X156158759Y-102897810D01*
X156175821Y-102948270D01*
X156178650Y-102953330D01*
X156248472Y-103078214D01*
X156259691Y-103098281D01*
X156369557Y-103230443D01*
X156501719Y-103340309D01*
X156542238Y-103362963D01*
X156591934Y-103413663D01*
X156606332Y-103483184D01*
X156580858Y-103549453D01*
X156528969Y-103589348D01*
X156509767Y-103597302D01*
X156389549Y-103689549D01*
X156297302Y-103809767D01*
X156239313Y-103949764D01*
X156219534Y-104100000D01*
X156239313Y-104250236D01*
X156297302Y-104390233D01*
X156389549Y-104510451D01*
X156509767Y-104602698D01*
X156517389Y-104605855D01*
X156517394Y-104605858D01*
X156545108Y-104617337D01*
X156600389Y-104661885D01*
X156621811Y-104717298D01*
X156639313Y-104850236D01*
X156697302Y-104990233D01*
X156789549Y-105110451D01*
X156861933Y-105165993D01*
X156897138Y-105193007D01*
X156939005Y-105250344D01*
X156943227Y-105321215D01*
X156908463Y-105383118D01*
X156845750Y-105416400D01*
X156820434Y-105418969D01*
X155245013Y-105418969D01*
X155230204Y-105418096D01*
X155207931Y-105415460D01*
X155198578Y-105414353D01*
X155189314Y-105416045D01*
X155189313Y-105416045D01*
X155143896Y-105424340D01*
X155139990Y-105424990D01*
X155125875Y-105427112D01*
X155085035Y-105433252D01*
X155078858Y-105436218D01*
X155072118Y-105437449D01*
X155063764Y-105441789D01*
X155063763Y-105441789D01*
X155022798Y-105463069D01*
X155019258Y-105464838D01*
X154969152Y-105488898D01*
X154964118Y-105493551D01*
X154958041Y-105496708D01*
X154953254Y-105500796D01*
X154918020Y-105536030D01*
X154914455Y-105539459D01*
X154874754Y-105576158D01*
X154871210Y-105582260D01*
X154866228Y-105587822D01*
X154618455Y-105835595D01*
X154556143Y-105869621D01*
X154529360Y-105872500D01*
X150082854Y-105872500D01*
X150068044Y-105871627D01*
X150050716Y-105869576D01*
X150036421Y-105867884D01*
X150027157Y-105869576D01*
X150027156Y-105869576D01*
X149981739Y-105877871D01*
X149977833Y-105878521D01*
X149963718Y-105880643D01*
X149922878Y-105886783D01*
X149916701Y-105889749D01*
X149909961Y-105890980D01*
X149901607Y-105895320D01*
X149901606Y-105895320D01*
X149860660Y-105916590D01*
X149857119Y-105918360D01*
X149827458Y-105932603D01*
X149806995Y-105942429D01*
X149801963Y-105947081D01*
X149795883Y-105950239D01*
X149791096Y-105954327D01*
X149755851Y-105989572D01*
X149752290Y-105992997D01*
X149748595Y-105996413D01*
X149679507Y-106028815D01*
X149599764Y-106039313D01*
X149459767Y-106097302D01*
X149339549Y-106189549D01*
X149247302Y-106309767D01*
X149189313Y-106449764D01*
X149169534Y-106600000D01*
X149189313Y-106750236D01*
X149247302Y-106890233D01*
X149339549Y-107010451D01*
X149459767Y-107102698D01*
X149599764Y-107160687D01*
X149750000Y-107180466D01*
X149758188Y-107179388D01*
X149892048Y-107161765D01*
X149900236Y-107160687D01*
X150040233Y-107102698D01*
X150160451Y-107010451D01*
X150252698Y-106890233D01*
X150287886Y-106805282D01*
X150332434Y-106750001D01*
X150404295Y-106727500D01*
X153205151Y-106727500D01*
X153273272Y-106747502D01*
X153319765Y-106801158D01*
X153330073Y-106869946D01*
X153319534Y-106950000D01*
X153337829Y-107088961D01*
X153326890Y-107159108D01*
X153294731Y-107201222D01*
X153291096Y-107204327D01*
X153255850Y-107239573D01*
X153252284Y-107243003D01*
X153219510Y-107273298D01*
X153219508Y-107273301D01*
X153212597Y-107279689D01*
X153209054Y-107285790D01*
X153204074Y-107291349D01*
X152502478Y-107992945D01*
X152440166Y-108026971D01*
X152429831Y-108028772D01*
X152349764Y-108039313D01*
X152209767Y-108097302D01*
X152089549Y-108189549D01*
X151997302Y-108309767D01*
X151939313Y-108449764D01*
X151919534Y-108600000D01*
X151939313Y-108750236D01*
X151997302Y-108890233D01*
X152089549Y-109010451D01*
X152209767Y-109102698D01*
X152349764Y-109160687D01*
X152500000Y-109180466D01*
X152508188Y-109179388D01*
X152642048Y-109161765D01*
X152650236Y-109160687D01*
X152790233Y-109102698D01*
X152910451Y-109010451D01*
X153002698Y-108890233D01*
X153060687Y-108750236D01*
X153063103Y-108731885D01*
X153071228Y-108670170D01*
X153099951Y-108605242D01*
X153107055Y-108597521D01*
X153688660Y-108015916D01*
X153750972Y-107981890D01*
X153777755Y-107979011D01*
X154967135Y-107979011D01*
X154981944Y-107979884D01*
X155013568Y-107983627D01*
X155022832Y-107981935D01*
X155022833Y-107981935D01*
X155068250Y-107973640D01*
X155072156Y-107972990D01*
X155086271Y-107970868D01*
X155127111Y-107964728D01*
X155133288Y-107961762D01*
X155140028Y-107960531D01*
X155150909Y-107954879D01*
X155189348Y-107934911D01*
X155192889Y-107933142D01*
X155194012Y-107932603D01*
X155220857Y-107919712D01*
X155234504Y-107913159D01*
X155234505Y-107913158D01*
X155242994Y-107909082D01*
X155248028Y-107904429D01*
X155254105Y-107901272D01*
X155258893Y-107897184D01*
X155294138Y-107861939D01*
X155297704Y-107858509D01*
X155330478Y-107828213D01*
X155337392Y-107821822D01*
X155340935Y-107815721D01*
X155345915Y-107810162D01*
X155647522Y-107508555D01*
X155709834Y-107474529D01*
X155720169Y-107472728D01*
X155800236Y-107462187D01*
X155940233Y-107404198D01*
X156060451Y-107311951D01*
X156152698Y-107191733D01*
X156210687Y-107051736D01*
X156230466Y-106901500D01*
X156226310Y-106869935D01*
X156237249Y-106799788D01*
X156284376Y-106746689D01*
X156351232Y-106727489D01*
X157595722Y-106727489D01*
X157663843Y-106747491D01*
X157684817Y-106764394D01*
X158567946Y-107647523D01*
X158601972Y-107709835D01*
X158603772Y-107720167D01*
X158614313Y-107800236D01*
X158617473Y-107807865D01*
X158620154Y-107814338D01*
X158672302Y-107940233D01*
X158764549Y-108060451D01*
X158884767Y-108152698D01*
X159024764Y-108210687D01*
X159175000Y-108230466D01*
X159183188Y-108229388D01*
X159317048Y-108211765D01*
X159325236Y-108210687D01*
X159465233Y-108152698D01*
X159585451Y-108060451D01*
X159677698Y-107940233D01*
X159729846Y-107814338D01*
X159732527Y-107807865D01*
X159735687Y-107800236D01*
X159755466Y-107650000D01*
X159751509Y-107619946D01*
X159762448Y-107549799D01*
X159809575Y-107496700D01*
X159876431Y-107477500D01*
X161956073Y-107477500D01*
X162024194Y-107497502D01*
X162070687Y-107551158D01*
X162080994Y-107587052D01*
X162089313Y-107650236D01*
X162147302Y-107790233D01*
X162239549Y-107910451D01*
X162359767Y-108002698D01*
X162499764Y-108060687D01*
X162507952Y-108061765D01*
X162574882Y-108070577D01*
X162650000Y-108080466D01*
X162658188Y-108079388D01*
X162792048Y-108061765D01*
X162800236Y-108060687D01*
X162940233Y-108002698D01*
X163060451Y-107910451D01*
X163152698Y-107790233D01*
X163210687Y-107650236D01*
X163230466Y-107500000D01*
X163210687Y-107349764D01*
X163152698Y-107209767D01*
X163060451Y-107089549D01*
X162940233Y-106997302D01*
X162800236Y-106939313D01*
X162720171Y-106928772D01*
X162655244Y-106900049D01*
X162647523Y-106892946D01*
X162525518Y-106770942D01*
X162515663Y-106759851D01*
X162501784Y-106742245D01*
X162501780Y-106742241D01*
X162495950Y-106734846D01*
X162488203Y-106729491D01*
X162488201Y-106729490D01*
X162450222Y-106703242D01*
X162447043Y-106700971D01*
X162402300Y-106667923D01*
X162395834Y-106665652D01*
X162390198Y-106661757D01*
X162372012Y-106656005D01*
X162337209Y-106644998D01*
X162333457Y-106643746D01*
X162289898Y-106628450D01*
X162289897Y-106628450D01*
X162281010Y-106625329D01*
X162274163Y-106625060D01*
X162267631Y-106622994D01*
X162261355Y-106622500D01*
X162211503Y-106622500D01*
X162206555Y-106622403D01*
X162204538Y-106622324D01*
X162152559Y-106620281D01*
X162145737Y-106622090D01*
X162138285Y-106622500D01*
X159479267Y-106622500D01*
X159411146Y-106602498D01*
X159390172Y-106585595D01*
X158371991Y-105567415D01*
X158362136Y-105556326D01*
X158348250Y-105538712D01*
X158342419Y-105531315D01*
X158334672Y-105525960D01*
X158334670Y-105525959D01*
X158300808Y-105502556D01*
X158296679Y-105499702D01*
X158293512Y-105497440D01*
X158248769Y-105464392D01*
X158242303Y-105462121D01*
X158236667Y-105458226D01*
X158227685Y-105455385D01*
X158227472Y-105455281D01*
X158175091Y-105407357D01*
X158156935Y-105338721D01*
X158178768Y-105271165D01*
X158234670Y-105225714D01*
X158282599Y-105205861D01*
X158282604Y-105205858D01*
X158290233Y-105202698D01*
X158410451Y-105110451D01*
X158502698Y-104990233D01*
X158560687Y-104850236D01*
X158578189Y-104717299D01*
X158606910Y-104652373D01*
X158654892Y-104617337D01*
X158682606Y-104605858D01*
X158682611Y-104605855D01*
X158690233Y-104602698D01*
X158810451Y-104510451D01*
X158902698Y-104390233D01*
X158960687Y-104250236D01*
X158980466Y-104100000D01*
X158960687Y-103949764D01*
X158902698Y-103809767D01*
X158880215Y-103780466D01*
X158820545Y-103702704D01*
X158794944Y-103636484D01*
X158809208Y-103566935D01*
X158858810Y-103516139D01*
X158920507Y-103500000D01*
X162962729Y-103500000D01*
X162984608Y-103501914D01*
X162989150Y-103502715D01*
X162989151Y-103502715D01*
X163000000Y-103504628D01*
X163003508Y-103504010D01*
X163016010Y-103502779D01*
X163016011Y-103502779D01*
X163108701Y-103493649D01*
X163176431Y-103486978D01*
X163188939Y-103483184D01*
X163340158Y-103437312D01*
X163346082Y-103435515D01*
X163351537Y-103432599D01*
X163351540Y-103432598D01*
X163496970Y-103354864D01*
X163502433Y-103351944D01*
X163639476Y-103239476D01*
X163751944Y-103102433D01*
X163764889Y-103078214D01*
X163832598Y-102951540D01*
X163832599Y-102951537D01*
X163835515Y-102946082D01*
X163857896Y-102872302D01*
X163885179Y-102782362D01*
X163885179Y-102782361D01*
X163886978Y-102776431D01*
X163904010Y-102603508D01*
X163904628Y-102600000D01*
X163903278Y-102592346D01*
X163904240Y-102584634D01*
X163902540Y-102577206D01*
X163879230Y-102414539D01*
X163875227Y-102402698D01*
X163826036Y-102257221D01*
X163826035Y-102257218D01*
X163824179Y-102251730D01*
X163793460Y-102196786D01*
X163743136Y-102106775D01*
X163743135Y-102106773D01*
X163740309Y-102101719D01*
X163630443Y-101969557D01*
X163498281Y-101859691D01*
X163480526Y-101849764D01*
X163353330Y-101778650D01*
X163353328Y-101778649D01*
X163348270Y-101775821D01*
X163342782Y-101773965D01*
X163342779Y-101773964D01*
X163258187Y-101745361D01*
X163200063Y-101704593D01*
X163173206Y-101638872D01*
X163186145Y-101569064D01*
X163234770Y-101517333D01*
X163298547Y-101500000D01*
X165541369Y-101500000D01*
X165609490Y-101520002D01*
X165655983Y-101573658D01*
X165661939Y-101589413D01*
X165678478Y-101643932D01*
X165682948Y-101658668D01*
X165687766Y-101682893D01*
X165696679Y-101773389D01*
X165697286Y-101785739D01*
X165697286Y-101796250D01*
X165695372Y-101807107D01*
X165697286Y-101817962D01*
X165698086Y-101822499D01*
X165700000Y-101844378D01*
X165700000Y-107866786D01*
X165697762Y-107890426D01*
X165695403Y-107902777D01*
X165697162Y-107913657D01*
X165697008Y-107924474D01*
X165696239Y-107936700D01*
X165693618Y-107960114D01*
X165686111Y-108027159D01*
X165681037Y-108051104D01*
X165647935Y-108155858D01*
X165647051Y-108158654D01*
X165637443Y-108181167D01*
X165583305Y-108280113D01*
X165569527Y-108300343D01*
X165557867Y-108314322D01*
X165497270Y-108386967D01*
X165479851Y-108404140D01*
X165392205Y-108475162D01*
X165371793Y-108488644D01*
X165311382Y-108520590D01*
X165272078Y-108541375D01*
X165249430Y-108550662D01*
X165206420Y-108563584D01*
X165141401Y-108583118D01*
X165117391Y-108587848D01*
X165058164Y-108593629D01*
X165026793Y-108596690D01*
X165014555Y-108597286D01*
X165003750Y-108597286D01*
X164992893Y-108595372D01*
X164982038Y-108597286D01*
X164977501Y-108598086D01*
X164955622Y-108600000D01*
X163337271Y-108600000D01*
X163315392Y-108598086D01*
X163310855Y-108597286D01*
X163300000Y-108595372D01*
X163293772Y-108596470D01*
X163096007Y-108612034D01*
X163091200Y-108613188D01*
X163091194Y-108613189D01*
X162967081Y-108642987D01*
X162897036Y-108659803D01*
X162892465Y-108661696D01*
X162892463Y-108661697D01*
X162712561Y-108736214D01*
X162712557Y-108736216D01*
X162707987Y-108738109D01*
X162533516Y-108845025D01*
X162377918Y-108977918D01*
X162245025Y-109133516D01*
X162138109Y-109307987D01*
X162136216Y-109312557D01*
X162136214Y-109312561D01*
X162097915Y-109405025D01*
X162059803Y-109497036D01*
X162012034Y-109696007D01*
X162011646Y-109700940D01*
X162000839Y-109838268D01*
X162000435Y-109840702D01*
X162000615Y-109840720D01*
X162000000Y-109846993D01*
X161999624Y-109846956D01*
X161999189Y-109848208D01*
X161999083Y-109848846D01*
X162000000Y-109848918D01*
X161996470Y-109893772D01*
X161995372Y-109900000D01*
X161997286Y-109910855D01*
X161998086Y-109915392D01*
X162000000Y-109937271D01*
X162000000Y-110415548D01*
X161979998Y-110483669D01*
X161926342Y-110530162D01*
X161856068Y-110540266D01*
X161855016Y-110540050D01*
X161853236Y-110539313D01*
X161794678Y-110531604D01*
X161762386Y-110527352D01*
X161697459Y-110498629D01*
X161665571Y-110448362D01*
X161662187Y-110449764D01*
X161634726Y-110383468D01*
X161604198Y-110309767D01*
X161511951Y-110189549D01*
X161391733Y-110097302D01*
X161251736Y-110039313D01*
X161101500Y-110019534D01*
X160951264Y-110039313D01*
X160811267Y-110097302D01*
X160691049Y-110189549D01*
X160598802Y-110309767D01*
X160540813Y-110449764D01*
X160521034Y-110600000D01*
X160540813Y-110750236D01*
X160598802Y-110890233D01*
X160603829Y-110896784D01*
X160603830Y-110896786D01*
X160647962Y-110954299D01*
X160673563Y-111020519D01*
X160674000Y-111031003D01*
X160674000Y-113369900D01*
X160653998Y-113438021D01*
X160637095Y-113458995D01*
X160203533Y-113892557D01*
X160141221Y-113926583D01*
X160070406Y-113921518D01*
X160013570Y-113878971D01*
X160005730Y-113867086D01*
X160002698Y-113859767D01*
X159910451Y-113739549D01*
X159790233Y-113647302D01*
X159650236Y-113589313D01*
X159500000Y-113569534D01*
X159349764Y-113589313D01*
X159348015Y-113590037D01*
X159321716Y-113593500D01*
X159028284Y-113593500D01*
X159001985Y-113590037D01*
X159000236Y-113589313D01*
X158850000Y-113569534D01*
X158699764Y-113589313D01*
X158698015Y-113590037D01*
X158671716Y-113593500D01*
X158378284Y-113593500D01*
X158351985Y-113590037D01*
X158350236Y-113589313D01*
X158200000Y-113569534D01*
X158049764Y-113589313D01*
X158048015Y-113590037D01*
X158021716Y-113593500D01*
X156532200Y-113593500D01*
X156464079Y-113573498D01*
X156443105Y-113556595D01*
X154119643Y-111233133D01*
X154085617Y-111170821D01*
X154087324Y-111117599D01*
X154085625Y-111117229D01*
X154086582Y-111112830D01*
X154087848Y-111108519D01*
X154100000Y-111024000D01*
X154100000Y-110676000D01*
X154093144Y-110612232D01*
X154092265Y-110608188D01*
X154082194Y-110561896D01*
X154081758Y-110559890D01*
X154070998Y-110522369D01*
X154033324Y-110457952D01*
X154018276Y-110432221D01*
X154018273Y-110432217D01*
X154015339Y-110427200D01*
X153968846Y-110373544D01*
X153924916Y-110332124D01*
X153826640Y-110282154D01*
X153821054Y-110280514D01*
X153821052Y-110280513D01*
X153762831Y-110263418D01*
X153762830Y-110263418D01*
X153758519Y-110262152D01*
X153754079Y-110261514D01*
X153754076Y-110261513D01*
X153678446Y-110250639D01*
X153678443Y-110250639D01*
X153674000Y-110250000D01*
X152526000Y-110250000D01*
X152462232Y-110256856D01*
X152458948Y-110257570D01*
X152458944Y-110257571D01*
X152440824Y-110261513D01*
X152409890Y-110268242D01*
X152372369Y-110279002D01*
X152365569Y-110282979D01*
X152282221Y-110331724D01*
X152282217Y-110331727D01*
X152277200Y-110334661D01*
X152223544Y-110381154D01*
X152182124Y-110425084D01*
X152132154Y-110523360D01*
X152112152Y-110591481D01*
X152100000Y-110676000D01*
X152100000Y-111024000D01*
X152106856Y-111087768D01*
X152118242Y-111140110D01*
X152129002Y-111177631D01*
X152184661Y-111272800D01*
X152231154Y-111326456D01*
X152275084Y-111367876D01*
X152373360Y-111417846D01*
X152378946Y-111419486D01*
X152378948Y-111419487D01*
X152437169Y-111436582D01*
X152441481Y-111437848D01*
X152445921Y-111438486D01*
X152445924Y-111438487D01*
X152521554Y-111449361D01*
X152521557Y-111449361D01*
X152526000Y-111450000D01*
X152789133Y-111450000D01*
X152857254Y-111470002D01*
X152903747Y-111523658D01*
X152904429Y-111525282D01*
X152906076Y-111532305D01*
X152927304Y-111570919D01*
X152932519Y-111581565D01*
X152946602Y-111614109D01*
X152946604Y-111614112D01*
X152950013Y-111621990D01*
X152955418Y-111628664D01*
X152959649Y-111633889D01*
X152972146Y-111652487D01*
X152979529Y-111665916D01*
X152986613Y-111674123D01*
X153011462Y-111698972D01*
X153020287Y-111708772D01*
X153045966Y-111740483D01*
X153052968Y-111745459D01*
X153052969Y-111745460D01*
X153061560Y-111751565D01*
X153077666Y-111765176D01*
X153924364Y-112611874D01*
X153958390Y-112674186D01*
X153953325Y-112745001D01*
X153910778Y-112801837D01*
X153851716Y-112825891D01*
X153749764Y-112839313D01*
X153609767Y-112897302D01*
X153603216Y-112902329D01*
X153603214Y-112902330D01*
X153545701Y-112946462D01*
X153479481Y-112972063D01*
X153468997Y-112972500D01*
X150465483Y-112972500D01*
X150402483Y-112955619D01*
X150396783Y-112952328D01*
X150390233Y-112947302D01*
X150382607Y-112944143D01*
X150382605Y-112944142D01*
X150257865Y-112892473D01*
X150250236Y-112889313D01*
X150100000Y-112869534D01*
X149949764Y-112889313D01*
X149809767Y-112947302D01*
X149689549Y-113039549D01*
X149597302Y-113159767D01*
X149539313Y-113299764D01*
X149519534Y-113450000D01*
X149539313Y-113600236D01*
X149597302Y-113740233D01*
X149689549Y-113860451D01*
X149809767Y-113952698D01*
X149949764Y-114010687D01*
X150100000Y-114030466D01*
X150108188Y-114029388D01*
X150242048Y-114011765D01*
X150250236Y-114010687D01*
X150390233Y-113952698D01*
X150510451Y-113860451D01*
X150510972Y-113861129D01*
X150567285Y-113830379D01*
X150594068Y-113827500D01*
X153468997Y-113827500D01*
X153537118Y-113847502D01*
X153545701Y-113853538D01*
X153578846Y-113878971D01*
X153609767Y-113902698D01*
X153749764Y-113960687D01*
X153900000Y-113980466D01*
X153908188Y-113979388D01*
X154042048Y-113961765D01*
X154050236Y-113960687D01*
X154190233Y-113902698D01*
X154310451Y-113810451D01*
X154402698Y-113690233D01*
X154460687Y-113550236D01*
X154474109Y-113448285D01*
X154502831Y-113383358D01*
X154562096Y-113344266D01*
X154633088Y-113343421D01*
X154688126Y-113375636D01*
X155516375Y-114203885D01*
X155550401Y-114266197D01*
X155545336Y-114337012D01*
X155502789Y-114393848D01*
X155436269Y-114418659D01*
X155427280Y-114418980D01*
X154586390Y-114418980D01*
X154571580Y-114418107D01*
X154554252Y-114416056D01*
X154539957Y-114414364D01*
X154530693Y-114416056D01*
X154530692Y-114416056D01*
X154485275Y-114424351D01*
X154481369Y-114425001D01*
X154467254Y-114427123D01*
X154426414Y-114433263D01*
X154420237Y-114436229D01*
X154413497Y-114437460D01*
X154405143Y-114441800D01*
X154405142Y-114441800D01*
X154364177Y-114463080D01*
X154360637Y-114464849D01*
X154310531Y-114488909D01*
X154305497Y-114493562D01*
X154299420Y-114496719D01*
X154294633Y-114500807D01*
X154259399Y-114536041D01*
X154255834Y-114539470D01*
X154216133Y-114576169D01*
X154212589Y-114582271D01*
X154207607Y-114587833D01*
X152527487Y-116267953D01*
X152465175Y-116301979D01*
X152454841Y-116303779D01*
X152374772Y-116314321D01*
X152234775Y-116372310D01*
X152114557Y-116464557D01*
X152022310Y-116584775D01*
X152021048Y-116583807D01*
X151976488Y-116626297D01*
X151906775Y-116639735D01*
X151840863Y-116613350D01*
X151810550Y-116573361D01*
X151808489Y-116574551D01*
X151804358Y-116567397D01*
X151801198Y-116559767D01*
X151708951Y-116439549D01*
X151588733Y-116347302D01*
X151469265Y-116297817D01*
X151456365Y-116292473D01*
X151448736Y-116289313D01*
X151298500Y-116269534D01*
X151148264Y-116289313D01*
X151140635Y-116292473D01*
X151127735Y-116297817D01*
X151008267Y-116347302D01*
X150888049Y-116439549D01*
X150795802Y-116559767D01*
X150737813Y-116699764D01*
X150718034Y-116850000D01*
X150719112Y-116858188D01*
X150728573Y-116930054D01*
X150717633Y-117000203D01*
X150670505Y-117053301D01*
X150603651Y-117072500D01*
X150494566Y-117072500D01*
X150426445Y-117052498D01*
X150379952Y-116998842D01*
X150369644Y-116930054D01*
X150380141Y-116850325D01*
X150360362Y-116700089D01*
X150357067Y-116692133D01*
X150305533Y-116567722D01*
X150302373Y-116560092D01*
X150210126Y-116439874D01*
X150089908Y-116347627D01*
X149949911Y-116289638D01*
X149799675Y-116269859D01*
X149649439Y-116289638D01*
X149509442Y-116347627D01*
X149389224Y-116439874D01*
X149349924Y-116491091D01*
X149292586Y-116532958D01*
X149221715Y-116537179D01*
X149159812Y-116502414D01*
X149150000Y-116491090D01*
X149115477Y-116446099D01*
X149110451Y-116439549D01*
X148990233Y-116347302D01*
X148870765Y-116297817D01*
X148857865Y-116292473D01*
X148850236Y-116289313D01*
X148700000Y-116269534D01*
X148549764Y-116289313D01*
X148542135Y-116292473D01*
X148529235Y-116297817D01*
X148409767Y-116347302D01*
X148289549Y-116439549D01*
X148284523Y-116446099D01*
X148199962Y-116556300D01*
X148142624Y-116598167D01*
X148071753Y-116602389D01*
X148009850Y-116567625D01*
X148000038Y-116556300D01*
X147915477Y-116446099D01*
X147910451Y-116439549D01*
X147790233Y-116347302D01*
X147670765Y-116297817D01*
X147657865Y-116292473D01*
X147650236Y-116289313D01*
X147500000Y-116269534D01*
X147349764Y-116289313D01*
X147342135Y-116292473D01*
X147329235Y-116297817D01*
X147209767Y-116347302D01*
X147089549Y-116439549D01*
X146997302Y-116559767D01*
X146939313Y-116699764D01*
X146919534Y-116850000D01*
X146920612Y-116858188D01*
X146930073Y-116930054D01*
X146919133Y-117000203D01*
X146872005Y-117053301D01*
X146805151Y-117072500D01*
X141129266Y-117072500D01*
X141061145Y-117052498D01*
X141040171Y-117035595D01*
X140857055Y-116852479D01*
X140823029Y-116790167D01*
X140821228Y-116779830D01*
X140811765Y-116707954D01*
X140810687Y-116699764D01*
X140752698Y-116559767D01*
X140660451Y-116439549D01*
X140540233Y-116347302D01*
X140420765Y-116297817D01*
X140407865Y-116292473D01*
X140400236Y-116289313D01*
X140250000Y-116269534D01*
X140099764Y-116289313D01*
X140092135Y-116292473D01*
X140079235Y-116297817D01*
X139959767Y-116347302D01*
X139839549Y-116439549D01*
X139747302Y-116559767D01*
X139689313Y-116699764D01*
X139669534Y-116850000D01*
X139689313Y-117000236D01*
X139747302Y-117140233D01*
X139839549Y-117260451D01*
X139959767Y-117352698D01*
X140099764Y-117410687D01*
X140179828Y-117421227D01*
X140244755Y-117449949D01*
X140252477Y-117457054D01*
X140280328Y-117484905D01*
X140314354Y-117547217D01*
X140309289Y-117618032D01*
X140266742Y-117674868D01*
X140200222Y-117699679D01*
X140191233Y-117700000D01*
X135350000Y-117700000D01*
X135350000Y-125941233D01*
X135329998Y-126009354D01*
X135276342Y-126055847D01*
X135206068Y-126065951D01*
X135141488Y-126036457D01*
X135134905Y-126030328D01*
X134907055Y-125802478D01*
X134873029Y-125740166D01*
X134871228Y-125729829D01*
X134861765Y-125657954D01*
X134860687Y-125649764D01*
X134802698Y-125509767D01*
X134710451Y-125389549D01*
X134590233Y-125297302D01*
X134450236Y-125239313D01*
X134300000Y-125219534D01*
X134149764Y-125239313D01*
X134009767Y-125297302D01*
X133889549Y-125389549D01*
X133797302Y-125509767D01*
X133739313Y-125649764D01*
X133719534Y-125800000D01*
X133739313Y-125950236D01*
X133797302Y-126090233D01*
X133889549Y-126210451D01*
X134009767Y-126302698D01*
X134149764Y-126360687D01*
X134229829Y-126371228D01*
X134294756Y-126399951D01*
X134302477Y-126407055D01*
X134731328Y-126835906D01*
X134765354Y-126898218D01*
X134760289Y-126969033D01*
X134731328Y-127014096D01*
X134302479Y-127442945D01*
X134240167Y-127476971D01*
X134229833Y-127478771D01*
X134149764Y-127489313D01*
X134009767Y-127547302D01*
X133889549Y-127639549D01*
X133797302Y-127759767D01*
X133739313Y-127899764D01*
X133719534Y-128050000D01*
X133739313Y-128200236D01*
X133797302Y-128340233D01*
X133889549Y-128460451D01*
X134009767Y-128552698D01*
X134149764Y-128610687D01*
X134300000Y-128630466D01*
X134308188Y-128629388D01*
X134442048Y-128611765D01*
X134450236Y-128610687D01*
X134590233Y-128552698D01*
X134710451Y-128460451D01*
X134802698Y-128340233D01*
X134860687Y-128200236D01*
X134871227Y-128120172D01*
X134899949Y-128055245D01*
X134907054Y-128047523D01*
X135134905Y-127819672D01*
X135197217Y-127785646D01*
X135268032Y-127790711D01*
X135324868Y-127833258D01*
X135349679Y-127899778D01*
X135350000Y-127908767D01*
X135350000Y-140900000D01*
X138293233Y-140900000D01*
X138361354Y-140920002D01*
X138382328Y-140936905D01*
X138799481Y-141354058D01*
X138809336Y-141365147D01*
X138829050Y-141390154D01*
X138874783Y-141421762D01*
X138877980Y-141424047D01*
X138915124Y-141451482D01*
X138915127Y-141451484D01*
X138922700Y-141457077D01*
X138929166Y-141459348D01*
X138934802Y-141463243D01*
X138943780Y-141466082D01*
X138943779Y-141466082D01*
X138987791Y-141480002D01*
X138991543Y-141481254D01*
X139035102Y-141496550D01*
X139035103Y-141496550D01*
X139043990Y-141499671D01*
X139050837Y-141499940D01*
X139057369Y-141502006D01*
X139063645Y-141502500D01*
X139113497Y-141502500D01*
X139118445Y-141502597D01*
X139172441Y-141504719D01*
X139179263Y-141502910D01*
X139186715Y-141502500D01*
X151259364Y-141502500D01*
X151327485Y-141522502D01*
X151373978Y-141576158D01*
X151384286Y-141612053D01*
X151389313Y-141650236D01*
X151447302Y-141790233D01*
X151539549Y-141910451D01*
X151659767Y-142002698D01*
X151799764Y-142060687D01*
X151950000Y-142080466D01*
X151958188Y-142079388D01*
X152092048Y-142061765D01*
X152100236Y-142060687D01*
X152240233Y-142002698D01*
X152360451Y-141910451D01*
X152452698Y-141790233D01*
X152510687Y-141650236D01*
X152530466Y-141500000D01*
X152510687Y-141349764D01*
X152452698Y-141209767D01*
X152370545Y-141102703D01*
X152344944Y-141036484D01*
X152359208Y-140966935D01*
X152408810Y-140916139D01*
X152470507Y-140900000D01*
X154700000Y-140900000D01*
X154700000Y-139981159D01*
X154716490Y-139925000D01*
X158494534Y-139925000D01*
X158514313Y-140075236D01*
X158572302Y-140215233D01*
X158664549Y-140335451D01*
X158784767Y-140427698D01*
X158924764Y-140485687D01*
X159075000Y-140505466D01*
X159083188Y-140504388D01*
X159217048Y-140486765D01*
X159225236Y-140485687D01*
X159365233Y-140427698D01*
X159485451Y-140335451D01*
X159577698Y-140215233D01*
X159635687Y-140075236D01*
X159655466Y-139925000D01*
X159635687Y-139774764D01*
X159577698Y-139634767D01*
X159485451Y-139514549D01*
X159365233Y-139422302D01*
X159225236Y-139364313D01*
X159075000Y-139344534D01*
X158924764Y-139364313D01*
X158784767Y-139422302D01*
X158664549Y-139514549D01*
X158572302Y-139634767D01*
X158514313Y-139774764D01*
X158494534Y-139925000D01*
X154716490Y-139925000D01*
X154720002Y-139913038D01*
X154773658Y-139866545D01*
X154843932Y-139856441D01*
X154874218Y-139864750D01*
X154924764Y-139885687D01*
X155075000Y-139905466D01*
X155083188Y-139904388D01*
X155217048Y-139886765D01*
X155225236Y-139885687D01*
X155365233Y-139827698D01*
X155485451Y-139735451D01*
X155577698Y-139615233D01*
X155635687Y-139475236D01*
X155655466Y-139325000D01*
X155635687Y-139174764D01*
X155577698Y-139034767D01*
X155485451Y-138914549D01*
X155365233Y-138822302D01*
X155225236Y-138764313D01*
X155075000Y-138744534D01*
X154924764Y-138764313D01*
X154917135Y-138767473D01*
X154874218Y-138785250D01*
X154803629Y-138792839D01*
X154740142Y-138761060D01*
X154703914Y-138700002D01*
X154700000Y-138668841D01*
X154700000Y-137275000D01*
X156194534Y-137275000D01*
X156214313Y-137425236D01*
X156272302Y-137565233D01*
X156364549Y-137685451D01*
X156484767Y-137777698D01*
X156624764Y-137835687D01*
X156775000Y-137855466D01*
X156783188Y-137854388D01*
X156917048Y-137836765D01*
X156925236Y-137835687D01*
X157065233Y-137777698D01*
X157185451Y-137685451D01*
X157277698Y-137565233D01*
X157335687Y-137425236D01*
X157355466Y-137275000D01*
X157335687Y-137124764D01*
X157277698Y-136984767D01*
X157185451Y-136864549D01*
X157065233Y-136772302D01*
X156925236Y-136714313D01*
X156775000Y-136694534D01*
X156624764Y-136714313D01*
X156484767Y-136772302D01*
X156364549Y-136864549D01*
X156272302Y-136984767D01*
X156214313Y-137124764D01*
X156194534Y-137275000D01*
X154700000Y-137275000D01*
X154700000Y-136000000D01*
X158469534Y-136000000D01*
X158489313Y-136150236D01*
X158547302Y-136290233D01*
X158639549Y-136410451D01*
X158759767Y-136502698D01*
X158899764Y-136560687D01*
X159050000Y-136580466D01*
X159058188Y-136579388D01*
X159192048Y-136561765D01*
X159200236Y-136560687D01*
X159340233Y-136502698D01*
X159460451Y-136410451D01*
X159552698Y-136290233D01*
X159610687Y-136150236D01*
X159630466Y-136000000D01*
X159610687Y-135849764D01*
X159552698Y-135709767D01*
X159460451Y-135589549D01*
X159340233Y-135497302D01*
X159265651Y-135466409D01*
X159210370Y-135421861D01*
X159187949Y-135354497D01*
X159205507Y-135285706D01*
X159257469Y-135237328D01*
X159265651Y-135233591D01*
X159340233Y-135202698D01*
X159460451Y-135110451D01*
X159552698Y-134990233D01*
X159610687Y-134850236D01*
X159630466Y-134700000D01*
X159610687Y-134549764D01*
X159552698Y-134409767D01*
X159460451Y-134289549D01*
X159340233Y-134197302D01*
X159332604Y-134194142D01*
X159332599Y-134194139D01*
X159290650Y-134176763D01*
X159235369Y-134132215D01*
X159212949Y-134064851D01*
X159230508Y-133996060D01*
X159282470Y-133947682D01*
X159290640Y-133943951D01*
X159390233Y-133902698D01*
X159510451Y-133810451D01*
X159602698Y-133690233D01*
X159660687Y-133550236D01*
X159680466Y-133400000D01*
X159660687Y-133249764D01*
X159602698Y-133109767D01*
X159510451Y-132989549D01*
X159390233Y-132897302D01*
X159376006Y-132891409D01*
X159320725Y-132846861D01*
X159298304Y-132779497D01*
X159315862Y-132710706D01*
X159367824Y-132662328D01*
X159376006Y-132658591D01*
X159390233Y-132652698D01*
X159510451Y-132560451D01*
X159602698Y-132440233D01*
X159660687Y-132300236D01*
X159680466Y-132150000D01*
X159660687Y-131999764D01*
X159602698Y-131859767D01*
X159510451Y-131739549D01*
X159390233Y-131647302D01*
X159250236Y-131589313D01*
X159100000Y-131569534D01*
X158949764Y-131589313D01*
X158809767Y-131647302D01*
X158689549Y-131739549D01*
X158597302Y-131859767D01*
X158539313Y-131999764D01*
X158519534Y-132150000D01*
X158539313Y-132300236D01*
X158597302Y-132440233D01*
X158689549Y-132560451D01*
X158809767Y-132652698D01*
X158823994Y-132658591D01*
X158879275Y-132703139D01*
X158901696Y-132770503D01*
X158884138Y-132839294D01*
X158832176Y-132887672D01*
X158823995Y-132891408D01*
X158809767Y-132897302D01*
X158689549Y-132989549D01*
X158597302Y-133109767D01*
X158539313Y-133249764D01*
X158519534Y-133400000D01*
X158539313Y-133550236D01*
X158597302Y-133690233D01*
X158689549Y-133810451D01*
X158809767Y-133902698D01*
X158817396Y-133905858D01*
X158817401Y-133905861D01*
X158859350Y-133923237D01*
X158914631Y-133967785D01*
X158937051Y-134035149D01*
X158919492Y-134103940D01*
X158867530Y-134152318D01*
X158859360Y-134156049D01*
X158759767Y-134197302D01*
X158639549Y-134289549D01*
X158547302Y-134409767D01*
X158489313Y-134549764D01*
X158469534Y-134700000D01*
X158489313Y-134850236D01*
X158547302Y-134990233D01*
X158639549Y-135110451D01*
X158759767Y-135202698D01*
X158834349Y-135233591D01*
X158889630Y-135278139D01*
X158912051Y-135345503D01*
X158894493Y-135414294D01*
X158842531Y-135462672D01*
X158834350Y-135466408D01*
X158759767Y-135497302D01*
X158639549Y-135589549D01*
X158547302Y-135709767D01*
X158489313Y-135849764D01*
X158469534Y-136000000D01*
X154700000Y-136000000D01*
X154700000Y-123748932D01*
X154720002Y-123680811D01*
X154773658Y-123634318D01*
X154843932Y-123624214D01*
X154897635Y-123645277D01*
X154899802Y-123646775D01*
X154902957Y-123649029D01*
X154947700Y-123682077D01*
X154954166Y-123684348D01*
X154959802Y-123688243D01*
X154968779Y-123691082D01*
X154968781Y-123691083D01*
X155012793Y-123705002D01*
X155016543Y-123706253D01*
X155068989Y-123724671D01*
X155075837Y-123724940D01*
X155082369Y-123727006D01*
X155088645Y-123727500D01*
X155138512Y-123727500D01*
X155143459Y-123727597D01*
X155197441Y-123729718D01*
X155204261Y-123727910D01*
X155211703Y-123727500D01*
X158518997Y-123727500D01*
X158587118Y-123747502D01*
X158595702Y-123753538D01*
X158659767Y-123802698D01*
X158799764Y-123860687D01*
X158950000Y-123880466D01*
X158958188Y-123879388D01*
X159092048Y-123861765D01*
X159100236Y-123860687D01*
X159240233Y-123802698D01*
X159360451Y-123710451D01*
X159452698Y-123590233D01*
X159510687Y-123450236D01*
X159530466Y-123300000D01*
X159510687Y-123149764D01*
X159452698Y-123009767D01*
X159360451Y-122889549D01*
X159240233Y-122797302D01*
X159100236Y-122739313D01*
X158950000Y-122719534D01*
X158799764Y-122739313D01*
X158659767Y-122797302D01*
X158653216Y-122802329D01*
X158653214Y-122802330D01*
X158595701Y-122846462D01*
X158529481Y-122872063D01*
X158518997Y-122872500D01*
X155379266Y-122872500D01*
X155311145Y-122852498D01*
X155290171Y-122835595D01*
X154736905Y-122282329D01*
X154702879Y-122220017D01*
X154700000Y-122193234D01*
X154700000Y-117700000D01*
X153459433Y-117700000D01*
X153391312Y-117679998D01*
X153344819Y-117626342D01*
X153334715Y-117556068D01*
X153364209Y-117491488D01*
X153370338Y-117484905D01*
X155090838Y-115764405D01*
X155153150Y-115730379D01*
X155179933Y-115727500D01*
X160009186Y-115727500D01*
X160023995Y-115728373D01*
X160055619Y-115732116D01*
X160064883Y-115730424D01*
X160064884Y-115730424D01*
X160110301Y-115722129D01*
X160114207Y-115721479D01*
X160128322Y-115719357D01*
X160169162Y-115713217D01*
X160175339Y-115710251D01*
X160182079Y-115709020D01*
X160231400Y-115683399D01*
X160234940Y-115681631D01*
X160276555Y-115661648D01*
X160276556Y-115661647D01*
X160285045Y-115657571D01*
X160290079Y-115652918D01*
X160296156Y-115649761D01*
X160300944Y-115645673D01*
X160336190Y-115610427D01*
X160339756Y-115606997D01*
X160372530Y-115576702D01*
X160372532Y-115576699D01*
X160379443Y-115570311D01*
X160382986Y-115564210D01*
X160387966Y-115558651D01*
X161784905Y-114161712D01*
X161847217Y-114127686D01*
X161918032Y-114132751D01*
X161974868Y-114175298D01*
X161999679Y-114241818D01*
X162000000Y-114250807D01*
X162000000Y-144062729D01*
X161998086Y-144084608D01*
X161995372Y-144100000D01*
X161997286Y-144110857D01*
X161997286Y-144121368D01*
X161996679Y-144133718D01*
X161987766Y-144224214D01*
X161982948Y-144248437D01*
X161950317Y-144356009D01*
X161940867Y-144378822D01*
X161887878Y-144477957D01*
X161874157Y-144498491D01*
X161802848Y-144585382D01*
X161785382Y-144602848D01*
X161698494Y-144674155D01*
X161677960Y-144687876D01*
X161578822Y-144740867D01*
X161556009Y-144750317D01*
X161448437Y-144782948D01*
X161424214Y-144787766D01*
X161363014Y-144793794D01*
X161333715Y-144796679D01*
X161321368Y-144797286D01*
X161310857Y-144797286D01*
X161300000Y-144795372D01*
X161289145Y-144797286D01*
X161284608Y-144798086D01*
X161262729Y-144800000D01*
X128737271Y-144800000D01*
X128715392Y-144798086D01*
X128710855Y-144797286D01*
X128700000Y-144795372D01*
X128689143Y-144797286D01*
X128678632Y-144797286D01*
X128666285Y-144796679D01*
X128636986Y-144793794D01*
X128575786Y-144787766D01*
X128551563Y-144782948D01*
X128443991Y-144750317D01*
X128421178Y-144740867D01*
X128322040Y-144687876D01*
X128301506Y-144674155D01*
X128214618Y-144602848D01*
X128197152Y-144585382D01*
X128125843Y-144498491D01*
X128112122Y-144477957D01*
X128059133Y-144378822D01*
X128049683Y-144356009D01*
X128017052Y-144248437D01*
X128012234Y-144224214D01*
X128003321Y-144133718D01*
X128002714Y-144121368D01*
X128002714Y-144110857D01*
X128004628Y-144100000D01*
X128001914Y-144084608D01*
X128000000Y-144062729D01*
X128000000Y-142700000D01*
X157619534Y-142700000D01*
X157639313Y-142850236D01*
X157697302Y-142990233D01*
X157789549Y-143110451D01*
X157909767Y-143202698D01*
X158049764Y-143260687D01*
X158200000Y-143280466D01*
X158208188Y-143279388D01*
X158342048Y-143261765D01*
X158350236Y-143260687D01*
X158490233Y-143202698D01*
X158610451Y-143110451D01*
X158702698Y-142990233D01*
X158760687Y-142850236D01*
X158780466Y-142700000D01*
X158760687Y-142549764D01*
X158702698Y-142409767D01*
X158610451Y-142289549D01*
X158490233Y-142197302D01*
X158350236Y-142139313D01*
X158200000Y-142119534D01*
X158049764Y-142139313D01*
X157909767Y-142197302D01*
X157789549Y-142289549D01*
X157697302Y-142409767D01*
X157639313Y-142549764D01*
X157619534Y-142700000D01*
X128000000Y-142700000D01*
X128000000Y-116850000D01*
X137064514Y-116850000D01*
X137084293Y-117000236D01*
X137142282Y-117140233D01*
X137234529Y-117260451D01*
X137354747Y-117352698D01*
X137494744Y-117410687D01*
X137644980Y-117430466D01*
X137653168Y-117429388D01*
X137787028Y-117411765D01*
X137795216Y-117410687D01*
X137935213Y-117352698D01*
X138055431Y-117260451D01*
X138147678Y-117140233D01*
X138205667Y-117000236D01*
X138225446Y-116850000D01*
X138205667Y-116699764D01*
X138147678Y-116559767D01*
X138055431Y-116439549D01*
X137935213Y-116347302D01*
X137815745Y-116297817D01*
X137802845Y-116292473D01*
X137795216Y-116289313D01*
X137644980Y-116269534D01*
X137494744Y-116289313D01*
X137487115Y-116292473D01*
X137474215Y-116297817D01*
X137354747Y-116347302D01*
X137234529Y-116439549D01*
X137142282Y-116559767D01*
X137084293Y-116699764D01*
X137064514Y-116850000D01*
X128000000Y-116850000D01*
X128000000Y-114318053D01*
X128019982Y-114250000D01*
X128025000Y-114250000D01*
X128025000Y-110001000D01*
X128045002Y-109932879D01*
X128098658Y-109886386D01*
X128151000Y-109875000D01*
X134600000Y-109875000D01*
X134600000Y-106650000D01*
X139069534Y-106650000D01*
X139089313Y-106800236D01*
X139147302Y-106940233D01*
X139239549Y-107060451D01*
X139359767Y-107152698D01*
X139499764Y-107210687D01*
X139523861Y-107213859D01*
X139537232Y-107215620D01*
X139602158Y-107244343D01*
X139637964Y-107300795D01*
X139639313Y-107300236D01*
X139697302Y-107440233D01*
X139789549Y-107560451D01*
X139909767Y-107652698D01*
X140049764Y-107710687D01*
X140200000Y-107730466D01*
X140208188Y-107729388D01*
X140342048Y-107711765D01*
X140350236Y-107710687D01*
X140490233Y-107652698D01*
X140610451Y-107560451D01*
X140635531Y-107527766D01*
X140700038Y-107443700D01*
X140757376Y-107401833D01*
X140828247Y-107397611D01*
X140890150Y-107432375D01*
X140899962Y-107443700D01*
X140964469Y-107527766D01*
X140989549Y-107560451D01*
X141109767Y-107652698D01*
X141249764Y-107710687D01*
X141400000Y-107730466D01*
X141408188Y-107729388D01*
X141542048Y-107711765D01*
X141550236Y-107710687D01*
X141690233Y-107652698D01*
X141810451Y-107560451D01*
X141902698Y-107440233D01*
X141960687Y-107300236D01*
X141980466Y-107150000D01*
X141960687Y-106999764D01*
X141902698Y-106859767D01*
X141810451Y-106739549D01*
X141807473Y-106737264D01*
X141774447Y-106676783D01*
X141779512Y-106605968D01*
X141807124Y-106563004D01*
X141810451Y-106560451D01*
X141902698Y-106440233D01*
X141960687Y-106300236D01*
X141980466Y-106150000D01*
X141960687Y-105999764D01*
X141902698Y-105859767D01*
X141810451Y-105739549D01*
X141807473Y-105737264D01*
X141774447Y-105676783D01*
X141779512Y-105605968D01*
X141807124Y-105563004D01*
X141810451Y-105560451D01*
X141902698Y-105440233D01*
X141960687Y-105300236D01*
X141980466Y-105150000D01*
X141960687Y-104999764D01*
X141902698Y-104859767D01*
X141810451Y-104739549D01*
X141690233Y-104647302D01*
X141550236Y-104589313D01*
X141400000Y-104569534D01*
X141249764Y-104589313D01*
X141109767Y-104647302D01*
X140989549Y-104739549D01*
X140984523Y-104746099D01*
X140899962Y-104856300D01*
X140842624Y-104898167D01*
X140771753Y-104902389D01*
X140709850Y-104867625D01*
X140700038Y-104856300D01*
X140615477Y-104746099D01*
X140610451Y-104739549D01*
X140490233Y-104647302D01*
X140350236Y-104589313D01*
X140200000Y-104569534D01*
X140049764Y-104589313D01*
X139909767Y-104647302D01*
X139789549Y-104739549D01*
X139697302Y-104859767D01*
X139639313Y-104999764D01*
X139638105Y-104999264D01*
X139605539Y-105052692D01*
X139537232Y-105084380D01*
X139523861Y-105086141D01*
X139499764Y-105089313D01*
X139359767Y-105147302D01*
X139239549Y-105239549D01*
X139147302Y-105359767D01*
X139089313Y-105499764D01*
X139069534Y-105650000D01*
X139089313Y-105800236D01*
X139147302Y-105940233D01*
X139239549Y-106060451D01*
X139242527Y-106062736D01*
X139275553Y-106123217D01*
X139270488Y-106194032D01*
X139242876Y-106236996D01*
X139239549Y-106239549D01*
X139147302Y-106359767D01*
X139089313Y-106499764D01*
X139069534Y-106650000D01*
X134600000Y-106650000D01*
X134600000Y-104650000D01*
X124426000Y-104650000D01*
X124357879Y-104629998D01*
X124311386Y-104576342D01*
X124300000Y-104524000D01*
X124300000Y-101847431D01*
X124302238Y-101823790D01*
X124302530Y-101822263D01*
X124302530Y-101822257D01*
X124304597Y-101811436D01*
X124302838Y-101800559D01*
X124302995Y-101789534D01*
X124304002Y-101789548D01*
X124303746Y-101777378D01*
X124313808Y-101686777D01*
X124318793Y-101663039D01*
X124320162Y-101658668D01*
X124342175Y-101588354D01*
X124381616Y-101529321D01*
X124446712Y-101500983D01*
X124462420Y-101500000D01*
X126776387Y-101500000D01*
X126844508Y-101520002D01*
G37*
%TD.AperFunction*%
%TD*%
M02*
