M48
; DRILL file {KiCad (6.0.2-0)} date Sunday, 30 October 2022 at 17:21:04
; FORMAT={-:-/ absolute / inch / decimal}
; #@! TF.CreationDate,2022-10-30T17:21:04+00:00
; #@! TF.GenerationSoftware,Kicad,Pcbnew,(6.0.2-0)
; #@! TF.FileFunction,NonPlated,1,4,NPTH
FMAT,2
INCH
; #@! TA.AperFunction,NonPlated,NPTH,ComponentDrill
T1C0.0197
%
G90
G05
T1
X5.0236Y-3.8976
X5.0236Y-3.9705
X5.063Y-3.8976
X5.063Y-3.9705
X5.1024Y-3.8976
X5.1024Y-3.9705
X5.1417Y-3.8976
X5.1417Y-3.9705
X5.1811Y-3.8976
X5.1811Y-3.9705
X5.2205Y-3.8976
X5.2205Y-3.9705
X5.4173Y-3.8976
X5.4173Y-3.9705
X5.4567Y-3.8976
X5.4567Y-3.9705
X5.4961Y-3.8976
X5.4961Y-3.9705
X5.5354Y-3.8976
X5.5354Y-3.9705
X5.5748Y-3.8976
X5.5748Y-3.9705
X5.6142Y-3.8976
X5.6142Y-3.9705
X5.811Y-3.8976
X5.811Y-3.9705
X5.8504Y-3.8976
X5.8504Y-3.9705
X5.8898Y-3.8976
X5.8898Y-3.9705
X5.9291Y-3.8976
X5.9291Y-3.9705
X5.9685Y-3.8976
X5.9685Y-3.9705
X6.0079Y-3.8976
X6.0079Y-3.9705
X6.2047Y-3.8976
X6.2047Y-3.9705
X6.2441Y-3.8976
X6.2441Y-3.9705
X6.2835Y-3.8976
X6.2835Y-3.9705
X6.3228Y-3.8976
X6.3228Y-3.9705
X6.3622Y-3.8976
X6.3622Y-3.9705
X6.4016Y-3.8976
X6.4016Y-3.9705
T0
M30
