%TF.GenerationSoftware,KiCad,Pcbnew,(6.0.2-0)*%
%TF.CreationDate,2022-10-30T17:20:57+00:00*%
%TF.ProjectId,p3-cellular-module,70332d63-656c-46c7-956c-61722d6d6f64,rev?*%
%TF.SameCoordinates,Original*%
%TF.FileFunction,Copper,L3,Inr*%
%TF.FilePolarity,Positive*%
%FSLAX46Y46*%
G04 Gerber Fmt 4.6, Leading zero omitted, Abs format (unit mm)*
G04 Created by KiCad (PCBNEW (6.0.2-0)) date 2022-10-30 17:20:57*
%MOMM*%
%LPD*%
G01*
G04 APERTURE LIST*
%TA.AperFunction,ComponentPad*%
%ADD10C,3.800000*%
%TD*%
%TA.AperFunction,ComponentPad*%
%ADD11R,1.350000X1.350000*%
%TD*%
%TA.AperFunction,ComponentPad*%
%ADD12O,1.350000X1.350000*%
%TD*%
%TA.AperFunction,ViaPad*%
%ADD13C,0.550000*%
%TD*%
%TA.AperFunction,ViaPad*%
%ADD14C,0.686000*%
%TD*%
G04 APERTURE END LIST*
D10*
%TO.N,N/C*%
%TO.C,REF\u002A\u002A*%
X145100000Y-92800000D03*
%TD*%
D11*
%TO.N,VBUS*%
%TO.C,J4*%
X159882000Y-91450000D03*
D12*
%TO.N,GND*%
X157882000Y-91450000D03*
%TO.N,/USB Connector/USB_DN_RAW*%
X155882000Y-91450000D03*
%TO.N,/USB Connector/USB_DP_RAW*%
X153882000Y-91450000D03*
%TD*%
D13*
%TO.N,VBUS*%
X156800000Y-104100000D03*
X158400000Y-104100000D03*
X157200000Y-104700000D03*
X138100000Y-92900000D03*
X161101500Y-110600000D03*
X158000000Y-104700000D03*
X137400000Y-94150000D03*
X152525008Y-116875008D03*
X157600000Y-104100000D03*
%TO.N,GND*%
X152700000Y-104850000D03*
D14*
X149500000Y-120700000D03*
X147100000Y-118700000D03*
D13*
X131100000Y-124400000D03*
X131150000Y-121400000D03*
D14*
X137300000Y-128300000D03*
X152700000Y-128300000D03*
D13*
X142300000Y-91200000D03*
X147700000Y-104850000D03*
D14*
X147100000Y-120700000D03*
X150500000Y-124500000D03*
X153700000Y-138900000D03*
X142900000Y-123500000D03*
D13*
X133050000Y-110650000D03*
D14*
X147100000Y-125500000D03*
X147100000Y-138900000D03*
X153200000Y-133600000D03*
D13*
X143600000Y-141600000D03*
X158000000Y-116900000D03*
D14*
X136300000Y-118700000D03*
D13*
X159100000Y-129800000D03*
D14*
X150500000Y-137900000D03*
X153700000Y-120700000D03*
D13*
X133700000Y-141600000D03*
X142300000Y-92000000D03*
X161600000Y-105100000D03*
D14*
X150000000Y-133600000D03*
X152700000Y-134100000D03*
D13*
X158500000Y-112500000D03*
D14*
X150000000Y-120200000D03*
X142900000Y-125500000D03*
X152700000Y-120700000D03*
X149500000Y-119700000D03*
X149500000Y-135100000D03*
X146600000Y-133600000D03*
X150500000Y-138900000D03*
X147100000Y-139900000D03*
X150500000Y-118700000D03*
X153700000Y-125500000D03*
D13*
X134800000Y-121800000D03*
X150200000Y-104300000D03*
D14*
X152700000Y-139900000D03*
X146100000Y-135100000D03*
D13*
X131150000Y-120650000D03*
X136550000Y-95100000D03*
X157000000Y-111475000D03*
X128600000Y-115700000D03*
D14*
X140000000Y-125000000D03*
X139500000Y-120700000D03*
X150500000Y-128300000D03*
D13*
X149200000Y-104300000D03*
D14*
X149500000Y-139900000D03*
X136800000Y-124000000D03*
D13*
X132800000Y-141700000D03*
X142350000Y-111900000D03*
X159100000Y-129050000D03*
D14*
X140500000Y-118700000D03*
D13*
X136050000Y-103400000D03*
D14*
X140000000Y-120200000D03*
D13*
X133700000Y-123500000D03*
X156225000Y-112500000D03*
D14*
X153700000Y-129300000D03*
D13*
X141850000Y-110000000D03*
D14*
X150000000Y-119200000D03*
D13*
X131700000Y-141000000D03*
D14*
X146600000Y-124000000D03*
X143400000Y-139400000D03*
X143400000Y-134600000D03*
X143900000Y-125500000D03*
X149500000Y-137900000D03*
D13*
X130000000Y-144300000D03*
D14*
X146600000Y-120200000D03*
X153700000Y-137900000D03*
D13*
X149700000Y-104850000D03*
X131150000Y-122150000D03*
X148150000Y-141600000D03*
X157350000Y-111975000D03*
X129300000Y-144300000D03*
D14*
X152700000Y-135100000D03*
D13*
X153700000Y-104850000D03*
D14*
X150000000Y-125000000D03*
D13*
X136458814Y-106541186D03*
D14*
X143900000Y-138900000D03*
X150500000Y-123500000D03*
X152700000Y-119700000D03*
X147100000Y-124500000D03*
D13*
X154575000Y-116900000D03*
D14*
X140000000Y-139400000D03*
X150500000Y-133100000D03*
X150500000Y-129300000D03*
X153200000Y-128800000D03*
X137300000Y-120700000D03*
X136300000Y-137900000D03*
D13*
X159100000Y-128300000D03*
X131800000Y-124400000D03*
X154200000Y-104300000D03*
X134800000Y-121050000D03*
X131800000Y-130950000D03*
X162350000Y-105100000D03*
D14*
X137300000Y-137900000D03*
X142900000Y-138900000D03*
D13*
X131900000Y-119150000D03*
D14*
X150500000Y-135100000D03*
X137300000Y-134100000D03*
X142900000Y-135100000D03*
D13*
X154600000Y-117600000D03*
X131100000Y-132900000D03*
X150700000Y-104850000D03*
D14*
X153200000Y-119200000D03*
X136800000Y-134600000D03*
D13*
X134100000Y-110650000D03*
D14*
X136800000Y-119200000D03*
D13*
X134250000Y-122900000D03*
X141150000Y-113000000D03*
D14*
X136300000Y-135100000D03*
D13*
X131100000Y-125900000D03*
D14*
X139500000Y-119700000D03*
D13*
X150050000Y-110950000D03*
X128600000Y-115000000D03*
D14*
X146100000Y-123500000D03*
X136800000Y-133600000D03*
X139500000Y-135100000D03*
X142900000Y-119700000D03*
D13*
X131900000Y-119900000D03*
X151700000Y-104850000D03*
X137400000Y-95100000D03*
X153850000Y-141600000D03*
D14*
X146100000Y-139900000D03*
X136800000Y-129800000D03*
X153700000Y-134100000D03*
X147100000Y-135100000D03*
X143400000Y-138400000D03*
D13*
X142350000Y-111150000D03*
D14*
X142900000Y-124500000D03*
D13*
X134100000Y-121400000D03*
D14*
X150500000Y-130300000D03*
D13*
X145800000Y-141600000D03*
D14*
X140500000Y-130300000D03*
D13*
X139750000Y-141600000D03*
D14*
X140500000Y-120700000D03*
D13*
X147200000Y-105650000D03*
X131100000Y-135200000D03*
D14*
X142900000Y-118700000D03*
D13*
X133550000Y-110300000D03*
X133150000Y-124050000D03*
X147800000Y-106050000D03*
D14*
X136300000Y-138900000D03*
D13*
X149600000Y-141600000D03*
D14*
X153700000Y-119700000D03*
X136300000Y-123500000D03*
X152700000Y-138900000D03*
D13*
X131100000Y-131400000D03*
X157750000Y-111475000D03*
D14*
X146100000Y-133100000D03*
X150500000Y-134100000D03*
D13*
X131150000Y-117650000D03*
X128600000Y-144300000D03*
X147200000Y-107150000D03*
D14*
X152700000Y-123500000D03*
D13*
X146700000Y-104850000D03*
D14*
X143900000Y-119700000D03*
X150500000Y-119700000D03*
D13*
X159100000Y-131350000D03*
X153200000Y-104300000D03*
D14*
X149500000Y-130300000D03*
X152700000Y-118700000D03*
X150000000Y-124000000D03*
X139500000Y-125500000D03*
X149500000Y-128300000D03*
X142900000Y-137900000D03*
D13*
X131100000Y-136750000D03*
X157725000Y-112500000D03*
X131100000Y-137500000D03*
D14*
X142900000Y-133100000D03*
D13*
X134100000Y-118400000D03*
X131100000Y-129800000D03*
X153150000Y-141600000D03*
X156600000Y-111975000D03*
D14*
X153200000Y-138400000D03*
D13*
X129600000Y-90750000D03*
D14*
X137300000Y-118700000D03*
X153700000Y-128300000D03*
D13*
X134100000Y-112150000D03*
D14*
X147100000Y-134100000D03*
X137300000Y-135100000D03*
X143400000Y-119200000D03*
X140500000Y-139900000D03*
D13*
X131050000Y-114550000D03*
D14*
X153700000Y-118700000D03*
D13*
X132450000Y-123850000D03*
X131100000Y-130550000D03*
D14*
X153700000Y-135100000D03*
D13*
X148900000Y-141600000D03*
X159100000Y-130600000D03*
D14*
X153200000Y-125000000D03*
D13*
X131100000Y-139850000D03*
X133550000Y-117050000D03*
X134100000Y-119150000D03*
X130700000Y-144300000D03*
X138300000Y-141600000D03*
D14*
X146100000Y-137900000D03*
X140000000Y-133600000D03*
D13*
X138200000Y-95100000D03*
D14*
X142900000Y-120700000D03*
D13*
X159350000Y-144275000D03*
D14*
X136300000Y-119700000D03*
X149500000Y-118700000D03*
D13*
X131100000Y-128200000D03*
D14*
X146100000Y-119700000D03*
X150500000Y-125500000D03*
X140500000Y-138900000D03*
X147100000Y-133100000D03*
D13*
X135200000Y-141600000D03*
X141850000Y-112250000D03*
D14*
X140500000Y-125500000D03*
D13*
X133550000Y-112550000D03*
D14*
X137300000Y-133100000D03*
D13*
X147400000Y-113375000D03*
X133050000Y-112150000D03*
X134100000Y-119900000D03*
D14*
X139500000Y-138900000D03*
X143900000Y-137900000D03*
X137300000Y-125500000D03*
X146100000Y-138900000D03*
D13*
X147250000Y-110500000D03*
X154900000Y-104000000D03*
D14*
X150000000Y-129800000D03*
X140000000Y-129800000D03*
D13*
X146850000Y-111000000D03*
D14*
X140000000Y-128800000D03*
X150000000Y-139400000D03*
D13*
X154900000Y-103000000D03*
D14*
X136800000Y-120200000D03*
X146600000Y-139400000D03*
X140500000Y-123500000D03*
D13*
X131100000Y-139050000D03*
X131100000Y-140600000D03*
D14*
X147100000Y-137900000D03*
D13*
X134100000Y-122150000D03*
D14*
X143900000Y-120700000D03*
X143400000Y-125000000D03*
D13*
X133550000Y-111050000D03*
D14*
X137300000Y-130300000D03*
X139500000Y-128300000D03*
X137300000Y-139900000D03*
X136300000Y-133100000D03*
D13*
X131800000Y-125150000D03*
X145050000Y-141600000D03*
D14*
X149500000Y-129300000D03*
D13*
X147200000Y-104300000D03*
D14*
X136300000Y-139900000D03*
X143900000Y-135100000D03*
D13*
X133050000Y-111400000D03*
D14*
X153200000Y-120200000D03*
X136300000Y-124500000D03*
X153700000Y-124500000D03*
X139500000Y-124500000D03*
D13*
X134100000Y-120650000D03*
D14*
X137300000Y-124500000D03*
X142900000Y-139900000D03*
X143900000Y-139900000D03*
D13*
X158650000Y-144275000D03*
D14*
X146600000Y-119200000D03*
D13*
X156975000Y-112500000D03*
D14*
X152700000Y-133100000D03*
X136300000Y-125500000D03*
D13*
X159350000Y-105100000D03*
X131100000Y-138300000D03*
D14*
X136300000Y-128300000D03*
X149500000Y-123500000D03*
D13*
X161450000Y-144275000D03*
X128600000Y-143600000D03*
X132050000Y-141700000D03*
X131100000Y-133700000D03*
D14*
X136300000Y-130300000D03*
X149500000Y-134100000D03*
D13*
X154550000Y-141600000D03*
X147800000Y-106800000D03*
X133550000Y-111800000D03*
X134800000Y-119550000D03*
D14*
X150000000Y-138400000D03*
D13*
X133550000Y-122750000D03*
D14*
X139500000Y-139900000D03*
D13*
X131400000Y-144300000D03*
D14*
X150500000Y-120700000D03*
D13*
X160850000Y-105100000D03*
D14*
X142900000Y-134100000D03*
D13*
X136750000Y-141600000D03*
D14*
X152700000Y-129300000D03*
X153200000Y-129800000D03*
D13*
X134450000Y-141600000D03*
D14*
X153700000Y-123500000D03*
D13*
X132450000Y-141000000D03*
D14*
X146100000Y-118700000D03*
D13*
X141300000Y-141600000D03*
D14*
X139500000Y-133100000D03*
D13*
X154000000Y-117250000D03*
X160050000Y-144275000D03*
D14*
X150500000Y-139900000D03*
X137300000Y-129300000D03*
X140000000Y-138400000D03*
X146600000Y-138400000D03*
D13*
X146600000Y-141600000D03*
X160100000Y-105100000D03*
X139000000Y-141600000D03*
D14*
X149500000Y-133100000D03*
D13*
X129300000Y-115700000D03*
D14*
X137300000Y-123500000D03*
D13*
X147350000Y-141600000D03*
D14*
X143900000Y-124500000D03*
D13*
X136000000Y-141600000D03*
X131150000Y-113500000D03*
X161450000Y-142875000D03*
D14*
X146100000Y-134100000D03*
X153200000Y-124000000D03*
D13*
X131100000Y-126700000D03*
X131900000Y-121400000D03*
X144300000Y-141600000D03*
X137150000Y-106550000D03*
X137400000Y-92400000D03*
X131100000Y-125150000D03*
D14*
X140000000Y-124000000D03*
D13*
X128600000Y-142900000D03*
D14*
X143400000Y-133600000D03*
D13*
X132600000Y-124600000D03*
D14*
X143400000Y-120200000D03*
D13*
X154350000Y-102500000D03*
X141800000Y-113000000D03*
X131100000Y-129000000D03*
D14*
X152700000Y-124500000D03*
D13*
X142850000Y-141600000D03*
D14*
X146600000Y-134600000D03*
D13*
X147650000Y-111000000D03*
D14*
X136800000Y-125000000D03*
X146100000Y-120700000D03*
D13*
X131100000Y-132150000D03*
X148200000Y-104300000D03*
D14*
X140500000Y-124500000D03*
X140500000Y-129300000D03*
X149500000Y-124500000D03*
X139500000Y-130300000D03*
X146100000Y-125500000D03*
D13*
X133000000Y-123300000D03*
X136800000Y-105950000D03*
X140500000Y-141600000D03*
X146350000Y-111950000D03*
X151200000Y-104300000D03*
D14*
X147100000Y-119700000D03*
D13*
X130000000Y-113550000D03*
D14*
X140000000Y-119200000D03*
X143900000Y-123500000D03*
D13*
X131150000Y-118400000D03*
D14*
X140500000Y-135100000D03*
D13*
X161450000Y-143575000D03*
D14*
X153700000Y-139900000D03*
X140500000Y-134100000D03*
X140000000Y-134600000D03*
X153200000Y-139400000D03*
D13*
X142350000Y-109650000D03*
X134100000Y-117650000D03*
D14*
X149500000Y-138900000D03*
X136800000Y-138400000D03*
D13*
X131100000Y-136000000D03*
D14*
X136800000Y-128800000D03*
D13*
X131100000Y-134450000D03*
X142350000Y-112650000D03*
D14*
X139500000Y-123500000D03*
D13*
X141850000Y-109250000D03*
X142300000Y-92800000D03*
D14*
X143900000Y-133100000D03*
X139500000Y-137900000D03*
D13*
X155250000Y-141600000D03*
X163100000Y-105100000D03*
D14*
X140500000Y-128300000D03*
D13*
X131100000Y-127450000D03*
D14*
X152700000Y-137900000D03*
D13*
X146200000Y-104300000D03*
D14*
X136300000Y-134100000D03*
D13*
X142350000Y-108900000D03*
D14*
X136800000Y-139400000D03*
D13*
X134800000Y-118800000D03*
D14*
X139500000Y-118700000D03*
D13*
X158700000Y-116875000D03*
D14*
X143400000Y-124000000D03*
D13*
X131900000Y-120650000D03*
D14*
X153700000Y-133100000D03*
D13*
X134100000Y-111400000D03*
D14*
X140500000Y-133100000D03*
X152700000Y-130300000D03*
X147100000Y-123500000D03*
X137300000Y-138900000D03*
X146100000Y-124500000D03*
D13*
X137550000Y-141600000D03*
X154900000Y-102000000D03*
X130550000Y-114050000D03*
D14*
X152700000Y-125500000D03*
D13*
X134800000Y-120300000D03*
D14*
X139500000Y-134100000D03*
X137300000Y-119700000D03*
D13*
X131800000Y-129450000D03*
X142350000Y-110400000D03*
X136050000Y-101850000D03*
X131150000Y-119900000D03*
X158100000Y-111975000D03*
D14*
X153200000Y-134600000D03*
D13*
X160750000Y-144275000D03*
D14*
X149500000Y-125500000D03*
X150000000Y-134600000D03*
X136300000Y-120700000D03*
X146600000Y-125000000D03*
D13*
X150050000Y-111675000D03*
X131900000Y-118400000D03*
X147200000Y-106400000D03*
D14*
X136300000Y-129300000D03*
X139500000Y-129300000D03*
X140500000Y-119700000D03*
X153700000Y-130300000D03*
D13*
X141850000Y-111500000D03*
X158350000Y-116300000D03*
X131150000Y-119150000D03*
X142050000Y-141600000D03*
X133200000Y-141000000D03*
X141850000Y-110750000D03*
X150350000Y-141600000D03*
D14*
X150000000Y-128800000D03*
D13*
X154350000Y-103500000D03*
D14*
X143900000Y-134100000D03*
D13*
X152200000Y-104300000D03*
X131800000Y-130200000D03*
D14*
X140500000Y-137900000D03*
X143900000Y-118700000D03*
D13*
%TO.N,+3V8*%
X140200000Y-106150000D03*
X139650000Y-105650000D03*
X139650000Y-106650000D03*
X140850000Y-106650000D03*
X140200000Y-107150000D03*
X140850000Y-105650000D03*
X141400000Y-106150000D03*
X140200000Y-105150000D03*
X137644980Y-116850000D03*
X141400000Y-105150000D03*
X149750000Y-106600000D03*
X141400000Y-107150000D03*
X162650000Y-107500000D03*
%TO.N,Net-(R2-Pad2)*%
X159175000Y-107650000D03*
X153900000Y-106950000D03*
%TO.N,/Cellular Modem/USIM_VDD*%
X159500000Y-114150000D03*
X159050000Y-134700000D03*
X153430498Y-110850000D03*
X158200000Y-114150000D03*
X158850000Y-114150000D03*
X152775500Y-110850000D03*
X159050000Y-136000000D03*
%TO.N,Net-(C15-Pad1)*%
X155650000Y-106901500D03*
X152500000Y-108600000D03*
%TO.N,Net-(C18-Pad1)*%
X153900000Y-113400000D03*
X150100000Y-113450000D03*
%TO.N,/Cellular Modem/STAT_OD*%
X161703000Y-111100000D03*
X140250000Y-116850000D03*
%TO.N,/Cellular Modem/NET_STAT_DRV*%
X133350000Y-93300000D03*
X139100000Y-122100000D03*
X134200000Y-101900000D03*
X158950000Y-123300000D03*
%TO.N,Net-(D1-Pad1)*%
X137400000Y-93300000D03*
%TO.N,/Cellular Modem/USIM_RST*%
X159075000Y-139925000D03*
%TO.N,/Cellular Modem/USIM_CLK*%
X155075000Y-139325000D03*
%TO.N,/Cellular Modem/USIM_DATA*%
X156775000Y-137275000D03*
%TO.N,/Cellular Modem/USB_DP*%
X149799675Y-116850325D03*
X143998500Y-103200000D03*
%TO.N,/Cellular Modem/USB_DN*%
X139250000Y-95100000D03*
X151298500Y-116850000D03*
X144000000Y-102000000D03*
%TO.N,Net-(TP9-Pad1)*%
X159100000Y-132150000D03*
%TO.N,Net-(TP10-Pad1)*%
X159100000Y-133400000D03*
%TO.N,/Cellular Modem/PWRKEY*%
X151950000Y-141500000D03*
X134175000Y-103375000D03*
X129600000Y-94450000D03*
X138400000Y-127750000D03*
%TO.N,Net-(TP7-Pad1)*%
X147500000Y-116850000D03*
X134300000Y-125800000D03*
X148000000Y-121475000D03*
%TO.N,Net-(TP8-Pad1)*%
X148700000Y-116850000D03*
X134300000Y-128050000D03*
X148525000Y-122725000D03*
%TO.N,Net-(TP1-Pad1)*%
X158200000Y-142700000D03*
%TD*%
%TA.AperFunction,Conductor*%
%TO.N,GND*%
G36*
X127209730Y-101245002D02*
G01*
X127234357Y-101265713D01*
X127239986Y-101271835D01*
X127239988Y-101271837D01*
X127245799Y-101278156D01*
X127253096Y-101282680D01*
X127253098Y-101282682D01*
X127366687Y-101353110D01*
X127366690Y-101353111D01*
X127373986Y-101357635D01*
X127518825Y-101399715D01*
X127525803Y-101400227D01*
X127527208Y-101400331D01*
X127527219Y-101400331D01*
X127529515Y-101400500D01*
X127637785Y-101400500D01*
X127642030Y-101399918D01*
X127642037Y-101399918D01*
X127702522Y-101391632D01*
X127749432Y-101385206D01*
X127813145Y-101357635D01*
X127879971Y-101328717D01*
X127879973Y-101328716D01*
X127887855Y-101325305D01*
X127977047Y-101253079D01*
X128042572Y-101225754D01*
X128056339Y-101225000D01*
X128141609Y-101225000D01*
X128209730Y-101245002D01*
X128234357Y-101265713D01*
X128239986Y-101271835D01*
X128239988Y-101271837D01*
X128245799Y-101278156D01*
X128253096Y-101282680D01*
X128253098Y-101282682D01*
X128366687Y-101353110D01*
X128366690Y-101353111D01*
X128373986Y-101357635D01*
X128518825Y-101399715D01*
X128525803Y-101400227D01*
X128527208Y-101400331D01*
X128527219Y-101400331D01*
X128529515Y-101400500D01*
X128637785Y-101400500D01*
X128642030Y-101399918D01*
X128642037Y-101399918D01*
X128702522Y-101391632D01*
X128749432Y-101385206D01*
X128813145Y-101357635D01*
X128879971Y-101328717D01*
X128879973Y-101328716D01*
X128887855Y-101325305D01*
X128977047Y-101253079D01*
X129042572Y-101225754D01*
X129056339Y-101225000D01*
X129141609Y-101225000D01*
X129209730Y-101245002D01*
X129234357Y-101265713D01*
X129239986Y-101271835D01*
X129239988Y-101271837D01*
X129245799Y-101278156D01*
X129253096Y-101282680D01*
X129253098Y-101282682D01*
X129366687Y-101353110D01*
X129366690Y-101353111D01*
X129373986Y-101357635D01*
X129518825Y-101399715D01*
X129525803Y-101400227D01*
X129527208Y-101400331D01*
X129527219Y-101400331D01*
X129529515Y-101400500D01*
X129637785Y-101400500D01*
X129642030Y-101399918D01*
X129642037Y-101399918D01*
X129702522Y-101391632D01*
X129749432Y-101385206D01*
X129813145Y-101357635D01*
X129879971Y-101328717D01*
X129879973Y-101328716D01*
X129887855Y-101325305D01*
X129977047Y-101253079D01*
X130042572Y-101225754D01*
X130056339Y-101225000D01*
X130141609Y-101225000D01*
X130209730Y-101245002D01*
X130234357Y-101265713D01*
X130239986Y-101271835D01*
X130239988Y-101271837D01*
X130245799Y-101278156D01*
X130253096Y-101282680D01*
X130253098Y-101282682D01*
X130366687Y-101353110D01*
X130366690Y-101353111D01*
X130373986Y-101357635D01*
X130518825Y-101399715D01*
X130525803Y-101400227D01*
X130527208Y-101400331D01*
X130527219Y-101400331D01*
X130529515Y-101400500D01*
X130637785Y-101400500D01*
X130642030Y-101399918D01*
X130642037Y-101399918D01*
X130702522Y-101391632D01*
X130749432Y-101385206D01*
X130813145Y-101357635D01*
X130879971Y-101328717D01*
X130879973Y-101328716D01*
X130887855Y-101325305D01*
X130977047Y-101253079D01*
X131042572Y-101225754D01*
X131056339Y-101225000D01*
X131141609Y-101225000D01*
X131209730Y-101245002D01*
X131234357Y-101265713D01*
X131239986Y-101271835D01*
X131239988Y-101271837D01*
X131245799Y-101278156D01*
X131253096Y-101282680D01*
X131253098Y-101282682D01*
X131366687Y-101353110D01*
X131366690Y-101353111D01*
X131373986Y-101357635D01*
X131518825Y-101399715D01*
X131525803Y-101400227D01*
X131527208Y-101400331D01*
X131527219Y-101400331D01*
X131529515Y-101400500D01*
X131637785Y-101400500D01*
X131642030Y-101399918D01*
X131642037Y-101399918D01*
X131702522Y-101391632D01*
X131749432Y-101385206D01*
X131813145Y-101357635D01*
X131879971Y-101328717D01*
X131879973Y-101328716D01*
X131887855Y-101325305D01*
X131977047Y-101253079D01*
X132042572Y-101225754D01*
X132056339Y-101225000D01*
X132141609Y-101225000D01*
X132209730Y-101245002D01*
X132234357Y-101265713D01*
X132239986Y-101271835D01*
X132239988Y-101271837D01*
X132245799Y-101278156D01*
X132253096Y-101282680D01*
X132253098Y-101282682D01*
X132366687Y-101353110D01*
X132366690Y-101353111D01*
X132373986Y-101357635D01*
X132518825Y-101399715D01*
X132525803Y-101400227D01*
X132527208Y-101400331D01*
X132527219Y-101400331D01*
X132529515Y-101400500D01*
X132637785Y-101400500D01*
X132642030Y-101399918D01*
X132642037Y-101399918D01*
X132702522Y-101391632D01*
X132749432Y-101385206D01*
X132813145Y-101357635D01*
X132879971Y-101328717D01*
X132879973Y-101328716D01*
X132887855Y-101325305D01*
X132977047Y-101253079D01*
X133042572Y-101225754D01*
X133056339Y-101225000D01*
X133763132Y-101225000D01*
X133831253Y-101245002D01*
X133877746Y-101298658D01*
X133887850Y-101368932D01*
X133858356Y-101433512D01*
X133839836Y-101450962D01*
X133789549Y-101489549D01*
X133697302Y-101609767D01*
X133661051Y-101697285D01*
X133648849Y-101726742D01*
X133604300Y-101782023D01*
X133536937Y-101804444D01*
X133470953Y-101788503D01*
X133466009Y-101785739D01*
X133448270Y-101775821D01*
X133442782Y-101773965D01*
X133442779Y-101773964D01*
X133290948Y-101722625D01*
X133290945Y-101722624D01*
X133285461Y-101720770D01*
X133196413Y-101708010D01*
X133173169Y-101704679D01*
X133166000Y-101703297D01*
X133159280Y-101700615D01*
X133153007Y-101700000D01*
X133149502Y-101700000D01*
X133148585Y-101699935D01*
X133146855Y-101699850D01*
X133146857Y-101699811D01*
X133131617Y-101698724D01*
X133129178Y-101698374D01*
X133129169Y-101698374D01*
X133122794Y-101697460D01*
X133115366Y-101695760D01*
X133094405Y-101698374D01*
X133089128Y-101699032D01*
X133073536Y-101700000D01*
X127137271Y-101700000D01*
X127115392Y-101698086D01*
X127110850Y-101697285D01*
X127110849Y-101697285D01*
X127100000Y-101695372D01*
X127096492Y-101695990D01*
X127083990Y-101697221D01*
X127083989Y-101697221D01*
X126991299Y-101706351D01*
X126923569Y-101713022D01*
X126917639Y-101714821D01*
X126917638Y-101714821D01*
X126878340Y-101726742D01*
X126753918Y-101764485D01*
X126748463Y-101767401D01*
X126748460Y-101767402D01*
X126645381Y-101822499D01*
X126597567Y-101848056D01*
X126460524Y-101960524D01*
X126456597Y-101965309D01*
X126351987Y-102092777D01*
X126348056Y-102097567D01*
X126345136Y-102103030D01*
X126295023Y-102196786D01*
X126264485Y-102253918D01*
X126262688Y-102259842D01*
X126218395Y-102405858D01*
X126213022Y-102423569D01*
X126195990Y-102596492D01*
X126195372Y-102600000D01*
X126196722Y-102607654D01*
X126195760Y-102615366D01*
X126197460Y-102622794D01*
X126220770Y-102785461D01*
X126222624Y-102790945D01*
X126222625Y-102790948D01*
X126258759Y-102897810D01*
X126275821Y-102948270D01*
X126278650Y-102953330D01*
X126348472Y-103078214D01*
X126359691Y-103098281D01*
X126469557Y-103230443D01*
X126601719Y-103340309D01*
X126606773Y-103343135D01*
X126606775Y-103343136D01*
X126663768Y-103375000D01*
X126751730Y-103424179D01*
X126757218Y-103426035D01*
X126757221Y-103426036D01*
X126909052Y-103477375D01*
X126909055Y-103477376D01*
X126914539Y-103479230D01*
X126991325Y-103490233D01*
X127026831Y-103495321D01*
X127034000Y-103496703D01*
X127040720Y-103499385D01*
X127046993Y-103500000D01*
X127050498Y-103500000D01*
X127051415Y-103500065D01*
X127053145Y-103500150D01*
X127053143Y-103500189D01*
X127068383Y-103501276D01*
X127070822Y-103501626D01*
X127070831Y-103501626D01*
X127077206Y-103502540D01*
X127084634Y-103504240D01*
X127110871Y-103500968D01*
X127126464Y-103500000D01*
X133062729Y-103500000D01*
X133084608Y-103501914D01*
X133089150Y-103502715D01*
X133089151Y-103502715D01*
X133100000Y-103504628D01*
X133103508Y-103504010D01*
X133116010Y-103502779D01*
X133116011Y-103502779D01*
X133208701Y-103493649D01*
X133276431Y-103486978D01*
X133288939Y-103483184D01*
X133384090Y-103454320D01*
X133446082Y-103435515D01*
X133446110Y-103435500D01*
X133514571Y-103428143D01*
X133578056Y-103459925D01*
X133613467Y-103518809D01*
X133614313Y-103525236D01*
X133672302Y-103665233D01*
X133764549Y-103785451D01*
X133884767Y-103877698D01*
X134024764Y-103935687D01*
X134175000Y-103955466D01*
X134183188Y-103954388D01*
X134317048Y-103936765D01*
X134325236Y-103935687D01*
X134465233Y-103877698D01*
X134585451Y-103785451D01*
X134677698Y-103665233D01*
X134735687Y-103525236D01*
X134740961Y-103485180D01*
X134754388Y-103383188D01*
X134755466Y-103375000D01*
X134735687Y-103224764D01*
X134677698Y-103084767D01*
X134585451Y-102964549D01*
X134465233Y-102872302D01*
X134325236Y-102814313D01*
X134175000Y-102794534D01*
X134166812Y-102795612D01*
X134166810Y-102795612D01*
X134140101Y-102799128D01*
X134069952Y-102788188D01*
X134016854Y-102741059D01*
X133997665Y-102672705D01*
X133998263Y-102661855D01*
X134004010Y-102603508D01*
X134004628Y-102600000D01*
X134003429Y-102593201D01*
X134003684Y-102589090D01*
X134004240Y-102584634D01*
X134004240Y-102584633D01*
X134004241Y-102584622D01*
X134007999Y-102585091D01*
X134019874Y-102535535D01*
X134071119Y-102486397D01*
X134145616Y-102473306D01*
X134200000Y-102480466D01*
X134208188Y-102479388D01*
X134342048Y-102461765D01*
X134350236Y-102460687D01*
X134490233Y-102402698D01*
X134610451Y-102310451D01*
X134702698Y-102190233D01*
X134760687Y-102050236D01*
X134780466Y-101900000D01*
X134762625Y-101764485D01*
X134761765Y-101757952D01*
X134760687Y-101749764D01*
X134702698Y-101609767D01*
X134610451Y-101489549D01*
X134560164Y-101450962D01*
X134518296Y-101393624D01*
X134514075Y-101322753D01*
X134548840Y-101260850D01*
X134611552Y-101227569D01*
X134636868Y-101225000D01*
X137141609Y-101225000D01*
X137209730Y-101245002D01*
X137234357Y-101265713D01*
X137239986Y-101271835D01*
X137239988Y-101271837D01*
X137245799Y-101278156D01*
X137253096Y-101282680D01*
X137253098Y-101282682D01*
X137366687Y-101353110D01*
X137366690Y-101353111D01*
X137373986Y-101357635D01*
X137518825Y-101399715D01*
X137525803Y-101400227D01*
X137527208Y-101400331D01*
X137527219Y-101400331D01*
X137529515Y-101400500D01*
X137637785Y-101400500D01*
X137642030Y-101399918D01*
X137642037Y-101399918D01*
X137702522Y-101391632D01*
X137749432Y-101385206D01*
X137813145Y-101357635D01*
X137879971Y-101328717D01*
X137879973Y-101328716D01*
X137887855Y-101325305D01*
X137977047Y-101253079D01*
X138042572Y-101225754D01*
X138056339Y-101225000D01*
X138141609Y-101225000D01*
X138209730Y-101245002D01*
X138234357Y-101265713D01*
X138239986Y-101271835D01*
X138239988Y-101271837D01*
X138245799Y-101278156D01*
X138253096Y-101282680D01*
X138253098Y-101282682D01*
X138366687Y-101353110D01*
X138366690Y-101353111D01*
X138373986Y-101357635D01*
X138518825Y-101399715D01*
X138525803Y-101400227D01*
X138527208Y-101400331D01*
X138527219Y-101400331D01*
X138529515Y-101400500D01*
X138637785Y-101400500D01*
X138642030Y-101399918D01*
X138642037Y-101399918D01*
X138702522Y-101391632D01*
X138749432Y-101385206D01*
X138813145Y-101357635D01*
X138879971Y-101328717D01*
X138879973Y-101328716D01*
X138887855Y-101325305D01*
X138977047Y-101253079D01*
X139042572Y-101225754D01*
X139056339Y-101225000D01*
X139141609Y-101225000D01*
X139209730Y-101245002D01*
X139234357Y-101265713D01*
X139239986Y-101271835D01*
X139239988Y-101271837D01*
X139245799Y-101278156D01*
X139253096Y-101282680D01*
X139253098Y-101282682D01*
X139366687Y-101353110D01*
X139366690Y-101353111D01*
X139373986Y-101357635D01*
X139518825Y-101399715D01*
X139525803Y-101400227D01*
X139527208Y-101400331D01*
X139527219Y-101400331D01*
X139529515Y-101400500D01*
X139637785Y-101400500D01*
X139642030Y-101399918D01*
X139642037Y-101399918D01*
X139702522Y-101391632D01*
X139749432Y-101385206D01*
X139813145Y-101357635D01*
X139879971Y-101328717D01*
X139879973Y-101328716D01*
X139887855Y-101325305D01*
X139977047Y-101253079D01*
X140042572Y-101225754D01*
X140056339Y-101225000D01*
X140141609Y-101225000D01*
X140209730Y-101245002D01*
X140234357Y-101265713D01*
X140239986Y-101271835D01*
X140239988Y-101271837D01*
X140245799Y-101278156D01*
X140253096Y-101282680D01*
X140253098Y-101282682D01*
X140366687Y-101353110D01*
X140366690Y-101353111D01*
X140373986Y-101357635D01*
X140518825Y-101399715D01*
X140525803Y-101400227D01*
X140527208Y-101400331D01*
X140527219Y-101400331D01*
X140529515Y-101400500D01*
X140637785Y-101400500D01*
X140642030Y-101399918D01*
X140642037Y-101399918D01*
X140702522Y-101391632D01*
X140749432Y-101385206D01*
X140813145Y-101357635D01*
X140879971Y-101328717D01*
X140879973Y-101328716D01*
X140887855Y-101325305D01*
X140977047Y-101253079D01*
X141042572Y-101225754D01*
X141056339Y-101225000D01*
X141141609Y-101225000D01*
X141209730Y-101245002D01*
X141234357Y-101265713D01*
X141239986Y-101271835D01*
X141239988Y-101271837D01*
X141245799Y-101278156D01*
X141253096Y-101282680D01*
X141253098Y-101282682D01*
X141366687Y-101353110D01*
X141366690Y-101353111D01*
X141373986Y-101357635D01*
X141518825Y-101399715D01*
X141525803Y-101400227D01*
X141527208Y-101400331D01*
X141527219Y-101400331D01*
X141529515Y-101400500D01*
X141637785Y-101400500D01*
X141642030Y-101399918D01*
X141642037Y-101399918D01*
X141702522Y-101391632D01*
X141749432Y-101385206D01*
X141813145Y-101357635D01*
X141879971Y-101328717D01*
X141879973Y-101328716D01*
X141887855Y-101325305D01*
X141977047Y-101253079D01*
X142042572Y-101225754D01*
X142056339Y-101225000D01*
X142141609Y-101225000D01*
X142209730Y-101245002D01*
X142234357Y-101265713D01*
X142239986Y-101271835D01*
X142239988Y-101271837D01*
X142245799Y-101278156D01*
X142253096Y-101282680D01*
X142253098Y-101282682D01*
X142366687Y-101353110D01*
X142366690Y-101353111D01*
X142373986Y-101357635D01*
X142518825Y-101399715D01*
X142525803Y-101400227D01*
X142527208Y-101400331D01*
X142527219Y-101400331D01*
X142529515Y-101400500D01*
X142637785Y-101400500D01*
X142642030Y-101399918D01*
X142642037Y-101399918D01*
X142702522Y-101391632D01*
X142749432Y-101385206D01*
X142813145Y-101357635D01*
X142879971Y-101328717D01*
X142879973Y-101328716D01*
X142887855Y-101325305D01*
X142977047Y-101253079D01*
X143042572Y-101225754D01*
X143056339Y-101225000D01*
X143733717Y-101225000D01*
X143801838Y-101245002D01*
X143848331Y-101298658D01*
X143858435Y-101368932D01*
X143828941Y-101433512D01*
X143781935Y-101467409D01*
X143709767Y-101497302D01*
X143589549Y-101589549D01*
X143584523Y-101596099D01*
X143497998Y-101708860D01*
X143440660Y-101750727D01*
X143369789Y-101754949D01*
X143357677Y-101751517D01*
X143272233Y-101722626D01*
X143272230Y-101722625D01*
X143266743Y-101720770D01*
X143177695Y-101708010D01*
X143154451Y-101704679D01*
X143147282Y-101703297D01*
X143140562Y-101700615D01*
X143134289Y-101700000D01*
X143130784Y-101700000D01*
X143129867Y-101699935D01*
X143128137Y-101699850D01*
X143128139Y-101699811D01*
X143112899Y-101698724D01*
X143110460Y-101698374D01*
X143110451Y-101698374D01*
X143104076Y-101697460D01*
X143096648Y-101695760D01*
X143075687Y-101698374D01*
X143070410Y-101699032D01*
X143054818Y-101700000D01*
X137118553Y-101700000D01*
X137096674Y-101698086D01*
X137092132Y-101697285D01*
X137092131Y-101697285D01*
X137081282Y-101695372D01*
X137077774Y-101695990D01*
X137065272Y-101697221D01*
X137065271Y-101697221D01*
X136972581Y-101706351D01*
X136904851Y-101713022D01*
X136898921Y-101714821D01*
X136898920Y-101714821D01*
X136859622Y-101726742D01*
X136735200Y-101764485D01*
X136729745Y-101767401D01*
X136729742Y-101767402D01*
X136626663Y-101822499D01*
X136578849Y-101848056D01*
X136441806Y-101960524D01*
X136437879Y-101965309D01*
X136333269Y-102092777D01*
X136329338Y-102097567D01*
X136326418Y-102103030D01*
X136276305Y-102196786D01*
X136245767Y-102253918D01*
X136243970Y-102259842D01*
X136199677Y-102405858D01*
X136194304Y-102423569D01*
X136177272Y-102596492D01*
X136176654Y-102600000D01*
X136178004Y-102607654D01*
X136177042Y-102615366D01*
X136178742Y-102622794D01*
X136202052Y-102785461D01*
X136203906Y-102790945D01*
X136203907Y-102790948D01*
X136240041Y-102897810D01*
X136257103Y-102948270D01*
X136259932Y-102953330D01*
X136329754Y-103078214D01*
X136340973Y-103098281D01*
X136450839Y-103230443D01*
X136583001Y-103340309D01*
X136588055Y-103343135D01*
X136588057Y-103343136D01*
X136645050Y-103375000D01*
X136733012Y-103424179D01*
X136738500Y-103426035D01*
X136738503Y-103426036D01*
X136890334Y-103477375D01*
X136890337Y-103477376D01*
X136895821Y-103479230D01*
X136972607Y-103490233D01*
X137008113Y-103495321D01*
X137015282Y-103496703D01*
X137022002Y-103499385D01*
X137028275Y-103500000D01*
X137031780Y-103500000D01*
X137032697Y-103500065D01*
X137034427Y-103500150D01*
X137034425Y-103500189D01*
X137049665Y-103501276D01*
X137052104Y-103501626D01*
X137052113Y-103501626D01*
X137058488Y-103502540D01*
X137065916Y-103504240D01*
X137092153Y-103500968D01*
X137107746Y-103500000D01*
X143044011Y-103500000D01*
X143065890Y-103501914D01*
X143070432Y-103502715D01*
X143070433Y-103502715D01*
X143081282Y-103504628D01*
X143084790Y-103504010D01*
X143097292Y-103502779D01*
X143097293Y-103502779D01*
X143189983Y-103493649D01*
X143257713Y-103486978D01*
X143365372Y-103454320D01*
X143436364Y-103453687D01*
X143496431Y-103491536D01*
X143501908Y-103498191D01*
X143541243Y-103549453D01*
X143588049Y-103610451D01*
X143708267Y-103702698D01*
X143848264Y-103760687D01*
X143998500Y-103780466D01*
X144006688Y-103779388D01*
X144140548Y-103761765D01*
X144148736Y-103760687D01*
X144288733Y-103702698D01*
X144408951Y-103610451D01*
X144501198Y-103490233D01*
X144559187Y-103350236D01*
X144578966Y-103200000D01*
X144559187Y-103049764D01*
X144501198Y-102909767D01*
X144408951Y-102789549D01*
X144292949Y-102700537D01*
X144251082Y-102643199D01*
X144248509Y-102600000D01*
X146176654Y-102600000D01*
X146178004Y-102607654D01*
X146177042Y-102615366D01*
X146178742Y-102622794D01*
X146202052Y-102785461D01*
X146203906Y-102790945D01*
X146203907Y-102790948D01*
X146240041Y-102897810D01*
X146257103Y-102948270D01*
X146259932Y-102953330D01*
X146329754Y-103078214D01*
X146340973Y-103098281D01*
X146450839Y-103230443D01*
X146583001Y-103340309D01*
X146588055Y-103343135D01*
X146588057Y-103343136D01*
X146645050Y-103375000D01*
X146733012Y-103424179D01*
X146738500Y-103426035D01*
X146738503Y-103426036D01*
X146890334Y-103477375D01*
X146890337Y-103477376D01*
X146895821Y-103479230D01*
X146972607Y-103490233D01*
X147008113Y-103495321D01*
X147015282Y-103496703D01*
X147022002Y-103499385D01*
X147028275Y-103500000D01*
X147031780Y-103500000D01*
X147032697Y-103500065D01*
X147034427Y-103500150D01*
X147034425Y-103500189D01*
X147049665Y-103501276D01*
X147052104Y-103501626D01*
X147052113Y-103501626D01*
X147058488Y-103502540D01*
X147065916Y-103504240D01*
X147092153Y-103500968D01*
X147107746Y-103500000D01*
X153044011Y-103500000D01*
X153065890Y-103501914D01*
X153070432Y-103502715D01*
X153070433Y-103502715D01*
X153081282Y-103504628D01*
X153084790Y-103504010D01*
X153097292Y-103502779D01*
X153097293Y-103502779D01*
X153189983Y-103493649D01*
X153257713Y-103486978D01*
X153270221Y-103483184D01*
X153421440Y-103437312D01*
X153427364Y-103435515D01*
X153432819Y-103432599D01*
X153432822Y-103432598D01*
X153578252Y-103354864D01*
X153583715Y-103351944D01*
X153720758Y-103239476D01*
X153833226Y-103102433D01*
X153846171Y-103078214D01*
X153913880Y-102951540D01*
X153913881Y-102951537D01*
X153916797Y-102946082D01*
X153939178Y-102872302D01*
X153966461Y-102782362D01*
X153966461Y-102782361D01*
X153968260Y-102776431D01*
X153985292Y-102603508D01*
X153985910Y-102600000D01*
X156095372Y-102600000D01*
X156096722Y-102607654D01*
X156095760Y-102615366D01*
X156097460Y-102622794D01*
X156120770Y-102785461D01*
X156122624Y-102790945D01*
X156122625Y-102790948D01*
X156158759Y-102897810D01*
X156175821Y-102948270D01*
X156178650Y-102953330D01*
X156248472Y-103078214D01*
X156259691Y-103098281D01*
X156369557Y-103230443D01*
X156501719Y-103340309D01*
X156542238Y-103362963D01*
X156591934Y-103413663D01*
X156606332Y-103483184D01*
X156580858Y-103549453D01*
X156528969Y-103589348D01*
X156509767Y-103597302D01*
X156389549Y-103689549D01*
X156297302Y-103809767D01*
X156239313Y-103949764D01*
X156219534Y-104100000D01*
X156239313Y-104250236D01*
X156297302Y-104390233D01*
X156389549Y-104510451D01*
X156509767Y-104602698D01*
X156517389Y-104605855D01*
X156517394Y-104605858D01*
X156545108Y-104617337D01*
X156600389Y-104661885D01*
X156621811Y-104717298D01*
X156639313Y-104850236D01*
X156697302Y-104990233D01*
X156789549Y-105110451D01*
X156909767Y-105202698D01*
X157049764Y-105260687D01*
X157200000Y-105280466D01*
X157208188Y-105279388D01*
X157342048Y-105261765D01*
X157350236Y-105260687D01*
X157490233Y-105202698D01*
X157523298Y-105177326D01*
X157589517Y-105151727D01*
X157659065Y-105165992D01*
X157676699Y-105177324D01*
X157709767Y-105202698D01*
X157849764Y-105260687D01*
X158000000Y-105280466D01*
X158008188Y-105279388D01*
X158142048Y-105261765D01*
X158150236Y-105260687D01*
X158290233Y-105202698D01*
X158410451Y-105110451D01*
X158502698Y-104990233D01*
X158560687Y-104850236D01*
X158578189Y-104717299D01*
X158606910Y-104652373D01*
X158654892Y-104617337D01*
X158682606Y-104605858D01*
X158682611Y-104605855D01*
X158690233Y-104602698D01*
X158810451Y-104510451D01*
X158902698Y-104390233D01*
X158960687Y-104250236D01*
X158980466Y-104100000D01*
X158960687Y-103949764D01*
X158902698Y-103809767D01*
X158880215Y-103780466D01*
X158820545Y-103702704D01*
X158794944Y-103636484D01*
X158809208Y-103566935D01*
X158858810Y-103516139D01*
X158920507Y-103500000D01*
X162962729Y-103500000D01*
X162984608Y-103501914D01*
X162989150Y-103502715D01*
X162989151Y-103502715D01*
X163000000Y-103504628D01*
X163003508Y-103504010D01*
X163016010Y-103502779D01*
X163016011Y-103502779D01*
X163108701Y-103493649D01*
X163176431Y-103486978D01*
X163188939Y-103483184D01*
X163340158Y-103437312D01*
X163346082Y-103435515D01*
X163351537Y-103432599D01*
X163351540Y-103432598D01*
X163496970Y-103354864D01*
X163502433Y-103351944D01*
X163639476Y-103239476D01*
X163751944Y-103102433D01*
X163764889Y-103078214D01*
X163832598Y-102951540D01*
X163832599Y-102951537D01*
X163835515Y-102946082D01*
X163857896Y-102872302D01*
X163885179Y-102782362D01*
X163885179Y-102782361D01*
X163886978Y-102776431D01*
X163904010Y-102603508D01*
X163904628Y-102600000D01*
X163903278Y-102592346D01*
X163904240Y-102584634D01*
X163902540Y-102577206D01*
X163879230Y-102414539D01*
X163875227Y-102402698D01*
X163826036Y-102257221D01*
X163826035Y-102257218D01*
X163824179Y-102251730D01*
X163793460Y-102196786D01*
X163743136Y-102106775D01*
X163743135Y-102106773D01*
X163740309Y-102101719D01*
X163630443Y-101969557D01*
X163498281Y-101859691D01*
X163480526Y-101849764D01*
X163353330Y-101778650D01*
X163353328Y-101778649D01*
X163348270Y-101775821D01*
X163342782Y-101773965D01*
X163342779Y-101773964D01*
X163190948Y-101722625D01*
X163190945Y-101722624D01*
X163185461Y-101720770D01*
X163096413Y-101708010D01*
X163073169Y-101704679D01*
X163066000Y-101703297D01*
X163059280Y-101700615D01*
X163053007Y-101700000D01*
X163049502Y-101700000D01*
X163048585Y-101699935D01*
X163046855Y-101699850D01*
X163046857Y-101699811D01*
X163031617Y-101698724D01*
X163029178Y-101698374D01*
X163029169Y-101698374D01*
X163022794Y-101697460D01*
X163015366Y-101695760D01*
X162994405Y-101698374D01*
X162989128Y-101699032D01*
X162973536Y-101700000D01*
X157037271Y-101700000D01*
X157015392Y-101698086D01*
X157010850Y-101697285D01*
X157010849Y-101697285D01*
X157000000Y-101695372D01*
X156996492Y-101695990D01*
X156983990Y-101697221D01*
X156983989Y-101697221D01*
X156891299Y-101706351D01*
X156823569Y-101713022D01*
X156817639Y-101714821D01*
X156817638Y-101714821D01*
X156778340Y-101726742D01*
X156653918Y-101764485D01*
X156648463Y-101767401D01*
X156648460Y-101767402D01*
X156545381Y-101822499D01*
X156497567Y-101848056D01*
X156360524Y-101960524D01*
X156356597Y-101965309D01*
X156251987Y-102092777D01*
X156248056Y-102097567D01*
X156245136Y-102103030D01*
X156195023Y-102196786D01*
X156164485Y-102253918D01*
X156162688Y-102259842D01*
X156118395Y-102405858D01*
X156113022Y-102423569D01*
X156095990Y-102596492D01*
X156095372Y-102600000D01*
X153985910Y-102600000D01*
X153984560Y-102592346D01*
X153985522Y-102584634D01*
X153983822Y-102577206D01*
X153960512Y-102414539D01*
X153956509Y-102402698D01*
X153907318Y-102257221D01*
X153907317Y-102257218D01*
X153905461Y-102251730D01*
X153874742Y-102196786D01*
X153824418Y-102106775D01*
X153824417Y-102106773D01*
X153821591Y-102101719D01*
X153711725Y-101969557D01*
X153579563Y-101859691D01*
X153561808Y-101849764D01*
X153434612Y-101778650D01*
X153434610Y-101778649D01*
X153429552Y-101775821D01*
X153424064Y-101773965D01*
X153424061Y-101773964D01*
X153272230Y-101722625D01*
X153272227Y-101722624D01*
X153266743Y-101720770D01*
X153177695Y-101708010D01*
X153154451Y-101704679D01*
X153147282Y-101703297D01*
X153140562Y-101700615D01*
X153134289Y-101700000D01*
X153130784Y-101700000D01*
X153129867Y-101699935D01*
X153128137Y-101699850D01*
X153128139Y-101699811D01*
X153112899Y-101698724D01*
X153110460Y-101698374D01*
X153110451Y-101698374D01*
X153104076Y-101697460D01*
X153096648Y-101695760D01*
X153075687Y-101698374D01*
X153070410Y-101699032D01*
X153054818Y-101700000D01*
X147118553Y-101700000D01*
X147096674Y-101698086D01*
X147092132Y-101697285D01*
X147092131Y-101697285D01*
X147081282Y-101695372D01*
X147077774Y-101695990D01*
X147065272Y-101697221D01*
X147065271Y-101697221D01*
X146972581Y-101706351D01*
X146904851Y-101713022D01*
X146898921Y-101714821D01*
X146898920Y-101714821D01*
X146859622Y-101726742D01*
X146735200Y-101764485D01*
X146729745Y-101767401D01*
X146729742Y-101767402D01*
X146626663Y-101822499D01*
X146578849Y-101848056D01*
X146441806Y-101960524D01*
X146437879Y-101965309D01*
X146333269Y-102092777D01*
X146329338Y-102097567D01*
X146326418Y-102103030D01*
X146276305Y-102196786D01*
X146245767Y-102253918D01*
X146243970Y-102259842D01*
X146199677Y-102405858D01*
X146194304Y-102423569D01*
X146177272Y-102596492D01*
X146176654Y-102600000D01*
X144248509Y-102600000D01*
X144246861Y-102572328D01*
X144281626Y-102510425D01*
X144292950Y-102500613D01*
X144344983Y-102460687D01*
X144410451Y-102410451D01*
X144502698Y-102290233D01*
X144560687Y-102150236D01*
X144580466Y-102000000D01*
X144560687Y-101849764D01*
X144502698Y-101709767D01*
X144410451Y-101589549D01*
X144290233Y-101497302D01*
X144218065Y-101467409D01*
X144162784Y-101422861D01*
X144140363Y-101355497D01*
X144157921Y-101286706D01*
X144209883Y-101238328D01*
X144266283Y-101225000D01*
X147141609Y-101225000D01*
X147209730Y-101245002D01*
X147234357Y-101265713D01*
X147239986Y-101271835D01*
X147239988Y-101271837D01*
X147245799Y-101278156D01*
X147253096Y-101282680D01*
X147253098Y-101282682D01*
X147366687Y-101353110D01*
X147366690Y-101353111D01*
X147373986Y-101357635D01*
X147518825Y-101399715D01*
X147525803Y-101400227D01*
X147527208Y-101400331D01*
X147527219Y-101400331D01*
X147529515Y-101400500D01*
X147637785Y-101400500D01*
X147642030Y-101399918D01*
X147642037Y-101399918D01*
X147702522Y-101391632D01*
X147749432Y-101385206D01*
X147813145Y-101357635D01*
X147879971Y-101328717D01*
X147879973Y-101328716D01*
X147887855Y-101325305D01*
X147977047Y-101253079D01*
X148042572Y-101225754D01*
X148056339Y-101225000D01*
X148141609Y-101225000D01*
X148209730Y-101245002D01*
X148234357Y-101265713D01*
X148239986Y-101271835D01*
X148239988Y-101271837D01*
X148245799Y-101278156D01*
X148253096Y-101282680D01*
X148253098Y-101282682D01*
X148366687Y-101353110D01*
X148366690Y-101353111D01*
X148373986Y-101357635D01*
X148518825Y-101399715D01*
X148525803Y-101400227D01*
X148527208Y-101400331D01*
X148527219Y-101400331D01*
X148529515Y-101400500D01*
X148637785Y-101400500D01*
X148642030Y-101399918D01*
X148642037Y-101399918D01*
X148702522Y-101391632D01*
X148749432Y-101385206D01*
X148813145Y-101357635D01*
X148879971Y-101328717D01*
X148879973Y-101328716D01*
X148887855Y-101325305D01*
X148977047Y-101253079D01*
X149042572Y-101225754D01*
X149056339Y-101225000D01*
X149141609Y-101225000D01*
X149209730Y-101245002D01*
X149234357Y-101265713D01*
X149239986Y-101271835D01*
X149239988Y-101271837D01*
X149245799Y-101278156D01*
X149253096Y-101282680D01*
X149253098Y-101282682D01*
X149366687Y-101353110D01*
X149366690Y-101353111D01*
X149373986Y-101357635D01*
X149518825Y-101399715D01*
X149525803Y-101400227D01*
X149527208Y-101400331D01*
X149527219Y-101400331D01*
X149529515Y-101400500D01*
X149637785Y-101400500D01*
X149642030Y-101399918D01*
X149642037Y-101399918D01*
X149702522Y-101391632D01*
X149749432Y-101385206D01*
X149813145Y-101357635D01*
X149879971Y-101328717D01*
X149879973Y-101328716D01*
X149887855Y-101325305D01*
X149977047Y-101253079D01*
X150042572Y-101225754D01*
X150056339Y-101225000D01*
X150141609Y-101225000D01*
X150209730Y-101245002D01*
X150234357Y-101265713D01*
X150239986Y-101271835D01*
X150239988Y-101271837D01*
X150245799Y-101278156D01*
X150253096Y-101282680D01*
X150253098Y-101282682D01*
X150366687Y-101353110D01*
X150366690Y-101353111D01*
X150373986Y-101357635D01*
X150518825Y-101399715D01*
X150525803Y-101400227D01*
X150527208Y-101400331D01*
X150527219Y-101400331D01*
X150529515Y-101400500D01*
X150637785Y-101400500D01*
X150642030Y-101399918D01*
X150642037Y-101399918D01*
X150702522Y-101391632D01*
X150749432Y-101385206D01*
X150813145Y-101357635D01*
X150879971Y-101328717D01*
X150879973Y-101328716D01*
X150887855Y-101325305D01*
X150977047Y-101253079D01*
X151042572Y-101225754D01*
X151056339Y-101225000D01*
X151141609Y-101225000D01*
X151209730Y-101245002D01*
X151234357Y-101265713D01*
X151239986Y-101271835D01*
X151239988Y-101271837D01*
X151245799Y-101278156D01*
X151253096Y-101282680D01*
X151253098Y-101282682D01*
X151366687Y-101353110D01*
X151366690Y-101353111D01*
X151373986Y-101357635D01*
X151518825Y-101399715D01*
X151525803Y-101400227D01*
X151527208Y-101400331D01*
X151527219Y-101400331D01*
X151529515Y-101400500D01*
X151637785Y-101400500D01*
X151642030Y-101399918D01*
X151642037Y-101399918D01*
X151702522Y-101391632D01*
X151749432Y-101385206D01*
X151813145Y-101357635D01*
X151879971Y-101328717D01*
X151879973Y-101328716D01*
X151887855Y-101325305D01*
X151977047Y-101253079D01*
X152042572Y-101225754D01*
X152056339Y-101225000D01*
X152141609Y-101225000D01*
X152209730Y-101245002D01*
X152234357Y-101265713D01*
X152239986Y-101271835D01*
X152239988Y-101271837D01*
X152245799Y-101278156D01*
X152253096Y-101282680D01*
X152253098Y-101282682D01*
X152366687Y-101353110D01*
X152366690Y-101353111D01*
X152373986Y-101357635D01*
X152518825Y-101399715D01*
X152525803Y-101400227D01*
X152527208Y-101400331D01*
X152527219Y-101400331D01*
X152529515Y-101400500D01*
X152637785Y-101400500D01*
X152642030Y-101399918D01*
X152642037Y-101399918D01*
X152702522Y-101391632D01*
X152749432Y-101385206D01*
X152813145Y-101357635D01*
X152879971Y-101328717D01*
X152879973Y-101328716D01*
X152887855Y-101325305D01*
X152977047Y-101253079D01*
X153042572Y-101225754D01*
X153056339Y-101225000D01*
X157141609Y-101225000D01*
X157209730Y-101245002D01*
X157234357Y-101265713D01*
X157239986Y-101271835D01*
X157239988Y-101271837D01*
X157245799Y-101278156D01*
X157253096Y-101282680D01*
X157253098Y-101282682D01*
X157366687Y-101353110D01*
X157366690Y-101353111D01*
X157373986Y-101357635D01*
X157518825Y-101399715D01*
X157525803Y-101400227D01*
X157527208Y-101400331D01*
X157527219Y-101400331D01*
X157529515Y-101400500D01*
X157637785Y-101400500D01*
X157642030Y-101399918D01*
X157642037Y-101399918D01*
X157702522Y-101391632D01*
X157749432Y-101385206D01*
X157813145Y-101357635D01*
X157879971Y-101328717D01*
X157879973Y-101328716D01*
X157887855Y-101325305D01*
X157977047Y-101253079D01*
X158042572Y-101225754D01*
X158056339Y-101225000D01*
X158141609Y-101225000D01*
X158209730Y-101245002D01*
X158234357Y-101265713D01*
X158239986Y-101271835D01*
X158239988Y-101271837D01*
X158245799Y-101278156D01*
X158253096Y-101282680D01*
X158253098Y-101282682D01*
X158366687Y-101353110D01*
X158366690Y-101353111D01*
X158373986Y-101357635D01*
X158518825Y-101399715D01*
X158525803Y-101400227D01*
X158527208Y-101400331D01*
X158527219Y-101400331D01*
X158529515Y-101400500D01*
X158637785Y-101400500D01*
X158642030Y-101399918D01*
X158642037Y-101399918D01*
X158702522Y-101391632D01*
X158749432Y-101385206D01*
X158813145Y-101357635D01*
X158879971Y-101328717D01*
X158879973Y-101328716D01*
X158887855Y-101325305D01*
X158977047Y-101253079D01*
X159042572Y-101225754D01*
X159056339Y-101225000D01*
X159141609Y-101225000D01*
X159209730Y-101245002D01*
X159234357Y-101265713D01*
X159239986Y-101271835D01*
X159239988Y-101271837D01*
X159245799Y-101278156D01*
X159253096Y-101282680D01*
X159253098Y-101282682D01*
X159366687Y-101353110D01*
X159366690Y-101353111D01*
X159373986Y-101357635D01*
X159518825Y-101399715D01*
X159525803Y-101400227D01*
X159527208Y-101400331D01*
X159527219Y-101400331D01*
X159529515Y-101400500D01*
X159637785Y-101400500D01*
X159642030Y-101399918D01*
X159642037Y-101399918D01*
X159702522Y-101391632D01*
X159749432Y-101385206D01*
X159813145Y-101357635D01*
X159879971Y-101328717D01*
X159879973Y-101328716D01*
X159887855Y-101325305D01*
X159977047Y-101253079D01*
X160042572Y-101225754D01*
X160056339Y-101225000D01*
X160141609Y-101225000D01*
X160209730Y-101245002D01*
X160234357Y-101265713D01*
X160239986Y-101271835D01*
X160239988Y-101271837D01*
X160245799Y-101278156D01*
X160253096Y-101282680D01*
X160253098Y-101282682D01*
X160366687Y-101353110D01*
X160366690Y-101353111D01*
X160373986Y-101357635D01*
X160518825Y-101399715D01*
X160525803Y-101400227D01*
X160527208Y-101400331D01*
X160527219Y-101400331D01*
X160529515Y-101400500D01*
X160637785Y-101400500D01*
X160642030Y-101399918D01*
X160642037Y-101399918D01*
X160702522Y-101391632D01*
X160749432Y-101385206D01*
X160813145Y-101357635D01*
X160879971Y-101328717D01*
X160879973Y-101328716D01*
X160887855Y-101325305D01*
X160977047Y-101253079D01*
X161042572Y-101225754D01*
X161056339Y-101225000D01*
X161141609Y-101225000D01*
X161209730Y-101245002D01*
X161234357Y-101265713D01*
X161239986Y-101271835D01*
X161239988Y-101271837D01*
X161245799Y-101278156D01*
X161253096Y-101282680D01*
X161253098Y-101282682D01*
X161366687Y-101353110D01*
X161366690Y-101353111D01*
X161373986Y-101357635D01*
X161518825Y-101399715D01*
X161525803Y-101400227D01*
X161527208Y-101400331D01*
X161527219Y-101400331D01*
X161529515Y-101400500D01*
X161637785Y-101400500D01*
X161642030Y-101399918D01*
X161642037Y-101399918D01*
X161702522Y-101391632D01*
X161749432Y-101385206D01*
X161813145Y-101357635D01*
X161879971Y-101328717D01*
X161879973Y-101328716D01*
X161887855Y-101325305D01*
X161977047Y-101253079D01*
X162042572Y-101225754D01*
X162056339Y-101225000D01*
X162141609Y-101225000D01*
X162209730Y-101245002D01*
X162234357Y-101265713D01*
X162239986Y-101271835D01*
X162239988Y-101271837D01*
X162245799Y-101278156D01*
X162253096Y-101282680D01*
X162253098Y-101282682D01*
X162366687Y-101353110D01*
X162366690Y-101353111D01*
X162373986Y-101357635D01*
X162518825Y-101399715D01*
X162525803Y-101400227D01*
X162527208Y-101400331D01*
X162527219Y-101400331D01*
X162529515Y-101400500D01*
X162637785Y-101400500D01*
X162642030Y-101399918D01*
X162642037Y-101399918D01*
X162702522Y-101391632D01*
X162749432Y-101385206D01*
X162813145Y-101357635D01*
X162879971Y-101328717D01*
X162879973Y-101328716D01*
X162887855Y-101325305D01*
X162977047Y-101253079D01*
X163042572Y-101225754D01*
X163056339Y-101225000D01*
X165343722Y-101225000D01*
X165411843Y-101245002D01*
X165423643Y-101253591D01*
X165485389Y-101304265D01*
X165502847Y-101321724D01*
X165570487Y-101404143D01*
X165574155Y-101408613D01*
X165587876Y-101429147D01*
X165620162Y-101489549D01*
X165640867Y-101528285D01*
X165650317Y-101551098D01*
X165682948Y-101658668D01*
X165687766Y-101682893D01*
X165696679Y-101773389D01*
X165697286Y-101785739D01*
X165697286Y-101796250D01*
X165695372Y-101807107D01*
X165697286Y-101817962D01*
X165698086Y-101822499D01*
X165700000Y-101844378D01*
X165700000Y-107866786D01*
X165697762Y-107890426D01*
X165695403Y-107902777D01*
X165697162Y-107913657D01*
X165697008Y-107924474D01*
X165696239Y-107936700D01*
X165693618Y-107960114D01*
X165686111Y-108027159D01*
X165681037Y-108051104D01*
X165647935Y-108155858D01*
X165647051Y-108158654D01*
X165637443Y-108181167D01*
X165583305Y-108280113D01*
X165569527Y-108300343D01*
X165557867Y-108314322D01*
X165497270Y-108386967D01*
X165479851Y-108404140D01*
X165392205Y-108475162D01*
X165371793Y-108488644D01*
X165311382Y-108520590D01*
X165272078Y-108541375D01*
X165249430Y-108550662D01*
X165206420Y-108563584D01*
X165141401Y-108583118D01*
X165117391Y-108587848D01*
X165058164Y-108593629D01*
X165026793Y-108596690D01*
X165014555Y-108597286D01*
X165003750Y-108597286D01*
X164992893Y-108595372D01*
X164982038Y-108597286D01*
X164977501Y-108598086D01*
X164955622Y-108600000D01*
X163337271Y-108600000D01*
X163315392Y-108598086D01*
X163310855Y-108597286D01*
X163300000Y-108595372D01*
X163293772Y-108596470D01*
X163096007Y-108612034D01*
X163091200Y-108613188D01*
X163091194Y-108613189D01*
X162967081Y-108642987D01*
X162897036Y-108659803D01*
X162892465Y-108661696D01*
X162892463Y-108661697D01*
X162712561Y-108736214D01*
X162712557Y-108736216D01*
X162707987Y-108738109D01*
X162533516Y-108845025D01*
X162377918Y-108977918D01*
X162245025Y-109133516D01*
X162138109Y-109307987D01*
X162136216Y-109312557D01*
X162136214Y-109312561D01*
X162097915Y-109405025D01*
X162059803Y-109497036D01*
X162012034Y-109696007D01*
X162011646Y-109700940D01*
X162000839Y-109838268D01*
X162000435Y-109840702D01*
X162000615Y-109840720D01*
X162000000Y-109846993D01*
X161999624Y-109846956D01*
X161999189Y-109848208D01*
X161999083Y-109848846D01*
X162000000Y-109848918D01*
X161996470Y-109893772D01*
X161995372Y-109900000D01*
X161997286Y-109910855D01*
X161998086Y-109915392D01*
X162000000Y-109937271D01*
X162000000Y-110415548D01*
X161979998Y-110483669D01*
X161926342Y-110530162D01*
X161856068Y-110540266D01*
X161855016Y-110540050D01*
X161853236Y-110539313D01*
X161794678Y-110531604D01*
X161762386Y-110527352D01*
X161697459Y-110498629D01*
X161665571Y-110448362D01*
X161662187Y-110449764D01*
X161631590Y-110375897D01*
X161604198Y-110309767D01*
X161511951Y-110189549D01*
X161391733Y-110097302D01*
X161251736Y-110039313D01*
X161101500Y-110019534D01*
X160951264Y-110039313D01*
X160811267Y-110097302D01*
X160691049Y-110189549D01*
X160598802Y-110309767D01*
X160540813Y-110449764D01*
X160521034Y-110600000D01*
X160540813Y-110750236D01*
X160598802Y-110890233D01*
X160691049Y-111010451D01*
X160811267Y-111102698D01*
X160951264Y-111160687D01*
X160959452Y-111161765D01*
X161042114Y-111172648D01*
X161107041Y-111201371D01*
X161138929Y-111251638D01*
X161142313Y-111250236D01*
X161200302Y-111390233D01*
X161292549Y-111510451D01*
X161412767Y-111602698D01*
X161552764Y-111660687D01*
X161703000Y-111680466D01*
X161711188Y-111679388D01*
X161853236Y-111660687D01*
X161853545Y-111663034D01*
X161912365Y-111664435D01*
X161971161Y-111704229D01*
X161999109Y-111769494D01*
X162000000Y-111784452D01*
X162000000Y-144062729D01*
X161998086Y-144084608D01*
X161995372Y-144100000D01*
X161997286Y-144110857D01*
X161997286Y-144121368D01*
X161996679Y-144133718D01*
X161987766Y-144224214D01*
X161982948Y-144248437D01*
X161950317Y-144356009D01*
X161940867Y-144378822D01*
X161887878Y-144477957D01*
X161874157Y-144498491D01*
X161802848Y-144585382D01*
X161785382Y-144602848D01*
X161698494Y-144674155D01*
X161677960Y-144687876D01*
X161578822Y-144740867D01*
X161556009Y-144750317D01*
X161448437Y-144782948D01*
X161424214Y-144787766D01*
X161363014Y-144793794D01*
X161333715Y-144796679D01*
X161321368Y-144797286D01*
X161310857Y-144797286D01*
X161300000Y-144795372D01*
X161289145Y-144797286D01*
X161284608Y-144798086D01*
X161262729Y-144800000D01*
X128737271Y-144800000D01*
X128715392Y-144798086D01*
X128710855Y-144797286D01*
X128700000Y-144795372D01*
X128689143Y-144797286D01*
X128678632Y-144797286D01*
X128666285Y-144796679D01*
X128636986Y-144793794D01*
X128575786Y-144787766D01*
X128551563Y-144782948D01*
X128443991Y-144750317D01*
X128421178Y-144740867D01*
X128322040Y-144687876D01*
X128301506Y-144674155D01*
X128214618Y-144602848D01*
X128197152Y-144585382D01*
X128125843Y-144498491D01*
X128112122Y-144477957D01*
X128059133Y-144378822D01*
X128049683Y-144356009D01*
X128017052Y-144248437D01*
X128012234Y-144224214D01*
X128003321Y-144133718D01*
X128002714Y-144121368D01*
X128002714Y-144110857D01*
X128004628Y-144100000D01*
X128001914Y-144084608D01*
X128000000Y-144062729D01*
X128000000Y-142700000D01*
X157619534Y-142700000D01*
X157639313Y-142850236D01*
X157697302Y-142990233D01*
X157789549Y-143110451D01*
X157909767Y-143202698D01*
X158049764Y-143260687D01*
X158200000Y-143280466D01*
X158208188Y-143279388D01*
X158342048Y-143261765D01*
X158350236Y-143260687D01*
X158490233Y-143202698D01*
X158610451Y-143110451D01*
X158702698Y-142990233D01*
X158760687Y-142850236D01*
X158780466Y-142700000D01*
X158760687Y-142549764D01*
X158702698Y-142409767D01*
X158610451Y-142289549D01*
X158490233Y-142197302D01*
X158350236Y-142139313D01*
X158200000Y-142119534D01*
X158049764Y-142139313D01*
X157909767Y-142197302D01*
X157789549Y-142289549D01*
X157697302Y-142409767D01*
X157639313Y-142549764D01*
X157619534Y-142700000D01*
X128000000Y-142700000D01*
X128000000Y-140900000D01*
X135350000Y-140900000D01*
X151429493Y-140900000D01*
X151497614Y-140920002D01*
X151544107Y-140973658D01*
X151554211Y-141043932D01*
X151529455Y-141102703D01*
X151447302Y-141209767D01*
X151389313Y-141349764D01*
X151369534Y-141500000D01*
X151389313Y-141650236D01*
X151447302Y-141790233D01*
X151539549Y-141910451D01*
X151659767Y-142002698D01*
X151799764Y-142060687D01*
X151950000Y-142080466D01*
X151958188Y-142079388D01*
X152092048Y-142061765D01*
X152100236Y-142060687D01*
X152240233Y-142002698D01*
X152360451Y-141910451D01*
X152452698Y-141790233D01*
X152510687Y-141650236D01*
X152530466Y-141500000D01*
X152510687Y-141349764D01*
X152452698Y-141209767D01*
X152370545Y-141102703D01*
X152344944Y-141036484D01*
X152359208Y-140966935D01*
X152408810Y-140916139D01*
X152470507Y-140900000D01*
X154700000Y-140900000D01*
X154700000Y-139981159D01*
X154716490Y-139925000D01*
X158494534Y-139925000D01*
X158514313Y-140075236D01*
X158572302Y-140215233D01*
X158664549Y-140335451D01*
X158784767Y-140427698D01*
X158924764Y-140485687D01*
X159075000Y-140505466D01*
X159083188Y-140504388D01*
X159217048Y-140486765D01*
X159225236Y-140485687D01*
X159365233Y-140427698D01*
X159485451Y-140335451D01*
X159577698Y-140215233D01*
X159635687Y-140075236D01*
X159655466Y-139925000D01*
X159635687Y-139774764D01*
X159577698Y-139634767D01*
X159485451Y-139514549D01*
X159365233Y-139422302D01*
X159225236Y-139364313D01*
X159075000Y-139344534D01*
X158924764Y-139364313D01*
X158784767Y-139422302D01*
X158664549Y-139514549D01*
X158572302Y-139634767D01*
X158514313Y-139774764D01*
X158494534Y-139925000D01*
X154716490Y-139925000D01*
X154720002Y-139913038D01*
X154773658Y-139866545D01*
X154843932Y-139856441D01*
X154874218Y-139864750D01*
X154924764Y-139885687D01*
X155075000Y-139905466D01*
X155083188Y-139904388D01*
X155217048Y-139886765D01*
X155225236Y-139885687D01*
X155365233Y-139827698D01*
X155485451Y-139735451D01*
X155577698Y-139615233D01*
X155635687Y-139475236D01*
X155655466Y-139325000D01*
X155635687Y-139174764D01*
X155577698Y-139034767D01*
X155485451Y-138914549D01*
X155365233Y-138822302D01*
X155225236Y-138764313D01*
X155075000Y-138744534D01*
X154924764Y-138764313D01*
X154917135Y-138767473D01*
X154874218Y-138785250D01*
X154803629Y-138792839D01*
X154740142Y-138761060D01*
X154703914Y-138700002D01*
X154700000Y-138668841D01*
X154700000Y-137275000D01*
X156194534Y-137275000D01*
X156214313Y-137425236D01*
X156272302Y-137565233D01*
X156364549Y-137685451D01*
X156484767Y-137777698D01*
X156624764Y-137835687D01*
X156775000Y-137855466D01*
X156783188Y-137854388D01*
X156917048Y-137836765D01*
X156925236Y-137835687D01*
X157065233Y-137777698D01*
X157185451Y-137685451D01*
X157277698Y-137565233D01*
X157335687Y-137425236D01*
X157355466Y-137275000D01*
X157335687Y-137124764D01*
X157277698Y-136984767D01*
X157185451Y-136864549D01*
X157065233Y-136772302D01*
X156925236Y-136714313D01*
X156775000Y-136694534D01*
X156624764Y-136714313D01*
X156484767Y-136772302D01*
X156364549Y-136864549D01*
X156272302Y-136984767D01*
X156214313Y-137124764D01*
X156194534Y-137275000D01*
X154700000Y-137275000D01*
X154700000Y-136000000D01*
X158469534Y-136000000D01*
X158489313Y-136150236D01*
X158547302Y-136290233D01*
X158639549Y-136410451D01*
X158759767Y-136502698D01*
X158899764Y-136560687D01*
X159050000Y-136580466D01*
X159058188Y-136579388D01*
X159192048Y-136561765D01*
X159200236Y-136560687D01*
X159340233Y-136502698D01*
X159460451Y-136410451D01*
X159552698Y-136290233D01*
X159610687Y-136150236D01*
X159630466Y-136000000D01*
X159610687Y-135849764D01*
X159552698Y-135709767D01*
X159460451Y-135589549D01*
X159340233Y-135497302D01*
X159265651Y-135466409D01*
X159210370Y-135421861D01*
X159187949Y-135354497D01*
X159205507Y-135285706D01*
X159257469Y-135237328D01*
X159265651Y-135233591D01*
X159340233Y-135202698D01*
X159460451Y-135110451D01*
X159552698Y-134990233D01*
X159610687Y-134850236D01*
X159630466Y-134700000D01*
X159610687Y-134549764D01*
X159552698Y-134409767D01*
X159460451Y-134289549D01*
X159340233Y-134197302D01*
X159332604Y-134194142D01*
X159332599Y-134194139D01*
X159290650Y-134176763D01*
X159235369Y-134132215D01*
X159212949Y-134064851D01*
X159230508Y-133996060D01*
X159282470Y-133947682D01*
X159290640Y-133943951D01*
X159390233Y-133902698D01*
X159510451Y-133810451D01*
X159602698Y-133690233D01*
X159660687Y-133550236D01*
X159680466Y-133400000D01*
X159660687Y-133249764D01*
X159602698Y-133109767D01*
X159510451Y-132989549D01*
X159390233Y-132897302D01*
X159376006Y-132891409D01*
X159320725Y-132846861D01*
X159298304Y-132779497D01*
X159315862Y-132710706D01*
X159367824Y-132662328D01*
X159376006Y-132658591D01*
X159390233Y-132652698D01*
X159510451Y-132560451D01*
X159602698Y-132440233D01*
X159660687Y-132300236D01*
X159680466Y-132150000D01*
X159660687Y-131999764D01*
X159602698Y-131859767D01*
X159510451Y-131739549D01*
X159390233Y-131647302D01*
X159250236Y-131589313D01*
X159100000Y-131569534D01*
X158949764Y-131589313D01*
X158809767Y-131647302D01*
X158689549Y-131739549D01*
X158597302Y-131859767D01*
X158539313Y-131999764D01*
X158519534Y-132150000D01*
X158539313Y-132300236D01*
X158597302Y-132440233D01*
X158689549Y-132560451D01*
X158809767Y-132652698D01*
X158823994Y-132658591D01*
X158879275Y-132703139D01*
X158901696Y-132770503D01*
X158884138Y-132839294D01*
X158832176Y-132887672D01*
X158823995Y-132891408D01*
X158809767Y-132897302D01*
X158689549Y-132989549D01*
X158597302Y-133109767D01*
X158539313Y-133249764D01*
X158519534Y-133400000D01*
X158539313Y-133550236D01*
X158597302Y-133690233D01*
X158689549Y-133810451D01*
X158809767Y-133902698D01*
X158817396Y-133905858D01*
X158817401Y-133905861D01*
X158859350Y-133923237D01*
X158914631Y-133967785D01*
X158937051Y-134035149D01*
X158919492Y-134103940D01*
X158867530Y-134152318D01*
X158859360Y-134156049D01*
X158759767Y-134197302D01*
X158639549Y-134289549D01*
X158547302Y-134409767D01*
X158489313Y-134549764D01*
X158469534Y-134700000D01*
X158489313Y-134850236D01*
X158547302Y-134990233D01*
X158639549Y-135110451D01*
X158759767Y-135202698D01*
X158834349Y-135233591D01*
X158889630Y-135278139D01*
X158912051Y-135345503D01*
X158894493Y-135414294D01*
X158842531Y-135462672D01*
X158834350Y-135466408D01*
X158759767Y-135497302D01*
X158639549Y-135589549D01*
X158547302Y-135709767D01*
X158489313Y-135849764D01*
X158469534Y-136000000D01*
X154700000Y-136000000D01*
X154700000Y-123300000D01*
X158369534Y-123300000D01*
X158389313Y-123450236D01*
X158447302Y-123590233D01*
X158539549Y-123710451D01*
X158659767Y-123802698D01*
X158799764Y-123860687D01*
X158950000Y-123880466D01*
X158958188Y-123879388D01*
X159092048Y-123861765D01*
X159100236Y-123860687D01*
X159240233Y-123802698D01*
X159360451Y-123710451D01*
X159452698Y-123590233D01*
X159510687Y-123450236D01*
X159530466Y-123300000D01*
X159510687Y-123149764D01*
X159452698Y-123009767D01*
X159360451Y-122889549D01*
X159240233Y-122797302D01*
X159100236Y-122739313D01*
X158950000Y-122719534D01*
X158799764Y-122739313D01*
X158659767Y-122797302D01*
X158539549Y-122889549D01*
X158447302Y-123009767D01*
X158389313Y-123149764D01*
X158369534Y-123300000D01*
X154700000Y-123300000D01*
X154700000Y-117700000D01*
X152590036Y-117700000D01*
X152521915Y-117679998D01*
X152520970Y-117678907D01*
X152479395Y-117698495D01*
X152459980Y-117700000D01*
X135350000Y-117700000D01*
X135350000Y-140900000D01*
X128000000Y-140900000D01*
X128000000Y-128050000D01*
X133719534Y-128050000D01*
X133739313Y-128200236D01*
X133797302Y-128340233D01*
X133889549Y-128460451D01*
X134009767Y-128552698D01*
X134149764Y-128610687D01*
X134300000Y-128630466D01*
X134308188Y-128629388D01*
X134442048Y-128611765D01*
X134450236Y-128610687D01*
X134590233Y-128552698D01*
X134710451Y-128460451D01*
X134802698Y-128340233D01*
X134860687Y-128200236D01*
X134880466Y-128050000D01*
X134860687Y-127899764D01*
X134802698Y-127759767D01*
X134710451Y-127639549D01*
X134590233Y-127547302D01*
X134450236Y-127489313D01*
X134300000Y-127469534D01*
X134149764Y-127489313D01*
X134009767Y-127547302D01*
X133889549Y-127639549D01*
X133797302Y-127759767D01*
X133739313Y-127899764D01*
X133719534Y-128050000D01*
X128000000Y-128050000D01*
X128000000Y-125800000D01*
X133719534Y-125800000D01*
X133739313Y-125950236D01*
X133797302Y-126090233D01*
X133889549Y-126210451D01*
X134009767Y-126302698D01*
X134149764Y-126360687D01*
X134300000Y-126380466D01*
X134308188Y-126379388D01*
X134442048Y-126361765D01*
X134450236Y-126360687D01*
X134590233Y-126302698D01*
X134710451Y-126210451D01*
X134802698Y-126090233D01*
X134860687Y-125950236D01*
X134880466Y-125800000D01*
X134860687Y-125649764D01*
X134802698Y-125509767D01*
X134710451Y-125389549D01*
X134590233Y-125297302D01*
X134450236Y-125239313D01*
X134300000Y-125219534D01*
X134149764Y-125239313D01*
X134009767Y-125297302D01*
X133889549Y-125389549D01*
X133797302Y-125509767D01*
X133739313Y-125649764D01*
X133719534Y-125800000D01*
X128000000Y-125800000D01*
X128000000Y-116850000D01*
X137064514Y-116850000D01*
X137084293Y-117000236D01*
X137142282Y-117140233D01*
X137234529Y-117260451D01*
X137354747Y-117352698D01*
X137494744Y-117410687D01*
X137644980Y-117430466D01*
X137653168Y-117429388D01*
X137787028Y-117411765D01*
X137795216Y-117410687D01*
X137935213Y-117352698D01*
X138055431Y-117260451D01*
X138147678Y-117140233D01*
X138205667Y-117000236D01*
X138225446Y-116850000D01*
X139669534Y-116850000D01*
X139689313Y-117000236D01*
X139747302Y-117140233D01*
X139839549Y-117260451D01*
X139959767Y-117352698D01*
X140099764Y-117410687D01*
X140250000Y-117430466D01*
X140258188Y-117429388D01*
X140392048Y-117411765D01*
X140400236Y-117410687D01*
X140540233Y-117352698D01*
X140660451Y-117260451D01*
X140752698Y-117140233D01*
X140810687Y-117000236D01*
X140830466Y-116850000D01*
X146919534Y-116850000D01*
X146939313Y-117000236D01*
X146997302Y-117140233D01*
X147089549Y-117260451D01*
X147209767Y-117352698D01*
X147349764Y-117410687D01*
X147500000Y-117430466D01*
X147508188Y-117429388D01*
X147642048Y-117411765D01*
X147650236Y-117410687D01*
X147790233Y-117352698D01*
X147910451Y-117260451D01*
X147949751Y-117209235D01*
X148000038Y-117143700D01*
X148057376Y-117101833D01*
X148128247Y-117097611D01*
X148190150Y-117132375D01*
X148199962Y-117143700D01*
X148250249Y-117209235D01*
X148289549Y-117260451D01*
X148409767Y-117352698D01*
X148549764Y-117410687D01*
X148700000Y-117430466D01*
X148708188Y-117429388D01*
X148842048Y-117411765D01*
X148850236Y-117410687D01*
X148990233Y-117352698D01*
X149110451Y-117260451D01*
X149149752Y-117209233D01*
X149207089Y-117167367D01*
X149277960Y-117163146D01*
X149339863Y-117197911D01*
X149349674Y-117209234D01*
X149389224Y-117260776D01*
X149509442Y-117353023D01*
X149556891Y-117372677D01*
X149641026Y-117407527D01*
X149649439Y-117411012D01*
X149799675Y-117430791D01*
X149807863Y-117429713D01*
X149941723Y-117412090D01*
X149949911Y-117411012D01*
X149958325Y-117407527D01*
X150042459Y-117372677D01*
X150089908Y-117353023D01*
X150210126Y-117260776D01*
X150302373Y-117140558D01*
X150360362Y-117000561D01*
X150380141Y-116850325D01*
X150380098Y-116850000D01*
X150718034Y-116850000D01*
X150737813Y-117000236D01*
X150795802Y-117140233D01*
X150888049Y-117260451D01*
X151008267Y-117352698D01*
X151148264Y-117410687D01*
X151298500Y-117430466D01*
X151306688Y-117429388D01*
X151440548Y-117411765D01*
X151448736Y-117410687D01*
X151588733Y-117352698D01*
X151708951Y-117260451D01*
X151801198Y-117140233D01*
X151802460Y-117141201D01*
X151847020Y-117098711D01*
X151916733Y-117085273D01*
X151982645Y-117111658D01*
X152012958Y-117151647D01*
X152015019Y-117150457D01*
X152019149Y-117157610D01*
X152022310Y-117165241D01*
X152114557Y-117285459D01*
X152234775Y-117377706D01*
X152374772Y-117435695D01*
X152382960Y-117436773D01*
X152476426Y-117449078D01*
X152526402Y-117471186D01*
X152554538Y-117453104D01*
X152573590Y-117449078D01*
X152667056Y-117436773D01*
X152675244Y-117435695D01*
X152815241Y-117377706D01*
X152935459Y-117285459D01*
X153027706Y-117165241D01*
X153085695Y-117025244D01*
X153105474Y-116875008D01*
X153085695Y-116724772D01*
X153027706Y-116584775D01*
X152935459Y-116464557D01*
X152815241Y-116372310D01*
X152675244Y-116314321D01*
X152525008Y-116294542D01*
X152374772Y-116314321D01*
X152234775Y-116372310D01*
X152114557Y-116464557D01*
X152022310Y-116584775D01*
X152021048Y-116583807D01*
X151976488Y-116626297D01*
X151906775Y-116639735D01*
X151840863Y-116613350D01*
X151810550Y-116573361D01*
X151808489Y-116574551D01*
X151804358Y-116567397D01*
X151801198Y-116559767D01*
X151708951Y-116439549D01*
X151588733Y-116347302D01*
X151461360Y-116294542D01*
X151456365Y-116292473D01*
X151448736Y-116289313D01*
X151298500Y-116269534D01*
X151148264Y-116289313D01*
X151140635Y-116292473D01*
X151135640Y-116294542D01*
X151008267Y-116347302D01*
X150888049Y-116439549D01*
X150795802Y-116559767D01*
X150737813Y-116699764D01*
X150718034Y-116850000D01*
X150380098Y-116850000D01*
X150360362Y-116700089D01*
X150302373Y-116560092D01*
X150210126Y-116439874D01*
X150089908Y-116347627D01*
X149949911Y-116289638D01*
X149799675Y-116269859D01*
X149649439Y-116289638D01*
X149509442Y-116347627D01*
X149389224Y-116439874D01*
X149349924Y-116491091D01*
X149292586Y-116532958D01*
X149221715Y-116537179D01*
X149159812Y-116502414D01*
X149150000Y-116491090D01*
X149115477Y-116446099D01*
X149110451Y-116439549D01*
X148990233Y-116347302D01*
X148862860Y-116294542D01*
X148857865Y-116292473D01*
X148850236Y-116289313D01*
X148700000Y-116269534D01*
X148549764Y-116289313D01*
X148542135Y-116292473D01*
X148537140Y-116294542D01*
X148409767Y-116347302D01*
X148289549Y-116439549D01*
X148284523Y-116446099D01*
X148199962Y-116556300D01*
X148142624Y-116598167D01*
X148071753Y-116602389D01*
X148009850Y-116567625D01*
X148000038Y-116556300D01*
X147915477Y-116446099D01*
X147910451Y-116439549D01*
X147790233Y-116347302D01*
X147662860Y-116294542D01*
X147657865Y-116292473D01*
X147650236Y-116289313D01*
X147500000Y-116269534D01*
X147349764Y-116289313D01*
X147342135Y-116292473D01*
X147337140Y-116294542D01*
X147209767Y-116347302D01*
X147089549Y-116439549D01*
X146997302Y-116559767D01*
X146939313Y-116699764D01*
X146919534Y-116850000D01*
X140830466Y-116850000D01*
X140810687Y-116699764D01*
X140752698Y-116559767D01*
X140660451Y-116439549D01*
X140540233Y-116347302D01*
X140412860Y-116294542D01*
X140407865Y-116292473D01*
X140400236Y-116289313D01*
X140250000Y-116269534D01*
X140099764Y-116289313D01*
X140092135Y-116292473D01*
X140087140Y-116294542D01*
X139959767Y-116347302D01*
X139839549Y-116439549D01*
X139747302Y-116559767D01*
X139689313Y-116699764D01*
X139669534Y-116850000D01*
X138225446Y-116850000D01*
X138205667Y-116699764D01*
X138147678Y-116559767D01*
X138055431Y-116439549D01*
X137935213Y-116347302D01*
X137807840Y-116294542D01*
X137802845Y-116292473D01*
X137795216Y-116289313D01*
X137644980Y-116269534D01*
X137494744Y-116289313D01*
X137487115Y-116292473D01*
X137482120Y-116294542D01*
X137354747Y-116347302D01*
X137234529Y-116439549D01*
X137142282Y-116559767D01*
X137084293Y-116699764D01*
X137064514Y-116850000D01*
X128000000Y-116850000D01*
X128000000Y-114318053D01*
X128019982Y-114250000D01*
X128025000Y-114250000D01*
X128025000Y-114150000D01*
X157619534Y-114150000D01*
X157639313Y-114300236D01*
X157697302Y-114440233D01*
X157789549Y-114560451D01*
X157909767Y-114652698D01*
X158049764Y-114710687D01*
X158200000Y-114730466D01*
X158208188Y-114729388D01*
X158342048Y-114711765D01*
X158350236Y-114710687D01*
X158357865Y-114707527D01*
X158476782Y-114658270D01*
X158547372Y-114650681D01*
X158573218Y-114658270D01*
X158692135Y-114707527D01*
X158699764Y-114710687D01*
X158850000Y-114730466D01*
X158858188Y-114729388D01*
X158992048Y-114711765D01*
X159000236Y-114710687D01*
X159007865Y-114707527D01*
X159126782Y-114658270D01*
X159197372Y-114650681D01*
X159223218Y-114658270D01*
X159342135Y-114707527D01*
X159349764Y-114710687D01*
X159500000Y-114730466D01*
X159508188Y-114729388D01*
X159642048Y-114711765D01*
X159650236Y-114710687D01*
X159790233Y-114652698D01*
X159910451Y-114560451D01*
X160002698Y-114440233D01*
X160060687Y-114300236D01*
X160080466Y-114150000D01*
X160060687Y-113999764D01*
X160002698Y-113859767D01*
X159910451Y-113739549D01*
X159790233Y-113647302D01*
X159650236Y-113589313D01*
X159500000Y-113569534D01*
X159349764Y-113589313D01*
X159342135Y-113592473D01*
X159223218Y-113641730D01*
X159152628Y-113649319D01*
X159126782Y-113641730D01*
X159007865Y-113592473D01*
X159000236Y-113589313D01*
X158850000Y-113569534D01*
X158699764Y-113589313D01*
X158692135Y-113592473D01*
X158573218Y-113641730D01*
X158502628Y-113649319D01*
X158476782Y-113641730D01*
X158357865Y-113592473D01*
X158350236Y-113589313D01*
X158200000Y-113569534D01*
X158049764Y-113589313D01*
X157909767Y-113647302D01*
X157789549Y-113739549D01*
X157697302Y-113859767D01*
X157639313Y-113999764D01*
X157619534Y-114150000D01*
X128025000Y-114150000D01*
X128025000Y-113450000D01*
X149519534Y-113450000D01*
X149539313Y-113600236D01*
X149597302Y-113740233D01*
X149689549Y-113860451D01*
X149809767Y-113952698D01*
X149949764Y-114010687D01*
X150100000Y-114030466D01*
X150108188Y-114029388D01*
X150242048Y-114011765D01*
X150250236Y-114010687D01*
X150390233Y-113952698D01*
X150510451Y-113860451D01*
X150602698Y-113740233D01*
X150660687Y-113600236D01*
X150680466Y-113450000D01*
X150673883Y-113400000D01*
X153319534Y-113400000D01*
X153339313Y-113550236D01*
X153397302Y-113690233D01*
X153489549Y-113810451D01*
X153609767Y-113902698D01*
X153749764Y-113960687D01*
X153900000Y-113980466D01*
X153908188Y-113979388D01*
X154042048Y-113961765D01*
X154050236Y-113960687D01*
X154190233Y-113902698D01*
X154310451Y-113810451D01*
X154402698Y-113690233D01*
X154460687Y-113550236D01*
X154480466Y-113400000D01*
X154460687Y-113249764D01*
X154402698Y-113109767D01*
X154310451Y-112989549D01*
X154190233Y-112897302D01*
X154050236Y-112839313D01*
X153900000Y-112819534D01*
X153749764Y-112839313D01*
X153609767Y-112897302D01*
X153489549Y-112989549D01*
X153397302Y-113109767D01*
X153339313Y-113249764D01*
X153319534Y-113400000D01*
X150673883Y-113400000D01*
X150660687Y-113299764D01*
X150602698Y-113159767D01*
X150510451Y-113039549D01*
X150390233Y-112947302D01*
X150250236Y-112889313D01*
X150100000Y-112869534D01*
X149949764Y-112889313D01*
X149809767Y-112947302D01*
X149689549Y-113039549D01*
X149597302Y-113159767D01*
X149539313Y-113299764D01*
X149519534Y-113450000D01*
X128025000Y-113450000D01*
X128025000Y-110850000D01*
X152195034Y-110850000D01*
X152214813Y-111000236D01*
X152272802Y-111140233D01*
X152365049Y-111260451D01*
X152485267Y-111352698D01*
X152625264Y-111410687D01*
X152775500Y-111430466D01*
X152783688Y-111429388D01*
X152917548Y-111411765D01*
X152925736Y-111410687D01*
X153054783Y-111357234D01*
X153125370Y-111349645D01*
X153151210Y-111357232D01*
X153280262Y-111410687D01*
X153430498Y-111430466D01*
X153438686Y-111429388D01*
X153572546Y-111411765D01*
X153580734Y-111410687D01*
X153720731Y-111352698D01*
X153840949Y-111260451D01*
X153933196Y-111140233D01*
X153991185Y-111000236D01*
X154010964Y-110850000D01*
X153991185Y-110699764D01*
X153933196Y-110559767D01*
X153840949Y-110439549D01*
X153720731Y-110347302D01*
X153580734Y-110289313D01*
X153430498Y-110269534D01*
X153280262Y-110289313D01*
X153151215Y-110342766D01*
X153080628Y-110350355D01*
X153054788Y-110342768D01*
X152925736Y-110289313D01*
X152775500Y-110269534D01*
X152625264Y-110289313D01*
X152485267Y-110347302D01*
X152365049Y-110439549D01*
X152272802Y-110559767D01*
X152214813Y-110699764D01*
X152195034Y-110850000D01*
X128025000Y-110850000D01*
X128025000Y-110001000D01*
X128045002Y-109932879D01*
X128098658Y-109886386D01*
X128151000Y-109875000D01*
X134600000Y-109875000D01*
X134600000Y-108600000D01*
X151919534Y-108600000D01*
X151939313Y-108750236D01*
X151997302Y-108890233D01*
X152089549Y-109010451D01*
X152209767Y-109102698D01*
X152349764Y-109160687D01*
X152500000Y-109180466D01*
X152508188Y-109179388D01*
X152642048Y-109161765D01*
X152650236Y-109160687D01*
X152790233Y-109102698D01*
X152910451Y-109010451D01*
X153002698Y-108890233D01*
X153060687Y-108750236D01*
X153080466Y-108600000D01*
X153060687Y-108449764D01*
X153002698Y-108309767D01*
X152910451Y-108189549D01*
X152790233Y-108097302D01*
X152650236Y-108039313D01*
X152500000Y-108019534D01*
X152349764Y-108039313D01*
X152209767Y-108097302D01*
X152089549Y-108189549D01*
X151997302Y-108309767D01*
X151939313Y-108449764D01*
X151919534Y-108600000D01*
X134600000Y-108600000D01*
X134600000Y-106650000D01*
X139069534Y-106650000D01*
X139089313Y-106800236D01*
X139147302Y-106940233D01*
X139239549Y-107060451D01*
X139359767Y-107152698D01*
X139499764Y-107210687D01*
X139523861Y-107213859D01*
X139537232Y-107215620D01*
X139602158Y-107244343D01*
X139637964Y-107300795D01*
X139639313Y-107300236D01*
X139697302Y-107440233D01*
X139789549Y-107560451D01*
X139909767Y-107652698D01*
X140049764Y-107710687D01*
X140200000Y-107730466D01*
X140208188Y-107729388D01*
X140342048Y-107711765D01*
X140350236Y-107710687D01*
X140490233Y-107652698D01*
X140610451Y-107560451D01*
X140647809Y-107511765D01*
X140700038Y-107443700D01*
X140757376Y-107401833D01*
X140828247Y-107397611D01*
X140890150Y-107432375D01*
X140899962Y-107443700D01*
X140952191Y-107511765D01*
X140989549Y-107560451D01*
X141109767Y-107652698D01*
X141249764Y-107710687D01*
X141400000Y-107730466D01*
X141408188Y-107729388D01*
X141542048Y-107711765D01*
X141550236Y-107710687D01*
X141690233Y-107652698D01*
X141693749Y-107650000D01*
X158594534Y-107650000D01*
X158614313Y-107800236D01*
X158672302Y-107940233D01*
X158764549Y-108060451D01*
X158884767Y-108152698D01*
X159024764Y-108210687D01*
X159175000Y-108230466D01*
X159183188Y-108229388D01*
X159317048Y-108211765D01*
X159325236Y-108210687D01*
X159465233Y-108152698D01*
X159585451Y-108060451D01*
X159677698Y-107940233D01*
X159735687Y-107800236D01*
X159755466Y-107650000D01*
X159735718Y-107500000D01*
X162069534Y-107500000D01*
X162089313Y-107650236D01*
X162147302Y-107790233D01*
X162239549Y-107910451D01*
X162359767Y-108002698D01*
X162499764Y-108060687D01*
X162507952Y-108061765D01*
X162574882Y-108070577D01*
X162650000Y-108080466D01*
X162658188Y-108079388D01*
X162792048Y-108061765D01*
X162800236Y-108060687D01*
X162940233Y-108002698D01*
X163060451Y-107910451D01*
X163152698Y-107790233D01*
X163210687Y-107650236D01*
X163230466Y-107500000D01*
X163210687Y-107349764D01*
X163152698Y-107209767D01*
X163060451Y-107089549D01*
X162940233Y-106997302D01*
X162800236Y-106939313D01*
X162650000Y-106919534D01*
X162499764Y-106939313D01*
X162359767Y-106997302D01*
X162239549Y-107089549D01*
X162147302Y-107209767D01*
X162089313Y-107349764D01*
X162069534Y-107500000D01*
X159735718Y-107500000D01*
X159735687Y-107499764D01*
X159677698Y-107359767D01*
X159585451Y-107239549D01*
X159465233Y-107147302D01*
X159325236Y-107089313D01*
X159288853Y-107084523D01*
X159183188Y-107070612D01*
X159175000Y-107069534D01*
X159166812Y-107070612D01*
X159061148Y-107084523D01*
X159024764Y-107089313D01*
X158884767Y-107147302D01*
X158764549Y-107239549D01*
X158672302Y-107359767D01*
X158614313Y-107499764D01*
X158594534Y-107650000D01*
X141693749Y-107650000D01*
X141810451Y-107560451D01*
X141902698Y-107440233D01*
X141960687Y-107300236D01*
X141980466Y-107150000D01*
X141960687Y-106999764D01*
X141902698Y-106859767D01*
X141810451Y-106739549D01*
X141807473Y-106737264D01*
X141774447Y-106676783D01*
X141779512Y-106605968D01*
X141783347Y-106600000D01*
X149169534Y-106600000D01*
X149189313Y-106750236D01*
X149247302Y-106890233D01*
X149339549Y-107010451D01*
X149459767Y-107102698D01*
X149599764Y-107160687D01*
X149750000Y-107180466D01*
X149758188Y-107179388D01*
X149892048Y-107161765D01*
X149900236Y-107160687D01*
X150040233Y-107102698D01*
X150160451Y-107010451D01*
X150206837Y-106950000D01*
X153319534Y-106950000D01*
X153339313Y-107100236D01*
X153397302Y-107240233D01*
X153489549Y-107360451D01*
X153609767Y-107452698D01*
X153749764Y-107510687D01*
X153900000Y-107530466D01*
X153908188Y-107529388D01*
X154042048Y-107511765D01*
X154050236Y-107510687D01*
X154190233Y-107452698D01*
X154310451Y-107360451D01*
X154402698Y-107240233D01*
X154460687Y-107100236D01*
X154480466Y-106950000D01*
X154474081Y-106901500D01*
X155069534Y-106901500D01*
X155089313Y-107051736D01*
X155147302Y-107191733D01*
X155239549Y-107311951D01*
X155359767Y-107404198D01*
X155446763Y-107440233D01*
X155484485Y-107455858D01*
X155499764Y-107462187D01*
X155650000Y-107481966D01*
X155658188Y-107480888D01*
X155792048Y-107463265D01*
X155800236Y-107462187D01*
X155815516Y-107455858D01*
X155853237Y-107440233D01*
X155940233Y-107404198D01*
X156060451Y-107311951D01*
X156152698Y-107191733D01*
X156210687Y-107051736D01*
X156230466Y-106901500D01*
X156210687Y-106751264D01*
X156152698Y-106611267D01*
X156060451Y-106491049D01*
X155940233Y-106398802D01*
X155800236Y-106340813D01*
X155650000Y-106321034D01*
X155499764Y-106340813D01*
X155359767Y-106398802D01*
X155239549Y-106491049D01*
X155147302Y-106611267D01*
X155089313Y-106751264D01*
X155069534Y-106901500D01*
X154474081Y-106901500D01*
X154460687Y-106799764D01*
X154402698Y-106659767D01*
X154310451Y-106539549D01*
X154190233Y-106447302D01*
X154070765Y-106397817D01*
X154057865Y-106392473D01*
X154050236Y-106389313D01*
X153900000Y-106369534D01*
X153749764Y-106389313D01*
X153742135Y-106392473D01*
X153729235Y-106397817D01*
X153609767Y-106447302D01*
X153489549Y-106539549D01*
X153397302Y-106659767D01*
X153339313Y-106799764D01*
X153319534Y-106950000D01*
X150206837Y-106950000D01*
X150252698Y-106890233D01*
X150310687Y-106750236D01*
X150330466Y-106600000D01*
X150310687Y-106449764D01*
X150252698Y-106309767D01*
X150160451Y-106189549D01*
X150040233Y-106097302D01*
X149900236Y-106039313D01*
X149750000Y-106019534D01*
X149599764Y-106039313D01*
X149459767Y-106097302D01*
X149339549Y-106189549D01*
X149247302Y-106309767D01*
X149189313Y-106449764D01*
X149169534Y-106600000D01*
X141783347Y-106600000D01*
X141807124Y-106563004D01*
X141810451Y-106560451D01*
X141902698Y-106440233D01*
X141960687Y-106300236D01*
X141980466Y-106150000D01*
X141960687Y-105999764D01*
X141902698Y-105859767D01*
X141810451Y-105739549D01*
X141807473Y-105737264D01*
X141774447Y-105676783D01*
X141779512Y-105605968D01*
X141807124Y-105563004D01*
X141810451Y-105560451D01*
X141902698Y-105440233D01*
X141960687Y-105300236D01*
X141980466Y-105150000D01*
X141960687Y-104999764D01*
X141902698Y-104859767D01*
X141810451Y-104739549D01*
X141690233Y-104647302D01*
X141550236Y-104589313D01*
X141400000Y-104569534D01*
X141249764Y-104589313D01*
X141109767Y-104647302D01*
X140989549Y-104739549D01*
X140984523Y-104746099D01*
X140899962Y-104856300D01*
X140842624Y-104898167D01*
X140771753Y-104902389D01*
X140709850Y-104867625D01*
X140700038Y-104856300D01*
X140615477Y-104746099D01*
X140610451Y-104739549D01*
X140490233Y-104647302D01*
X140350236Y-104589313D01*
X140200000Y-104569534D01*
X140049764Y-104589313D01*
X139909767Y-104647302D01*
X139789549Y-104739549D01*
X139697302Y-104859767D01*
X139639313Y-104999764D01*
X139638105Y-104999264D01*
X139605539Y-105052692D01*
X139537232Y-105084380D01*
X139523861Y-105086141D01*
X139499764Y-105089313D01*
X139359767Y-105147302D01*
X139239549Y-105239549D01*
X139147302Y-105359767D01*
X139089313Y-105499764D01*
X139069534Y-105650000D01*
X139089313Y-105800236D01*
X139147302Y-105940233D01*
X139239549Y-106060451D01*
X139242527Y-106062736D01*
X139275553Y-106123217D01*
X139270488Y-106194032D01*
X139242876Y-106236996D01*
X139239549Y-106239549D01*
X139147302Y-106359767D01*
X139089313Y-106499764D01*
X139069534Y-106650000D01*
X134600000Y-106650000D01*
X134600000Y-104650000D01*
X124426000Y-104650000D01*
X124357879Y-104629998D01*
X124311386Y-104576342D01*
X124300000Y-104524000D01*
X124300000Y-101847431D01*
X124302238Y-101823790D01*
X124302530Y-101822263D01*
X124302530Y-101822257D01*
X124304597Y-101811436D01*
X124302838Y-101800559D01*
X124302995Y-101789534D01*
X124304002Y-101789548D01*
X124303746Y-101777378D01*
X124313808Y-101686777D01*
X124318793Y-101663040D01*
X124352607Y-101555032D01*
X124362048Y-101532690D01*
X124415928Y-101433167D01*
X124429474Y-101413048D01*
X124445472Y-101393624D01*
X124501431Y-101325684D01*
X124518581Y-101308535D01*
X124585107Y-101253742D01*
X124650405Y-101225873D01*
X124665212Y-101225000D01*
X127141609Y-101225000D01*
X127209730Y-101245002D01*
G37*
%TD.AperFunction*%
%TD*%
%TA.AperFunction,Conductor*%
%TO.N,GND*%
G36*
X160218733Y-89550285D02*
G01*
X160225917Y-89552460D01*
X160236926Y-89551852D01*
X160244311Y-89552738D01*
X160257672Y-89555076D01*
X160315599Y-89568462D01*
X160349961Y-89576403D01*
X160375541Y-89585302D01*
X160477775Y-89633750D01*
X160500861Y-89647913D01*
X160590368Y-89717092D01*
X160609895Y-89735865D01*
X160682542Y-89822576D01*
X160697608Y-89845094D01*
X160750039Y-89945331D01*
X160759939Y-89970541D01*
X160789732Y-90079678D01*
X160794014Y-90106426D01*
X160798846Y-90201016D01*
X160798808Y-90214578D01*
X160798386Y-90222017D01*
X160795861Y-90232744D01*
X160797157Y-90243690D01*
X160797157Y-90243691D01*
X160799126Y-90260320D01*
X160800000Y-90275135D01*
X160800000Y-90361089D01*
X160779998Y-90429210D01*
X160726342Y-90475703D01*
X160656068Y-90485807D01*
X160640857Y-90482652D01*
X160635997Y-90481327D01*
X160627327Y-90477494D01*
X160601646Y-90474500D01*
X159162354Y-90474500D01*
X159158650Y-90474941D01*
X159158647Y-90474941D01*
X159152245Y-90475703D01*
X159136154Y-90477618D01*
X159127514Y-90481456D01*
X159127513Y-90481456D01*
X159044482Y-90518337D01*
X159033847Y-90523061D01*
X159025628Y-90531294D01*
X159025627Y-90531295D01*
X159007650Y-90549304D01*
X158954759Y-90602287D01*
X158950055Y-90612927D01*
X158943483Y-90622525D01*
X158939977Y-90620124D01*
X158908636Y-90657230D01*
X158840773Y-90678090D01*
X158772405Y-90658949D01*
X158753654Y-90644625D01*
X158609490Y-90511361D01*
X158600365Y-90504360D01*
X158426255Y-90394505D01*
X158416008Y-90389284D01*
X158224793Y-90312997D01*
X158213767Y-90309730D01*
X158153770Y-90297797D01*
X158140894Y-90298949D01*
X158136000Y-90314102D01*
X158136000Y-92590512D01*
X158139966Y-92604018D01*
X158153883Y-92606011D01*
X158164817Y-92603386D01*
X158359763Y-92537210D01*
X158370272Y-92532531D01*
X158549882Y-92431944D01*
X158559375Y-92425420D01*
X158717653Y-92293782D01*
X158725779Y-92285656D01*
X158741930Y-92266237D01*
X158800868Y-92226654D01*
X158871850Y-92225219D01*
X158932340Y-92262387D01*
X158942844Y-92278559D01*
X158943751Y-92277935D01*
X158950337Y-92287519D01*
X158955061Y-92298153D01*
X159034287Y-92377241D01*
X159044924Y-92381944D01*
X159044926Y-92381945D01*
X159098094Y-92405450D01*
X159136673Y-92422506D01*
X159162354Y-92425500D01*
X160601646Y-92425500D01*
X160605350Y-92425059D01*
X160605353Y-92425059D01*
X160618461Y-92423499D01*
X160618462Y-92423499D01*
X160627846Y-92422382D01*
X160636483Y-92418545D01*
X160640607Y-92417412D01*
X160711593Y-92418645D01*
X160770643Y-92458060D01*
X160799010Y-92523143D01*
X160800000Y-92538906D01*
X160800000Y-95487825D01*
X160799759Y-95491651D01*
X160797787Y-95498012D01*
X160798278Y-95508119D01*
X160798207Y-95509924D01*
X160798049Y-95511172D01*
X160798061Y-95513653D01*
X160792292Y-95660687D01*
X160791991Y-95668347D01*
X160792724Y-95673768D01*
X160803991Y-95757121D01*
X160793295Y-95827308D01*
X160746351Y-95880569D01*
X160679127Y-95900000D01*
X156818602Y-95900000D01*
X156756148Y-95883433D01*
X156638916Y-95816528D01*
X156638912Y-95816526D01*
X156634547Y-95814035D01*
X156436488Y-95739731D01*
X156429792Y-95738379D01*
X156411940Y-95734775D01*
X156269482Y-95706013D01*
X156264635Y-95704935D01*
X156260442Y-95703914D01*
X156252173Y-95700615D01*
X156245900Y-95700000D01*
X156241132Y-95700000D01*
X156239099Y-95699879D01*
X156232485Y-95698543D01*
X156229172Y-95697540D01*
X156188092Y-95699808D01*
X156181146Y-95700000D01*
X154104640Y-95700000D01*
X154097694Y-95699808D01*
X154056614Y-95697540D01*
X154051106Y-95699207D01*
X153956099Y-95717812D01*
X153851070Y-95738379D01*
X153851063Y-95738381D01*
X153846487Y-95739277D01*
X153644660Y-95810985D01*
X153640545Y-95813177D01*
X153640542Y-95813178D01*
X153505298Y-95885210D01*
X153446067Y-95900000D01*
X146819713Y-95900000D01*
X146757497Y-95883568D01*
X146757260Y-95883433D01*
X146634884Y-95813944D01*
X146436609Y-95739853D01*
X146431713Y-95738867D01*
X146431700Y-95738863D01*
X146273664Y-95707026D01*
X146268759Y-95705936D01*
X146260433Y-95703910D01*
X146252173Y-95700615D01*
X146245900Y-95700000D01*
X146241131Y-95700000D01*
X146237790Y-95699800D01*
X146234353Y-95699108D01*
X146229174Y-95697540D01*
X146218161Y-95698148D01*
X146188094Y-95699808D01*
X146181148Y-95700000D01*
X144104640Y-95700000D01*
X144097694Y-95699808D01*
X144056614Y-95697540D01*
X144050835Y-95699289D01*
X144022640Y-95704822D01*
X143851325Y-95738440D01*
X143851321Y-95738441D01*
X143846730Y-95739342D01*
X143645202Y-95811213D01*
X143507149Y-95885092D01*
X143447699Y-95900000D01*
X139455928Y-95900000D01*
X139387807Y-95879998D01*
X139341314Y-95826342D01*
X139331210Y-95756068D01*
X139360704Y-95691488D01*
X139407710Y-95657591D01*
X139540233Y-95602698D01*
X139660451Y-95510451D01*
X139752698Y-95390233D01*
X139810687Y-95250236D01*
X139830466Y-95100000D01*
X139810687Y-94949764D01*
X139752698Y-94809767D01*
X139660451Y-94689549D01*
X139540233Y-94597302D01*
X139400236Y-94539313D01*
X139250000Y-94519534D01*
X139099764Y-94539313D01*
X138959767Y-94597302D01*
X138839549Y-94689549D01*
X138747302Y-94809767D01*
X138689313Y-94949764D01*
X138669534Y-95100000D01*
X138689313Y-95250236D01*
X138747302Y-95390233D01*
X138839549Y-95510451D01*
X138959767Y-95602698D01*
X139092290Y-95657591D01*
X139147571Y-95702139D01*
X139169992Y-95769503D01*
X139152434Y-95838294D01*
X139100472Y-95886672D01*
X139044072Y-95900000D01*
X136818602Y-95900000D01*
X136756148Y-95883433D01*
X136638916Y-95816528D01*
X136638912Y-95816526D01*
X136634547Y-95814035D01*
X136436488Y-95739731D01*
X136429792Y-95738379D01*
X136411940Y-95734775D01*
X136269482Y-95706013D01*
X136264635Y-95704935D01*
X136260442Y-95703914D01*
X136252173Y-95700615D01*
X136245900Y-95700000D01*
X136241132Y-95700000D01*
X136239099Y-95699879D01*
X136232485Y-95698543D01*
X136229172Y-95697540D01*
X136188092Y-95699808D01*
X136181146Y-95700000D01*
X134104640Y-95700000D01*
X134097694Y-95699808D01*
X134056614Y-95697540D01*
X134051106Y-95699207D01*
X133956099Y-95717812D01*
X133851070Y-95738379D01*
X133851063Y-95738381D01*
X133846487Y-95739277D01*
X133644660Y-95810985D01*
X133640545Y-95813177D01*
X133640542Y-95813178D01*
X133505298Y-95885210D01*
X133446067Y-95900000D01*
X129517320Y-95900000D01*
X129449199Y-95879998D01*
X129402706Y-95826342D01*
X129392456Y-95757121D01*
X129403723Y-95673768D01*
X129404456Y-95668347D01*
X129404156Y-95660687D01*
X129398386Y-95513653D01*
X129398398Y-95511168D01*
X129398240Y-95509918D01*
X129398169Y-95508119D01*
X129398660Y-95498012D01*
X129396740Y-95491815D01*
X129396512Y-95488166D01*
X129396970Y-95147243D01*
X129417064Y-95079149D01*
X129470782Y-95032728D01*
X129539416Y-95022490D01*
X129600000Y-95030466D01*
X129608188Y-95029388D01*
X129742048Y-95011765D01*
X129750236Y-95010687D01*
X129764082Y-95004952D01*
X129808324Y-94986626D01*
X129890233Y-94952698D01*
X130010451Y-94860451D01*
X130102698Y-94740233D01*
X130160687Y-94600236D01*
X130180466Y-94450000D01*
X130160687Y-94299764D01*
X130102698Y-94159767D01*
X130095203Y-94150000D01*
X136819534Y-94150000D01*
X136839313Y-94300236D01*
X136897302Y-94440233D01*
X136989549Y-94560451D01*
X137109767Y-94652698D01*
X137249764Y-94710687D01*
X137400000Y-94730466D01*
X137408188Y-94729388D01*
X137542048Y-94711765D01*
X137550236Y-94710687D01*
X137690233Y-94652698D01*
X137810451Y-94560451D01*
X137902698Y-94440233D01*
X137960687Y-94300236D01*
X137980466Y-94150000D01*
X137960687Y-93999764D01*
X137902698Y-93859767D01*
X137858143Y-93801702D01*
X137832543Y-93735485D01*
X137846807Y-93665936D01*
X137858138Y-93648305D01*
X137902698Y-93590233D01*
X137905858Y-93582604D01*
X137905861Y-93582599D01*
X137919019Y-93550833D01*
X137963567Y-93495552D01*
X138030931Y-93473132D01*
X138051874Y-93474130D01*
X138100000Y-93480466D01*
X138108188Y-93479388D01*
X138148127Y-93474130D01*
X138250236Y-93460687D01*
X138390233Y-93402698D01*
X138510451Y-93310451D01*
X138602698Y-93190233D01*
X138660687Y-93050236D01*
X138680466Y-92900000D01*
X138667300Y-92800000D01*
X142894778Y-92800000D01*
X142895048Y-92804119D01*
X142910643Y-93042048D01*
X142913644Y-93087839D01*
X142914448Y-93091879D01*
X142914448Y-93091882D01*
X142954217Y-93291812D01*
X142969919Y-93370753D01*
X142971245Y-93374659D01*
X142971246Y-93374663D01*
X143012283Y-93495552D01*
X143062641Y-93643902D01*
X143064462Y-93647595D01*
X143064463Y-93647597D01*
X143183133Y-93888235D01*
X143190222Y-93902611D01*
X143192516Y-93906044D01*
X143286098Y-94046099D01*
X143350480Y-94142454D01*
X143353194Y-94145548D01*
X143353198Y-94145554D01*
X143488851Y-94300236D01*
X143540673Y-94359327D01*
X143543762Y-94362036D01*
X143754446Y-94546802D01*
X143754452Y-94546806D01*
X143757546Y-94549520D01*
X143760972Y-94551809D01*
X143760977Y-94551813D01*
X143836583Y-94602331D01*
X143997389Y-94709778D01*
X144001088Y-94711602D01*
X144001093Y-94711605D01*
X144215619Y-94817397D01*
X144256098Y-94837359D01*
X144259996Y-94838682D01*
X144259998Y-94838683D01*
X144525337Y-94928754D01*
X144525341Y-94928755D01*
X144529247Y-94930081D01*
X144533291Y-94930885D01*
X144533297Y-94930887D01*
X144808118Y-94985552D01*
X144808121Y-94985552D01*
X144812161Y-94986356D01*
X144816272Y-94986625D01*
X144816276Y-94986626D01*
X145095881Y-95004952D01*
X145100000Y-95005222D01*
X145104119Y-95004952D01*
X145383724Y-94986626D01*
X145383728Y-94986625D01*
X145387839Y-94986356D01*
X145391879Y-94985552D01*
X145391882Y-94985552D01*
X145666703Y-94930887D01*
X145666709Y-94930885D01*
X145670753Y-94930081D01*
X145674659Y-94928755D01*
X145674663Y-94928754D01*
X145940002Y-94838683D01*
X145940004Y-94838682D01*
X145943902Y-94837359D01*
X145984381Y-94817397D01*
X146198907Y-94711605D01*
X146198912Y-94711602D01*
X146202611Y-94709778D01*
X146363417Y-94602331D01*
X146439023Y-94551813D01*
X146439028Y-94551809D01*
X146442454Y-94549520D01*
X146445548Y-94546806D01*
X146445554Y-94546802D01*
X146656238Y-94362036D01*
X146659327Y-94359327D01*
X146711149Y-94300236D01*
X146846802Y-94145554D01*
X146846806Y-94145548D01*
X146849520Y-94142454D01*
X146913903Y-94046099D01*
X147007484Y-93906044D01*
X147009778Y-93902611D01*
X147016868Y-93888235D01*
X147135537Y-93647597D01*
X147135538Y-93647595D01*
X147137359Y-93643902D01*
X147187717Y-93495552D01*
X147228754Y-93374663D01*
X147228755Y-93374659D01*
X147230081Y-93370753D01*
X147245784Y-93291812D01*
X147285552Y-93091882D01*
X147285552Y-93091879D01*
X147286356Y-93087839D01*
X147289358Y-93042048D01*
X147304952Y-92804119D01*
X147305222Y-92800000D01*
X147301929Y-92749764D01*
X147286626Y-92516276D01*
X147286625Y-92516272D01*
X147286356Y-92512161D01*
X147281858Y-92489549D01*
X147230887Y-92233297D01*
X147230885Y-92233291D01*
X147230081Y-92229247D01*
X147207810Y-92163637D01*
X147138683Y-91959998D01*
X147138682Y-91959996D01*
X147137359Y-91956098D01*
X147135537Y-91952403D01*
X147011605Y-91701093D01*
X147011602Y-91701088D01*
X147009778Y-91697389D01*
X146958608Y-91620807D01*
X146851813Y-91460977D01*
X146851809Y-91460972D01*
X146849520Y-91457546D01*
X146846806Y-91454452D01*
X146846802Y-91454446D01*
X146830901Y-91436314D01*
X152901876Y-91436314D01*
X152917884Y-91626948D01*
X152970614Y-91810843D01*
X152973433Y-91816328D01*
X153055242Y-91975511D01*
X153055245Y-91975516D01*
X153058060Y-91980993D01*
X153176889Y-92130918D01*
X153181583Y-92134913D01*
X153292425Y-92229247D01*
X153322575Y-92254907D01*
X153327953Y-92257913D01*
X153327955Y-92257914D01*
X153356448Y-92273838D01*
X153489570Y-92348237D01*
X153671512Y-92407354D01*
X153861472Y-92430005D01*
X153867607Y-92429533D01*
X153867609Y-92429533D01*
X154046071Y-92415801D01*
X154046075Y-92415800D01*
X154052213Y-92415328D01*
X154236472Y-92363882D01*
X154407228Y-92277627D01*
X154426735Y-92262387D01*
X154553129Y-92163637D01*
X154557979Y-92159848D01*
X154579503Y-92134913D01*
X154678958Y-92019692D01*
X154678959Y-92019691D01*
X154682982Y-92015030D01*
X154699574Y-91985824D01*
X154773986Y-91854834D01*
X154825025Y-91805484D01*
X154894643Y-91791561D01*
X154960737Y-91817487D01*
X154995608Y-91859476D01*
X155055242Y-91975511D01*
X155055245Y-91975516D01*
X155058060Y-91980993D01*
X155176889Y-92130918D01*
X155181583Y-92134913D01*
X155292425Y-92229247D01*
X155322575Y-92254907D01*
X155327953Y-92257913D01*
X155327955Y-92257914D01*
X155356448Y-92273838D01*
X155489570Y-92348237D01*
X155671512Y-92407354D01*
X155861472Y-92430005D01*
X155867607Y-92429533D01*
X155867609Y-92429533D01*
X156046071Y-92415801D01*
X156046075Y-92415800D01*
X156052213Y-92415328D01*
X156236472Y-92363882D01*
X156407228Y-92277627D01*
X156426735Y-92262387D01*
X156553129Y-92163637D01*
X156557979Y-92159848D01*
X156659965Y-92041695D01*
X156719617Y-92003199D01*
X156790613Y-92003063D01*
X156850413Y-92041333D01*
X156858243Y-92051307D01*
X156975254Y-92216873D01*
X156982720Y-92225615D01*
X157130191Y-92369275D01*
X157139124Y-92376509D01*
X157310299Y-92490884D01*
X157320409Y-92496374D01*
X157509566Y-92577642D01*
X157520499Y-92581194D01*
X157610332Y-92601521D01*
X157624405Y-92600632D01*
X157628000Y-92591233D01*
X157628000Y-90311337D01*
X157624194Y-90298375D01*
X157609278Y-90296439D01*
X157580202Y-90301435D01*
X157569082Y-90304415D01*
X157375940Y-90375669D01*
X157365562Y-90380619D01*
X157188639Y-90485877D01*
X157179327Y-90492643D01*
X157024547Y-90628381D01*
X157016630Y-90636724D01*
X156889180Y-90798394D01*
X156882912Y-90808046D01*
X156867473Y-90837390D01*
X156818053Y-90888363D01*
X156748921Y-90904525D01*
X156682025Y-90880746D01*
X156658322Y-90858358D01*
X156581430Y-90764078D01*
X156581427Y-90764075D01*
X156577535Y-90759303D01*
X156511499Y-90704673D01*
X156434879Y-90641288D01*
X156430132Y-90637361D01*
X156365265Y-90602287D01*
X156267276Y-90549304D01*
X156267273Y-90549303D01*
X156261851Y-90546371D01*
X156148751Y-90511361D01*
X156084988Y-90491623D01*
X156084985Y-90491622D01*
X156079101Y-90489801D01*
X156072976Y-90489157D01*
X156072975Y-90489157D01*
X155894971Y-90470448D01*
X155894970Y-90470448D01*
X155888843Y-90469804D01*
X155771867Y-90480449D01*
X155704466Y-90486583D01*
X155704465Y-90486583D01*
X155698325Y-90487142D01*
X155514803Y-90541156D01*
X155509338Y-90544013D01*
X155350728Y-90626932D01*
X155350724Y-90626935D01*
X155345268Y-90629787D01*
X155340468Y-90633647D01*
X155340467Y-90633647D01*
X155220188Y-90730354D01*
X155196176Y-90749660D01*
X155073207Y-90896208D01*
X155070237Y-90901610D01*
X155070231Y-90901619D01*
X154991896Y-91044109D01*
X154941551Y-91094168D01*
X154872134Y-91109061D01*
X154805685Y-91084060D01*
X154770231Y-91042562D01*
X154701342Y-90913001D01*
X154701341Y-90912999D01*
X154698446Y-90907555D01*
X154609417Y-90798394D01*
X154581430Y-90764078D01*
X154581427Y-90764075D01*
X154577535Y-90759303D01*
X154511499Y-90704673D01*
X154434879Y-90641288D01*
X154430132Y-90637361D01*
X154365265Y-90602287D01*
X154267276Y-90549304D01*
X154267273Y-90549303D01*
X154261851Y-90546371D01*
X154148751Y-90511361D01*
X154084988Y-90491623D01*
X154084985Y-90491622D01*
X154079101Y-90489801D01*
X154072976Y-90489157D01*
X154072975Y-90489157D01*
X153894971Y-90470448D01*
X153894970Y-90470448D01*
X153888843Y-90469804D01*
X153771867Y-90480449D01*
X153704466Y-90486583D01*
X153704465Y-90486583D01*
X153698325Y-90487142D01*
X153514803Y-90541156D01*
X153509338Y-90544013D01*
X153350728Y-90626932D01*
X153350724Y-90626935D01*
X153345268Y-90629787D01*
X153340468Y-90633647D01*
X153340467Y-90633647D01*
X153220188Y-90730354D01*
X153196176Y-90749660D01*
X153073207Y-90896208D01*
X152981045Y-91063850D01*
X152979184Y-91069717D01*
X152979183Y-91069719D01*
X152966703Y-91109061D01*
X152923200Y-91246201D01*
X152901876Y-91436314D01*
X146830901Y-91436314D01*
X146662036Y-91243762D01*
X146659327Y-91240673D01*
X146509253Y-91109061D01*
X146445554Y-91053198D01*
X146445548Y-91053194D01*
X146442454Y-91050480D01*
X146439028Y-91048191D01*
X146439023Y-91048187D01*
X146219657Y-90901612D01*
X146202611Y-90890222D01*
X146198912Y-90888398D01*
X146198907Y-90888395D01*
X145947597Y-90764463D01*
X145947595Y-90764462D01*
X145943902Y-90762641D01*
X145934069Y-90759303D01*
X145674663Y-90671246D01*
X145674659Y-90671245D01*
X145670753Y-90669919D01*
X145666709Y-90669115D01*
X145666703Y-90669113D01*
X145391882Y-90614448D01*
X145391879Y-90614448D01*
X145387839Y-90613644D01*
X145383728Y-90613375D01*
X145383724Y-90613374D01*
X145104119Y-90595048D01*
X145100000Y-90594778D01*
X145095881Y-90595048D01*
X144816276Y-90613374D01*
X144816272Y-90613375D01*
X144812161Y-90613644D01*
X144808121Y-90614448D01*
X144808118Y-90614448D01*
X144533297Y-90669113D01*
X144533291Y-90669115D01*
X144529247Y-90669919D01*
X144525341Y-90671245D01*
X144525337Y-90671246D01*
X144265931Y-90759303D01*
X144256098Y-90762641D01*
X144252405Y-90764462D01*
X144252403Y-90764463D01*
X144001093Y-90888395D01*
X144001088Y-90888398D01*
X143997389Y-90890222D01*
X143980343Y-90901612D01*
X143760977Y-91048187D01*
X143760972Y-91048191D01*
X143757546Y-91050480D01*
X143754452Y-91053194D01*
X143754446Y-91053198D01*
X143690747Y-91109061D01*
X143540673Y-91240673D01*
X143537964Y-91243762D01*
X143353198Y-91454446D01*
X143353194Y-91454452D01*
X143350480Y-91457546D01*
X143348191Y-91460972D01*
X143348187Y-91460977D01*
X143241392Y-91620807D01*
X143190222Y-91697389D01*
X143188398Y-91701088D01*
X143188395Y-91701093D01*
X143064463Y-91952403D01*
X143062641Y-91956098D01*
X143061318Y-91959996D01*
X143061317Y-91959998D01*
X142992191Y-92163637D01*
X142969919Y-92229247D01*
X142969115Y-92233291D01*
X142969113Y-92233297D01*
X142918142Y-92489549D01*
X142913644Y-92512161D01*
X142913375Y-92516272D01*
X142913374Y-92516276D01*
X142898071Y-92749764D01*
X142894778Y-92800000D01*
X138667300Y-92800000D01*
X138666758Y-92795881D01*
X138661765Y-92757952D01*
X138660687Y-92749764D01*
X138602698Y-92609767D01*
X138510451Y-92489549D01*
X138390233Y-92397302D01*
X138250236Y-92339313D01*
X138100000Y-92319534D01*
X137949764Y-92339313D01*
X137809767Y-92397302D01*
X137689549Y-92489549D01*
X137597302Y-92609767D01*
X137594142Y-92617396D01*
X137594139Y-92617401D01*
X137580981Y-92649167D01*
X137536433Y-92704448D01*
X137469069Y-92726868D01*
X137448126Y-92725870D01*
X137408188Y-92720612D01*
X137400000Y-92719534D01*
X137249764Y-92739313D01*
X137109767Y-92797302D01*
X136989549Y-92889549D01*
X136897302Y-93009767D01*
X136839313Y-93149764D01*
X136819534Y-93300000D01*
X136820612Y-93308188D01*
X136833471Y-93405858D01*
X136839313Y-93450236D01*
X136897302Y-93590233D01*
X136941857Y-93648298D01*
X136967457Y-93714515D01*
X136953193Y-93784064D01*
X136941862Y-93801695D01*
X136897302Y-93859767D01*
X136839313Y-93999764D01*
X136819534Y-94150000D01*
X130095203Y-94150000D01*
X130010451Y-94039549D01*
X129890233Y-93947302D01*
X129750236Y-93889313D01*
X129600000Y-93869534D01*
X129591812Y-93870612D01*
X129541292Y-93877263D01*
X129471143Y-93866324D01*
X129418045Y-93819195D01*
X129398846Y-93752172D01*
X129399454Y-93300000D01*
X132769534Y-93300000D01*
X132770612Y-93308188D01*
X132783471Y-93405858D01*
X132789313Y-93450236D01*
X132847302Y-93590233D01*
X132939549Y-93710451D01*
X133059767Y-93802698D01*
X133199764Y-93860687D01*
X133350000Y-93880466D01*
X133358188Y-93879388D01*
X133492048Y-93861765D01*
X133500236Y-93860687D01*
X133640233Y-93802698D01*
X133760451Y-93710451D01*
X133852698Y-93590233D01*
X133910687Y-93450236D01*
X133916530Y-93405858D01*
X133929388Y-93308188D01*
X133930466Y-93300000D01*
X133910687Y-93149764D01*
X133852698Y-93009767D01*
X133760451Y-92889549D01*
X133640233Y-92797302D01*
X133500236Y-92739313D01*
X133350000Y-92719534D01*
X133199764Y-92739313D01*
X133059767Y-92797302D01*
X132939549Y-92889549D01*
X132847302Y-93009767D01*
X132789313Y-93149764D01*
X132769534Y-93300000D01*
X129399454Y-93300000D01*
X129403502Y-90289082D01*
X129405592Y-90266397D01*
X129406174Y-90263242D01*
X129406174Y-90263237D01*
X129408173Y-90252400D01*
X129406345Y-90241531D01*
X129406431Y-90230594D01*
X129407119Y-90218400D01*
X129408949Y-90201016D01*
X129416609Y-90128216D01*
X129421499Y-90104314D01*
X129454639Y-89996717D01*
X129464045Y-89974205D01*
X129517296Y-89875021D01*
X129530863Y-89854745D01*
X129602233Y-89767678D01*
X129619453Y-89750395D01*
X129706267Y-89678713D01*
X129726496Y-89665074D01*
X129825493Y-89611469D01*
X129847973Y-89601983D01*
X129955448Y-89568462D01*
X129979331Y-89563487D01*
X130069483Y-89553675D01*
X130081673Y-89552943D01*
X130092606Y-89552818D01*
X130103485Y-89554608D01*
X130116429Y-89552173D01*
X130139724Y-89550000D01*
X160213957Y-89550000D01*
X160218733Y-89550285D01*
G37*
%TD.AperFunction*%
%TD*%
M02*
