%TF.GenerationSoftware,KiCad,Pcbnew,(6.0.2-0)*%
%TF.CreationDate,2022-10-29T16:02:39+01:00*%
%TF.ProjectId,p3-cellular-module,70332d63-656c-46c7-956c-61722d6d6f64,rev?*%
%TF.SameCoordinates,Original*%
%TF.FileFunction,Soldermask,Bot*%
%TF.FilePolarity,Negative*%
%FSLAX46Y46*%
G04 Gerber Fmt 4.6, Leading zero omitted, Abs format (unit mm)*
G04 Created by KiCad (PCBNEW (6.0.2-0)) date 2022-10-29 16:02:39*
%MOMM*%
%LPD*%
G01*
G04 APERTURE LIST*
G04 Aperture macros list*
%AMRoundRect*
0 Rectangle with rounded corners*
0 $1 Rounding radius*
0 $2 $3 $4 $5 $6 $7 $8 $9 X,Y pos of 4 corners*
0 Add a 4 corners polygon primitive as box body*
4,1,4,$2,$3,$4,$5,$6,$7,$8,$9,$2,$3,0*
0 Add four circle primitives for the rounded corners*
1,1,$1+$1,$2,$3*
1,1,$1+$1,$4,$5*
1,1,$1+$1,$6,$7*
1,1,$1+$1,$8,$9*
0 Add four rect primitives between the rounded corners*
20,1,$1+$1,$2,$3,$4,$5,0*
20,1,$1+$1,$4,$5,$6,$7,0*
20,1,$1+$1,$6,$7,$8,$9,0*
20,1,$1+$1,$8,$9,$2,$3,0*%
G04 Aperture macros list end*
%ADD10C,0.001000*%
%ADD11C,3.800000*%
%ADD12R,1.350000X1.350000*%
%ADD13O,1.350000X1.350000*%
%ADD14RoundRect,0.200000X-0.200000X-0.275000X0.200000X-0.275000X0.200000X0.275000X-0.200000X0.275000X0*%
%ADD15RoundRect,0.250000X-0.412500X-0.925000X0.412500X-0.925000X0.412500X0.925000X-0.412500X0.925000X0*%
%ADD16RoundRect,0.218750X-0.256250X0.218750X-0.256250X-0.218750X0.256250X-0.218750X0.256250X0.218750X0*%
%ADD17R,1.650000X2.300000*%
%ADD18RoundRect,0.200000X-0.275000X0.200000X-0.275000X-0.200000X0.275000X-0.200000X0.275000X0.200000X0*%
%ADD19R,1.200000X4.700000*%
%ADD20RoundRect,0.250000X0.412500X0.925000X-0.412500X0.925000X-0.412500X-0.925000X0.412500X-0.925000X0*%
%ADD21RoundRect,0.225000X-0.225000X-0.250000X0.225000X-0.250000X0.225000X0.250000X-0.225000X0.250000X0*%
%ADD22RoundRect,0.200000X0.275000X-0.200000X0.275000X0.200000X-0.275000X0.200000X-0.275000X-0.200000X0*%
%ADD23RoundRect,0.225000X0.225000X0.250000X-0.225000X0.250000X-0.225000X-0.250000X0.225000X-0.250000X0*%
%ADD24RoundRect,0.250000X-0.250000X-0.475000X0.250000X-0.475000X0.250000X0.475000X-0.250000X0.475000X0*%
%ADD25RoundRect,0.250000X-1.100000X0.325000X-1.100000X-0.325000X1.100000X-0.325000X1.100000X0.325000X0*%
%ADD26RoundRect,0.218750X-0.218750X-0.256250X0.218750X-0.256250X0.218750X0.256250X-0.218750X0.256250X0*%
%ADD27R,1.000000X0.900000*%
%ADD28R,0.550000X1.700000*%
%ADD29O,2.500000X0.800000*%
%ADD30O,0.800000X2.500000*%
%ADD31R,2.000000X3.000000*%
%ADD32R,1.100000X1.100000*%
%ADD33RoundRect,0.218750X0.256250X-0.218750X0.256250X0.218750X-0.256250X0.218750X-0.256250X-0.218750X0*%
%ADD34RoundRect,0.150000X-0.512500X-0.150000X0.512500X-0.150000X0.512500X0.150000X-0.512500X0.150000X0*%
G04 APERTURE END LIST*
G36*
X133700000Y-101300000D02*
G01*
X126500000Y-101300000D01*
X126500000Y-103900000D01*
X133700000Y-103900000D01*
X133700000Y-101300000D01*
G37*
G36*
X166000000Y-109500000D02*
G01*
X164100000Y-109500000D01*
X164100000Y-100550000D01*
X166000000Y-100550000D01*
X166000000Y-109500000D01*
G37*
G36*
X164800000Y-96050000D02*
G01*
X141900000Y-96050000D01*
X141900000Y-98700000D01*
X164800000Y-98700000D01*
X164800000Y-96050000D01*
G37*
G36*
X141100000Y-96050000D02*
G01*
X124800000Y-96050000D01*
X124800000Y-98700000D01*
X141100000Y-98700000D01*
X141100000Y-96050000D01*
G37*
G36*
X163600000Y-101300000D02*
G01*
X156400000Y-101300000D01*
X156400000Y-103900000D01*
X163600000Y-103900000D01*
X163600000Y-101300000D01*
G37*
G36*
X143700000Y-101300000D02*
G01*
X141900000Y-101300000D01*
X141900000Y-103900000D01*
X143700000Y-103900000D01*
X143700000Y-101300000D01*
G37*
G36*
X141100000Y-101300000D02*
G01*
X136500000Y-101300000D01*
X136500000Y-103900000D01*
X141100000Y-103900000D01*
X141100000Y-101300000D01*
G37*
G36*
X126000000Y-109600000D02*
G01*
X124000000Y-109600000D01*
X124000000Y-100550000D01*
X126000000Y-100550000D01*
X126000000Y-109600000D01*
G37*
G36*
X153700000Y-101300000D02*
G01*
X146500000Y-101300000D01*
X146500000Y-103900000D01*
X153700000Y-103900000D01*
X153700000Y-101300000D01*
G37*
D10*
%TO.C,U2*%
X152100000Y-121300000D02*
X154300000Y-121300000D01*
X154300000Y-121300000D02*
X154300000Y-118600000D01*
X154300000Y-118600000D02*
X153800000Y-118100000D01*
X153800000Y-118100000D02*
X152100000Y-118100000D01*
X152100000Y-118100000D02*
X152100000Y-121300000D01*
G36*
X154300000Y-118600000D02*
G01*
X154300000Y-121300000D01*
X152100000Y-121300000D01*
X152100000Y-118100000D01*
X153800000Y-118100000D01*
X154300000Y-118600000D01*
G37*
X154300000Y-118600000D02*
X154300000Y-121300000D01*
X152100000Y-121300000D01*
X152100000Y-118100000D01*
X153800000Y-118100000D01*
X154300000Y-118600000D01*
%TD*%
D11*
%TO.C,REF\u002A\u002A*%
X145100000Y-92800000D03*
%TD*%
D12*
%TO.C,J4*%
X159882000Y-91450000D03*
D13*
X157882000Y-91450000D03*
X155882000Y-91450000D03*
X153882000Y-91450000D03*
%TD*%
D14*
%TO.C,R3*%
X154000000Y-105900000D03*
X155650000Y-105900000D03*
%TD*%
D15*
%TO.C,C9*%
X142662500Y-106200000D03*
X145737500Y-106200000D03*
%TD*%
D16*
%TO.C,L2*%
X128650000Y-110662500D03*
X128650000Y-112237500D03*
%TD*%
D17*
%TO.C,E1*%
X127775000Y-106325000D03*
X132425000Y-106325000D03*
%TD*%
D18*
%TO.C,R4*%
X161400000Y-107775000D03*
X161400000Y-109425000D03*
%TD*%
D14*
%TO.C,R2*%
X150725000Y-105900000D03*
X152375000Y-105900000D03*
%TD*%
D19*
%TO.C,L1*%
X154580000Y-109925000D03*
X151270000Y-109925000D03*
%TD*%
D20*
%TO.C,C5*%
X138337500Y-106200000D03*
X135262500Y-106200000D03*
%TD*%
D21*
%TO.C,C11*%
X139525000Y-110450000D03*
X141075000Y-110450000D03*
%TD*%
%TO.C,C10*%
X139525000Y-112100000D03*
X141075000Y-112100000D03*
%TD*%
D22*
%TO.C,R1*%
X149000000Y-107325000D03*
X149000000Y-105675000D03*
%TD*%
D23*
%TO.C,C7*%
X136825000Y-110450000D03*
X135275000Y-110450000D03*
%TD*%
D21*
%TO.C,C17*%
X130275000Y-112200000D03*
X131825000Y-112200000D03*
%TD*%
D24*
%TO.C,C1*%
X157250000Y-106350000D03*
X159150000Y-106350000D03*
%TD*%
D23*
%TO.C,C8*%
X136825000Y-112100000D03*
X135275000Y-112100000D03*
%TD*%
D25*
%TO.C,C3*%
X148100000Y-109025000D03*
X148100000Y-111975000D03*
%TD*%
D26*
%TO.C,D2*%
X160812500Y-106100000D03*
X162387500Y-106100000D03*
%TD*%
D21*
%TO.C,C12*%
X139525000Y-108800000D03*
X141075000Y-108800000D03*
%TD*%
D25*
%TO.C,C19*%
X144600000Y-109025000D03*
X144600000Y-111975000D03*
%TD*%
D27*
%TO.C,SW1*%
X130850000Y-90350001D03*
X130850000Y-94449999D03*
X132450000Y-90350001D03*
X132450000Y-94449999D03*
D28*
X130225000Y-92400000D03*
%TD*%
D23*
%TO.C,C6*%
X136825000Y-108800000D03*
X135275000Y-108800000D03*
%TD*%
D21*
%TO.C,C14*%
X130275000Y-110550000D03*
X131825000Y-110550000D03*
%TD*%
D29*
%TO.C,U2*%
X160750000Y-116700000D03*
X160750000Y-118000000D03*
X160750000Y-119300000D03*
X160750000Y-120600000D03*
X160750000Y-121900000D03*
X160750000Y-123200000D03*
X160750000Y-124500000D03*
X160750000Y-128900000D03*
X160750000Y-130200000D03*
X160750000Y-131500000D03*
X160750000Y-132800000D03*
X160750000Y-134100000D03*
X160750000Y-135400000D03*
X160750000Y-136700000D03*
X160750000Y-138000000D03*
X160750000Y-139300000D03*
X160750000Y-140600000D03*
X160750000Y-141900000D03*
D30*
X154550000Y-143550000D03*
X153250000Y-143550000D03*
X151950000Y-143550000D03*
X150650000Y-143550000D03*
X149350000Y-143550000D03*
X148050000Y-143550000D03*
X146750000Y-143550000D03*
X145450000Y-143550000D03*
X144150000Y-143550000D03*
X142850000Y-143550000D03*
X141550000Y-143550000D03*
X140250000Y-143550000D03*
X138950000Y-143550000D03*
X137650000Y-143550000D03*
X136350000Y-143550000D03*
X135050000Y-143550000D03*
X133750000Y-143550000D03*
X132450000Y-143550000D03*
D29*
X129250000Y-141900000D03*
X129250000Y-140600000D03*
X129250000Y-139300000D03*
X129250000Y-138000000D03*
X129250000Y-136700000D03*
X129250000Y-135400000D03*
X129250000Y-134100000D03*
X129250000Y-132800000D03*
X129250000Y-131500000D03*
X129250000Y-130200000D03*
X129250000Y-128900000D03*
X129250000Y-124500000D03*
X129250000Y-123200000D03*
X129250000Y-121900000D03*
X129250000Y-120600000D03*
X129250000Y-119300000D03*
X129250000Y-118000000D03*
X129250000Y-116700000D03*
D30*
X132450000Y-115050000D03*
X133750000Y-115050000D03*
X135050000Y-115050000D03*
X136350000Y-115050000D03*
X137650000Y-115050000D03*
X138950000Y-115050000D03*
X140250000Y-115050000D03*
X141550000Y-115050000D03*
X142850000Y-115050000D03*
X144150000Y-115050000D03*
X145450000Y-115050000D03*
X146750000Y-115050000D03*
X148050000Y-115050000D03*
X149350000Y-115050000D03*
X150650000Y-115050000D03*
X151950000Y-115050000D03*
X153250000Y-115050000D03*
X154550000Y-115050000D03*
D31*
X136800000Y-119700000D03*
X136800000Y-124500000D03*
X136800000Y-129300000D03*
X136800000Y-134100000D03*
X136800000Y-138900000D03*
X140000000Y-119700000D03*
X140000000Y-124500000D03*
X140000000Y-129300000D03*
X140000000Y-134100000D03*
X140000000Y-138900000D03*
X143400000Y-119700000D03*
X143400000Y-124500000D03*
X143400000Y-134100000D03*
X143400000Y-138900000D03*
X146600000Y-119700000D03*
X146600000Y-124500000D03*
X146600000Y-134100000D03*
X146600000Y-138900000D03*
X150000000Y-119700000D03*
X150000000Y-124500000D03*
X150000000Y-129300000D03*
X150000000Y-134100000D03*
X150000000Y-138900000D03*
X153200000Y-124500000D03*
X153200000Y-129300000D03*
X153200000Y-134100000D03*
X153200000Y-138900000D03*
D30*
X155850000Y-115050000D03*
X157150000Y-115050000D03*
X155850000Y-143550000D03*
X157150000Y-143550000D03*
D32*
X156000000Y-118300000D03*
X156000000Y-120300000D03*
X156000000Y-122300000D03*
X156000000Y-124300000D03*
X156000000Y-126300000D03*
X156000000Y-128300000D03*
X156000000Y-130300000D03*
X156000000Y-132300000D03*
X156000000Y-134300000D03*
X156000000Y-136300000D03*
X156000000Y-138300000D03*
X156000000Y-140300000D03*
X158000000Y-118300000D03*
X158000000Y-120300000D03*
X158000000Y-122300000D03*
X158000000Y-124300000D03*
X158000000Y-126300000D03*
X158000000Y-128300000D03*
X158000000Y-130300000D03*
X158000000Y-132300000D03*
X158000000Y-134300000D03*
X158000000Y-136300000D03*
X158000000Y-138300000D03*
X158000000Y-140300000D03*
D29*
X160750000Y-126300000D03*
X160750000Y-127600000D03*
X129250000Y-127600000D03*
X129250000Y-126300000D03*
%TD*%
D18*
%TO.C,R15*%
X136050000Y-90725000D03*
X136050000Y-92375000D03*
%TD*%
D33*
%TO.C,D3*%
X134300000Y-92337500D03*
X134300000Y-90762500D03*
%TD*%
D26*
%TO.C,D1*%
X134412500Y-94150000D03*
X135987500Y-94150000D03*
%TD*%
D34*
%TO.C,U1*%
X157062500Y-110350000D03*
X157062500Y-109400000D03*
X157062500Y-108450000D03*
X159337500Y-108450000D03*
X159337500Y-109400000D03*
X159337500Y-110350000D03*
%TD*%
D23*
%TO.C,C2*%
X161275000Y-112150000D03*
X159725000Y-112150000D03*
%TD*%
M02*
