%TF.GenerationSoftware,KiCad,Pcbnew,(6.0.2-0)*%
%TF.CreationDate,2022-10-29T16:02:38+01:00*%
%TF.ProjectId,p3-cellular-module,70332d63-656c-46c7-956c-61722d6d6f64,rev?*%
%TF.SameCoordinates,Original*%
%TF.FileFunction,Paste,Top*%
%TF.FilePolarity,Positive*%
%FSLAX46Y46*%
G04 Gerber Fmt 4.6, Leading zero omitted, Abs format (unit mm)*
G04 Created by KiCad (PCBNEW (6.0.2-0)) date 2022-10-29 16:02:38*
%MOMM*%
%LPD*%
G01*
G04 APERTURE LIST*
G04 Aperture macros list*
%AMRoundRect*
0 Rectangle with rounded corners*
0 $1 Rounding radius*
0 $2 $3 $4 $5 $6 $7 $8 $9 X,Y pos of 4 corners*
0 Add a 4 corners polygon primitive as box body*
4,1,4,$2,$3,$4,$5,$6,$7,$8,$9,$2,$3,0*
0 Add four circle primitives for the rounded corners*
1,1,$1+$1,$2,$3*
1,1,$1+$1,$4,$5*
1,1,$1+$1,$6,$7*
1,1,$1+$1,$8,$9*
0 Add four rect primitives between the rounded corners*
20,1,$1+$1,$2,$3,$4,$5,0*
20,1,$1+$1,$4,$5,$6,$7,0*
20,1,$1+$1,$6,$7,$8,$9,0*
20,1,$1+$1,$8,$9,$2,$3,0*%
G04 Aperture macros list end*
%ADD10RoundRect,0.200000X0.200000X0.275000X-0.200000X0.275000X-0.200000X-0.275000X0.200000X-0.275000X0*%
%ADD11RoundRect,0.200000X-0.275000X0.200000X-0.275000X-0.200000X0.275000X-0.200000X0.275000X0.200000X0*%
%ADD12R,1.200000X0.900000*%
%ADD13R,1.800000X1.300000*%
%ADD14RoundRect,0.225000X0.250000X-0.225000X0.250000X0.225000X-0.250000X0.225000X-0.250000X-0.225000X0*%
%ADD15RoundRect,0.225000X-0.225000X-0.250000X0.225000X-0.250000X0.225000X0.250000X-0.225000X0.250000X0*%
%ADD16RoundRect,0.150000X-0.150000X0.512500X-0.150000X-0.512500X0.150000X-0.512500X0.150000X0.512500X0*%
%ADD17RoundRect,0.200000X-0.200000X-0.275000X0.200000X-0.275000X0.200000X0.275000X-0.200000X0.275000X0*%
%ADD18RoundRect,0.150000X-0.150000X0.587500X-0.150000X-0.587500X0.150000X-0.587500X0.150000X0.587500X0*%
G04 APERTURE END LIST*
D10*
%TO.C,R7*%
X136325000Y-92350000D03*
X134675000Y-92350000D03*
%TD*%
D11*
%TO.C,R10*%
X154800000Y-111275000D03*
X154800000Y-112925000D03*
%TD*%
D12*
%TO.C,J2*%
X148845000Y-107775000D03*
X148845000Y-110315000D03*
X148845000Y-112855000D03*
X148845000Y-109045000D03*
X148845000Y-111585000D03*
X148845000Y-114125000D03*
D13*
X144745000Y-104800000D03*
X144745000Y-117100000D03*
X135945000Y-117100000D03*
X135945000Y-104800000D03*
%TD*%
D14*
%TO.C,C13*%
X151100000Y-107675000D03*
X151100000Y-106125000D03*
%TD*%
D15*
%TO.C,C16*%
X151075000Y-114000000D03*
X152625000Y-114000000D03*
%TD*%
%TO.C,C18*%
X157975000Y-109600000D03*
X159525000Y-109600000D03*
%TD*%
D16*
%TO.C,U3*%
X141150000Y-91712500D03*
X140200000Y-91712500D03*
X139250000Y-91712500D03*
X139250000Y-93987500D03*
X140200000Y-93987500D03*
X141150000Y-93987500D03*
%TD*%
D17*
%TO.C,R9*%
X151025000Y-115800000D03*
X152675000Y-115800000D03*
%TD*%
%TO.C,R8*%
X156475000Y-107700000D03*
X158125000Y-107700000D03*
%TD*%
%TO.C,R12*%
X154725000Y-109600000D03*
X156375000Y-109600000D03*
%TD*%
D10*
%TO.C,R6*%
X136325000Y-90650000D03*
X134675000Y-90650000D03*
%TD*%
D17*
%TO.C,R5*%
X130775000Y-94550000D03*
X132425000Y-94550000D03*
%TD*%
D14*
%TO.C,C15*%
X154800000Y-107675000D03*
X154800000Y-106125000D03*
%TD*%
D18*
%TO.C,Q1*%
X132600000Y-90762500D03*
X130700000Y-90762500D03*
X131650000Y-92637500D03*
%TD*%
D14*
%TO.C,C4*%
X153000000Y-107675000D03*
X153000000Y-106125000D03*
%TD*%
D16*
%TO.C,D4*%
X152995000Y-109762500D03*
X152045000Y-109762500D03*
X151095000Y-109762500D03*
X151095000Y-112037500D03*
X152045000Y-112037500D03*
X152995000Y-112037500D03*
%TD*%
M02*
