%TF.GenerationSoftware,KiCad,Pcbnew,(6.0.2-0)*%
%TF.CreationDate,2022-10-29T16:02:39+01:00*%
%TF.ProjectId,p3-cellular-module,70332d63-656c-46c7-956c-61722d6d6f64,rev?*%
%TF.SameCoordinates,Original*%
%TF.FileFunction,Profile,NP*%
%FSLAX46Y46*%
G04 Gerber Fmt 4.6, Leading zero omitted, Abs format (unit mm)*
G04 Created by KiCad (PCBNEW (6.0.2-0)) date 2022-10-29 16:02:39*
%MOMM*%
%LPD*%
G01*
G04 APERTURE LIST*
%TA.AperFunction,Profile*%
%ADD10C,0.100000*%
%TD*%
G04 APERTURE END LIST*
D10*
X163600000Y-102600000D02*
G75*
G03*
X163000000Y-102000000I-631915J-31915D01*
G01*
X138100000Y-98807107D02*
X138592893Y-98807107D01*
X163300000Y-108900000D02*
X164992893Y-108900000D01*
X128396447Y-96300000D02*
G75*
G03*
X129096447Y-95536296I26483J678383D01*
G01*
X153081282Y-103200000D02*
X147081282Y-103200000D01*
X166000000Y-101807107D02*
X166000000Y-107907107D01*
X126700000Y-108900000D02*
X125007125Y-108899267D01*
X125000000Y-100807107D02*
X128592893Y-100807107D01*
X153081282Y-103200000D02*
G75*
G03*
X153681282Y-102600000I0J600000D01*
G01*
X158592893Y-100807107D02*
G75*
G03*
X159592893Y-99807107I1J999999D01*
G01*
X156400000Y-102600000D02*
G75*
G03*
X157000000Y-103200000I631915J31915D01*
G01*
X142085786Y-98807106D02*
G75*
G03*
X143092893Y-97807107I4J1007128D01*
G01*
X141600000Y-100800000D02*
X145292893Y-100807107D01*
X145292893Y-100807107D02*
X148592893Y-100807107D01*
X157092893Y-97000000D02*
G75*
G03*
X156192893Y-96000000I-1021689J-14520D01*
G01*
X143092893Y-97807107D02*
X143100000Y-97000000D01*
X147100000Y-97000000D02*
X147092893Y-97807107D01*
X161600000Y-100800000D02*
X165000000Y-100807107D01*
X147092892Y-97807107D02*
G75*
G03*
X148100000Y-98807107I1007104J7129D01*
G01*
X153681282Y-102600000D02*
G75*
G03*
X153081282Y-102000000I-631915J-31915D01*
G01*
X127700000Y-144100000D02*
G75*
G03*
X128700000Y-145100000I999999J-1D01*
G01*
X152085786Y-98807106D02*
G75*
G03*
X153092893Y-97807107I4J1007128D01*
G01*
X143081282Y-103200000D02*
G75*
G03*
X143681282Y-102600000I0J600000D01*
G01*
X161800000Y-96300000D02*
X162300000Y-96300000D01*
X154092893Y-96000000D02*
G75*
G03*
X153092893Y-97000000I136296J-1136296D01*
G01*
X161100000Y-95536296D02*
G75*
G03*
X161800000Y-96300000I673517J-85321D01*
G01*
X129103554Y-90250000D02*
X129096447Y-95536296D01*
X149592893Y-99807107D02*
G75*
G03*
X148592893Y-98807107I-999999J1D01*
G01*
X131600000Y-100800000D02*
X135292893Y-100807107D01*
X127700000Y-144100000D02*
X127700000Y-109900000D01*
X140592894Y-99807107D02*
G75*
G03*
X141600000Y-100800000I1007102J14311D01*
G01*
X133700000Y-102600000D02*
G75*
G03*
X133100000Y-102000000I-631915J-31915D01*
G01*
X124000000Y-107909306D02*
X124000000Y-101807107D01*
X151592893Y-98807107D02*
X152085786Y-98807107D01*
X131592893Y-98807107D02*
G75*
G03*
X130592893Y-99807107I-1J-999999D01*
G01*
X148592893Y-100807107D02*
G75*
G03*
X149592893Y-99807107I1J999999D01*
G01*
X164992893Y-108900000D02*
G75*
G03*
X166000000Y-107907107I1J1007208D01*
G01*
X141592893Y-98807107D02*
X142085786Y-98807107D01*
X137081282Y-102000000D02*
G75*
G03*
X136481282Y-102600000I0J-600000D01*
G01*
X130100000Y-89250000D02*
X160262197Y-89250000D01*
X146192893Y-96000000D02*
X144092893Y-96000000D01*
X138592893Y-100807107D02*
G75*
G03*
X139592893Y-99807107I1J999999D01*
G01*
X154092893Y-96000000D02*
X156192893Y-96000000D01*
X147081282Y-102000000D02*
X153081282Y-102000000D01*
X128592893Y-100807107D02*
G75*
G03*
X129592893Y-99807107I1J999999D01*
G01*
X159592893Y-99807107D02*
G75*
G03*
X158592893Y-98807107I-999999J1D01*
G01*
X151600000Y-100800000D02*
X155292893Y-100807107D01*
X137081282Y-102000000D02*
X143081282Y-102000000D01*
X139592893Y-99807107D02*
G75*
G03*
X138592893Y-98807107I-999999J1D01*
G01*
X127100000Y-102000000D02*
X133100000Y-102000000D01*
X126500000Y-102600000D02*
G75*
G03*
X127100000Y-103200000I631915J31915D01*
G01*
X146481282Y-102600000D02*
G75*
G03*
X147081282Y-103200000I631915J31915D01*
G01*
X137092892Y-97807107D02*
G75*
G03*
X138100000Y-98807107I1007104J7129D01*
G01*
X127092892Y-97807107D02*
G75*
G03*
X128100000Y-98807107I1007104J7129D01*
G01*
X143081282Y-103200000D02*
X137081282Y-103200000D01*
X136481282Y-102600000D02*
G75*
G03*
X137081282Y-103200000I631915J31915D01*
G01*
X137092893Y-97000000D02*
X137092893Y-97807107D01*
X127892893Y-96300000D02*
G75*
G03*
X127100000Y-97000000I60052J-867078D01*
G01*
X125000000Y-100807107D02*
G75*
G03*
X124000000Y-101807107I14416J-1014416D01*
G01*
X141592893Y-98807107D02*
G75*
G03*
X140592893Y-99807107I-1J-999999D01*
G01*
X136192893Y-96000000D02*
X134092893Y-96000000D01*
X161100000Y-90250000D02*
G75*
G03*
X160262197Y-89250000I-951280J53972D01*
G01*
X157092892Y-97807107D02*
G75*
G03*
X158100000Y-98807107I1007104J7129D01*
G01*
X160592894Y-99807107D02*
G75*
G03*
X161600000Y-100800000I1007102J14311D01*
G01*
X129592893Y-99807107D02*
G75*
G03*
X128592893Y-98807107I-999999J1D01*
G01*
X161592893Y-98807107D02*
G75*
G03*
X160592893Y-99807107I-1J-999999D01*
G01*
X133092893Y-97807107D02*
X133092893Y-97000000D01*
X130100000Y-89250000D02*
G75*
G03*
X129103554Y-90250000I11532J-1007943D01*
G01*
X157092893Y-97000000D02*
X157092893Y-97807107D01*
X157000000Y-102000000D02*
G75*
G03*
X156400000Y-102600000I0J-600000D01*
G01*
X151592893Y-98807107D02*
G75*
G03*
X150592893Y-99807107I-1J-999999D01*
G01*
X132085786Y-98807106D02*
G75*
G03*
X133092893Y-97807107I4J1007128D01*
G01*
X135292893Y-100807107D02*
X138592893Y-100807107D01*
X128100000Y-98807107D02*
X128592893Y-98807107D01*
X127892893Y-96300000D02*
X128396447Y-96300000D01*
X163300000Y-108900000D02*
G75*
G03*
X162300000Y-109900000I-1J-999999D01*
G01*
X163000000Y-103200000D02*
G75*
G03*
X163600000Y-102600000I0J600000D01*
G01*
X163000000Y-103200000D02*
X157000000Y-103200000D01*
X147100001Y-97000000D02*
G75*
G03*
X146192893Y-96000000I-1029786J-22704D01*
G01*
X162300000Y-109900000D02*
X162300000Y-144100000D01*
X163100000Y-97000000D02*
G75*
G03*
X162300000Y-96300000I-715135J-10154D01*
G01*
X161100000Y-95536296D02*
X161100000Y-90250000D01*
X153092893Y-97807107D02*
X153092893Y-97000000D01*
X157000000Y-102000000D02*
X163000000Y-102000000D01*
X147081282Y-102000000D02*
G75*
G03*
X146481282Y-102600000I0J-600000D01*
G01*
X155292893Y-100807107D02*
X158592893Y-100807107D01*
X137092893Y-97000000D02*
G75*
G03*
X136192893Y-96000000I-1021689J-14520D01*
G01*
X124000000Y-107909306D02*
G75*
G03*
X125007125Y-108899267I1007121J17309D01*
G01*
X127700000Y-109900000D02*
G75*
G03*
X126700000Y-108900000I-999999J1D01*
G01*
X133100000Y-103200000D02*
X127100000Y-103200000D01*
X148100000Y-98807107D02*
X148592893Y-98807107D01*
X130592894Y-99807107D02*
G75*
G03*
X131600000Y-100800000I1007102J14311D01*
G01*
X161592893Y-98807107D02*
X162092893Y-98807107D01*
X134092893Y-96000000D02*
G75*
G03*
X133092893Y-97000000I136296J-1136296D01*
G01*
X162092893Y-98807106D02*
G75*
G03*
X163100000Y-97807107I4J1007128D01*
G01*
X161300000Y-145100000D02*
G75*
G03*
X162300000Y-144100000I1J999999D01*
G01*
X131592893Y-98807107D02*
X132085786Y-98807107D01*
X144092893Y-96000000D02*
G75*
G03*
X143100000Y-97000000I135197J-1127155D01*
G01*
X127100000Y-97000000D02*
X127092893Y-97807107D01*
X150592894Y-99807107D02*
G75*
G03*
X151600000Y-100800000I1007102J14311D01*
G01*
X133100000Y-103200000D02*
G75*
G03*
X133700000Y-102600000I0J600000D01*
G01*
X163100000Y-97807107D02*
X163100000Y-97000000D01*
X127100000Y-102000000D02*
G75*
G03*
X126500000Y-102600000I0J-600000D01*
G01*
X166000000Y-101807107D02*
G75*
G03*
X165000000Y-100807107I-999999J1D01*
G01*
X143681282Y-102600000D02*
G75*
G03*
X143081282Y-102000000I-631915J-31915D01*
G01*
X128700000Y-145100000D02*
X161300000Y-145100000D01*
X158100000Y-98807107D02*
X158592893Y-98807107D01*
M02*
