%TF.GenerationSoftware,KiCad,Pcbnew,(6.0.2-0)*%
%TF.CreationDate,2022-10-29T16:02:38+01:00*%
%TF.ProjectId,p3-cellular-module,70332d63-656c-46c7-956c-61722d6d6f64,rev?*%
%TF.SameCoordinates,Original*%
%TF.FileFunction,Legend,Top*%
%TF.FilePolarity,Positive*%
%FSLAX46Y46*%
G04 Gerber Fmt 4.6, Leading zero omitted, Abs format (unit mm)*
G04 Created by KiCad (PCBNEW (6.0.2-0)) date 2022-10-29 16:02:38*
%MOMM*%
%LPD*%
G01*
G04 APERTURE LIST*
G04 Aperture macros list*
%AMRoundRect*
0 Rectangle with rounded corners*
0 $1 Rounding radius*
0 $2 $3 $4 $5 $6 $7 $8 $9 X,Y pos of 4 corners*
0 Add a 4 corners polygon primitive as box body*
4,1,4,$2,$3,$4,$5,$6,$7,$8,$9,$2,$3,0*
0 Add four circle primitives for the rounded corners*
1,1,$1+$1,$2,$3*
1,1,$1+$1,$4,$5*
1,1,$1+$1,$6,$7*
1,1,$1+$1,$8,$9*
0 Add four rect primitives between the rounded corners*
20,1,$1+$1,$2,$3,$4,$5,0*
20,1,$1+$1,$4,$5,$6,$7,0*
20,1,$1+$1,$6,$7,$8,$9,0*
20,1,$1+$1,$8,$9,$2,$3,0*%
G04 Aperture macros list end*
%ADD10C,0.150000*%
%ADD11C,0.125000*%
%ADD12C,0.120000*%
%ADD13C,0.187500*%
%ADD14C,0.200000*%
%ADD15C,0.240000*%
%ADD16C,0.000000*%
%ADD17RoundRect,0.200000X0.200000X0.275000X-0.200000X0.275000X-0.200000X-0.275000X0.200000X-0.275000X0*%
%ADD18RoundRect,0.200000X-0.275000X0.200000X-0.275000X-0.200000X0.275000X-0.200000X0.275000X0.200000X0*%
%ADD19R,1.200000X0.900000*%
%ADD20R,1.800000X1.300000*%
%ADD21C,3.800000*%
%ADD22R,1.000000X1.000000*%
%ADD23RoundRect,0.225000X0.250000X-0.225000X0.250000X0.225000X-0.250000X0.225000X-0.250000X-0.225000X0*%
%ADD24RoundRect,0.225000X-0.225000X-0.250000X0.225000X-0.250000X0.225000X0.250000X-0.225000X0.250000X0*%
%ADD25RoundRect,0.150000X-0.150000X0.512500X-0.150000X-0.512500X0.150000X-0.512500X0.150000X0.512500X0*%
%ADD26RoundRect,0.200000X-0.200000X-0.275000X0.200000X-0.275000X0.200000X0.275000X-0.200000X0.275000X0*%
%ADD27R,1.350000X1.350000*%
%ADD28O,1.350000X1.350000*%
%ADD29RoundRect,0.150000X-0.150000X0.587500X-0.150000X-0.587500X0.150000X-0.587500X0.150000X0.587500X0*%
G04 APERTURE END LIST*
D10*
X134200000Y-107750000D02*
X134200000Y-105850000D01*
X149625000Y-142450000D02*
X151025000Y-142450000D01*
X151025000Y-142450000D02*
X151025000Y-143850000D01*
X151025000Y-143850000D02*
X149625000Y-143850000D01*
X149625000Y-143850000D02*
X149625000Y-142450000D01*
X131975000Y-107750000D02*
X134200000Y-107750000D01*
X131200000Y-105850000D02*
X131200000Y-107025000D01*
X134200000Y-105850000D02*
X131200000Y-105850000D01*
X131975000Y-107750000D02*
X131225000Y-107050000D01*
D11*
X157725000Y-93675297D02*
X157701190Y-93722916D01*
X157701190Y-93794345D01*
X157725000Y-93865773D01*
X157772619Y-93913392D01*
X157820238Y-93937202D01*
X157915476Y-93961011D01*
X157986904Y-93961011D01*
X158082142Y-93937202D01*
X158129761Y-93913392D01*
X158177380Y-93865773D01*
X158201190Y-93794345D01*
X158201190Y-93746726D01*
X158177380Y-93675297D01*
X158153571Y-93651488D01*
X157986904Y-93651488D01*
X157986904Y-93746726D01*
X154350000Y-103024107D02*
X154326190Y-103071726D01*
X154326190Y-103143154D01*
X154350000Y-103214583D01*
X154397619Y-103262202D01*
X154445238Y-103286011D01*
X154540476Y-103309821D01*
X154611904Y-103309821D01*
X154707142Y-103286011D01*
X154754761Y-103262202D01*
X154802380Y-103214583D01*
X154826190Y-103143154D01*
X154826190Y-103095535D01*
X154802380Y-103024107D01*
X154778571Y-103000297D01*
X154611904Y-103000297D01*
X154611904Y-103095535D01*
X154826190Y-102786011D02*
X154326190Y-102786011D01*
X154826190Y-102500297D01*
X154326190Y-102500297D01*
X154826190Y-102262202D02*
X154326190Y-102262202D01*
X154326190Y-102143154D01*
X154350000Y-102071726D01*
X154397619Y-102024107D01*
X154445238Y-102000297D01*
X154540476Y-101976488D01*
X154611904Y-101976488D01*
X154707142Y-102000297D01*
X154754761Y-102024107D01*
X154802380Y-102071726D01*
X154826190Y-102143154D01*
X154826190Y-102262202D01*
X152175892Y-95050000D02*
X152128273Y-95026190D01*
X152056845Y-95026190D01*
X151985416Y-95050000D01*
X151937797Y-95097619D01*
X151913988Y-95145238D01*
X151890178Y-95240476D01*
X151890178Y-95311904D01*
X151913988Y-95407142D01*
X151937797Y-95454761D01*
X151985416Y-95502380D01*
X152056845Y-95526190D01*
X152104464Y-95526190D01*
X152175892Y-95502380D01*
X152199702Y-95478571D01*
X152199702Y-95311904D01*
X152104464Y-95311904D01*
X152413988Y-95526190D02*
X152413988Y-95026190D01*
X152699702Y-95526190D01*
X152699702Y-95026190D01*
X152937797Y-95526190D02*
X152937797Y-95026190D01*
X153056845Y-95026190D01*
X153128273Y-95050000D01*
X153175892Y-95097619D01*
X153199702Y-95145238D01*
X153223511Y-95240476D01*
X153223511Y-95311904D01*
X153199702Y-95407142D01*
X153175892Y-95454761D01*
X153128273Y-95502380D01*
X153056845Y-95526190D01*
X152937797Y-95526190D01*
D12*
X129285535Y-108499428D02*
X128535535Y-108499428D01*
X129285535Y-108070857D01*
X128535535Y-108070857D01*
X129071250Y-107749428D02*
X129071250Y-107392285D01*
X129285535Y-107820857D02*
X128535535Y-107570857D01*
X129285535Y-107320857D01*
X129285535Y-107070857D02*
X128535535Y-107070857D01*
X129285535Y-106642285D01*
X128535535Y-106642285D01*
X128535535Y-106142285D02*
X128535535Y-105999428D01*
X128571250Y-105928000D01*
X128642678Y-105856571D01*
X128785535Y-105820857D01*
X129035535Y-105820857D01*
X129178392Y-105856571D01*
X129249821Y-105928000D01*
X129285535Y-105999428D01*
X129285535Y-106142285D01*
X129249821Y-106213714D01*
X129178392Y-106285142D01*
X129035535Y-106320857D01*
X128785535Y-106320857D01*
X128642678Y-106285142D01*
X128571250Y-106213714D01*
X128535535Y-106142285D01*
X130457321Y-107463714D02*
X130493035Y-107356571D01*
X130493035Y-107178000D01*
X130457321Y-107106571D01*
X130421607Y-107070857D01*
X130350178Y-107035142D01*
X130278750Y-107035142D01*
X130207321Y-107070857D01*
X130171607Y-107106571D01*
X130135892Y-107178000D01*
X130100178Y-107320857D01*
X130064464Y-107392285D01*
X130028750Y-107428000D01*
X129957321Y-107463714D01*
X129885892Y-107463714D01*
X129814464Y-107428000D01*
X129778750Y-107392285D01*
X129743035Y-107320857D01*
X129743035Y-107142285D01*
X129778750Y-107035142D01*
X130493035Y-106713714D02*
X129743035Y-106713714D01*
X130493035Y-106356571D02*
X129743035Y-106356571D01*
X130278750Y-106106571D01*
X129743035Y-105856571D01*
X130493035Y-105856571D01*
X155110714Y-143464285D02*
X155110714Y-142714285D01*
X155110714Y-143428571D02*
X155039285Y-143464285D01*
X154896428Y-143464285D01*
X154825000Y-143428571D01*
X154789285Y-143392857D01*
X154753571Y-143321428D01*
X154753571Y-143107142D01*
X154789285Y-143035714D01*
X154825000Y-143000000D01*
X154896428Y-142964285D01*
X155039285Y-142964285D01*
X155110714Y-143000000D01*
X155789285Y-143464285D02*
X155789285Y-143071428D01*
X155753571Y-143000000D01*
X155682142Y-142964285D01*
X155539285Y-142964285D01*
X155467857Y-143000000D01*
X155789285Y-143428571D02*
X155717857Y-143464285D01*
X155539285Y-143464285D01*
X155467857Y-143428571D01*
X155432142Y-143357142D01*
X155432142Y-143285714D01*
X155467857Y-143214285D01*
X155539285Y-143178571D01*
X155717857Y-143178571D01*
X155789285Y-143142857D01*
X156146428Y-143464285D02*
X156146428Y-142964285D01*
X156146428Y-143035714D02*
X156182142Y-143000000D01*
X156253571Y-142964285D01*
X156360714Y-142964285D01*
X156432142Y-143000000D01*
X156467857Y-143071428D01*
X156467857Y-143464285D01*
X156467857Y-143071428D02*
X156503571Y-143000000D01*
X156575000Y-142964285D01*
X156682142Y-142964285D01*
X156753571Y-143000000D01*
X156789285Y-143071428D01*
X156789285Y-143464285D01*
X157253571Y-143464285D02*
X157182142Y-143428571D01*
X157146428Y-143392857D01*
X157110714Y-143321428D01*
X157110714Y-143107142D01*
X157146428Y-143035714D01*
X157182142Y-143000000D01*
X157253571Y-142964285D01*
X157360714Y-142964285D01*
X157432142Y-143000000D01*
X157467857Y-143035714D01*
X157503571Y-143107142D01*
X157503571Y-143321428D01*
X157467857Y-143392857D01*
X157432142Y-143428571D01*
X157360714Y-143464285D01*
X157253571Y-143464285D01*
X157753571Y-142964285D02*
X157896428Y-143464285D01*
X158039285Y-143107142D01*
X158182142Y-143464285D01*
X158325000Y-142964285D01*
X158610714Y-143392857D02*
X158646428Y-143428571D01*
X158610714Y-143464285D01*
X158575000Y-143428571D01*
X158610714Y-143392857D01*
X158610714Y-143464285D01*
X158967857Y-142964285D02*
X158967857Y-143464285D01*
X158967857Y-143035714D02*
X159003571Y-143000000D01*
X159075000Y-142964285D01*
X159182142Y-142964285D01*
X159253571Y-143000000D01*
X159289285Y-143071428D01*
X159289285Y-143464285D01*
X159932142Y-143428571D02*
X159860714Y-143464285D01*
X159717857Y-143464285D01*
X159646428Y-143428571D01*
X159610714Y-143357142D01*
X159610714Y-143071428D01*
X159646428Y-143000000D01*
X159717857Y-142964285D01*
X159860714Y-142964285D01*
X159932142Y-143000000D01*
X159967857Y-143071428D01*
X159967857Y-143142857D01*
X159610714Y-143214285D01*
X160182142Y-142964285D02*
X160467857Y-142964285D01*
X160289285Y-142714285D02*
X160289285Y-143357142D01*
X160325000Y-143428571D01*
X160396428Y-143464285D01*
X160467857Y-143464285D01*
D11*
X144519940Y-101651190D02*
X144519940Y-102055952D01*
X144543750Y-102103571D01*
X144567559Y-102127380D01*
X144615178Y-102151190D01*
X144710416Y-102151190D01*
X144758035Y-102127380D01*
X144781845Y-102103571D01*
X144805654Y-102055952D01*
X144805654Y-101651190D01*
X145043750Y-101960714D02*
X145424702Y-101960714D01*
X133709226Y-95576190D02*
X133709226Y-95076190D01*
X133899702Y-95076190D01*
X133947321Y-95100000D01*
X133971130Y-95123809D01*
X133994940Y-95171428D01*
X133994940Y-95242857D01*
X133971130Y-95290476D01*
X133947321Y-95314285D01*
X133899702Y-95338095D01*
X133709226Y-95338095D01*
X134209226Y-95576190D02*
X134209226Y-95076190D01*
X134494940Y-95576190D02*
X134280654Y-95290476D01*
X134494940Y-95076190D02*
X134209226Y-95361904D01*
X134804464Y-95338095D02*
X134804464Y-95576190D01*
X134637797Y-95076190D02*
X134804464Y-95338095D01*
X134971130Y-95076190D01*
X153701190Y-93955059D02*
X154105952Y-93955059D01*
X154153571Y-93931250D01*
X154177380Y-93907440D01*
X154201190Y-93859821D01*
X154201190Y-93764583D01*
X154177380Y-93716964D01*
X154153571Y-93693154D01*
X154105952Y-93669345D01*
X153701190Y-93669345D01*
X154010714Y-93431250D02*
X154010714Y-93050297D01*
X154201190Y-93240773D02*
X153820238Y-93240773D01*
X144494940Y-103226190D02*
X144494940Y-103630952D01*
X144518750Y-103678571D01*
X144542559Y-103702380D01*
X144590178Y-103726190D01*
X144685416Y-103726190D01*
X144733035Y-103702380D01*
X144756845Y-103678571D01*
X144780654Y-103630952D01*
X144780654Y-103226190D01*
X145018750Y-103535714D02*
X145399702Y-103535714D01*
X145209226Y-103726190D02*
X145209226Y-103345238D01*
D13*
X138567857Y-143539285D02*
X138567857Y-142789285D01*
X138853571Y-142789285D01*
X138925000Y-142825000D01*
X138960714Y-142860714D01*
X138996428Y-142932142D01*
X138996428Y-143039285D01*
X138960714Y-143110714D01*
X138925000Y-143146428D01*
X138853571Y-143182142D01*
X138567857Y-143182142D01*
X139246428Y-142789285D02*
X139710714Y-142789285D01*
X139460714Y-143075000D01*
X139567857Y-143075000D01*
X139639285Y-143110714D01*
X139675000Y-143146428D01*
X139710714Y-143217857D01*
X139710714Y-143396428D01*
X139675000Y-143467857D01*
X139639285Y-143503571D01*
X139567857Y-143539285D01*
X139353571Y-143539285D01*
X139282142Y-143503571D01*
X139246428Y-143467857D01*
X140032142Y-143253571D02*
X140603571Y-143253571D01*
X141389285Y-143467857D02*
X141353571Y-143503571D01*
X141246428Y-143539285D01*
X141175000Y-143539285D01*
X141067857Y-143503571D01*
X140996428Y-143432142D01*
X140960714Y-143360714D01*
X140925000Y-143217857D01*
X140925000Y-143110714D01*
X140960714Y-142967857D01*
X140996428Y-142896428D01*
X141067857Y-142825000D01*
X141175000Y-142789285D01*
X141246428Y-142789285D01*
X141353571Y-142825000D01*
X141389285Y-142860714D01*
X141710714Y-143146428D02*
X141960714Y-143146428D01*
X142067857Y-143539285D02*
X141710714Y-143539285D01*
X141710714Y-142789285D01*
X142067857Y-142789285D01*
X142746428Y-143539285D02*
X142389285Y-143539285D01*
X142389285Y-142789285D01*
X143353571Y-143539285D02*
X142996428Y-143539285D01*
X142996428Y-142789285D01*
X143603571Y-142789285D02*
X143603571Y-143396428D01*
X143639285Y-143467857D01*
X143675000Y-143503571D01*
X143746428Y-143539285D01*
X143889285Y-143539285D01*
X143960714Y-143503571D01*
X143996428Y-143467857D01*
X144032142Y-143396428D01*
X144032142Y-142789285D01*
X144746428Y-143539285D02*
X144389285Y-143539285D01*
X144389285Y-142789285D01*
X144960714Y-143325000D02*
X145317857Y-143325000D01*
X144889285Y-143539285D02*
X145139285Y-142789285D01*
X145389285Y-143539285D01*
X146067857Y-143539285D02*
X145817857Y-143182142D01*
X145639285Y-143539285D02*
X145639285Y-142789285D01*
X145925000Y-142789285D01*
X145996428Y-142825000D01*
X146032142Y-142860714D01*
X146067857Y-142932142D01*
X146067857Y-143039285D01*
X146032142Y-143110714D01*
X145996428Y-143146428D01*
X145925000Y-143182142D01*
X145639285Y-143182142D01*
D11*
X159726190Y-93678869D02*
X159726190Y-93916964D01*
X159964285Y-93940773D01*
X159940476Y-93916964D01*
X159916666Y-93869345D01*
X159916666Y-93750297D01*
X159940476Y-93702678D01*
X159964285Y-93678869D01*
X160011904Y-93655059D01*
X160130952Y-93655059D01*
X160178571Y-93678869D01*
X160202380Y-93702678D01*
X160226190Y-93750297D01*
X160226190Y-93869345D01*
X160202380Y-93916964D01*
X160178571Y-93940773D01*
X159726190Y-93512202D02*
X160226190Y-93345535D01*
X159726190Y-93178869D01*
X159521130Y-95026190D02*
X159283035Y-95026190D01*
X159259226Y-95264285D01*
X159283035Y-95240476D01*
X159330654Y-95216666D01*
X159449702Y-95216666D01*
X159497321Y-95240476D01*
X159521130Y-95264285D01*
X159544940Y-95311904D01*
X159544940Y-95430952D01*
X159521130Y-95478571D01*
X159497321Y-95502380D01*
X159449702Y-95526190D01*
X159330654Y-95526190D01*
X159283035Y-95502380D01*
X159259226Y-95478571D01*
X159687797Y-95026190D02*
X159854464Y-95526190D01*
X160021130Y-95026190D01*
D12*
X150121428Y-143300000D02*
X150478571Y-143300000D01*
X150050000Y-143514285D02*
X150300000Y-142764285D01*
X150550000Y-143514285D01*
X147585714Y-143514285D02*
X147585714Y-142764285D01*
X147907142Y-143478571D02*
X148014285Y-143514285D01*
X148192857Y-143514285D01*
X148264285Y-143478571D01*
X148300000Y-143442857D01*
X148335714Y-143371428D01*
X148335714Y-143300000D01*
X148300000Y-143228571D01*
X148264285Y-143192857D01*
X148192857Y-143157142D01*
X148050000Y-143121428D01*
X147978571Y-143085714D01*
X147942857Y-143050000D01*
X147907142Y-142978571D01*
X147907142Y-142907142D01*
X147942857Y-142835714D01*
X147978571Y-142800000D01*
X148050000Y-142764285D01*
X148228571Y-142764285D01*
X148335714Y-142800000D01*
X148621428Y-143478571D02*
X148728571Y-143514285D01*
X148907142Y-143514285D01*
X148978571Y-143478571D01*
X149014285Y-143442857D01*
X149050000Y-143371428D01*
X149050000Y-143300000D01*
X149014285Y-143228571D01*
X148978571Y-143192857D01*
X148907142Y-143157142D01*
X148764285Y-143121428D01*
X148692857Y-143085714D01*
X148657142Y-143050000D01*
X148621428Y-142978571D01*
X148621428Y-142907142D01*
X148657142Y-142835714D01*
X148692857Y-142800000D01*
X148764285Y-142764285D01*
X148942857Y-142764285D01*
X149050000Y-142800000D01*
D11*
X142469940Y-95051190D02*
X142469940Y-95455952D01*
X142493750Y-95503571D01*
X142517559Y-95527380D01*
X142565178Y-95551190D01*
X142660416Y-95551190D01*
X142708035Y-95527380D01*
X142731845Y-95503571D01*
X142755654Y-95455952D01*
X142755654Y-95051190D01*
X142993750Y-95360714D02*
X143374702Y-95360714D01*
X143184226Y-95551190D02*
X143184226Y-95170238D01*
X155726190Y-93955059D02*
X156130952Y-93955059D01*
X156178571Y-93931250D01*
X156202380Y-93907440D01*
X156226190Y-93859821D01*
X156226190Y-93764583D01*
X156202380Y-93716964D01*
X156178571Y-93693154D01*
X156130952Y-93669345D01*
X155726190Y-93669345D01*
X156035714Y-93431250D02*
X156035714Y-93050297D01*
%TO.C,TP8*%
X135001190Y-129483333D02*
X134763095Y-129650000D01*
X135001190Y-129769047D02*
X134501190Y-129769047D01*
X134501190Y-129578571D01*
X134525000Y-129530952D01*
X134548809Y-129507142D01*
X134596428Y-129483333D01*
X134667857Y-129483333D01*
X134715476Y-129507142D01*
X134739285Y-129530952D01*
X134763095Y-129578571D01*
X134763095Y-129769047D01*
X134501190Y-129316666D02*
X135001190Y-128983333D01*
X134501190Y-128983333D02*
X135001190Y-129316666D01*
X135001190Y-128792857D02*
X134501190Y-128792857D01*
X134501190Y-128673809D01*
X134525000Y-128602380D01*
X134572619Y-128554761D01*
X134620238Y-128530952D01*
X134715476Y-128507142D01*
X134786904Y-128507142D01*
X134882142Y-128530952D01*
X134929761Y-128554761D01*
X134977380Y-128602380D01*
X135001190Y-128673809D01*
X135001190Y-128792857D01*
%TO.C,TP10*%
X160626190Y-137034523D02*
X160126190Y-137034523D01*
X160126190Y-136915476D01*
X160150000Y-136844047D01*
X160197619Y-136796428D01*
X160245238Y-136772619D01*
X160340476Y-136748809D01*
X160411904Y-136748809D01*
X160507142Y-136772619D01*
X160554761Y-136796428D01*
X160602380Y-136844047D01*
X160626190Y-136915476D01*
X160626190Y-137034523D01*
X160126190Y-136605952D02*
X160126190Y-136320238D01*
X160626190Y-136463095D02*
X160126190Y-136463095D01*
X160126190Y-136201190D02*
X160626190Y-135867857D01*
X160126190Y-135867857D02*
X160626190Y-136201190D01*
%TO.C,TP9*%
X160626190Y-131219047D02*
X160126190Y-131219047D01*
X160126190Y-131100000D01*
X160150000Y-131028571D01*
X160197619Y-130980952D01*
X160245238Y-130957142D01*
X160340476Y-130933333D01*
X160411904Y-130933333D01*
X160507142Y-130957142D01*
X160554761Y-130980952D01*
X160602380Y-131028571D01*
X160626190Y-131100000D01*
X160626190Y-131219047D01*
X160626190Y-130433333D02*
X160388095Y-130600000D01*
X160626190Y-130719047D02*
X160126190Y-130719047D01*
X160126190Y-130528571D01*
X160150000Y-130480952D01*
X160173809Y-130457142D01*
X160221428Y-130433333D01*
X160292857Y-130433333D01*
X160340476Y-130457142D01*
X160364285Y-130480952D01*
X160388095Y-130528571D01*
X160388095Y-130719047D01*
X160126190Y-130266666D02*
X160626190Y-129933333D01*
X160126190Y-129933333D02*
X160626190Y-130266666D01*
%TO.C,TP2*%
X132026190Y-115269047D02*
X132026190Y-114959523D01*
X132216666Y-115126190D01*
X132216666Y-115054761D01*
X132240476Y-115007142D01*
X132264285Y-114983333D01*
X132311904Y-114959523D01*
X132430952Y-114959523D01*
X132478571Y-114983333D01*
X132502380Y-115007142D01*
X132526190Y-115054761D01*
X132526190Y-115197619D01*
X132502380Y-115245238D01*
X132478571Y-115269047D01*
X132026190Y-114816666D02*
X132526190Y-114650000D01*
X132026190Y-114483333D01*
X132240476Y-114245238D02*
X132216666Y-114292857D01*
X132192857Y-114316666D01*
X132145238Y-114340476D01*
X132121428Y-114340476D01*
X132073809Y-114316666D01*
X132050000Y-114292857D01*
X132026190Y-114245238D01*
X132026190Y-114150000D01*
X132050000Y-114102380D01*
X132073809Y-114078571D01*
X132121428Y-114054761D01*
X132145238Y-114054761D01*
X132192857Y-114078571D01*
X132216666Y-114102380D01*
X132240476Y-114150000D01*
X132240476Y-114245238D01*
X132264285Y-114292857D01*
X132288095Y-114316666D01*
X132335714Y-114340476D01*
X132430952Y-114340476D01*
X132478571Y-114316666D01*
X132502380Y-114292857D01*
X132526190Y-114245238D01*
X132526190Y-114150000D01*
X132502380Y-114102380D01*
X132478571Y-114078571D01*
X132430952Y-114054761D01*
X132335714Y-114054761D01*
X132288095Y-114078571D01*
X132264285Y-114102380D01*
X132240476Y-114150000D01*
%TO.C,TP7*%
X134501190Y-127580952D02*
X134501190Y-127295238D01*
X135001190Y-127438095D02*
X134501190Y-127438095D01*
X134501190Y-127176190D02*
X135001190Y-126842857D01*
X134501190Y-126842857D02*
X135001190Y-127176190D01*
X135001190Y-126652380D02*
X134501190Y-126652380D01*
X134501190Y-126533333D01*
X134525000Y-126461904D01*
X134572619Y-126414285D01*
X134620238Y-126390476D01*
X134715476Y-126366666D01*
X134786904Y-126366666D01*
X134882142Y-126390476D01*
X134929761Y-126414285D01*
X134977380Y-126461904D01*
X135001190Y-126533333D01*
X135001190Y-126652380D01*
%TO.C,TP1*%
X160364285Y-139853571D02*
X160388095Y-139782142D01*
X160411904Y-139758333D01*
X160459523Y-139734523D01*
X160530952Y-139734523D01*
X160578571Y-139758333D01*
X160602380Y-139782142D01*
X160626190Y-139829761D01*
X160626190Y-140020238D01*
X160126190Y-140020238D01*
X160126190Y-139853571D01*
X160150000Y-139805952D01*
X160173809Y-139782142D01*
X160221428Y-139758333D01*
X160269047Y-139758333D01*
X160316666Y-139782142D01*
X160340476Y-139805952D01*
X160364285Y-139853571D01*
X160364285Y-140020238D01*
X160126190Y-139425000D02*
X160126190Y-139329761D01*
X160150000Y-139282142D01*
X160197619Y-139234523D01*
X160292857Y-139210714D01*
X160459523Y-139210714D01*
X160554761Y-139234523D01*
X160602380Y-139282142D01*
X160626190Y-139329761D01*
X160626190Y-139425000D01*
X160602380Y-139472619D01*
X160554761Y-139520238D01*
X160459523Y-139544047D01*
X160292857Y-139544047D01*
X160197619Y-139520238D01*
X160150000Y-139472619D01*
X160126190Y-139425000D01*
X160126190Y-138901190D02*
X160126190Y-138805952D01*
X160150000Y-138758333D01*
X160197619Y-138710714D01*
X160292857Y-138686904D01*
X160459523Y-138686904D01*
X160554761Y-138710714D01*
X160602380Y-138758333D01*
X160626190Y-138805952D01*
X160626190Y-138901190D01*
X160602380Y-138948809D01*
X160554761Y-138996428D01*
X160459523Y-139020238D01*
X160292857Y-139020238D01*
X160197619Y-138996428D01*
X160150000Y-138948809D01*
X160126190Y-138901190D01*
X160126190Y-138544047D02*
X160126190Y-138258333D01*
X160626190Y-138401190D02*
X160126190Y-138401190D01*
%TO.C,TP3*%
X129350000Y-111930952D02*
X129326190Y-111978571D01*
X129326190Y-112050000D01*
X129350000Y-112121428D01*
X129397619Y-112169047D01*
X129445238Y-112192857D01*
X129540476Y-112216666D01*
X129611904Y-112216666D01*
X129707142Y-112192857D01*
X129754761Y-112169047D01*
X129802380Y-112121428D01*
X129826190Y-112050000D01*
X129826190Y-112002380D01*
X129802380Y-111930952D01*
X129778571Y-111907142D01*
X129611904Y-111907142D01*
X129611904Y-112002380D01*
X129826190Y-111692857D02*
X129326190Y-111692857D01*
X129826190Y-111407142D01*
X129326190Y-111407142D01*
X129826190Y-111169047D02*
X129326190Y-111169047D01*
X129326190Y-111050000D01*
X129350000Y-110978571D01*
X129397619Y-110930952D01*
X129445238Y-110907142D01*
X129540476Y-110883333D01*
X129611904Y-110883333D01*
X129707142Y-110907142D01*
X129754761Y-110930952D01*
X129802380Y-110978571D01*
X129826190Y-111050000D01*
X129826190Y-111169047D01*
D12*
%TO.C,R7*%
X135737258Y-92872500D02*
X135262742Y-92872500D01*
X135737258Y-91827500D02*
X135262742Y-91827500D01*
%TO.C,R10*%
X154277500Y-111862742D02*
X154277500Y-112337258D01*
X155322500Y-111862742D02*
X155322500Y-112337258D01*
D14*
%TO.C,J2*%
X146109000Y-105350000D02*
X149045000Y-105350000D01*
X149045000Y-116550000D02*
X146109000Y-116550000D01*
X135045000Y-105950000D02*
X135045000Y-115950000D01*
X149045000Y-105350000D02*
X149045000Y-106886000D01*
X143442000Y-105350000D02*
X137346000Y-105350000D01*
X137346000Y-116550000D02*
X143442000Y-116550000D01*
X149045000Y-115014000D02*
X149045000Y-116550000D01*
D15*
X149810000Y-106683000D02*
G75*
G03*
X149810000Y-106683000I-120000J0D01*
G01*
D12*
%TO.C,TP8*%
X133925000Y-128450000D02*
X133925000Y-129850000D01*
X133925000Y-129850000D02*
X132525000Y-129850000D01*
X132525000Y-128450000D02*
X133925000Y-128450000D01*
X132525000Y-129850000D02*
X132525000Y-128450000D01*
%TO.C,C13*%
X151610000Y-107040580D02*
X151610000Y-106759420D01*
X150590000Y-107040580D02*
X150590000Y-106759420D01*
%TO.C,TP10*%
X161100000Y-133950000D02*
X161100000Y-135350000D01*
X159700000Y-133950000D02*
X161100000Y-133950000D01*
X161100000Y-135350000D02*
X159700000Y-135350000D01*
X159700000Y-135350000D02*
X159700000Y-133950000D01*
%TO.C,TP9*%
X159700000Y-131750000D02*
X161100000Y-131750000D01*
X159700000Y-133150000D02*
X159700000Y-131750000D01*
X161100000Y-133150000D02*
X159700000Y-133150000D01*
X161100000Y-131750000D02*
X161100000Y-133150000D01*
%TO.C,C16*%
X151709420Y-113490000D02*
X151990580Y-113490000D01*
X151709420Y-114510000D02*
X151990580Y-114510000D01*
%TO.C,TP2*%
X134400000Y-115350000D02*
X133000000Y-115350000D01*
X133000000Y-115350000D02*
X133000000Y-113950000D01*
X134400000Y-113950000D02*
X134400000Y-115350000D01*
X133000000Y-113950000D02*
X134400000Y-113950000D01*
%TO.C,C18*%
X158609420Y-109090000D02*
X158890580Y-109090000D01*
X158609420Y-110110000D02*
X158890580Y-110110000D01*
%TO.C,TP7*%
X132525000Y-127650000D02*
X132525000Y-126250000D01*
X133925000Y-127650000D02*
X132525000Y-127650000D01*
X133925000Y-126250000D02*
X133925000Y-127650000D01*
X132525000Y-126250000D02*
X133925000Y-126250000D01*
%TO.C,U3*%
X138640000Y-92850000D02*
X138640000Y-93650000D01*
X141760000Y-92850000D02*
X141760000Y-93650000D01*
X138640000Y-92850000D02*
X138640000Y-92050000D01*
X141760000Y-92850000D02*
X141760000Y-91050000D01*
%TO.C,R9*%
X151612742Y-115277500D02*
X152087258Y-115277500D01*
X151612742Y-116322500D02*
X152087258Y-116322500D01*
%TO.C,R8*%
X157062742Y-107177500D02*
X157537258Y-107177500D01*
X157062742Y-108222500D02*
X157537258Y-108222500D01*
%TO.C,R12*%
X155312742Y-109077500D02*
X155787258Y-109077500D01*
X155312742Y-110122500D02*
X155787258Y-110122500D01*
%TO.C,J4*%
X160942000Y-90390000D02*
X160942000Y-91450000D01*
X158882000Y-90390000D02*
X158882000Y-92510000D01*
X152822000Y-90390000D02*
X152822000Y-92510000D01*
X158882000Y-90390000D02*
X152822000Y-90390000D01*
X159882000Y-90390000D02*
X160942000Y-90390000D01*
X158882000Y-92510000D02*
X152822000Y-92510000D01*
%TO.C,TP1*%
X159700000Y-140550000D02*
X161100000Y-140550000D01*
X161100000Y-140550000D02*
X161100000Y-141950000D01*
X161100000Y-141950000D02*
X159700000Y-141950000D01*
X159700000Y-141950000D02*
X159700000Y-140550000D01*
%TO.C,R6*%
X135737258Y-91172500D02*
X135262742Y-91172500D01*
X135737258Y-90127500D02*
X135262742Y-90127500D01*
%TO.C,R5*%
X131362742Y-95072500D02*
X131837258Y-95072500D01*
X131362742Y-94027500D02*
X131837258Y-94027500D01*
%TO.C,C15*%
X154290000Y-107040580D02*
X154290000Y-106759420D01*
X155310000Y-107040580D02*
X155310000Y-106759420D01*
%TO.C,G\u002A\u002A\u002A*%
G36*
X131691058Y-140696368D02*
G01*
X131693246Y-140690504D01*
X131963036Y-139967581D01*
X132241048Y-139967581D01*
X132341311Y-139967843D01*
X132414697Y-139968906D01*
X132465584Y-139971185D01*
X132498356Y-139975094D01*
X132517391Y-139981048D01*
X132527072Y-139989464D01*
X132529858Y-139994935D01*
X132537282Y-140014495D01*
X132554588Y-140060497D01*
X132580711Y-140130100D01*
X132614587Y-140220463D01*
X132655152Y-140328746D01*
X132701340Y-140452108D01*
X132752089Y-140587708D01*
X132806333Y-140732705D01*
X132827086Y-140788197D01*
X132882357Y-140935953D01*
X132934530Y-141075364D01*
X132982541Y-141203588D01*
X133025325Y-141317785D01*
X133061817Y-141415113D01*
X133090953Y-141492732D01*
X133111668Y-141547802D01*
X133122896Y-141577480D01*
X133124433Y-141581458D01*
X133126395Y-141591399D01*
X133120390Y-141598597D01*
X133102296Y-141603492D01*
X133067995Y-141606520D01*
X133013364Y-141608122D01*
X132934285Y-141608736D01*
X132867463Y-141608812D01*
X132762810Y-141608188D01*
X132686221Y-141606167D01*
X132634518Y-141602520D01*
X132604527Y-141597024D01*
X132593069Y-141589451D01*
X132593006Y-141589274D01*
X132585589Y-141565500D01*
X132572084Y-141520815D01*
X132555233Y-141464297D01*
X132552898Y-141456412D01*
X132519359Y-141343089D01*
X131949300Y-141343089D01*
X131873126Y-141600997D01*
X131611603Y-141605282D01*
X131350081Y-141609568D01*
X131386769Y-141511498D01*
X131399557Y-141477279D01*
X131422036Y-141417089D01*
X131452967Y-141334247D01*
X131491112Y-141232069D01*
X131535232Y-141113874D01*
X131584089Y-140982981D01*
X131589771Y-140967758D01*
X132069112Y-140967758D01*
X132084133Y-140974996D01*
X132126851Y-140980219D01*
X132193746Y-140983104D01*
X132242723Y-140983581D01*
X132321733Y-140982728D01*
X132373324Y-140979869D01*
X132401301Y-140974558D01*
X132409468Y-140966347D01*
X132408960Y-140964043D01*
X132402072Y-140943054D01*
X132387800Y-140897679D01*
X132367864Y-140833443D01*
X132343979Y-140755866D01*
X132327554Y-140702228D01*
X132301815Y-140618957D01*
X132278550Y-140545478D01*
X132259559Y-140487337D01*
X132246642Y-140450083D01*
X132242427Y-140439824D01*
X132235458Y-140448810D01*
X132221349Y-140482217D01*
X132201913Y-140534515D01*
X132178968Y-140600176D01*
X132154329Y-140673669D01*
X132129810Y-140749465D01*
X132107227Y-140822034D01*
X132088395Y-140885846D01*
X132075130Y-140935371D01*
X132069247Y-140965080D01*
X132069112Y-140967758D01*
X131589771Y-140967758D01*
X131636444Y-140842706D01*
X131691058Y-140696368D01*
G37*
G36*
X130212958Y-139936551D02*
G01*
X130380905Y-139937319D01*
X130521266Y-139939968D01*
X130637698Y-139945283D01*
X130733858Y-139954049D01*
X130813401Y-139967051D01*
X130879986Y-139985073D01*
X130937268Y-140008902D01*
X130988904Y-140039322D01*
X131038550Y-140077119D01*
X131089864Y-140123076D01*
X131092248Y-140125328D01*
X131173541Y-140218500D01*
X131235336Y-140327257D01*
X131279021Y-140455088D01*
X131305985Y-140605479D01*
X131312890Y-140679426D01*
X131314344Y-140861615D01*
X131291477Y-141025388D01*
X131244445Y-141170240D01*
X131173407Y-141295666D01*
X131092302Y-141388492D01*
X131040136Y-141434794D01*
X130988272Y-141472978D01*
X130933113Y-141503803D01*
X130871062Y-141528028D01*
X130798523Y-141546411D01*
X130711897Y-141559712D01*
X130607588Y-141568690D01*
X130481999Y-141574102D01*
X130331533Y-141576708D01*
X130197327Y-141577279D01*
X129740127Y-141577551D01*
X129740127Y-141202412D01*
X130271574Y-141202412D01*
X130371040Y-141202412D01*
X130441501Y-141199653D01*
X130514909Y-141192574D01*
X130554073Y-141186564D01*
X130631096Y-141162540D01*
X130690408Y-141121502D01*
X130733409Y-141060874D01*
X130761497Y-140978083D01*
X130776070Y-140870554D01*
X130778973Y-140772566D01*
X130775675Y-140659932D01*
X130765422Y-140572275D01*
X130746656Y-140503783D01*
X130717824Y-140448642D01*
X130680379Y-140404013D01*
X130618133Y-140358161D01*
X130537458Y-140328408D01*
X130434494Y-140313623D01*
X130364589Y-140311458D01*
X130271574Y-140311458D01*
X130271574Y-141202412D01*
X129740127Y-141202412D01*
X129740127Y-139936320D01*
X130212958Y-139936551D01*
G37*
G36*
X131381358Y-143484504D02*
G01*
X130990965Y-143484504D01*
X130986869Y-142897595D01*
X130982774Y-142310686D01*
X130859169Y-142846795D01*
X130829802Y-142973902D01*
X130802126Y-143093179D01*
X130777054Y-143200737D01*
X130755496Y-143292683D01*
X130738364Y-143365129D01*
X130726571Y-143414182D01*
X130721526Y-143434208D01*
X130707488Y-143485512D01*
X130533979Y-143481100D01*
X130360470Y-143476689D01*
X130091820Y-142312865D01*
X130087724Y-142898684D01*
X130083628Y-143484504D01*
X129693235Y-143484504D01*
X129693235Y-141842613D01*
X130310025Y-141851089D01*
X130419571Y-142323920D01*
X130446848Y-142440476D01*
X130472207Y-142546594D01*
X130494732Y-142638612D01*
X130513504Y-142712865D01*
X130527608Y-142765691D01*
X130536126Y-142793425D01*
X130537942Y-142796751D01*
X130543485Y-142782115D01*
X130555004Y-142740651D01*
X130571589Y-142676026D01*
X130592327Y-142591903D01*
X130616306Y-142491949D01*
X130642616Y-142379829D01*
X130655540Y-142323920D01*
X130764313Y-141851089D01*
X131072835Y-141846851D01*
X131381358Y-141842613D01*
X131381358Y-143484504D01*
G37*
G36*
X131526512Y-142501608D02*
G01*
X131552908Y-142361320D01*
X131598799Y-142238246D01*
X131665865Y-142127605D01*
X131734887Y-142045882D01*
X131788006Y-141995541D01*
X131846062Y-141948688D01*
X131896029Y-141915744D01*
X132020981Y-141863155D01*
X132163699Y-141829112D01*
X132316669Y-141813774D01*
X132472376Y-141817296D01*
X132623304Y-141839839D01*
X132761939Y-141881558D01*
X132797756Y-141896801D01*
X132884265Y-141948385D01*
X132970903Y-142020785D01*
X133048463Y-142104979D01*
X133107738Y-142191948D01*
X133116851Y-142209413D01*
X133165428Y-142330704D01*
X133195013Y-142460992D01*
X133206765Y-142606968D01*
X133205163Y-142718597D01*
X133191739Y-142870601D01*
X133165063Y-142998855D01*
X133122965Y-143108840D01*
X133063273Y-143206036D01*
X132983817Y-143295926D01*
X132971999Y-143307289D01*
X132869666Y-143389523D01*
X132757960Y-143449670D01*
X132632307Y-143489267D01*
X132488137Y-143509850D01*
X132358281Y-143513681D01*
X132288254Y-143512388D01*
X132227456Y-143510169D01*
X132184387Y-143507390D01*
X132170712Y-143505629D01*
X132025988Y-143467365D01*
X131905851Y-143417010D01*
X131805127Y-143352037D01*
X131744429Y-143297554D01*
X131653825Y-143187417D01*
X131587139Y-143064110D01*
X131543291Y-142924611D01*
X131521202Y-142765902D01*
X131518269Y-142674334D01*
X132029184Y-142674334D01*
X132033293Y-142773748D01*
X132044359Y-142861439D01*
X132057907Y-142915163D01*
X132104205Y-143005307D01*
X132170701Y-143073743D01*
X132253234Y-143118355D01*
X132347644Y-143137032D01*
X132449771Y-143127657D01*
X132467344Y-143123193D01*
X132541840Y-143087125D01*
X132605958Y-143026106D01*
X132654304Y-142946050D01*
X132671124Y-142899881D01*
X132685814Y-142824860D01*
X132693189Y-142732930D01*
X132693574Y-142633337D01*
X132687293Y-142535326D01*
X132674670Y-142448141D01*
X132656031Y-142381028D01*
X132652628Y-142373024D01*
X132600271Y-142293519D01*
X132526023Y-142235911D01*
X132431342Y-142201319D01*
X132426575Y-142200311D01*
X132326745Y-142194375D01*
X132235050Y-142216996D01*
X132155812Y-142265701D01*
X132093352Y-142338018D01*
X132058488Y-142410866D01*
X132041794Y-142482382D01*
X132032022Y-142573709D01*
X132029184Y-142674334D01*
X131518269Y-142674334D01*
X131517934Y-142663889D01*
X131526512Y-142501608D01*
G37*
%TO.C,Q1*%
X133210000Y-91700000D02*
X133210000Y-92350000D01*
X130090000Y-91700000D02*
X130090000Y-92350000D01*
X133210000Y-91700000D02*
X133210000Y-90025000D01*
X130090000Y-91700000D02*
X130090000Y-91050000D01*
%TO.C,TP3*%
X130350000Y-112250000D02*
X130350000Y-110850000D01*
X131750000Y-110850000D02*
X131750000Y-112250000D01*
X131750000Y-112250000D02*
X130350000Y-112250000D01*
X130350000Y-110850000D02*
X131750000Y-110850000D01*
%TO.C,C4*%
X153510000Y-107040580D02*
X153510000Y-106759420D01*
X152490000Y-107040580D02*
X152490000Y-106759420D01*
%TO.C,D4*%
X150485000Y-110900000D02*
X150485000Y-111700000D01*
X150485000Y-110900000D02*
X150485000Y-110100000D01*
X153605000Y-110900000D02*
X153605000Y-109100000D01*
X153605000Y-110900000D02*
X153605000Y-111700000D01*
%TD*%
%LPC*%
G36*
X141100000Y-96050000D02*
G01*
X124800000Y-96050000D01*
X124800000Y-98700000D01*
X141100000Y-98700000D01*
X141100000Y-96050000D01*
G37*
G36*
X141100000Y-101300000D02*
G01*
X136500000Y-101300000D01*
X136500000Y-103900000D01*
X141100000Y-103900000D01*
X141100000Y-101300000D01*
G37*
G36*
X153700000Y-101300000D02*
G01*
X146500000Y-101300000D01*
X146500000Y-103900000D01*
X153700000Y-103900000D01*
X153700000Y-101300000D01*
G37*
G36*
X166000000Y-109500000D02*
G01*
X164100000Y-109500000D01*
X164100000Y-100800000D01*
X166000000Y-100800000D01*
X166000000Y-109500000D01*
G37*
D16*
G36*
X143700000Y-102600000D02*
G01*
X142700000Y-102600000D01*
X142700000Y-103900000D01*
X141900000Y-103900000D01*
X141900000Y-101300000D01*
X143700000Y-101300000D01*
X143700000Y-102600000D01*
G37*
G36*
X163600000Y-101300000D02*
G01*
X156400000Y-101300000D01*
X156400000Y-103900000D01*
X163600000Y-103900000D01*
X163600000Y-101300000D01*
G37*
G36*
X133700000Y-101325000D02*
G01*
X126500000Y-101325000D01*
X126500000Y-103900000D01*
X133700000Y-103900000D01*
X133700000Y-101325000D01*
G37*
G36*
X126000000Y-109625000D02*
G01*
X124000000Y-109625000D01*
X124000000Y-100425000D01*
X126000000Y-100425000D01*
X126000000Y-109625000D01*
G37*
G36*
X164800000Y-96050000D02*
G01*
X141900000Y-96050000D01*
X141900000Y-98700000D01*
X164800000Y-98700000D01*
X164800000Y-96050000D01*
G37*
D12*
%TO.C,U2*%
X154144000Y-127839500D02*
X152239000Y-127839500D01*
X152239000Y-127839500D02*
X152239000Y-130760500D01*
X152239000Y-130760500D02*
X154144000Y-130760500D01*
X154144000Y-130760500D02*
X154144000Y-127839500D01*
G36*
X154144000Y-127839500D02*
G01*
X152239000Y-127839500D01*
X152239000Y-130760500D01*
X154144000Y-130760500D01*
X154144000Y-127839500D01*
G37*
X144365000Y-137491500D02*
X142460000Y-137491500D01*
X142460000Y-137491500D02*
X142460000Y-140412500D01*
X142460000Y-140412500D02*
X144365000Y-140412500D01*
X144365000Y-140412500D02*
X144365000Y-137491500D01*
G36*
X144365000Y-137491500D02*
G01*
X142460000Y-137491500D01*
X142460000Y-140412500D01*
X144365000Y-140412500D01*
X144365000Y-137491500D01*
G37*
X137761000Y-118187500D02*
X135856000Y-118187500D01*
X135856000Y-118187500D02*
X135856000Y-121108500D01*
X135856000Y-121108500D02*
X137761000Y-121108500D01*
X137761000Y-121108500D02*
X137761000Y-118187500D01*
G36*
X137761000Y-118187500D02*
G01*
X135856000Y-118187500D01*
X135856000Y-121108500D01*
X137761000Y-121108500D01*
X137761000Y-118187500D01*
G37*
X137761000Y-127839500D02*
X135856000Y-127839500D01*
X135856000Y-127839500D02*
X135856000Y-130760500D01*
X135856000Y-130760500D02*
X137761000Y-130760500D01*
X137761000Y-130760500D02*
X137761000Y-127839500D01*
G36*
X137761000Y-127839500D02*
G01*
X135856000Y-127839500D01*
X135856000Y-130760500D01*
X137761000Y-130760500D01*
X137761000Y-127839500D01*
G37*
X144365000Y-123013500D02*
X142460000Y-123013500D01*
X142460000Y-123013500D02*
X142460000Y-125934500D01*
X142460000Y-125934500D02*
X144365000Y-125934500D01*
X144365000Y-125934500D02*
X144365000Y-123013500D01*
G36*
X144365000Y-123013500D02*
G01*
X142460000Y-123013500D01*
X142460000Y-125934500D01*
X144365000Y-125934500D01*
X144365000Y-123013500D01*
G37*
X144365000Y-118187500D02*
X142460000Y-118187500D01*
X142460000Y-118187500D02*
X142460000Y-121108500D01*
X142460000Y-121108500D02*
X144365000Y-121108500D01*
X144365000Y-121108500D02*
X144365000Y-118187500D01*
G36*
X144365000Y-118187500D02*
G01*
X142460000Y-118187500D01*
X142460000Y-121108500D01*
X144365000Y-121108500D01*
X144365000Y-118187500D01*
G37*
X147540000Y-118187500D02*
X145635000Y-118187500D01*
X145635000Y-118187500D02*
X145635000Y-121108500D01*
X145635000Y-121108500D02*
X147540000Y-121108500D01*
X147540000Y-121108500D02*
X147540000Y-118187500D01*
G36*
X147540000Y-118187500D02*
G01*
X145635000Y-118187500D01*
X145635000Y-121108500D01*
X147540000Y-121108500D01*
X147540000Y-118187500D01*
G37*
X140936000Y-118187500D02*
X139031000Y-118187500D01*
X139031000Y-118187500D02*
X139031000Y-121108500D01*
X139031000Y-121108500D02*
X140936000Y-121108500D01*
X140936000Y-121108500D02*
X140936000Y-118187500D01*
G36*
X140936000Y-118187500D02*
G01*
X139031000Y-118187500D01*
X139031000Y-121108500D01*
X140936000Y-121108500D01*
X140936000Y-118187500D01*
G37*
X150969000Y-137491500D02*
X149064000Y-137491500D01*
X149064000Y-137491500D02*
X149064000Y-140412500D01*
X149064000Y-140412500D02*
X150969000Y-140412500D01*
X150969000Y-140412500D02*
X150969000Y-137491500D01*
G36*
X150969000Y-137491500D02*
G01*
X149064000Y-137491500D01*
X149064000Y-140412500D01*
X150969000Y-140412500D01*
X150969000Y-137491500D01*
G37*
X140936000Y-132665500D02*
X139031000Y-132665500D01*
X139031000Y-132665500D02*
X139031000Y-135586500D01*
X139031000Y-135586500D02*
X140936000Y-135586500D01*
X140936000Y-135586500D02*
X140936000Y-132665500D01*
G36*
X140936000Y-132665500D02*
G01*
X139031000Y-132665500D01*
X139031000Y-135586500D01*
X140936000Y-135586500D01*
X140936000Y-132665500D01*
G37*
X154144000Y-132665500D02*
X152239000Y-132665500D01*
X152239000Y-132665500D02*
X152239000Y-135586500D01*
X152239000Y-135586500D02*
X154144000Y-135586500D01*
X154144000Y-135586500D02*
X154144000Y-132665500D01*
G36*
X154144000Y-132665500D02*
G01*
X152239000Y-132665500D01*
X152239000Y-135586500D01*
X154144000Y-135586500D01*
X154144000Y-132665500D01*
G37*
X140936000Y-123013500D02*
X139031000Y-123013500D01*
X139031000Y-123013500D02*
X139031000Y-125934500D01*
X139031000Y-125934500D02*
X140936000Y-125934500D01*
X140936000Y-125934500D02*
X140936000Y-123013500D01*
G36*
X140936000Y-123013500D02*
G01*
X139031000Y-123013500D01*
X139031000Y-125934500D01*
X140936000Y-125934500D01*
X140936000Y-123013500D01*
G37*
X154144000Y-137491500D02*
X152239000Y-137491500D01*
X152239000Y-137491500D02*
X152239000Y-140412500D01*
X152239000Y-140412500D02*
X154144000Y-140412500D01*
X154144000Y-140412500D02*
X154144000Y-137491500D01*
G36*
X154144000Y-137491500D02*
G01*
X152239000Y-137491500D01*
X152239000Y-140412500D01*
X154144000Y-140412500D01*
X154144000Y-137491500D01*
G37*
X144365000Y-132665500D02*
X142460000Y-132665500D01*
X142460000Y-132665500D02*
X142460000Y-135586500D01*
X142460000Y-135586500D02*
X144365000Y-135586500D01*
X144365000Y-135586500D02*
X144365000Y-132665500D01*
G36*
X144365000Y-132665500D02*
G01*
X142460000Y-132665500D01*
X142460000Y-135586500D01*
X144365000Y-135586500D01*
X144365000Y-132665500D01*
G37*
X150969000Y-118187500D02*
X149064000Y-118187500D01*
X149064000Y-118187500D02*
X149064000Y-121108500D01*
X149064000Y-121108500D02*
X150969000Y-121108500D01*
X150969000Y-121108500D02*
X150969000Y-118187500D01*
G36*
X150969000Y-118187500D02*
G01*
X149064000Y-118187500D01*
X149064000Y-121108500D01*
X150969000Y-121108500D01*
X150969000Y-118187500D01*
G37*
X150969000Y-123013500D02*
X149064000Y-123013500D01*
X149064000Y-123013500D02*
X149064000Y-125934500D01*
X149064000Y-125934500D02*
X150969000Y-125934500D01*
X150969000Y-125934500D02*
X150969000Y-123013500D01*
G36*
X150969000Y-123013500D02*
G01*
X149064000Y-123013500D01*
X149064000Y-125934500D01*
X150969000Y-125934500D01*
X150969000Y-123013500D01*
G37*
X140936000Y-137491500D02*
X139031000Y-137491500D01*
X139031000Y-137491500D02*
X139031000Y-140412500D01*
X139031000Y-140412500D02*
X140936000Y-140412500D01*
X140936000Y-140412500D02*
X140936000Y-137491500D01*
G36*
X140936000Y-137491500D02*
G01*
X139031000Y-137491500D01*
X139031000Y-140412500D01*
X140936000Y-140412500D01*
X140936000Y-137491500D01*
G37*
X140936000Y-127839500D02*
X139031000Y-127839500D01*
X139031000Y-127839500D02*
X139031000Y-130760500D01*
X139031000Y-130760500D02*
X140936000Y-130760500D01*
X140936000Y-130760500D02*
X140936000Y-127839500D01*
G36*
X140936000Y-127839500D02*
G01*
X139031000Y-127839500D01*
X139031000Y-130760500D01*
X140936000Y-130760500D01*
X140936000Y-127839500D01*
G37*
X137761000Y-123013500D02*
X135856000Y-123013500D01*
X135856000Y-123013500D02*
X135856000Y-125934500D01*
X135856000Y-125934500D02*
X137761000Y-125934500D01*
X137761000Y-125934500D02*
X137761000Y-123013500D01*
G36*
X137761000Y-123013500D02*
G01*
X135856000Y-123013500D01*
X135856000Y-125934500D01*
X137761000Y-125934500D01*
X137761000Y-123013500D01*
G37*
X154144000Y-118187500D02*
X152239000Y-118187500D01*
X152239000Y-118187500D02*
X152239000Y-121108500D01*
X152239000Y-121108500D02*
X154144000Y-121108500D01*
X154144000Y-121108500D02*
X154144000Y-118187500D01*
G36*
X154144000Y-118187500D02*
G01*
X152239000Y-118187500D01*
X152239000Y-121108500D01*
X154144000Y-121108500D01*
X154144000Y-118187500D01*
G37*
X137761000Y-132665500D02*
X135856000Y-132665500D01*
X135856000Y-132665500D02*
X135856000Y-135586500D01*
X135856000Y-135586500D02*
X137761000Y-135586500D01*
X137761000Y-135586500D02*
X137761000Y-132665500D01*
G36*
X137761000Y-132665500D02*
G01*
X135856000Y-132665500D01*
X135856000Y-135586500D01*
X137761000Y-135586500D01*
X137761000Y-132665500D01*
G37*
X147540000Y-132665500D02*
X145635000Y-132665500D01*
X145635000Y-132665500D02*
X145635000Y-135586500D01*
X145635000Y-135586500D02*
X147540000Y-135586500D01*
X147540000Y-135586500D02*
X147540000Y-132665500D01*
G36*
X147540000Y-132665500D02*
G01*
X145635000Y-132665500D01*
X145635000Y-135586500D01*
X147540000Y-135586500D01*
X147540000Y-132665500D01*
G37*
X150969000Y-132665500D02*
X149064000Y-132665500D01*
X149064000Y-132665500D02*
X149064000Y-135586500D01*
X149064000Y-135586500D02*
X150969000Y-135586500D01*
X150969000Y-135586500D02*
X150969000Y-132665500D01*
G36*
X150969000Y-132665500D02*
G01*
X149064000Y-132665500D01*
X149064000Y-135586500D01*
X150969000Y-135586500D01*
X150969000Y-132665500D01*
G37*
X137761000Y-137491500D02*
X135856000Y-137491500D01*
X135856000Y-137491500D02*
X135856000Y-140412500D01*
X135856000Y-140412500D02*
X137761000Y-140412500D01*
X137761000Y-140412500D02*
X137761000Y-137491500D01*
G36*
X137761000Y-137491500D02*
G01*
X135856000Y-137491500D01*
X135856000Y-140412500D01*
X137761000Y-140412500D01*
X137761000Y-137491500D01*
G37*
X154144000Y-123013500D02*
X152239000Y-123013500D01*
X152239000Y-123013500D02*
X152239000Y-125934500D01*
X152239000Y-125934500D02*
X154144000Y-125934500D01*
X154144000Y-125934500D02*
X154144000Y-123013500D01*
G36*
X154144000Y-123013500D02*
G01*
X152239000Y-123013500D01*
X152239000Y-125934500D01*
X154144000Y-125934500D01*
X154144000Y-123013500D01*
G37*
X150969000Y-127839500D02*
X149064000Y-127839500D01*
X149064000Y-127839500D02*
X149064000Y-130760500D01*
X149064000Y-130760500D02*
X150969000Y-130760500D01*
X150969000Y-130760500D02*
X150969000Y-127839500D01*
G36*
X150969000Y-127839500D02*
G01*
X149064000Y-127839500D01*
X149064000Y-130760500D01*
X150969000Y-130760500D01*
X150969000Y-127839500D01*
G37*
X147540000Y-123013500D02*
X145635000Y-123013500D01*
X145635000Y-123013500D02*
X145635000Y-125934500D01*
X145635000Y-125934500D02*
X147540000Y-125934500D01*
X147540000Y-125934500D02*
X147540000Y-123013500D01*
G36*
X147540000Y-123013500D02*
G01*
X145635000Y-123013500D01*
X145635000Y-125934500D01*
X147540000Y-125934500D01*
X147540000Y-123013500D01*
G37*
X147540000Y-137491500D02*
X145635000Y-137491500D01*
X145635000Y-137491500D02*
X145635000Y-140412500D01*
X145635000Y-140412500D02*
X147540000Y-140412500D01*
X147540000Y-140412500D02*
X147540000Y-137491500D01*
G36*
X147540000Y-137491500D02*
G01*
X145635000Y-137491500D01*
X145635000Y-140412500D01*
X147540000Y-140412500D01*
X147540000Y-137491500D01*
G37*
%TD*%
D17*
%TO.C,R7*%
X136325000Y-92350000D03*
X134675000Y-92350000D03*
%TD*%
D18*
%TO.C,R10*%
X154800000Y-111275000D03*
X154800000Y-112925000D03*
%TD*%
D19*
%TO.C,J2*%
X148845000Y-107775000D03*
X148845000Y-110315000D03*
X148845000Y-112855000D03*
X148845000Y-109045000D03*
X148845000Y-111585000D03*
X148845000Y-114125000D03*
D20*
X144745000Y-104800000D03*
X144745000Y-117100000D03*
X135945000Y-117100000D03*
X135945000Y-104800000D03*
%TD*%
D21*
%TO.C,REF\u002A\u002A*%
X145100000Y-92800000D03*
%TD*%
D22*
%TO.C,TP8*%
X133225000Y-129150000D03*
%TD*%
D23*
%TO.C,C13*%
X151100000Y-107675000D03*
X151100000Y-106125000D03*
%TD*%
D22*
%TO.C,TP10*%
X160400000Y-134650000D03*
%TD*%
%TO.C,TP9*%
X160400000Y-132450000D03*
%TD*%
D24*
%TO.C,C16*%
X151075000Y-114000000D03*
X152625000Y-114000000D03*
%TD*%
D22*
%TO.C,TP2*%
X133700000Y-114650000D03*
%TD*%
D24*
%TO.C,C18*%
X157975000Y-109600000D03*
X159525000Y-109600000D03*
%TD*%
D22*
%TO.C,TP7*%
X133225000Y-126950000D03*
%TD*%
D25*
%TO.C,U3*%
X141150000Y-91712500D03*
X140200000Y-91712500D03*
X139250000Y-91712500D03*
X139250000Y-93987500D03*
X140200000Y-93987500D03*
X141150000Y-93987500D03*
%TD*%
D26*
%TO.C,R9*%
X151025000Y-115800000D03*
X152675000Y-115800000D03*
%TD*%
%TO.C,R8*%
X156475000Y-107700000D03*
X158125000Y-107700000D03*
%TD*%
%TO.C,R12*%
X154725000Y-109600000D03*
X156375000Y-109600000D03*
%TD*%
D27*
%TO.C,J4*%
X159882000Y-91450000D03*
D28*
X157882000Y-91450000D03*
X155882000Y-91450000D03*
X153882000Y-91450000D03*
%TD*%
D22*
%TO.C,TP1*%
X160400000Y-141250000D03*
%TD*%
D17*
%TO.C,R6*%
X136325000Y-90650000D03*
X134675000Y-90650000D03*
%TD*%
D26*
%TO.C,R5*%
X130775000Y-94550000D03*
X132425000Y-94550000D03*
%TD*%
D23*
%TO.C,C15*%
X154800000Y-107675000D03*
X154800000Y-106125000D03*
%TD*%
D29*
%TO.C,Q1*%
X132600000Y-90762500D03*
X130700000Y-90762500D03*
X131650000Y-92637500D03*
%TD*%
D22*
%TO.C,TP3*%
X131050000Y-111550000D03*
%TD*%
D23*
%TO.C,C4*%
X153000000Y-107675000D03*
X153000000Y-106125000D03*
%TD*%
D25*
%TO.C,D4*%
X152995000Y-109762500D03*
X152045000Y-109762500D03*
X151095000Y-109762500D03*
X151095000Y-112037500D03*
X152045000Y-112037500D03*
X152995000Y-112037500D03*
%TD*%
M02*
